G04 #@! TF.GenerationSoftware,KiCad,Pcbnew,(5.1.0-0)*
G04 #@! TF.CreationDate,2020-06-30T09:10:09+01:00*
G04 #@! TF.ProjectId,Display,44697370-6c61-4792-9e6b-696361645f70,rev?*
G04 #@! TF.SameCoordinates,Original*
G04 #@! TF.FileFunction,Copper,L2,Bot*
G04 #@! TF.FilePolarity,Positive*
%FSLAX46Y46*%
G04 Gerber Fmt 4.6, Leading zero omitted, Abs format (unit mm)*
G04 Created by KiCad (PCBNEW (5.1.0-0)) date 2020-06-30 09:10:09*
%MOMM*%
%LPD*%
G04 APERTURE LIST*
%ADD10C,1.600000*%
%ADD11R,1.600000X1.600000*%
%ADD12R,1.700000X1.700000*%
%ADD13O,1.700000X1.700000*%
%ADD14C,0.800000*%
%ADD15C,0.250000*%
%ADD16C,0.254000*%
G04 APERTURE END LIST*
D10*
X187080000Y-75000000D03*
X187080000Y-77540000D03*
X187080000Y-80080000D03*
X187080000Y-82620000D03*
X187080000Y-85160000D03*
X182000000Y-85160000D03*
X182000000Y-82620000D03*
X182000000Y-80080000D03*
X182000000Y-77540000D03*
D11*
X182000000Y-75000000D03*
D12*
X176000000Y-89000000D03*
D13*
X178540000Y-89000000D03*
X181080000Y-89000000D03*
X183620000Y-89000000D03*
D11*
X174000000Y-62000000D03*
D10*
X174000000Y-64540000D03*
X174000000Y-67080000D03*
X174000000Y-69620000D03*
X174000000Y-72160000D03*
X179080000Y-72160000D03*
X179080000Y-69620000D03*
X179080000Y-67080000D03*
X179080000Y-64540000D03*
X179080000Y-62000000D03*
X187080000Y-62000000D03*
X187080000Y-64540000D03*
X187080000Y-67080000D03*
X187080000Y-69620000D03*
X187080000Y-72160000D03*
X182000000Y-72160000D03*
X182000000Y-69620000D03*
X182000000Y-67080000D03*
X182000000Y-64540000D03*
D11*
X182000000Y-62000000D03*
X190000000Y-62000000D03*
D10*
X190000000Y-64540000D03*
X190000000Y-67080000D03*
X190000000Y-69620000D03*
X190000000Y-72160000D03*
X195080000Y-72160000D03*
X195080000Y-69620000D03*
X195080000Y-67080000D03*
X195080000Y-64540000D03*
X195080000Y-62000000D03*
X203080000Y-62000000D03*
X203080000Y-64540000D03*
X203080000Y-67080000D03*
X203080000Y-69620000D03*
X203080000Y-72160000D03*
X198000000Y-72160000D03*
X198000000Y-69620000D03*
X198000000Y-67080000D03*
X198000000Y-64540000D03*
D11*
X198000000Y-62000000D03*
X206000000Y-62000000D03*
D10*
X206000000Y-64540000D03*
X206000000Y-67080000D03*
X206000000Y-69620000D03*
X206000000Y-72160000D03*
X211080000Y-72160000D03*
X211080000Y-69620000D03*
X211080000Y-67080000D03*
X211080000Y-64540000D03*
X211080000Y-62000000D03*
X219080000Y-62000000D03*
X219080000Y-64540000D03*
X219080000Y-67080000D03*
X219080000Y-69620000D03*
X219080000Y-72160000D03*
X214000000Y-72160000D03*
X214000000Y-69620000D03*
X214000000Y-67080000D03*
X214000000Y-64540000D03*
D11*
X214000000Y-62000000D03*
X222000000Y-62000000D03*
D10*
X222000000Y-64540000D03*
X222000000Y-67080000D03*
X222000000Y-69620000D03*
X222000000Y-72160000D03*
X227080000Y-72160000D03*
X227080000Y-69620000D03*
X227080000Y-67080000D03*
X227080000Y-64540000D03*
X227080000Y-62000000D03*
X235080000Y-62000000D03*
X235080000Y-64540000D03*
X235080000Y-67080000D03*
X235080000Y-69620000D03*
X235080000Y-72160000D03*
X230000000Y-72160000D03*
X230000000Y-69620000D03*
X230000000Y-67080000D03*
X230000000Y-64540000D03*
D11*
X230000000Y-62000000D03*
X174000000Y-75000000D03*
D10*
X174000000Y-77540000D03*
X174000000Y-80080000D03*
X174000000Y-82620000D03*
X174000000Y-85160000D03*
X179080000Y-85160000D03*
X179080000Y-82620000D03*
X179080000Y-80080000D03*
X179080000Y-77540000D03*
X179080000Y-75000000D03*
D11*
X190000000Y-75000000D03*
D10*
X190000000Y-77540000D03*
X190000000Y-80080000D03*
X190000000Y-82620000D03*
X190000000Y-85160000D03*
X195080000Y-85160000D03*
X195080000Y-82620000D03*
X195080000Y-80080000D03*
X195080000Y-77540000D03*
X195080000Y-75000000D03*
X203080000Y-75000000D03*
X203080000Y-77540000D03*
X203080000Y-80080000D03*
X203080000Y-82620000D03*
X203080000Y-85160000D03*
X198000000Y-85160000D03*
X198000000Y-82620000D03*
X198000000Y-80080000D03*
X198000000Y-77540000D03*
D11*
X198000000Y-75000000D03*
X206000000Y-75000000D03*
D10*
X206000000Y-77540000D03*
X206000000Y-80080000D03*
X206000000Y-82620000D03*
X206000000Y-85160000D03*
X211080000Y-85160000D03*
X211080000Y-82620000D03*
X211080000Y-80080000D03*
X211080000Y-77540000D03*
X211080000Y-75000000D03*
X219080000Y-75000000D03*
X219080000Y-77540000D03*
X219080000Y-80080000D03*
X219080000Y-82620000D03*
X219080000Y-85160000D03*
X214000000Y-85160000D03*
X214000000Y-82620000D03*
X214000000Y-80080000D03*
X214000000Y-77540000D03*
D11*
X214000000Y-75000000D03*
X222000000Y-75000000D03*
D10*
X222000000Y-77540000D03*
X222000000Y-80080000D03*
X222000000Y-82620000D03*
X222000000Y-85160000D03*
X227080000Y-85160000D03*
X227080000Y-82620000D03*
X227080000Y-80080000D03*
X227080000Y-77540000D03*
X227080000Y-75000000D03*
X235080000Y-75000000D03*
X235080000Y-77540000D03*
X235080000Y-80080000D03*
X235080000Y-82620000D03*
X235080000Y-85160000D03*
X230000000Y-85160000D03*
X230000000Y-82620000D03*
X230000000Y-80080000D03*
X230000000Y-77540000D03*
D11*
X230000000Y-75000000D03*
D14*
X178499000Y-90630000D03*
X182220000Y-90560000D03*
X183610000Y-94350000D03*
X185330000Y-89800000D03*
X185330000Y-91800000D03*
X194790000Y-91490000D03*
X197300000Y-91320000D03*
X221060000Y-96610000D03*
X212210000Y-88400000D03*
X206180000Y-87740000D03*
X182810000Y-59810000D03*
X179630000Y-59560000D03*
X187650000Y-59860000D03*
X196170000Y-60000000D03*
X201030000Y-61370000D03*
X209000000Y-61800000D03*
X175275000Y-90750000D03*
X176725000Y-90660000D03*
X182360000Y-87099999D03*
X196460000Y-85860000D03*
X191180000Y-85994998D03*
X188486616Y-85837394D03*
X182899999Y-86560000D03*
X187440000Y-89920000D03*
X223798487Y-95665000D03*
X223775000Y-92700031D03*
X233414998Y-77540000D03*
X187450000Y-94050000D03*
X232545011Y-79390001D03*
X188710000Y-89940000D03*
X226791519Y-92757535D03*
X226754913Y-89764137D03*
X175850001Y-82220000D03*
X190000000Y-90000000D03*
X175430000Y-85140000D03*
X188710000Y-94040000D03*
X221890000Y-93960000D03*
X222000000Y-88710000D03*
X177730000Y-82620000D03*
X191250000Y-90030000D03*
X225989032Y-93490000D03*
X225990000Y-89120000D03*
X177229999Y-80769999D03*
X192530000Y-89970000D03*
X224517719Y-94940000D03*
X224520000Y-88810000D03*
X176779989Y-78229999D03*
X223050000Y-88880000D03*
X223060000Y-96390000D03*
X176329979Y-75689999D03*
X193528200Y-90030001D03*
X212330000Y-97280020D03*
X198875000Y-96507500D03*
X207960000Y-96555020D03*
X200145000Y-96507500D03*
X186455001Y-93314999D03*
X186390000Y-88250000D03*
X195790000Y-89120000D03*
X194340000Y-89220000D03*
D15*
X182150000Y-90630000D02*
X182220000Y-90560000D01*
X178499000Y-90630000D02*
X182150000Y-90630000D01*
X183620000Y-94340000D02*
X183610000Y-94350000D01*
X183620000Y-89000000D02*
X183620000Y-94340000D01*
X185330000Y-89800000D02*
X185330000Y-91800000D01*
X197130000Y-91490000D02*
X197300000Y-91320000D01*
X194790000Y-91490000D02*
X197130000Y-91490000D01*
X176635000Y-90750000D02*
X176725000Y-90660000D01*
X175275000Y-90750000D02*
X176635000Y-90750000D01*
X193435660Y-86771338D02*
X193224322Y-86560000D01*
X193224322Y-86560000D02*
X191650000Y-86560000D01*
X180440001Y-87099999D02*
X178540000Y-89000000D01*
X182360000Y-87099999D02*
X180440001Y-87099999D01*
X196060001Y-86259999D02*
X196060001Y-86682675D01*
X196460000Y-85860000D02*
X196060001Y-86259999D01*
X195971338Y-86771338D02*
X193435660Y-86771338D01*
X196060001Y-86682675D02*
X195971338Y-86771338D01*
X196403494Y-86771338D02*
X195971338Y-86771338D01*
X191650000Y-86464998D02*
X191180000Y-85994998D01*
X191650000Y-86560000D02*
X191650000Y-86464998D01*
X187764010Y-86560000D02*
X182899999Y-86560000D01*
X188486616Y-85837394D02*
X187764010Y-86560000D01*
X180868630Y-64540000D02*
X182000000Y-64540000D01*
X179620001Y-63414999D02*
X180745002Y-64540000D01*
X180745002Y-64540000D02*
X180868630Y-64540000D01*
X175125001Y-63414999D02*
X179620001Y-63414999D01*
X174000000Y-64540000D02*
X175125001Y-63414999D01*
X188868630Y-64540000D02*
X190000000Y-64540000D01*
X187620001Y-63414999D02*
X188745002Y-64540000D01*
X186539999Y-63414999D02*
X187620001Y-63414999D01*
X188745002Y-64540000D02*
X188868630Y-64540000D01*
X185414998Y-64540000D02*
X186539999Y-63414999D01*
X182000000Y-64540000D02*
X185414998Y-64540000D01*
X194829997Y-63125001D02*
X195330003Y-63125001D01*
X196868630Y-64540000D02*
X198000000Y-64540000D01*
X193414998Y-64540000D02*
X194829997Y-63125001D01*
X196745002Y-64540000D02*
X196868630Y-64540000D01*
X195330003Y-63125001D02*
X196745002Y-64540000D01*
X190000000Y-64540000D02*
X193414998Y-64540000D01*
X204868630Y-64540000D02*
X206000000Y-64540000D01*
X204745002Y-64540000D02*
X204868630Y-64540000D01*
X203620001Y-63414999D02*
X204745002Y-64540000D01*
X202539999Y-63414999D02*
X203620001Y-63414999D01*
X201414998Y-64540000D02*
X202539999Y-63414999D01*
X198000000Y-64540000D02*
X201414998Y-64540000D01*
X212868630Y-64540000D02*
X214000000Y-64540000D01*
X212745002Y-64540000D02*
X212868630Y-64540000D01*
X211330003Y-63125001D02*
X212745002Y-64540000D01*
X210829997Y-63125001D02*
X211330003Y-63125001D01*
X209414998Y-64540000D02*
X210829997Y-63125001D01*
X206000000Y-64540000D02*
X209414998Y-64540000D01*
X220868630Y-64540000D02*
X222000000Y-64540000D01*
X219620001Y-63414999D02*
X220745002Y-64540000D01*
X218301411Y-63414999D02*
X219620001Y-63414999D01*
X220745002Y-64540000D02*
X220868630Y-64540000D01*
X217176410Y-64540000D02*
X218301411Y-63414999D01*
X214000000Y-64540000D02*
X217176410Y-64540000D01*
X228745002Y-64540000D02*
X228868630Y-64540000D01*
X228868630Y-64540000D02*
X230000000Y-64540000D01*
X227620001Y-63414999D02*
X228745002Y-64540000D01*
X225460000Y-64540000D02*
X226585001Y-63414999D01*
X226585001Y-63414999D02*
X227620001Y-63414999D01*
X222000000Y-64540000D02*
X225460000Y-64540000D01*
X179620001Y-76414999D02*
X180745002Y-77540000D01*
X180745002Y-77540000D02*
X180868630Y-77540000D01*
X175125001Y-76414999D02*
X179620001Y-76414999D01*
X180868630Y-77540000D02*
X182000000Y-77540000D01*
X174000000Y-77540000D02*
X175125001Y-76414999D01*
X188868630Y-77540000D02*
X190000000Y-77540000D01*
X188745002Y-77540000D02*
X188868630Y-77540000D01*
X187620001Y-76414999D02*
X188745002Y-77540000D01*
X186539999Y-76414999D02*
X187620001Y-76414999D01*
X185414998Y-77540000D02*
X186539999Y-76414999D01*
X182000000Y-77540000D02*
X185414998Y-77540000D01*
X196745002Y-77540000D02*
X196868630Y-77540000D01*
X196868630Y-77540000D02*
X198000000Y-77540000D01*
X195620001Y-76414999D02*
X196745002Y-77540000D01*
X194539999Y-76414999D02*
X195620001Y-76414999D01*
X193414998Y-77540000D02*
X194539999Y-76414999D01*
X190000000Y-77540000D02*
X193414998Y-77540000D01*
X204868630Y-77540000D02*
X206000000Y-77540000D01*
X204745002Y-77540000D02*
X204868630Y-77540000D01*
X203620001Y-76414999D02*
X204745002Y-77540000D01*
X201414998Y-77540000D02*
X202539999Y-76414999D01*
X202539999Y-76414999D02*
X203620001Y-76414999D01*
X198000000Y-77540000D02*
X201414998Y-77540000D01*
X212745002Y-77540000D02*
X212868630Y-77540000D01*
X212868630Y-77540000D02*
X214000000Y-77540000D01*
X211620001Y-76414999D02*
X212745002Y-77540000D01*
X210539999Y-76414999D02*
X211620001Y-76414999D01*
X209414998Y-77540000D02*
X210539999Y-76414999D01*
X206000000Y-77540000D02*
X209414998Y-77540000D01*
X220868630Y-77540000D02*
X222000000Y-77540000D01*
X220745002Y-77540000D02*
X220868630Y-77540000D01*
X219620001Y-76414999D02*
X220745002Y-77540000D01*
X218539999Y-76414999D02*
X219620001Y-76414999D01*
X217414998Y-77540000D02*
X218539999Y-76414999D01*
X214000000Y-77540000D02*
X217414998Y-77540000D01*
X228868630Y-77540000D02*
X230000000Y-77540000D01*
X228745002Y-77540000D02*
X228868630Y-77540000D01*
X227620001Y-76414999D02*
X228745002Y-77540000D01*
X226539999Y-76414999D02*
X227620001Y-76414999D01*
X225414998Y-77540000D02*
X226539999Y-76414999D01*
X222000000Y-77540000D02*
X225414998Y-77540000D01*
X238005037Y-78800035D02*
X238005037Y-86445605D01*
X235620001Y-76414999D02*
X238005037Y-78800035D01*
X238005037Y-86445605D02*
X232750582Y-91700060D01*
X234539999Y-76414999D02*
X235620001Y-76414999D01*
X233414998Y-77540000D02*
X234539999Y-76414999D01*
X230000000Y-77540000D02*
X233414998Y-77540000D01*
X232750582Y-91700060D02*
X230783529Y-91700061D01*
X226818590Y-95665000D02*
X223798487Y-95665000D01*
X230783529Y-91700061D02*
X226818590Y-95665000D01*
X223500010Y-92425041D02*
X223775000Y-92700031D01*
X221108549Y-92425041D02*
X222235041Y-92425041D01*
X218883610Y-94649980D02*
X221108549Y-92425041D01*
X189945041Y-93055041D02*
X191539980Y-94649980D01*
X191539980Y-94649980D02*
X218883610Y-94649980D01*
X189945041Y-92425041D02*
X189945041Y-93055041D01*
X187440000Y-89920000D02*
X189945041Y-92425041D01*
X222235041Y-92425041D02*
X223500010Y-92425041D01*
X221560000Y-92425041D02*
X222235041Y-92425041D01*
X180868630Y-67080000D02*
X182000000Y-67080000D01*
X180745002Y-67080000D02*
X180868630Y-67080000D01*
X179620001Y-65954999D02*
X180745002Y-67080000D01*
X175125001Y-65954999D02*
X179620001Y-65954999D01*
X174000000Y-67080000D02*
X175125001Y-65954999D01*
X186539999Y-65954999D02*
X187743629Y-65954999D01*
X186379987Y-66115011D02*
X186539999Y-65954999D01*
X188868630Y-67080000D02*
X190000000Y-67080000D01*
X182964989Y-66115011D02*
X186379987Y-66115011D01*
X187743629Y-65954999D02*
X188868630Y-67080000D01*
X182000000Y-67080000D02*
X182964989Y-66115011D01*
X195620001Y-65954999D02*
X196745002Y-67080000D01*
X194539999Y-65954999D02*
X195620001Y-65954999D01*
X196868630Y-67080000D02*
X198000000Y-67080000D01*
X196745002Y-67080000D02*
X196868630Y-67080000D01*
X193414998Y-67080000D02*
X194539999Y-65954999D01*
X190000000Y-67080000D02*
X193414998Y-67080000D01*
X204868630Y-67080000D02*
X206000000Y-67080000D01*
X203620001Y-65954999D02*
X204745002Y-67080000D01*
X202379987Y-66115011D02*
X202539999Y-65954999D01*
X202539999Y-65954999D02*
X203620001Y-65954999D01*
X198964989Y-66115011D02*
X202379987Y-66115011D01*
X204745002Y-67080000D02*
X204868630Y-67080000D01*
X198000000Y-67080000D02*
X198964989Y-66115011D01*
X212868630Y-67080000D02*
X214000000Y-67080000D01*
X212745002Y-67080000D02*
X212868630Y-67080000D01*
X210301411Y-65954999D02*
X211620001Y-65954999D01*
X211620001Y-65954999D02*
X212745002Y-67080000D01*
X209176410Y-67080000D02*
X210301411Y-65954999D01*
X206000000Y-67080000D02*
X209176410Y-67080000D01*
X220745002Y-67080000D02*
X220868630Y-67080000D01*
X219620001Y-65954999D02*
X220745002Y-67080000D01*
X218539999Y-65954999D02*
X219620001Y-65954999D01*
X217414998Y-67080000D02*
X218539999Y-65954999D01*
X220868630Y-67080000D02*
X222000000Y-67080000D01*
X214000000Y-67080000D02*
X217414998Y-67080000D01*
X228868630Y-67080000D02*
X230000000Y-67080000D01*
X228745002Y-67080000D02*
X228868630Y-67080000D01*
X227620001Y-65954999D02*
X228745002Y-67080000D01*
X226539999Y-65954999D02*
X227620001Y-65954999D01*
X225414998Y-67080000D02*
X226539999Y-65954999D01*
X222000000Y-67080000D02*
X225414998Y-67080000D01*
X180868630Y-80080000D02*
X182000000Y-80080000D01*
X180745002Y-80080000D02*
X180868630Y-80080000D01*
X179620001Y-78954999D02*
X180745002Y-80080000D01*
X175125001Y-78954999D02*
X179620001Y-78954999D01*
X174000000Y-80080000D02*
X175125001Y-78954999D01*
X188868630Y-80080000D02*
X190000000Y-80080000D01*
X188745002Y-80080000D02*
X188868630Y-80080000D01*
X187620001Y-78954999D02*
X188745002Y-80080000D01*
X186539999Y-78954999D02*
X187620001Y-78954999D01*
X185414998Y-80080000D02*
X186539999Y-78954999D01*
X182000000Y-80080000D02*
X185414998Y-80080000D01*
X196868630Y-80080000D02*
X198000000Y-80080000D01*
X196745002Y-80080000D02*
X196868630Y-80080000D01*
X195620001Y-78954999D02*
X196745002Y-80080000D01*
X193414998Y-80080000D02*
X194539999Y-78954999D01*
X194539999Y-78954999D02*
X195620001Y-78954999D01*
X190000000Y-80080000D02*
X193414998Y-80080000D01*
X204868630Y-80080000D02*
X206000000Y-80080000D01*
X204745002Y-80080000D02*
X204868630Y-80080000D01*
X203620001Y-78954999D02*
X204745002Y-80080000D01*
X202539999Y-78954999D02*
X203620001Y-78954999D01*
X201414998Y-80080000D02*
X202539999Y-78954999D01*
X198000000Y-80080000D02*
X201414998Y-80080000D01*
X212868630Y-80080000D02*
X214000000Y-80080000D01*
X212745002Y-80080000D02*
X212868630Y-80080000D01*
X211620001Y-78954999D02*
X212745002Y-80080000D01*
X210539999Y-78954999D02*
X211620001Y-78954999D01*
X209414998Y-80080000D02*
X210539999Y-78954999D01*
X206000000Y-80080000D02*
X209414998Y-80080000D01*
X220868630Y-80080000D02*
X222000000Y-80080000D01*
X218539999Y-78954999D02*
X219743629Y-78954999D01*
X219743629Y-78954999D02*
X220868630Y-80080000D01*
X217414998Y-80080000D02*
X218539999Y-78954999D01*
X214000000Y-80080000D02*
X217414998Y-80080000D01*
X228868630Y-80080000D02*
X230000000Y-80080000D01*
X228745002Y-80080000D02*
X228868630Y-80080000D01*
X226539999Y-78954999D02*
X227620001Y-78954999D01*
X225414998Y-80080000D02*
X226539999Y-78954999D01*
X227620001Y-78954999D02*
X228745002Y-80080000D01*
X222000000Y-80080000D02*
X225414998Y-80080000D01*
X234539999Y-78954999D02*
X235620001Y-78954999D01*
X237105019Y-80440017D02*
X237105019Y-86072803D01*
X235620001Y-78954999D02*
X237105019Y-80440017D01*
X237105019Y-86072803D02*
X232377782Y-90800040D01*
X234379987Y-79115011D02*
X234539999Y-78954999D01*
X230000000Y-80080000D02*
X230964989Y-79115011D01*
X230410730Y-90800040D02*
X230410727Y-90800043D01*
X232377782Y-90800040D02*
X230410730Y-90800040D01*
X226995770Y-94215000D02*
X224216967Y-94215000D01*
X224216967Y-94215000D02*
X223020000Y-93018033D01*
X230410730Y-90800040D02*
X226995770Y-94215000D01*
X232545011Y-79115011D02*
X232545011Y-79390001D01*
X230964989Y-79115011D02*
X232545011Y-79115011D01*
X232545011Y-79115011D02*
X234379987Y-79115011D01*
X189480000Y-94173590D02*
X190406400Y-95099990D01*
X189058001Y-93314999D02*
X189480000Y-93736998D01*
X222060000Y-92990000D02*
X222088033Y-93018033D01*
X219070010Y-95099990D02*
X221180000Y-92990000D01*
X189480000Y-93736998D02*
X189480000Y-94173590D01*
X187450000Y-94050000D02*
X187450000Y-93484315D01*
X221180000Y-92990000D02*
X222060000Y-92990000D01*
X223020000Y-93018033D02*
X222851967Y-93018033D01*
X222851967Y-93018033D02*
X222288033Y-93018033D01*
X222088033Y-93018033D02*
X222851967Y-93018033D01*
X190406400Y-95099990D02*
X219070010Y-95099990D01*
X187619316Y-93314999D02*
X189058001Y-93314999D01*
X187619316Y-93314999D02*
X187450000Y-93484315D01*
X180745002Y-69620000D02*
X180868630Y-69620000D01*
X179620001Y-68494999D02*
X180745002Y-69620000D01*
X180868630Y-69620000D02*
X182000000Y-69620000D01*
X175125001Y-68494999D02*
X179620001Y-68494999D01*
X174000000Y-69620000D02*
X175125001Y-68494999D01*
X188868630Y-69620000D02*
X190000000Y-69620000D01*
X187620001Y-68494999D02*
X188745002Y-69620000D01*
X188745002Y-69620000D02*
X188868630Y-69620000D01*
X186539999Y-68494999D02*
X187620001Y-68494999D01*
X185414998Y-69620000D02*
X186539999Y-68494999D01*
X182000000Y-69620000D02*
X185414998Y-69620000D01*
X196868630Y-69620000D02*
X198000000Y-69620000D01*
X196745002Y-69620000D02*
X196868630Y-69620000D01*
X195620001Y-68494999D02*
X196745002Y-69620000D01*
X194539999Y-68494999D02*
X195620001Y-68494999D01*
X193414998Y-69620000D02*
X194539999Y-68494999D01*
X190000000Y-69620000D02*
X193414998Y-69620000D01*
X204745002Y-69620000D02*
X204868630Y-69620000D01*
X204868630Y-69620000D02*
X206000000Y-69620000D01*
X203620001Y-68494999D02*
X204745002Y-69620000D01*
X202539999Y-68494999D02*
X203620001Y-68494999D01*
X201414998Y-69620000D02*
X202539999Y-68494999D01*
X198000000Y-69620000D02*
X201414998Y-69620000D01*
X212868630Y-69620000D02*
X214000000Y-69620000D01*
X211620001Y-68494999D02*
X212745002Y-69620000D01*
X212745002Y-69620000D02*
X212868630Y-69620000D01*
X210539999Y-68494999D02*
X211620001Y-68494999D01*
X209414998Y-69620000D02*
X210539999Y-68494999D01*
X206000000Y-69620000D02*
X209414998Y-69620000D01*
X219620001Y-68494999D02*
X220745002Y-69620000D01*
X218539999Y-68494999D02*
X219620001Y-68494999D01*
X220868630Y-69620000D02*
X222000000Y-69620000D01*
X220745002Y-69620000D02*
X220868630Y-69620000D01*
X217414998Y-69620000D02*
X218539999Y-68494999D01*
X214000000Y-69620000D02*
X217414998Y-69620000D01*
X226539999Y-68494999D02*
X227743629Y-68494999D01*
X228868630Y-69620000D02*
X230000000Y-69620000D01*
X225414998Y-69620000D02*
X226539999Y-68494999D01*
X227743629Y-68494999D02*
X228868630Y-69620000D01*
X222000000Y-69620000D02*
X225414998Y-69620000D01*
X180868630Y-82620000D02*
X182000000Y-82620000D01*
X180745002Y-82620000D02*
X180868630Y-82620000D01*
X179620001Y-81494999D02*
X180745002Y-82620000D01*
X175125001Y-81494999D02*
X179620001Y-81494999D01*
X174000000Y-82620000D02*
X175125001Y-81494999D01*
X188868630Y-82620000D02*
X190000000Y-82620000D01*
X188745002Y-82620000D02*
X188868630Y-82620000D01*
X187620001Y-81494999D02*
X188745002Y-82620000D01*
X186539999Y-81494999D02*
X187620001Y-81494999D01*
X185414998Y-82620000D02*
X186539999Y-81494999D01*
X182000000Y-82620000D02*
X185414998Y-82620000D01*
X196868630Y-82620000D02*
X198000000Y-82620000D01*
X196745002Y-82620000D02*
X196868630Y-82620000D01*
X195620001Y-81494999D02*
X196745002Y-82620000D01*
X194539999Y-81494999D02*
X195620001Y-81494999D01*
X193414998Y-82620000D02*
X194539999Y-81494999D01*
X190000000Y-82620000D02*
X193414998Y-82620000D01*
X204868630Y-82620000D02*
X206000000Y-82620000D01*
X204745002Y-82620000D02*
X204868630Y-82620000D01*
X203620001Y-81494999D02*
X204745002Y-82620000D01*
X202539999Y-81494999D02*
X203620001Y-81494999D01*
X201414998Y-82620000D02*
X202539999Y-81494999D01*
X198000000Y-82620000D02*
X201414998Y-82620000D01*
X212745002Y-82620000D02*
X212868630Y-82620000D01*
X211620001Y-81494999D02*
X212745002Y-82620000D01*
X210539999Y-81494999D02*
X211620001Y-81494999D01*
X212868630Y-82620000D02*
X214000000Y-82620000D01*
X209414998Y-82620000D02*
X210539999Y-81494999D01*
X206000000Y-82620000D02*
X209414998Y-82620000D01*
X220745002Y-82620000D02*
X220868630Y-82620000D01*
X219620001Y-81494999D02*
X220745002Y-82620000D01*
X220868630Y-82620000D02*
X222000000Y-82620000D01*
X218539999Y-81494999D02*
X219620001Y-81494999D01*
X217414998Y-82620000D02*
X218539999Y-81494999D01*
X214000000Y-82620000D02*
X217414998Y-82620000D01*
X228868630Y-82620000D02*
X230000000Y-82620000D01*
X228745002Y-82620000D02*
X228868630Y-82620000D01*
X227620001Y-81494999D02*
X228745002Y-82620000D01*
X226539999Y-81494999D02*
X227620001Y-81494999D01*
X225414998Y-82620000D02*
X226539999Y-81494999D01*
X222000000Y-82620000D02*
X225414998Y-82620000D01*
X233414998Y-82620000D02*
X234539999Y-81494999D01*
X232004982Y-89900020D02*
X229372800Y-89900020D01*
X235620001Y-81494999D02*
X236205001Y-82079999D01*
X236205001Y-82079999D02*
X236205001Y-85700001D01*
X234539999Y-81494999D02*
X235620001Y-81494999D01*
X230000000Y-82620000D02*
X233414998Y-82620000D01*
X236205001Y-85700001D02*
X232004982Y-89900020D01*
X229372800Y-90176254D02*
X226791519Y-92757535D01*
X229372800Y-89900020D02*
X229372800Y-90176254D01*
X224544019Y-91975031D02*
X226754913Y-89764137D01*
X175450001Y-82620000D02*
X175850001Y-82220000D01*
X174000000Y-82620000D02*
X175450001Y-82620000D01*
X218717180Y-94180000D02*
X220922149Y-91975031D01*
X220922149Y-91975031D02*
X221754969Y-91975031D01*
X215640000Y-94180000D02*
X218717180Y-94180000D01*
X215620030Y-94199970D02*
X215640000Y-94180000D01*
X190745031Y-91975031D02*
X190745031Y-93215031D01*
X190745031Y-93215031D02*
X191729970Y-94199970D01*
X221640000Y-91975031D02*
X221754969Y-91975031D01*
X188710000Y-89940000D02*
X190745031Y-91975031D01*
X191729970Y-94199970D02*
X215620030Y-94199970D01*
X221754969Y-91975031D02*
X224544019Y-91975031D01*
X179620001Y-84034999D02*
X180745002Y-85160000D01*
X180868630Y-85160000D02*
X182000000Y-85160000D01*
X180745002Y-85160000D02*
X180868630Y-85160000D01*
X175125001Y-84034999D02*
X179620001Y-84034999D01*
X174000000Y-85160000D02*
X175125001Y-84034999D01*
X188868630Y-85160000D02*
X190000000Y-85160000D01*
X188745002Y-85160000D02*
X188868630Y-85160000D01*
X187620001Y-84034999D02*
X188745002Y-85160000D01*
X186539999Y-84034999D02*
X187620001Y-84034999D01*
X185414998Y-85160000D02*
X186539999Y-84034999D01*
X182000000Y-85160000D02*
X185414998Y-85160000D01*
X196745002Y-85160000D02*
X196868630Y-85160000D01*
X195620001Y-84034999D02*
X196745002Y-85160000D01*
X194539999Y-84034999D02*
X195620001Y-84034999D01*
X196868630Y-85160000D02*
X198000000Y-85160000D01*
X193414998Y-85160000D02*
X194539999Y-84034999D01*
X190000000Y-85160000D02*
X193414998Y-85160000D01*
X204868630Y-85160000D02*
X206000000Y-85160000D01*
X204745002Y-85160000D02*
X204868630Y-85160000D01*
X203585002Y-84000000D02*
X204745002Y-85160000D01*
X202336410Y-84000000D02*
X203585002Y-84000000D01*
X201176410Y-85160000D02*
X202336410Y-84000000D01*
X198000000Y-85160000D02*
X201176410Y-85160000D01*
X212868630Y-85160000D02*
X214000000Y-85160000D01*
X212745002Y-85160000D02*
X212868630Y-85160000D01*
X210336410Y-84000000D02*
X211585002Y-84000000D01*
X211585002Y-84000000D02*
X212745002Y-85160000D01*
X209176410Y-85160000D02*
X210336410Y-84000000D01*
X206000000Y-85160000D02*
X209176410Y-85160000D01*
X220745002Y-85160000D02*
X220868630Y-85160000D01*
X219585002Y-84000000D02*
X220745002Y-85160000D01*
X218336410Y-84000000D02*
X219585002Y-84000000D01*
X217176410Y-85160000D02*
X218336410Y-84000000D01*
X220868630Y-85160000D02*
X222000000Y-85160000D01*
X214000000Y-85160000D02*
X217176410Y-85160000D01*
X228868630Y-85160000D02*
X230000000Y-85160000D01*
X228745002Y-85160000D02*
X228868630Y-85160000D01*
X227585002Y-84000000D02*
X228745002Y-85160000D01*
X226574998Y-84000000D02*
X227585002Y-84000000D01*
X225414998Y-85160000D02*
X226574998Y-84000000D01*
X222000000Y-85160000D02*
X225414998Y-85160000D01*
X180868630Y-72160000D02*
X182000000Y-72160000D01*
X180745002Y-72160000D02*
X180868630Y-72160000D01*
X179620001Y-71034999D02*
X180745002Y-72160000D01*
X175125001Y-71034999D02*
X179620001Y-71034999D01*
X174000000Y-72160000D02*
X175125001Y-71034999D01*
X188868630Y-72160000D02*
X190000000Y-72160000D01*
X187585002Y-71000000D02*
X188745002Y-72160000D01*
X188745002Y-72160000D02*
X188868630Y-72160000D01*
X186574998Y-71000000D02*
X187585002Y-71000000D01*
X185414998Y-72160000D02*
X186574998Y-71000000D01*
X182000000Y-72160000D02*
X185414998Y-72160000D01*
X196868630Y-72160000D02*
X198000000Y-72160000D01*
X195620001Y-71034999D02*
X196745002Y-72160000D01*
X194539999Y-71034999D02*
X195620001Y-71034999D01*
X193414998Y-72160000D02*
X194539999Y-71034999D01*
X196745002Y-72160000D02*
X196868630Y-72160000D01*
X190000000Y-72160000D02*
X193414998Y-72160000D01*
X204868630Y-72160000D02*
X206000000Y-72160000D01*
X204745002Y-72160000D02*
X204868630Y-72160000D01*
X203620001Y-71034999D02*
X204745002Y-72160000D01*
X202539999Y-71034999D02*
X203620001Y-71034999D01*
X201414998Y-72160000D02*
X202539999Y-71034999D01*
X198000000Y-72160000D02*
X201414998Y-72160000D01*
X212868630Y-72160000D02*
X214000000Y-72160000D01*
X212745002Y-72160000D02*
X212868630Y-72160000D01*
X210301411Y-71034999D02*
X211620001Y-71034999D01*
X209176410Y-72160000D02*
X210301411Y-71034999D01*
X211620001Y-71034999D02*
X212745002Y-72160000D01*
X206000000Y-72160000D02*
X209176410Y-72160000D01*
X220868630Y-72160000D02*
X222000000Y-72160000D01*
X220745002Y-72160000D02*
X220868630Y-72160000D01*
X219620001Y-71034999D02*
X220745002Y-72160000D01*
X218539999Y-71034999D02*
X219620001Y-71034999D01*
X217414998Y-72160000D02*
X218539999Y-71034999D01*
X214000000Y-72160000D02*
X217414998Y-72160000D01*
X228745002Y-72160000D02*
X228868630Y-72160000D01*
X227620001Y-71034999D02*
X228745002Y-72160000D01*
X228868630Y-72160000D02*
X230000000Y-72160000D01*
X226539999Y-71034999D02*
X227620001Y-71034999D01*
X225414998Y-72160000D02*
X226539999Y-71034999D01*
X222000000Y-72160000D02*
X225414998Y-72160000D01*
X190000000Y-85160000D02*
X190000000Y-90000000D01*
X175410000Y-85160000D02*
X175430000Y-85140000D01*
X174000000Y-85160000D02*
X175410000Y-85160000D01*
X185954999Y-70745001D02*
X186280001Y-70419999D01*
X180205001Y-70745001D02*
X185954999Y-70745001D01*
X186280001Y-70419999D02*
X187080000Y-69620000D01*
X179080000Y-69620000D02*
X180205001Y-70745001D01*
X193954999Y-70745001D02*
X194280001Y-70419999D01*
X194280001Y-70419999D02*
X195080000Y-69620000D01*
X188205001Y-70745001D02*
X193954999Y-70745001D01*
X187080000Y-69620000D02*
X188205001Y-70745001D01*
X201954999Y-70745001D02*
X202280001Y-70419999D01*
X202280001Y-70419999D02*
X203080000Y-69620000D01*
X196205001Y-70745001D02*
X201954999Y-70745001D01*
X195080000Y-69620000D02*
X196205001Y-70745001D01*
X210280001Y-70419999D02*
X211080000Y-69620000D01*
X209700000Y-71000000D02*
X210280001Y-70419999D01*
X204460000Y-71000000D02*
X209700000Y-71000000D01*
X203080000Y-69620000D02*
X204460000Y-71000000D01*
X218280001Y-70419999D02*
X219080000Y-69620000D01*
X217954999Y-70745001D02*
X218280001Y-70419999D01*
X212205001Y-70745001D02*
X217954999Y-70745001D01*
X211080000Y-69620000D02*
X212205001Y-70745001D01*
X225700000Y-71000000D02*
X226280001Y-70419999D01*
X226280001Y-70419999D02*
X227080000Y-69620000D01*
X220460000Y-71000000D02*
X225700000Y-71000000D01*
X219080000Y-69620000D02*
X220460000Y-71000000D01*
X234280001Y-70419999D02*
X235080000Y-69620000D01*
X228460000Y-71000000D02*
X233700000Y-71000000D01*
X233700000Y-71000000D02*
X234280001Y-70419999D01*
X227080000Y-69620000D02*
X228460000Y-71000000D01*
X186280001Y-83419999D02*
X187080000Y-82620000D01*
X185954999Y-83745001D02*
X186280001Y-83419999D01*
X180205001Y-83745001D02*
X185954999Y-83745001D01*
X179080000Y-82620000D02*
X180205001Y-83745001D01*
X194280001Y-83419999D02*
X195080000Y-82620000D01*
X188205001Y-83745001D02*
X193954999Y-83745001D01*
X193954999Y-83745001D02*
X194280001Y-83419999D01*
X187080000Y-82620000D02*
X188205001Y-83745001D01*
X202280001Y-83419999D02*
X203080000Y-82620000D01*
X201954999Y-83745001D02*
X202280001Y-83419999D01*
X196205001Y-83745001D02*
X201954999Y-83745001D01*
X195080000Y-82620000D02*
X196205001Y-83745001D01*
X204205001Y-83745001D02*
X209954999Y-83745001D01*
X210280001Y-83419999D02*
X211080000Y-82620000D01*
X209954999Y-83745001D02*
X210280001Y-83419999D01*
X203080000Y-82620000D02*
X204205001Y-83745001D01*
X217700000Y-84000000D02*
X218280001Y-83419999D01*
X212460000Y-84000000D02*
X217700000Y-84000000D01*
X218280001Y-83419999D02*
X219080000Y-82620000D01*
X211080000Y-82620000D02*
X212460000Y-84000000D01*
X220205001Y-83745001D02*
X225954999Y-83745001D01*
X226280001Y-83419999D02*
X227080000Y-82620000D01*
X225954999Y-83745001D02*
X226280001Y-83419999D01*
X219080000Y-82620000D02*
X220205001Y-83745001D01*
X234280001Y-83419999D02*
X235080000Y-82620000D01*
X228205001Y-83745001D02*
X233954999Y-83745001D01*
X233954999Y-83745001D02*
X234280001Y-83419999D01*
X227080000Y-82620000D02*
X228205001Y-83745001D01*
X233954999Y-84681411D02*
X229186400Y-89450010D01*
X233954999Y-83745001D02*
X233954999Y-84681411D01*
X235080000Y-82620000D02*
X233954999Y-83745001D01*
X229186400Y-89450010D02*
X228030000Y-89450010D01*
X226664989Y-88084999D02*
X228030000Y-89450010D01*
X222625001Y-88084999D02*
X226664989Y-88084999D01*
X222000000Y-88710000D02*
X222625001Y-88084999D01*
X179080000Y-82620000D02*
X177730000Y-82620000D01*
X190220000Y-95550000D02*
X188710000Y-94040000D01*
X220300000Y-95550000D02*
X190220000Y-95550000D01*
X221890000Y-93960000D02*
X220300000Y-95550000D01*
X186280001Y-67879999D02*
X187080000Y-67080000D01*
X180205001Y-68205001D02*
X185954999Y-68205001D01*
X185954999Y-68205001D02*
X186280001Y-67879999D01*
X179080000Y-67080000D02*
X180205001Y-68205001D01*
X194280001Y-67879999D02*
X195080000Y-67080000D01*
X193954999Y-68205001D02*
X194280001Y-67879999D01*
X188205001Y-68205001D02*
X193954999Y-68205001D01*
X187080000Y-67080000D02*
X188205001Y-68205001D01*
X202280001Y-67879999D02*
X203080000Y-67080000D01*
X201954999Y-68205001D02*
X202280001Y-67879999D01*
X196205001Y-68205001D02*
X201954999Y-68205001D01*
X195080000Y-67080000D02*
X196205001Y-68205001D01*
X209954999Y-68205001D02*
X210280001Y-67879999D01*
X210280001Y-67879999D02*
X211080000Y-67080000D01*
X204205001Y-68205001D02*
X209954999Y-68205001D01*
X203080000Y-67080000D02*
X204205001Y-68205001D01*
X217954999Y-68205001D02*
X218280001Y-67879999D01*
X218280001Y-67879999D02*
X219080000Y-67080000D01*
X212205001Y-68205001D02*
X217954999Y-68205001D01*
X211080000Y-67080000D02*
X212205001Y-68205001D01*
X226280001Y-67879999D02*
X227080000Y-67080000D01*
X225954999Y-68205001D02*
X226280001Y-67879999D01*
X220205001Y-68205001D02*
X225954999Y-68205001D01*
X219080000Y-67080000D02*
X220205001Y-68205001D01*
X234280001Y-67879999D02*
X235080000Y-67080000D01*
X233954999Y-68205001D02*
X234280001Y-67879999D01*
X228205001Y-68205001D02*
X233954999Y-68205001D01*
X227080000Y-67080000D02*
X228205001Y-68205001D01*
X185954999Y-81205001D02*
X186280001Y-80879999D01*
X186280001Y-80879999D02*
X187080000Y-80080000D01*
X180205001Y-81205001D02*
X185954999Y-81205001D01*
X179080000Y-80080000D02*
X180205001Y-81205001D01*
X193954999Y-81205001D02*
X194280001Y-80879999D01*
X188205001Y-81205001D02*
X193954999Y-81205001D01*
X194280001Y-80879999D02*
X195080000Y-80080000D01*
X187080000Y-80080000D02*
X188205001Y-81205001D01*
X202280001Y-80879999D02*
X203080000Y-80080000D01*
X201954999Y-81205001D02*
X202280001Y-80879999D01*
X196205001Y-81205001D02*
X201954999Y-81205001D01*
X195080000Y-80080000D02*
X196205001Y-81205001D01*
X210280001Y-80879999D02*
X211080000Y-80080000D01*
X209954999Y-81205001D02*
X210280001Y-80879999D01*
X204205001Y-81205001D02*
X209954999Y-81205001D01*
X203080000Y-80080000D02*
X204205001Y-81205001D01*
X218280001Y-80879999D02*
X219080000Y-80080000D01*
X217954999Y-81205001D02*
X218280001Y-80879999D01*
X212205001Y-81205001D02*
X217954999Y-81205001D01*
X211080000Y-80080000D02*
X212205001Y-81205001D01*
X225954999Y-81205001D02*
X226280001Y-80879999D01*
X220205001Y-81205001D02*
X225954999Y-81205001D01*
X226280001Y-80879999D02*
X227080000Y-80080000D01*
X219080000Y-80080000D02*
X220205001Y-81205001D01*
X233954999Y-81205001D02*
X234280001Y-80879999D01*
X228205001Y-81205001D02*
X233954999Y-81205001D01*
X234280001Y-80879999D02*
X235080000Y-80080000D01*
X227080000Y-80080000D02*
X228205001Y-81205001D01*
X232191382Y-90350030D02*
X236655010Y-85886402D01*
X236655010Y-81655010D02*
X235080000Y-80080000D01*
X236655010Y-85886402D02*
X236655010Y-81655010D01*
X232191382Y-90350030D02*
X230224329Y-90350031D01*
X230224329Y-90350031D02*
X227242180Y-93332180D01*
X227084360Y-93490000D02*
X225989032Y-93490000D01*
X227242180Y-93332180D02*
X227084360Y-93490000D01*
X177919998Y-80080000D02*
X177229999Y-80769999D01*
X179080000Y-80080000D02*
X177919998Y-80080000D01*
X224034989Y-91075011D02*
X225990000Y-89120000D01*
X221760000Y-91075011D02*
X224034989Y-91075011D01*
X218530780Y-93729990D02*
X220873265Y-91387505D01*
X220873265Y-91387505D02*
X221447505Y-91387505D01*
X215453600Y-93729990D02*
X218530780Y-93729990D01*
X221447505Y-91387505D02*
X221760000Y-91075011D01*
X191989960Y-93749960D02*
X215433630Y-93749960D01*
X191250000Y-93010000D02*
X191989960Y-93749960D01*
X215433630Y-93749960D02*
X215453600Y-93729990D01*
X191250000Y-90030000D02*
X191250000Y-93010000D01*
X185954999Y-65665001D02*
X186280001Y-65339999D01*
X180205001Y-65665001D02*
X185954999Y-65665001D01*
X186280001Y-65339999D02*
X187080000Y-64540000D01*
X179080000Y-64540000D02*
X180205001Y-65665001D01*
X194280001Y-65339999D02*
X195080000Y-64540000D01*
X193665001Y-65954999D02*
X194280001Y-65339999D01*
X188494999Y-65954999D02*
X193665001Y-65954999D01*
X187080000Y-64540000D02*
X188494999Y-65954999D01*
X202280001Y-65339999D02*
X203080000Y-64540000D01*
X201954999Y-65665001D02*
X202280001Y-65339999D01*
X196205001Y-65665001D02*
X201954999Y-65665001D01*
X195080000Y-64540000D02*
X196205001Y-65665001D01*
X210280001Y-65339999D02*
X211080000Y-64540000D01*
X209665001Y-65954999D02*
X210280001Y-65339999D01*
X204494999Y-65954999D02*
X209665001Y-65954999D01*
X203080000Y-64540000D02*
X204494999Y-65954999D01*
X217954999Y-65665001D02*
X218280001Y-65339999D01*
X212205001Y-65665001D02*
X217954999Y-65665001D01*
X218280001Y-65339999D02*
X219080000Y-64540000D01*
X211080000Y-64540000D02*
X212205001Y-65665001D01*
X226280001Y-65339999D02*
X227080000Y-64540000D01*
X220205001Y-65665001D02*
X225954999Y-65665001D01*
X225954999Y-65665001D02*
X226280001Y-65339999D01*
X219080000Y-64540000D02*
X220205001Y-65665001D01*
X233954999Y-65665001D02*
X234280001Y-65339999D01*
X228205001Y-65665001D02*
X233954999Y-65665001D01*
X227080000Y-64540000D02*
X228205001Y-65665001D01*
X234280001Y-65339999D02*
X235080000Y-64540000D01*
X186280001Y-78339999D02*
X187080000Y-77540000D01*
X180205001Y-78665001D02*
X185954999Y-78665001D01*
X185954999Y-78665001D02*
X186280001Y-78339999D01*
X179080000Y-77540000D02*
X180205001Y-78665001D01*
X194280001Y-78339999D02*
X195080000Y-77540000D01*
X193954999Y-78665001D02*
X194280001Y-78339999D01*
X188205001Y-78665001D02*
X193954999Y-78665001D01*
X187080000Y-77540000D02*
X188205001Y-78665001D01*
X202280001Y-78339999D02*
X203080000Y-77540000D01*
X201665001Y-78954999D02*
X202280001Y-78339999D01*
X196494999Y-78954999D02*
X201665001Y-78954999D01*
X195080000Y-77540000D02*
X196494999Y-78954999D01*
X210280001Y-78339999D02*
X211080000Y-77540000D01*
X204494999Y-78954999D02*
X209665001Y-78954999D01*
X209665001Y-78954999D02*
X210280001Y-78339999D01*
X203080000Y-77540000D02*
X204494999Y-78954999D01*
X218280001Y-78339999D02*
X219080000Y-77540000D01*
X217665001Y-78954999D02*
X218280001Y-78339999D01*
X212494999Y-78954999D02*
X217665001Y-78954999D01*
X211080000Y-77540000D02*
X212494999Y-78954999D01*
X226280001Y-78339999D02*
X227080000Y-77540000D01*
X225665001Y-78954999D02*
X226280001Y-78339999D01*
X220494999Y-78954999D02*
X225665001Y-78954999D01*
X219080000Y-77540000D02*
X220494999Y-78954999D01*
X234280001Y-78339999D02*
X235080000Y-77540000D01*
X228205001Y-78665001D02*
X233954999Y-78665001D01*
X227080000Y-77540000D02*
X228205001Y-78665001D01*
X237555028Y-86259204D02*
X232564182Y-91250050D01*
X237555028Y-80015028D02*
X237555028Y-86259204D01*
X235080000Y-77540000D02*
X237555028Y-80015028D01*
X231739948Y-91250052D02*
X230597128Y-91250052D01*
X231739950Y-91250050D02*
X231739948Y-91250052D01*
X232564182Y-91250050D02*
X231739950Y-91250050D01*
X226907180Y-94940000D02*
X224517719Y-94940000D01*
X230597128Y-91250052D02*
X226907180Y-94940000D01*
X177469988Y-77540000D02*
X176779989Y-78229999D01*
X179080000Y-77540000D02*
X177469988Y-77540000D01*
X233954999Y-78665001D02*
X234280001Y-78339999D01*
X222704999Y-90625001D02*
X224520000Y-88810000D01*
X221573600Y-90625001D02*
X222704999Y-90625001D01*
X221348601Y-90850000D02*
X221573600Y-90625001D01*
X218344380Y-93279980D02*
X220774360Y-90850000D01*
X215267200Y-93279980D02*
X218344380Y-93279980D01*
X192840000Y-93299950D02*
X215247230Y-93299950D01*
X220774360Y-90850000D02*
X221348601Y-90850000D01*
X192530000Y-92989950D02*
X192840000Y-93299950D01*
X215247230Y-93299950D02*
X215267200Y-93279980D01*
X192530000Y-89970000D02*
X192530000Y-92989950D01*
X186280001Y-62799999D02*
X187080000Y-62000000D01*
X185954999Y-63125001D02*
X186280001Y-62799999D01*
X180205001Y-63125001D02*
X185954999Y-63125001D01*
X179080000Y-62000000D02*
X180205001Y-63125001D01*
X194280001Y-62799999D02*
X195080000Y-62000000D01*
X193665001Y-63414999D02*
X194280001Y-62799999D01*
X188494999Y-63414999D02*
X193665001Y-63414999D01*
X187080000Y-62000000D02*
X188494999Y-63414999D01*
X201954999Y-63125001D02*
X202280001Y-62799999D01*
X202280001Y-62799999D02*
X203080000Y-62000000D01*
X196205001Y-63125001D02*
X201954999Y-63125001D01*
X195080000Y-62000000D02*
X196205001Y-63125001D01*
X210280001Y-62799999D02*
X211080000Y-62000000D01*
X209665001Y-63414999D02*
X210280001Y-62799999D01*
X204494999Y-63414999D02*
X209665001Y-63414999D01*
X203080000Y-62000000D02*
X204494999Y-63414999D01*
X218280001Y-62799999D02*
X219080000Y-62000000D01*
X217954999Y-63125001D02*
X218280001Y-62799999D01*
X212205001Y-63125001D02*
X217954999Y-63125001D01*
X211080000Y-62000000D02*
X212205001Y-63125001D01*
X226280001Y-62799999D02*
X227080000Y-62000000D01*
X225954999Y-63125001D02*
X226280001Y-62799999D01*
X220205001Y-63125001D02*
X225954999Y-63125001D01*
X219080000Y-62000000D02*
X220205001Y-63125001D01*
X234280001Y-62799999D02*
X235080000Y-62000000D01*
X233954999Y-63125001D02*
X234280001Y-62799999D01*
X228205001Y-63125001D02*
X233954999Y-63125001D01*
X227080000Y-62000000D02*
X228205001Y-63125001D01*
X186280001Y-75799999D02*
X187080000Y-75000000D01*
X180494999Y-76414999D02*
X185665001Y-76414999D01*
X185665001Y-76414999D02*
X186280001Y-75799999D01*
X179080000Y-75000000D02*
X180494999Y-76414999D01*
X194280001Y-75799999D02*
X195080000Y-75000000D01*
X188205001Y-76125001D02*
X193954999Y-76125001D01*
X193954999Y-76125001D02*
X194280001Y-75799999D01*
X187080000Y-75000000D02*
X188205001Y-76125001D01*
X202280001Y-75799999D02*
X203080000Y-75000000D01*
X196205001Y-76125001D02*
X201954999Y-76125001D01*
X201954999Y-76125001D02*
X202280001Y-75799999D01*
X195080000Y-75000000D02*
X196205001Y-76125001D01*
X210280001Y-75799999D02*
X211080000Y-75000000D01*
X209954999Y-76125001D02*
X210280001Y-75799999D01*
X204205001Y-76125001D02*
X209954999Y-76125001D01*
X203080000Y-75000000D02*
X204205001Y-76125001D01*
X217665001Y-76414999D02*
X218280001Y-75799999D01*
X212494999Y-76414999D02*
X217665001Y-76414999D01*
X218280001Y-75799999D02*
X219080000Y-75000000D01*
X211080000Y-75000000D02*
X212494999Y-76414999D01*
X225954999Y-76125001D02*
X226280001Y-75799999D01*
X220205001Y-76125001D02*
X225954999Y-76125001D01*
X226280001Y-75799999D02*
X227080000Y-75000000D01*
X219080000Y-75000000D02*
X220205001Y-76125001D01*
X234280001Y-75799999D02*
X235080000Y-75000000D01*
X233954999Y-76125001D02*
X234280001Y-75799999D01*
X228205001Y-76125001D02*
X233954999Y-76125001D01*
X227080000Y-75000000D02*
X228205001Y-76125001D01*
X238455046Y-86632006D02*
X232936982Y-92150070D01*
X238455046Y-78375046D02*
X238455046Y-86632006D01*
X235080000Y-75000000D02*
X238455046Y-78375046D01*
X223060000Y-96390000D02*
X226730000Y-96390000D01*
X230969930Y-92150070D02*
X232739930Y-92150070D01*
X226730000Y-96390000D02*
X230969930Y-92150070D01*
X232936982Y-92150070D02*
X232739930Y-92150070D01*
X177019978Y-75000000D02*
X176329979Y-75689999D01*
X179080000Y-75000000D02*
X177019978Y-75000000D01*
X221087950Y-89900000D02*
X222030000Y-89900000D01*
X218157980Y-92829970D02*
X221087950Y-89900000D01*
X215060830Y-92849940D02*
X215080800Y-92829970D01*
X215080800Y-92829970D02*
X218157980Y-92829970D01*
X222030000Y-89900000D02*
X223050000Y-88880000D01*
X194320000Y-92849940D02*
X215060830Y-92849940D01*
X193790000Y-92319940D02*
X194320000Y-92849940D01*
X193790000Y-89900000D02*
X193790000Y-92319940D01*
X212330000Y-97280020D02*
X198880020Y-97280020D01*
X198875000Y-97275000D02*
X198875000Y-96507500D01*
X198880020Y-97280020D02*
X198875000Y-97275000D01*
X200192520Y-96555020D02*
X200145000Y-96507500D01*
X207960000Y-96555020D02*
X200192520Y-96555020D01*
X186455001Y-88315001D02*
X186390000Y-88250000D01*
X186455001Y-93314999D02*
X186455001Y-88315001D01*
X194440000Y-89120000D02*
X194340000Y-89220000D01*
X195790000Y-89120000D02*
X194440000Y-89120000D01*
D16*
G36*
X237447063Y-57742168D02*
G01*
X237877097Y-57872003D01*
X238273724Y-58082892D01*
X238621831Y-58366801D01*
X238908169Y-58712923D01*
X239121822Y-59108068D01*
X239254656Y-59537184D01*
X239305001Y-60016186D01*
X239305000Y-97966009D01*
X239257832Y-98447063D01*
X239127997Y-98877097D01*
X238917108Y-99273723D01*
X238633197Y-99621832D01*
X238287074Y-99908170D01*
X237891931Y-100121823D01*
X237462817Y-100254656D01*
X236983824Y-100305000D01*
X174033991Y-100305000D01*
X173552937Y-100257832D01*
X173122903Y-100127997D01*
X172726277Y-99917108D01*
X172378168Y-99633197D01*
X172091830Y-99287074D01*
X171878177Y-98891931D01*
X171745344Y-98462817D01*
X171695000Y-97983824D01*
X171695000Y-97829117D01*
X172265000Y-97829117D01*
X172265000Y-98170883D01*
X172331675Y-98506081D01*
X172462463Y-98821831D01*
X172652337Y-99105998D01*
X172894002Y-99347663D01*
X173178169Y-99537537D01*
X173493919Y-99668325D01*
X173829117Y-99735000D01*
X174170883Y-99735000D01*
X174506081Y-99668325D01*
X174821831Y-99537537D01*
X175105998Y-99347663D01*
X175347663Y-99105998D01*
X175537537Y-98821831D01*
X175668325Y-98506081D01*
X175735000Y-98170883D01*
X175735000Y-97829117D01*
X175668325Y-97493919D01*
X175537537Y-97178169D01*
X175347663Y-96894002D01*
X175105998Y-96652337D01*
X174821831Y-96462463D01*
X174506081Y-96331675D01*
X174170883Y-96265000D01*
X173829117Y-96265000D01*
X173493919Y-96331675D01*
X173178169Y-96462463D01*
X172894002Y-96652337D01*
X172652337Y-96894002D01*
X172462463Y-97178169D01*
X172331675Y-97493919D01*
X172265000Y-97829117D01*
X171695000Y-97829117D01*
X171695000Y-61200000D01*
X172561928Y-61200000D01*
X172561928Y-62800000D01*
X172574188Y-62924482D01*
X172610498Y-63044180D01*
X172669463Y-63154494D01*
X172748815Y-63251185D01*
X172845506Y-63330537D01*
X172955820Y-63389502D01*
X173075518Y-63425812D01*
X173083961Y-63426643D01*
X172885363Y-63625241D01*
X172728320Y-63860273D01*
X172620147Y-64121426D01*
X172565000Y-64398665D01*
X172565000Y-64681335D01*
X172620147Y-64958574D01*
X172728320Y-65219727D01*
X172885363Y-65454759D01*
X173085241Y-65654637D01*
X173317759Y-65810000D01*
X173085241Y-65965363D01*
X172885363Y-66165241D01*
X172728320Y-66400273D01*
X172620147Y-66661426D01*
X172565000Y-66938665D01*
X172565000Y-67221335D01*
X172620147Y-67498574D01*
X172728320Y-67759727D01*
X172885363Y-67994759D01*
X173085241Y-68194637D01*
X173317759Y-68350000D01*
X173085241Y-68505363D01*
X172885363Y-68705241D01*
X172728320Y-68940273D01*
X172620147Y-69201426D01*
X172565000Y-69478665D01*
X172565000Y-69761335D01*
X172620147Y-70038574D01*
X172728320Y-70299727D01*
X172885363Y-70534759D01*
X173085241Y-70734637D01*
X173317759Y-70890000D01*
X173085241Y-71045363D01*
X172885363Y-71245241D01*
X172728320Y-71480273D01*
X172620147Y-71741426D01*
X172565000Y-72018665D01*
X172565000Y-72301335D01*
X172620147Y-72578574D01*
X172728320Y-72839727D01*
X172885363Y-73074759D01*
X173085241Y-73274637D01*
X173320273Y-73431680D01*
X173581426Y-73539853D01*
X173692403Y-73561928D01*
X173200000Y-73561928D01*
X173075518Y-73574188D01*
X172955820Y-73610498D01*
X172845506Y-73669463D01*
X172748815Y-73748815D01*
X172669463Y-73845506D01*
X172610498Y-73955820D01*
X172574188Y-74075518D01*
X172561928Y-74200000D01*
X172561928Y-75800000D01*
X172574188Y-75924482D01*
X172610498Y-76044180D01*
X172669463Y-76154494D01*
X172748815Y-76251185D01*
X172845506Y-76330537D01*
X172955820Y-76389502D01*
X173075518Y-76425812D01*
X173083961Y-76426643D01*
X172885363Y-76625241D01*
X172728320Y-76860273D01*
X172620147Y-77121426D01*
X172565000Y-77398665D01*
X172565000Y-77681335D01*
X172620147Y-77958574D01*
X172728320Y-78219727D01*
X172885363Y-78454759D01*
X173085241Y-78654637D01*
X173317759Y-78810000D01*
X173085241Y-78965363D01*
X172885363Y-79165241D01*
X172728320Y-79400273D01*
X172620147Y-79661426D01*
X172565000Y-79938665D01*
X172565000Y-80221335D01*
X172620147Y-80498574D01*
X172728320Y-80759727D01*
X172885363Y-80994759D01*
X173085241Y-81194637D01*
X173317759Y-81350000D01*
X173085241Y-81505363D01*
X172885363Y-81705241D01*
X172728320Y-81940273D01*
X172620147Y-82201426D01*
X172565000Y-82478665D01*
X172565000Y-82761335D01*
X172620147Y-83038574D01*
X172728320Y-83299727D01*
X172885363Y-83534759D01*
X173085241Y-83734637D01*
X173317759Y-83890000D01*
X173085241Y-84045363D01*
X172885363Y-84245241D01*
X172728320Y-84480273D01*
X172620147Y-84741426D01*
X172565000Y-85018665D01*
X172565000Y-85301335D01*
X172620147Y-85578574D01*
X172728320Y-85839727D01*
X172885363Y-86074759D01*
X173085241Y-86274637D01*
X173320273Y-86431680D01*
X173581426Y-86539853D01*
X173858665Y-86595000D01*
X174141335Y-86595000D01*
X174418574Y-86539853D01*
X174679727Y-86431680D01*
X174914759Y-86274637D01*
X175075824Y-86113572D01*
X175128102Y-86135226D01*
X175328061Y-86175000D01*
X175531939Y-86175000D01*
X175731898Y-86135226D01*
X175920256Y-86057205D01*
X176089774Y-85943937D01*
X176233937Y-85799774D01*
X176347205Y-85630256D01*
X176425226Y-85441898D01*
X176465000Y-85241939D01*
X176465000Y-85038061D01*
X176425226Y-84838102D01*
X176407372Y-84794999D01*
X177689491Y-84794999D01*
X177645000Y-85018665D01*
X177645000Y-85301335D01*
X177700147Y-85578574D01*
X177808320Y-85839727D01*
X177965363Y-86074759D01*
X178165241Y-86274637D01*
X178400273Y-86431680D01*
X178661426Y-86539853D01*
X178938665Y-86595000D01*
X179221335Y-86595000D01*
X179498574Y-86539853D01*
X179759727Y-86431680D01*
X179994759Y-86274637D01*
X180194637Y-86074759D01*
X180351680Y-85839727D01*
X180361246Y-85816633D01*
X180452755Y-85865546D01*
X180596016Y-85909003D01*
X180707669Y-85920000D01*
X180707677Y-85920000D01*
X180745002Y-85923676D01*
X180781979Y-85920034D01*
X180885363Y-86074759D01*
X181085241Y-86274637D01*
X181183062Y-86339999D01*
X180477323Y-86339999D01*
X180440000Y-86336323D01*
X180402677Y-86339999D01*
X180402668Y-86339999D01*
X180291015Y-86350996D01*
X180147754Y-86394453D01*
X180015725Y-86465025D01*
X179900000Y-86559998D01*
X179876202Y-86588996D01*
X178905995Y-87559203D01*
X178831111Y-87536487D01*
X178612950Y-87515000D01*
X178467050Y-87515000D01*
X178248889Y-87536487D01*
X177968966Y-87621401D01*
X177710986Y-87759294D01*
X177484866Y-87944866D01*
X177460393Y-87974687D01*
X177439502Y-87905820D01*
X177380537Y-87795506D01*
X177301185Y-87698815D01*
X177204494Y-87619463D01*
X177094180Y-87560498D01*
X176974482Y-87524188D01*
X176850000Y-87511928D01*
X175150000Y-87511928D01*
X175025518Y-87524188D01*
X174905820Y-87560498D01*
X174795506Y-87619463D01*
X174698815Y-87698815D01*
X174619463Y-87795506D01*
X174560498Y-87905820D01*
X174524188Y-88025518D01*
X174511928Y-88150000D01*
X174511928Y-89850000D01*
X174524188Y-89974482D01*
X174538762Y-90022527D01*
X174471063Y-90090226D01*
X174357795Y-90259744D01*
X174279774Y-90448102D01*
X174240000Y-90648061D01*
X174240000Y-90851939D01*
X174279774Y-91051898D01*
X174357795Y-91240256D01*
X174471063Y-91409774D01*
X174615226Y-91553937D01*
X174784744Y-91667205D01*
X174973102Y-91745226D01*
X175173061Y-91785000D01*
X175376939Y-91785000D01*
X175576898Y-91745226D01*
X175765256Y-91667205D01*
X175934774Y-91553937D01*
X175978711Y-91510000D01*
X176134164Y-91510000D01*
X176234744Y-91577205D01*
X176423102Y-91655226D01*
X176623061Y-91695000D01*
X176826939Y-91695000D01*
X177026898Y-91655226D01*
X177215256Y-91577205D01*
X177384774Y-91463937D01*
X177528937Y-91319774D01*
X177622023Y-91180461D01*
X177695063Y-91289774D01*
X177839226Y-91433937D01*
X178008744Y-91547205D01*
X178197102Y-91625226D01*
X178397061Y-91665000D01*
X178600939Y-91665000D01*
X178800898Y-91625226D01*
X178989256Y-91547205D01*
X179158774Y-91433937D01*
X179202711Y-91390000D01*
X181599232Y-91390000D01*
X181729744Y-91477205D01*
X181918102Y-91555226D01*
X182118061Y-91595000D01*
X182321939Y-91595000D01*
X182521898Y-91555226D01*
X182710256Y-91477205D01*
X182879774Y-91363937D01*
X183023937Y-91219774D01*
X183137205Y-91050256D01*
X183215226Y-90861898D01*
X183255000Y-90661939D01*
X183255000Y-90458061D01*
X183250969Y-90437793D01*
X183263110Y-90441476D01*
X183493000Y-90320155D01*
X183493000Y-89127000D01*
X183747000Y-89127000D01*
X183747000Y-90320155D01*
X183976890Y-90441476D01*
X184124099Y-90396825D01*
X184386920Y-90271641D01*
X184620269Y-90097588D01*
X184815178Y-89881355D01*
X184964157Y-89631252D01*
X185061481Y-89356891D01*
X184940814Y-89127000D01*
X183747000Y-89127000D01*
X183493000Y-89127000D01*
X183473000Y-89127000D01*
X183473000Y-88873000D01*
X183493000Y-88873000D01*
X183493000Y-87679845D01*
X183747000Y-87679845D01*
X183747000Y-88873000D01*
X184940814Y-88873000D01*
X185061481Y-88643109D01*
X184964157Y-88368748D01*
X184815178Y-88118645D01*
X184620269Y-87902412D01*
X184386920Y-87728359D01*
X184124099Y-87603175D01*
X183976890Y-87558524D01*
X183747000Y-87679845D01*
X183493000Y-87679845D01*
X183285462Y-87570320D01*
X183310317Y-87510317D01*
X183390255Y-87477205D01*
X183559773Y-87363937D01*
X183603710Y-87320000D01*
X185930634Y-87320000D01*
X185899744Y-87332795D01*
X185730226Y-87446063D01*
X185586063Y-87590226D01*
X185472795Y-87759744D01*
X185394774Y-87948102D01*
X185355000Y-88148061D01*
X185355000Y-88351939D01*
X185394774Y-88551898D01*
X185472795Y-88740256D01*
X185586063Y-88909774D01*
X185695002Y-89018713D01*
X185695001Y-92611288D01*
X185651064Y-92655225D01*
X185537796Y-92824743D01*
X185459775Y-93013101D01*
X185420001Y-93213060D01*
X185420001Y-93416938D01*
X185459775Y-93616897D01*
X185537796Y-93805255D01*
X185651064Y-93974773D01*
X185795227Y-94118936D01*
X185964745Y-94232204D01*
X186153103Y-94310225D01*
X186353062Y-94349999D01*
X186454396Y-94349999D01*
X186454774Y-94351898D01*
X186532795Y-94540256D01*
X186646063Y-94709774D01*
X186790226Y-94853937D01*
X186959744Y-94967205D01*
X187148102Y-95045226D01*
X187348061Y-95085000D01*
X187551939Y-95085000D01*
X187751898Y-95045226D01*
X187940256Y-94967205D01*
X188087483Y-94868831D01*
X188219744Y-94957205D01*
X188408102Y-95035226D01*
X188608061Y-95075000D01*
X188670198Y-95075000D01*
X189656205Y-96061008D01*
X189679999Y-96090001D01*
X189708992Y-96113795D01*
X189708996Y-96113799D01*
X189759512Y-96155256D01*
X189795724Y-96184974D01*
X189927753Y-96255546D01*
X190071014Y-96299003D01*
X190182667Y-96310000D01*
X190182676Y-96310000D01*
X190219999Y-96313676D01*
X190257322Y-96310000D01*
X197859008Y-96310000D01*
X197840000Y-96405561D01*
X197840000Y-96609439D01*
X197879774Y-96809398D01*
X197957795Y-96997756D01*
X198071063Y-97167274D01*
X198115000Y-97211211D01*
X198115000Y-97237678D01*
X198111324Y-97275000D01*
X198115000Y-97312322D01*
X198115000Y-97312332D01*
X198125997Y-97423985D01*
X198169454Y-97567246D01*
X198240026Y-97699276D01*
X198263959Y-97728438D01*
X198334999Y-97815001D01*
X198337756Y-97817264D01*
X198340019Y-97820021D01*
X198455744Y-97914994D01*
X198587773Y-97985566D01*
X198731034Y-98029023D01*
X198842687Y-98040020D01*
X198842697Y-98040020D01*
X198880019Y-98043696D01*
X198917342Y-98040020D01*
X211626289Y-98040020D01*
X211670226Y-98083957D01*
X211839744Y-98197225D01*
X212028102Y-98275246D01*
X212228061Y-98315020D01*
X212431939Y-98315020D01*
X212631898Y-98275246D01*
X212820256Y-98197225D01*
X212989774Y-98083957D01*
X213133937Y-97939794D01*
X213207888Y-97829117D01*
X235265000Y-97829117D01*
X235265000Y-98170883D01*
X235331675Y-98506081D01*
X235462463Y-98821831D01*
X235652337Y-99105998D01*
X235894002Y-99347663D01*
X236178169Y-99537537D01*
X236493919Y-99668325D01*
X236829117Y-99735000D01*
X237170883Y-99735000D01*
X237506081Y-99668325D01*
X237821831Y-99537537D01*
X238105998Y-99347663D01*
X238347663Y-99105998D01*
X238537537Y-98821831D01*
X238668325Y-98506081D01*
X238735000Y-98170883D01*
X238735000Y-97829117D01*
X238668325Y-97493919D01*
X238537537Y-97178169D01*
X238347663Y-96894002D01*
X238105998Y-96652337D01*
X237821831Y-96462463D01*
X237506081Y-96331675D01*
X237170883Y-96265000D01*
X236829117Y-96265000D01*
X236493919Y-96331675D01*
X236178169Y-96462463D01*
X235894002Y-96652337D01*
X235652337Y-96894002D01*
X235462463Y-97178169D01*
X235331675Y-97493919D01*
X235265000Y-97829117D01*
X213207888Y-97829117D01*
X213247205Y-97770276D01*
X213325226Y-97581918D01*
X213365000Y-97381959D01*
X213365000Y-97178081D01*
X213325226Y-96978122D01*
X213247205Y-96789764D01*
X213133937Y-96620246D01*
X212989774Y-96476083D01*
X212820256Y-96362815D01*
X212692750Y-96310000D01*
X220262678Y-96310000D01*
X220300000Y-96313676D01*
X220337322Y-96310000D01*
X220337333Y-96310000D01*
X220448986Y-96299003D01*
X220592247Y-96255546D01*
X220724276Y-96184974D01*
X220840001Y-96090001D01*
X220863804Y-96060997D01*
X221929802Y-94995000D01*
X221991939Y-94995000D01*
X222191898Y-94955226D01*
X222380256Y-94877205D01*
X222549774Y-94763937D01*
X222693937Y-94619774D01*
X222807205Y-94450256D01*
X222885226Y-94261898D01*
X222925000Y-94061939D01*
X222925000Y-93997834D01*
X223535021Y-94607856D01*
X223522493Y-94638102D01*
X223517001Y-94665714D01*
X223496589Y-94669774D01*
X223308231Y-94747795D01*
X223138713Y-94861063D01*
X222994550Y-95005226D01*
X222881282Y-95174744D01*
X222803261Y-95363102D01*
X222798562Y-95386726D01*
X222758102Y-95394774D01*
X222569744Y-95472795D01*
X222400226Y-95586063D01*
X222256063Y-95730226D01*
X222142795Y-95899744D01*
X222064774Y-96088102D01*
X222025000Y-96288061D01*
X222025000Y-96491939D01*
X222064774Y-96691898D01*
X222142795Y-96880256D01*
X222256063Y-97049774D01*
X222400226Y-97193937D01*
X222569744Y-97307205D01*
X222758102Y-97385226D01*
X222958061Y-97425000D01*
X223161939Y-97425000D01*
X223361898Y-97385226D01*
X223550256Y-97307205D01*
X223719774Y-97193937D01*
X223763711Y-97150000D01*
X226692678Y-97150000D01*
X226730000Y-97153676D01*
X226767322Y-97150000D01*
X226767333Y-97150000D01*
X226878986Y-97139003D01*
X227022247Y-97095546D01*
X227154276Y-97024974D01*
X227270001Y-96930001D01*
X227293804Y-96900997D01*
X231284732Y-92910070D01*
X232899660Y-92910070D01*
X232936982Y-92913746D01*
X232974304Y-92910070D01*
X232974315Y-92910070D01*
X233085968Y-92899073D01*
X233229229Y-92855616D01*
X233361258Y-92785044D01*
X233476983Y-92690071D01*
X233500786Y-92661067D01*
X238966049Y-87195805D01*
X238995047Y-87172007D01*
X239054142Y-87100000D01*
X239090020Y-87056283D01*
X239160592Y-86924253D01*
X239164247Y-86912203D01*
X239204049Y-86780992D01*
X239215046Y-86669339D01*
X239215046Y-86669329D01*
X239218722Y-86632006D01*
X239215046Y-86594683D01*
X239215046Y-78412369D01*
X239218722Y-78375046D01*
X239215046Y-78337723D01*
X239215046Y-78337713D01*
X239204049Y-78226060D01*
X239160592Y-78082799D01*
X239090020Y-77950770D01*
X238995047Y-77835045D01*
X238966050Y-77811248D01*
X236478688Y-75323887D01*
X236515000Y-75141335D01*
X236515000Y-74858665D01*
X236459853Y-74581426D01*
X236351680Y-74320273D01*
X236194637Y-74085241D01*
X235994759Y-73885363D01*
X235759727Y-73728320D01*
X235498574Y-73620147D01*
X235296744Y-73580000D01*
X235498574Y-73539853D01*
X235759727Y-73431680D01*
X235994759Y-73274637D01*
X236194637Y-73074759D01*
X236351680Y-72839727D01*
X236459853Y-72578574D01*
X236515000Y-72301335D01*
X236515000Y-72018665D01*
X236459853Y-71741426D01*
X236351680Y-71480273D01*
X236194637Y-71245241D01*
X235994759Y-71045363D01*
X235762241Y-70890000D01*
X235994759Y-70734637D01*
X236194637Y-70534759D01*
X236351680Y-70299727D01*
X236459853Y-70038574D01*
X236515000Y-69761335D01*
X236515000Y-69478665D01*
X236459853Y-69201426D01*
X236351680Y-68940273D01*
X236194637Y-68705241D01*
X235994759Y-68505363D01*
X235762241Y-68350000D01*
X235994759Y-68194637D01*
X236194637Y-67994759D01*
X236351680Y-67759727D01*
X236459853Y-67498574D01*
X236515000Y-67221335D01*
X236515000Y-66938665D01*
X236459853Y-66661426D01*
X236351680Y-66400273D01*
X236194637Y-66165241D01*
X235994759Y-65965363D01*
X235762241Y-65810000D01*
X235994759Y-65654637D01*
X236194637Y-65454759D01*
X236351680Y-65219727D01*
X236459853Y-64958574D01*
X236515000Y-64681335D01*
X236515000Y-64398665D01*
X236459853Y-64121426D01*
X236351680Y-63860273D01*
X236194637Y-63625241D01*
X235994759Y-63425363D01*
X235762241Y-63270000D01*
X235994759Y-63114637D01*
X236194637Y-62914759D01*
X236351680Y-62679727D01*
X236459853Y-62418574D01*
X236515000Y-62141335D01*
X236515000Y-61858665D01*
X236459853Y-61581426D01*
X236351680Y-61320273D01*
X236194637Y-61085241D01*
X235994759Y-60885363D01*
X235759727Y-60728320D01*
X235498574Y-60620147D01*
X235221335Y-60565000D01*
X234938665Y-60565000D01*
X234661426Y-60620147D01*
X234400273Y-60728320D01*
X234165241Y-60885363D01*
X233965363Y-61085241D01*
X233808320Y-61320273D01*
X233700147Y-61581426D01*
X233645000Y-61858665D01*
X233645000Y-62141335D01*
X233681312Y-62323887D01*
X233640198Y-62365001D01*
X231438072Y-62365001D01*
X231438072Y-61200000D01*
X231425812Y-61075518D01*
X231389502Y-60955820D01*
X231330537Y-60845506D01*
X231251185Y-60748815D01*
X231154494Y-60669463D01*
X231044180Y-60610498D01*
X230924482Y-60574188D01*
X230800000Y-60561928D01*
X229200000Y-60561928D01*
X229075518Y-60574188D01*
X228955820Y-60610498D01*
X228845506Y-60669463D01*
X228748815Y-60748815D01*
X228669463Y-60845506D01*
X228610498Y-60955820D01*
X228574188Y-61075518D01*
X228561928Y-61200000D01*
X228561928Y-62365001D01*
X228519803Y-62365001D01*
X228478688Y-62323886D01*
X228515000Y-62141335D01*
X228515000Y-61858665D01*
X228459853Y-61581426D01*
X228351680Y-61320273D01*
X228194637Y-61085241D01*
X227994759Y-60885363D01*
X227759727Y-60728320D01*
X227498574Y-60620147D01*
X227221335Y-60565000D01*
X226938665Y-60565000D01*
X226661426Y-60620147D01*
X226400273Y-60728320D01*
X226165241Y-60885363D01*
X225965363Y-61085241D01*
X225808320Y-61320273D01*
X225700147Y-61581426D01*
X225645000Y-61858665D01*
X225645000Y-62141335D01*
X225681312Y-62323887D01*
X225640198Y-62365001D01*
X223438072Y-62365001D01*
X223438072Y-61200000D01*
X223425812Y-61075518D01*
X223389502Y-60955820D01*
X223330537Y-60845506D01*
X223251185Y-60748815D01*
X223154494Y-60669463D01*
X223044180Y-60610498D01*
X222924482Y-60574188D01*
X222800000Y-60561928D01*
X221200000Y-60561928D01*
X221075518Y-60574188D01*
X220955820Y-60610498D01*
X220845506Y-60669463D01*
X220748815Y-60748815D01*
X220669463Y-60845506D01*
X220610498Y-60955820D01*
X220574188Y-61075518D01*
X220561928Y-61200000D01*
X220561928Y-62365001D01*
X220519803Y-62365001D01*
X220478688Y-62323886D01*
X220515000Y-62141335D01*
X220515000Y-61858665D01*
X220459853Y-61581426D01*
X220351680Y-61320273D01*
X220194637Y-61085241D01*
X219994759Y-60885363D01*
X219759727Y-60728320D01*
X219498574Y-60620147D01*
X219221335Y-60565000D01*
X218938665Y-60565000D01*
X218661426Y-60620147D01*
X218400273Y-60728320D01*
X218165241Y-60885363D01*
X217965363Y-61085241D01*
X217808320Y-61320273D01*
X217700147Y-61581426D01*
X217645000Y-61858665D01*
X217645000Y-62141335D01*
X217681312Y-62323887D01*
X217640198Y-62365001D01*
X215438072Y-62365001D01*
X215438072Y-61200000D01*
X215425812Y-61075518D01*
X215389502Y-60955820D01*
X215330537Y-60845506D01*
X215251185Y-60748815D01*
X215154494Y-60669463D01*
X215044180Y-60610498D01*
X214924482Y-60574188D01*
X214800000Y-60561928D01*
X213200000Y-60561928D01*
X213075518Y-60574188D01*
X212955820Y-60610498D01*
X212845506Y-60669463D01*
X212748815Y-60748815D01*
X212669463Y-60845506D01*
X212610498Y-60955820D01*
X212574188Y-61075518D01*
X212561928Y-61200000D01*
X212561928Y-62365001D01*
X212519803Y-62365001D01*
X212478688Y-62323886D01*
X212515000Y-62141335D01*
X212515000Y-61858665D01*
X212459853Y-61581426D01*
X212351680Y-61320273D01*
X212194637Y-61085241D01*
X211994759Y-60885363D01*
X211759727Y-60728320D01*
X211498574Y-60620147D01*
X211221335Y-60565000D01*
X210938665Y-60565000D01*
X210661426Y-60620147D01*
X210400273Y-60728320D01*
X210165241Y-60885363D01*
X209965363Y-61085241D01*
X209808320Y-61320273D01*
X209700147Y-61581426D01*
X209645000Y-61858665D01*
X209645000Y-62141335D01*
X209681312Y-62323886D01*
X209350200Y-62654999D01*
X207438072Y-62654999D01*
X207438072Y-61200000D01*
X207425812Y-61075518D01*
X207389502Y-60955820D01*
X207330537Y-60845506D01*
X207251185Y-60748815D01*
X207154494Y-60669463D01*
X207044180Y-60610498D01*
X206924482Y-60574188D01*
X206800000Y-60561928D01*
X205200000Y-60561928D01*
X205075518Y-60574188D01*
X204955820Y-60610498D01*
X204845506Y-60669463D01*
X204748815Y-60748815D01*
X204669463Y-60845506D01*
X204610498Y-60955820D01*
X204574188Y-61075518D01*
X204561928Y-61200000D01*
X204561928Y-62407126D01*
X204478688Y-62323886D01*
X204515000Y-62141335D01*
X204515000Y-61858665D01*
X204459853Y-61581426D01*
X204351680Y-61320273D01*
X204194637Y-61085241D01*
X203994759Y-60885363D01*
X203759727Y-60728320D01*
X203498574Y-60620147D01*
X203221335Y-60565000D01*
X202938665Y-60565000D01*
X202661426Y-60620147D01*
X202400273Y-60728320D01*
X202165241Y-60885363D01*
X201965363Y-61085241D01*
X201808320Y-61320273D01*
X201700147Y-61581426D01*
X201645000Y-61858665D01*
X201645000Y-62141335D01*
X201681312Y-62323887D01*
X201640198Y-62365001D01*
X199438072Y-62365001D01*
X199438072Y-61200000D01*
X199425812Y-61075518D01*
X199389502Y-60955820D01*
X199330537Y-60845506D01*
X199251185Y-60748815D01*
X199154494Y-60669463D01*
X199044180Y-60610498D01*
X198924482Y-60574188D01*
X198800000Y-60561928D01*
X197200000Y-60561928D01*
X197075518Y-60574188D01*
X196955820Y-60610498D01*
X196845506Y-60669463D01*
X196748815Y-60748815D01*
X196669463Y-60845506D01*
X196610498Y-60955820D01*
X196574188Y-61075518D01*
X196561928Y-61200000D01*
X196561928Y-62365001D01*
X196519803Y-62365001D01*
X196478688Y-62323886D01*
X196515000Y-62141335D01*
X196515000Y-61858665D01*
X196459853Y-61581426D01*
X196351680Y-61320273D01*
X196194637Y-61085241D01*
X195994759Y-60885363D01*
X195759727Y-60728320D01*
X195498574Y-60620147D01*
X195221335Y-60565000D01*
X194938665Y-60565000D01*
X194661426Y-60620147D01*
X194400273Y-60728320D01*
X194165241Y-60885363D01*
X193965363Y-61085241D01*
X193808320Y-61320273D01*
X193700147Y-61581426D01*
X193645000Y-61858665D01*
X193645000Y-62141335D01*
X193681312Y-62323886D01*
X193350200Y-62654999D01*
X191438072Y-62654999D01*
X191438072Y-61200000D01*
X191425812Y-61075518D01*
X191389502Y-60955820D01*
X191330537Y-60845506D01*
X191251185Y-60748815D01*
X191154494Y-60669463D01*
X191044180Y-60610498D01*
X190924482Y-60574188D01*
X190800000Y-60561928D01*
X189200000Y-60561928D01*
X189075518Y-60574188D01*
X188955820Y-60610498D01*
X188845506Y-60669463D01*
X188748815Y-60748815D01*
X188669463Y-60845506D01*
X188610498Y-60955820D01*
X188574188Y-61075518D01*
X188561928Y-61200000D01*
X188561928Y-62407126D01*
X188478688Y-62323886D01*
X188515000Y-62141335D01*
X188515000Y-61858665D01*
X188459853Y-61581426D01*
X188351680Y-61320273D01*
X188194637Y-61085241D01*
X187994759Y-60885363D01*
X187759727Y-60728320D01*
X187498574Y-60620147D01*
X187221335Y-60565000D01*
X186938665Y-60565000D01*
X186661426Y-60620147D01*
X186400273Y-60728320D01*
X186165241Y-60885363D01*
X185965363Y-61085241D01*
X185808320Y-61320273D01*
X185700147Y-61581426D01*
X185645000Y-61858665D01*
X185645000Y-62141335D01*
X185681312Y-62323887D01*
X185640198Y-62365001D01*
X183438072Y-62365001D01*
X183438072Y-61200000D01*
X183425812Y-61075518D01*
X183389502Y-60955820D01*
X183330537Y-60845506D01*
X183251185Y-60748815D01*
X183154494Y-60669463D01*
X183044180Y-60610498D01*
X182924482Y-60574188D01*
X182800000Y-60561928D01*
X181200000Y-60561928D01*
X181075518Y-60574188D01*
X180955820Y-60610498D01*
X180845506Y-60669463D01*
X180748815Y-60748815D01*
X180669463Y-60845506D01*
X180610498Y-60955820D01*
X180574188Y-61075518D01*
X180561928Y-61200000D01*
X180561928Y-62365001D01*
X180519803Y-62365001D01*
X180478688Y-62323886D01*
X180515000Y-62141335D01*
X180515000Y-61858665D01*
X180459853Y-61581426D01*
X180351680Y-61320273D01*
X180194637Y-61085241D01*
X179994759Y-60885363D01*
X179759727Y-60728320D01*
X179498574Y-60620147D01*
X179221335Y-60565000D01*
X178938665Y-60565000D01*
X178661426Y-60620147D01*
X178400273Y-60728320D01*
X178165241Y-60885363D01*
X177965363Y-61085241D01*
X177808320Y-61320273D01*
X177700147Y-61581426D01*
X177645000Y-61858665D01*
X177645000Y-62141335D01*
X177700147Y-62418574D01*
X177798077Y-62654999D01*
X175438072Y-62654999D01*
X175438072Y-61200000D01*
X175425812Y-61075518D01*
X175389502Y-60955820D01*
X175330537Y-60845506D01*
X175251185Y-60748815D01*
X175154494Y-60669463D01*
X175044180Y-60610498D01*
X174924482Y-60574188D01*
X174800000Y-60561928D01*
X173200000Y-60561928D01*
X173075518Y-60574188D01*
X172955820Y-60610498D01*
X172845506Y-60669463D01*
X172748815Y-60748815D01*
X172669463Y-60845506D01*
X172610498Y-60955820D01*
X172574188Y-61075518D01*
X172561928Y-61200000D01*
X171695000Y-61200000D01*
X171695000Y-60033992D01*
X171742168Y-59552937D01*
X171872003Y-59122903D01*
X172082892Y-58726276D01*
X172366801Y-58378169D01*
X172712923Y-58091831D01*
X173108068Y-57878178D01*
X173537184Y-57745344D01*
X174016176Y-57695000D01*
X236966008Y-57695000D01*
X237447063Y-57742168D01*
X237447063Y-57742168D01*
G37*
X237447063Y-57742168D02*
X237877097Y-57872003D01*
X238273724Y-58082892D01*
X238621831Y-58366801D01*
X238908169Y-58712923D01*
X239121822Y-59108068D01*
X239254656Y-59537184D01*
X239305001Y-60016186D01*
X239305000Y-97966009D01*
X239257832Y-98447063D01*
X239127997Y-98877097D01*
X238917108Y-99273723D01*
X238633197Y-99621832D01*
X238287074Y-99908170D01*
X237891931Y-100121823D01*
X237462817Y-100254656D01*
X236983824Y-100305000D01*
X174033991Y-100305000D01*
X173552937Y-100257832D01*
X173122903Y-100127997D01*
X172726277Y-99917108D01*
X172378168Y-99633197D01*
X172091830Y-99287074D01*
X171878177Y-98891931D01*
X171745344Y-98462817D01*
X171695000Y-97983824D01*
X171695000Y-97829117D01*
X172265000Y-97829117D01*
X172265000Y-98170883D01*
X172331675Y-98506081D01*
X172462463Y-98821831D01*
X172652337Y-99105998D01*
X172894002Y-99347663D01*
X173178169Y-99537537D01*
X173493919Y-99668325D01*
X173829117Y-99735000D01*
X174170883Y-99735000D01*
X174506081Y-99668325D01*
X174821831Y-99537537D01*
X175105998Y-99347663D01*
X175347663Y-99105998D01*
X175537537Y-98821831D01*
X175668325Y-98506081D01*
X175735000Y-98170883D01*
X175735000Y-97829117D01*
X175668325Y-97493919D01*
X175537537Y-97178169D01*
X175347663Y-96894002D01*
X175105998Y-96652337D01*
X174821831Y-96462463D01*
X174506081Y-96331675D01*
X174170883Y-96265000D01*
X173829117Y-96265000D01*
X173493919Y-96331675D01*
X173178169Y-96462463D01*
X172894002Y-96652337D01*
X172652337Y-96894002D01*
X172462463Y-97178169D01*
X172331675Y-97493919D01*
X172265000Y-97829117D01*
X171695000Y-97829117D01*
X171695000Y-61200000D01*
X172561928Y-61200000D01*
X172561928Y-62800000D01*
X172574188Y-62924482D01*
X172610498Y-63044180D01*
X172669463Y-63154494D01*
X172748815Y-63251185D01*
X172845506Y-63330537D01*
X172955820Y-63389502D01*
X173075518Y-63425812D01*
X173083961Y-63426643D01*
X172885363Y-63625241D01*
X172728320Y-63860273D01*
X172620147Y-64121426D01*
X172565000Y-64398665D01*
X172565000Y-64681335D01*
X172620147Y-64958574D01*
X172728320Y-65219727D01*
X172885363Y-65454759D01*
X173085241Y-65654637D01*
X173317759Y-65810000D01*
X173085241Y-65965363D01*
X172885363Y-66165241D01*
X172728320Y-66400273D01*
X172620147Y-66661426D01*
X172565000Y-66938665D01*
X172565000Y-67221335D01*
X172620147Y-67498574D01*
X172728320Y-67759727D01*
X172885363Y-67994759D01*
X173085241Y-68194637D01*
X173317759Y-68350000D01*
X173085241Y-68505363D01*
X172885363Y-68705241D01*
X172728320Y-68940273D01*
X172620147Y-69201426D01*
X172565000Y-69478665D01*
X172565000Y-69761335D01*
X172620147Y-70038574D01*
X172728320Y-70299727D01*
X172885363Y-70534759D01*
X173085241Y-70734637D01*
X173317759Y-70890000D01*
X173085241Y-71045363D01*
X172885363Y-71245241D01*
X172728320Y-71480273D01*
X172620147Y-71741426D01*
X172565000Y-72018665D01*
X172565000Y-72301335D01*
X172620147Y-72578574D01*
X172728320Y-72839727D01*
X172885363Y-73074759D01*
X173085241Y-73274637D01*
X173320273Y-73431680D01*
X173581426Y-73539853D01*
X173692403Y-73561928D01*
X173200000Y-73561928D01*
X173075518Y-73574188D01*
X172955820Y-73610498D01*
X172845506Y-73669463D01*
X172748815Y-73748815D01*
X172669463Y-73845506D01*
X172610498Y-73955820D01*
X172574188Y-74075518D01*
X172561928Y-74200000D01*
X172561928Y-75800000D01*
X172574188Y-75924482D01*
X172610498Y-76044180D01*
X172669463Y-76154494D01*
X172748815Y-76251185D01*
X172845506Y-76330537D01*
X172955820Y-76389502D01*
X173075518Y-76425812D01*
X173083961Y-76426643D01*
X172885363Y-76625241D01*
X172728320Y-76860273D01*
X172620147Y-77121426D01*
X172565000Y-77398665D01*
X172565000Y-77681335D01*
X172620147Y-77958574D01*
X172728320Y-78219727D01*
X172885363Y-78454759D01*
X173085241Y-78654637D01*
X173317759Y-78810000D01*
X173085241Y-78965363D01*
X172885363Y-79165241D01*
X172728320Y-79400273D01*
X172620147Y-79661426D01*
X172565000Y-79938665D01*
X172565000Y-80221335D01*
X172620147Y-80498574D01*
X172728320Y-80759727D01*
X172885363Y-80994759D01*
X173085241Y-81194637D01*
X173317759Y-81350000D01*
X173085241Y-81505363D01*
X172885363Y-81705241D01*
X172728320Y-81940273D01*
X172620147Y-82201426D01*
X172565000Y-82478665D01*
X172565000Y-82761335D01*
X172620147Y-83038574D01*
X172728320Y-83299727D01*
X172885363Y-83534759D01*
X173085241Y-83734637D01*
X173317759Y-83890000D01*
X173085241Y-84045363D01*
X172885363Y-84245241D01*
X172728320Y-84480273D01*
X172620147Y-84741426D01*
X172565000Y-85018665D01*
X172565000Y-85301335D01*
X172620147Y-85578574D01*
X172728320Y-85839727D01*
X172885363Y-86074759D01*
X173085241Y-86274637D01*
X173320273Y-86431680D01*
X173581426Y-86539853D01*
X173858665Y-86595000D01*
X174141335Y-86595000D01*
X174418574Y-86539853D01*
X174679727Y-86431680D01*
X174914759Y-86274637D01*
X175075824Y-86113572D01*
X175128102Y-86135226D01*
X175328061Y-86175000D01*
X175531939Y-86175000D01*
X175731898Y-86135226D01*
X175920256Y-86057205D01*
X176089774Y-85943937D01*
X176233937Y-85799774D01*
X176347205Y-85630256D01*
X176425226Y-85441898D01*
X176465000Y-85241939D01*
X176465000Y-85038061D01*
X176425226Y-84838102D01*
X176407372Y-84794999D01*
X177689491Y-84794999D01*
X177645000Y-85018665D01*
X177645000Y-85301335D01*
X177700147Y-85578574D01*
X177808320Y-85839727D01*
X177965363Y-86074759D01*
X178165241Y-86274637D01*
X178400273Y-86431680D01*
X178661426Y-86539853D01*
X178938665Y-86595000D01*
X179221335Y-86595000D01*
X179498574Y-86539853D01*
X179759727Y-86431680D01*
X179994759Y-86274637D01*
X180194637Y-86074759D01*
X180351680Y-85839727D01*
X180361246Y-85816633D01*
X180452755Y-85865546D01*
X180596016Y-85909003D01*
X180707669Y-85920000D01*
X180707677Y-85920000D01*
X180745002Y-85923676D01*
X180781979Y-85920034D01*
X180885363Y-86074759D01*
X181085241Y-86274637D01*
X181183062Y-86339999D01*
X180477323Y-86339999D01*
X180440000Y-86336323D01*
X180402677Y-86339999D01*
X180402668Y-86339999D01*
X180291015Y-86350996D01*
X180147754Y-86394453D01*
X180015725Y-86465025D01*
X179900000Y-86559998D01*
X179876202Y-86588996D01*
X178905995Y-87559203D01*
X178831111Y-87536487D01*
X178612950Y-87515000D01*
X178467050Y-87515000D01*
X178248889Y-87536487D01*
X177968966Y-87621401D01*
X177710986Y-87759294D01*
X177484866Y-87944866D01*
X177460393Y-87974687D01*
X177439502Y-87905820D01*
X177380537Y-87795506D01*
X177301185Y-87698815D01*
X177204494Y-87619463D01*
X177094180Y-87560498D01*
X176974482Y-87524188D01*
X176850000Y-87511928D01*
X175150000Y-87511928D01*
X175025518Y-87524188D01*
X174905820Y-87560498D01*
X174795506Y-87619463D01*
X174698815Y-87698815D01*
X174619463Y-87795506D01*
X174560498Y-87905820D01*
X174524188Y-88025518D01*
X174511928Y-88150000D01*
X174511928Y-89850000D01*
X174524188Y-89974482D01*
X174538762Y-90022527D01*
X174471063Y-90090226D01*
X174357795Y-90259744D01*
X174279774Y-90448102D01*
X174240000Y-90648061D01*
X174240000Y-90851939D01*
X174279774Y-91051898D01*
X174357795Y-91240256D01*
X174471063Y-91409774D01*
X174615226Y-91553937D01*
X174784744Y-91667205D01*
X174973102Y-91745226D01*
X175173061Y-91785000D01*
X175376939Y-91785000D01*
X175576898Y-91745226D01*
X175765256Y-91667205D01*
X175934774Y-91553937D01*
X175978711Y-91510000D01*
X176134164Y-91510000D01*
X176234744Y-91577205D01*
X176423102Y-91655226D01*
X176623061Y-91695000D01*
X176826939Y-91695000D01*
X177026898Y-91655226D01*
X177215256Y-91577205D01*
X177384774Y-91463937D01*
X177528937Y-91319774D01*
X177622023Y-91180461D01*
X177695063Y-91289774D01*
X177839226Y-91433937D01*
X178008744Y-91547205D01*
X178197102Y-91625226D01*
X178397061Y-91665000D01*
X178600939Y-91665000D01*
X178800898Y-91625226D01*
X178989256Y-91547205D01*
X179158774Y-91433937D01*
X179202711Y-91390000D01*
X181599232Y-91390000D01*
X181729744Y-91477205D01*
X181918102Y-91555226D01*
X182118061Y-91595000D01*
X182321939Y-91595000D01*
X182521898Y-91555226D01*
X182710256Y-91477205D01*
X182879774Y-91363937D01*
X183023937Y-91219774D01*
X183137205Y-91050256D01*
X183215226Y-90861898D01*
X183255000Y-90661939D01*
X183255000Y-90458061D01*
X183250969Y-90437793D01*
X183263110Y-90441476D01*
X183493000Y-90320155D01*
X183493000Y-89127000D01*
X183747000Y-89127000D01*
X183747000Y-90320155D01*
X183976890Y-90441476D01*
X184124099Y-90396825D01*
X184386920Y-90271641D01*
X184620269Y-90097588D01*
X184815178Y-89881355D01*
X184964157Y-89631252D01*
X185061481Y-89356891D01*
X184940814Y-89127000D01*
X183747000Y-89127000D01*
X183493000Y-89127000D01*
X183473000Y-89127000D01*
X183473000Y-88873000D01*
X183493000Y-88873000D01*
X183493000Y-87679845D01*
X183747000Y-87679845D01*
X183747000Y-88873000D01*
X184940814Y-88873000D01*
X185061481Y-88643109D01*
X184964157Y-88368748D01*
X184815178Y-88118645D01*
X184620269Y-87902412D01*
X184386920Y-87728359D01*
X184124099Y-87603175D01*
X183976890Y-87558524D01*
X183747000Y-87679845D01*
X183493000Y-87679845D01*
X183285462Y-87570320D01*
X183310317Y-87510317D01*
X183390255Y-87477205D01*
X183559773Y-87363937D01*
X183603710Y-87320000D01*
X185930634Y-87320000D01*
X185899744Y-87332795D01*
X185730226Y-87446063D01*
X185586063Y-87590226D01*
X185472795Y-87759744D01*
X185394774Y-87948102D01*
X185355000Y-88148061D01*
X185355000Y-88351939D01*
X185394774Y-88551898D01*
X185472795Y-88740256D01*
X185586063Y-88909774D01*
X185695002Y-89018713D01*
X185695001Y-92611288D01*
X185651064Y-92655225D01*
X185537796Y-92824743D01*
X185459775Y-93013101D01*
X185420001Y-93213060D01*
X185420001Y-93416938D01*
X185459775Y-93616897D01*
X185537796Y-93805255D01*
X185651064Y-93974773D01*
X185795227Y-94118936D01*
X185964745Y-94232204D01*
X186153103Y-94310225D01*
X186353062Y-94349999D01*
X186454396Y-94349999D01*
X186454774Y-94351898D01*
X186532795Y-94540256D01*
X186646063Y-94709774D01*
X186790226Y-94853937D01*
X186959744Y-94967205D01*
X187148102Y-95045226D01*
X187348061Y-95085000D01*
X187551939Y-95085000D01*
X187751898Y-95045226D01*
X187940256Y-94967205D01*
X188087483Y-94868831D01*
X188219744Y-94957205D01*
X188408102Y-95035226D01*
X188608061Y-95075000D01*
X188670198Y-95075000D01*
X189656205Y-96061008D01*
X189679999Y-96090001D01*
X189708992Y-96113795D01*
X189708996Y-96113799D01*
X189759512Y-96155256D01*
X189795724Y-96184974D01*
X189927753Y-96255546D01*
X190071014Y-96299003D01*
X190182667Y-96310000D01*
X190182676Y-96310000D01*
X190219999Y-96313676D01*
X190257322Y-96310000D01*
X197859008Y-96310000D01*
X197840000Y-96405561D01*
X197840000Y-96609439D01*
X197879774Y-96809398D01*
X197957795Y-96997756D01*
X198071063Y-97167274D01*
X198115000Y-97211211D01*
X198115000Y-97237678D01*
X198111324Y-97275000D01*
X198115000Y-97312322D01*
X198115000Y-97312332D01*
X198125997Y-97423985D01*
X198169454Y-97567246D01*
X198240026Y-97699276D01*
X198263959Y-97728438D01*
X198334999Y-97815001D01*
X198337756Y-97817264D01*
X198340019Y-97820021D01*
X198455744Y-97914994D01*
X198587773Y-97985566D01*
X198731034Y-98029023D01*
X198842687Y-98040020D01*
X198842697Y-98040020D01*
X198880019Y-98043696D01*
X198917342Y-98040020D01*
X211626289Y-98040020D01*
X211670226Y-98083957D01*
X211839744Y-98197225D01*
X212028102Y-98275246D01*
X212228061Y-98315020D01*
X212431939Y-98315020D01*
X212631898Y-98275246D01*
X212820256Y-98197225D01*
X212989774Y-98083957D01*
X213133937Y-97939794D01*
X213207888Y-97829117D01*
X235265000Y-97829117D01*
X235265000Y-98170883D01*
X235331675Y-98506081D01*
X235462463Y-98821831D01*
X235652337Y-99105998D01*
X235894002Y-99347663D01*
X236178169Y-99537537D01*
X236493919Y-99668325D01*
X236829117Y-99735000D01*
X237170883Y-99735000D01*
X237506081Y-99668325D01*
X237821831Y-99537537D01*
X238105998Y-99347663D01*
X238347663Y-99105998D01*
X238537537Y-98821831D01*
X238668325Y-98506081D01*
X238735000Y-98170883D01*
X238735000Y-97829117D01*
X238668325Y-97493919D01*
X238537537Y-97178169D01*
X238347663Y-96894002D01*
X238105998Y-96652337D01*
X237821831Y-96462463D01*
X237506081Y-96331675D01*
X237170883Y-96265000D01*
X236829117Y-96265000D01*
X236493919Y-96331675D01*
X236178169Y-96462463D01*
X235894002Y-96652337D01*
X235652337Y-96894002D01*
X235462463Y-97178169D01*
X235331675Y-97493919D01*
X235265000Y-97829117D01*
X213207888Y-97829117D01*
X213247205Y-97770276D01*
X213325226Y-97581918D01*
X213365000Y-97381959D01*
X213365000Y-97178081D01*
X213325226Y-96978122D01*
X213247205Y-96789764D01*
X213133937Y-96620246D01*
X212989774Y-96476083D01*
X212820256Y-96362815D01*
X212692750Y-96310000D01*
X220262678Y-96310000D01*
X220300000Y-96313676D01*
X220337322Y-96310000D01*
X220337333Y-96310000D01*
X220448986Y-96299003D01*
X220592247Y-96255546D01*
X220724276Y-96184974D01*
X220840001Y-96090001D01*
X220863804Y-96060997D01*
X221929802Y-94995000D01*
X221991939Y-94995000D01*
X222191898Y-94955226D01*
X222380256Y-94877205D01*
X222549774Y-94763937D01*
X222693937Y-94619774D01*
X222807205Y-94450256D01*
X222885226Y-94261898D01*
X222925000Y-94061939D01*
X222925000Y-93997834D01*
X223535021Y-94607856D01*
X223522493Y-94638102D01*
X223517001Y-94665714D01*
X223496589Y-94669774D01*
X223308231Y-94747795D01*
X223138713Y-94861063D01*
X222994550Y-95005226D01*
X222881282Y-95174744D01*
X222803261Y-95363102D01*
X222798562Y-95386726D01*
X222758102Y-95394774D01*
X222569744Y-95472795D01*
X222400226Y-95586063D01*
X222256063Y-95730226D01*
X222142795Y-95899744D01*
X222064774Y-96088102D01*
X222025000Y-96288061D01*
X222025000Y-96491939D01*
X222064774Y-96691898D01*
X222142795Y-96880256D01*
X222256063Y-97049774D01*
X222400226Y-97193937D01*
X222569744Y-97307205D01*
X222758102Y-97385226D01*
X222958061Y-97425000D01*
X223161939Y-97425000D01*
X223361898Y-97385226D01*
X223550256Y-97307205D01*
X223719774Y-97193937D01*
X223763711Y-97150000D01*
X226692678Y-97150000D01*
X226730000Y-97153676D01*
X226767322Y-97150000D01*
X226767333Y-97150000D01*
X226878986Y-97139003D01*
X227022247Y-97095546D01*
X227154276Y-97024974D01*
X227270001Y-96930001D01*
X227293804Y-96900997D01*
X231284732Y-92910070D01*
X232899660Y-92910070D01*
X232936982Y-92913746D01*
X232974304Y-92910070D01*
X232974315Y-92910070D01*
X233085968Y-92899073D01*
X233229229Y-92855616D01*
X233361258Y-92785044D01*
X233476983Y-92690071D01*
X233500786Y-92661067D01*
X238966049Y-87195805D01*
X238995047Y-87172007D01*
X239054142Y-87100000D01*
X239090020Y-87056283D01*
X239160592Y-86924253D01*
X239164247Y-86912203D01*
X239204049Y-86780992D01*
X239215046Y-86669339D01*
X239215046Y-86669329D01*
X239218722Y-86632006D01*
X239215046Y-86594683D01*
X239215046Y-78412369D01*
X239218722Y-78375046D01*
X239215046Y-78337723D01*
X239215046Y-78337713D01*
X239204049Y-78226060D01*
X239160592Y-78082799D01*
X239090020Y-77950770D01*
X238995047Y-77835045D01*
X238966050Y-77811248D01*
X236478688Y-75323887D01*
X236515000Y-75141335D01*
X236515000Y-74858665D01*
X236459853Y-74581426D01*
X236351680Y-74320273D01*
X236194637Y-74085241D01*
X235994759Y-73885363D01*
X235759727Y-73728320D01*
X235498574Y-73620147D01*
X235296744Y-73580000D01*
X235498574Y-73539853D01*
X235759727Y-73431680D01*
X235994759Y-73274637D01*
X236194637Y-73074759D01*
X236351680Y-72839727D01*
X236459853Y-72578574D01*
X236515000Y-72301335D01*
X236515000Y-72018665D01*
X236459853Y-71741426D01*
X236351680Y-71480273D01*
X236194637Y-71245241D01*
X235994759Y-71045363D01*
X235762241Y-70890000D01*
X235994759Y-70734637D01*
X236194637Y-70534759D01*
X236351680Y-70299727D01*
X236459853Y-70038574D01*
X236515000Y-69761335D01*
X236515000Y-69478665D01*
X236459853Y-69201426D01*
X236351680Y-68940273D01*
X236194637Y-68705241D01*
X235994759Y-68505363D01*
X235762241Y-68350000D01*
X235994759Y-68194637D01*
X236194637Y-67994759D01*
X236351680Y-67759727D01*
X236459853Y-67498574D01*
X236515000Y-67221335D01*
X236515000Y-66938665D01*
X236459853Y-66661426D01*
X236351680Y-66400273D01*
X236194637Y-66165241D01*
X235994759Y-65965363D01*
X235762241Y-65810000D01*
X235994759Y-65654637D01*
X236194637Y-65454759D01*
X236351680Y-65219727D01*
X236459853Y-64958574D01*
X236515000Y-64681335D01*
X236515000Y-64398665D01*
X236459853Y-64121426D01*
X236351680Y-63860273D01*
X236194637Y-63625241D01*
X235994759Y-63425363D01*
X235762241Y-63270000D01*
X235994759Y-63114637D01*
X236194637Y-62914759D01*
X236351680Y-62679727D01*
X236459853Y-62418574D01*
X236515000Y-62141335D01*
X236515000Y-61858665D01*
X236459853Y-61581426D01*
X236351680Y-61320273D01*
X236194637Y-61085241D01*
X235994759Y-60885363D01*
X235759727Y-60728320D01*
X235498574Y-60620147D01*
X235221335Y-60565000D01*
X234938665Y-60565000D01*
X234661426Y-60620147D01*
X234400273Y-60728320D01*
X234165241Y-60885363D01*
X233965363Y-61085241D01*
X233808320Y-61320273D01*
X233700147Y-61581426D01*
X233645000Y-61858665D01*
X233645000Y-62141335D01*
X233681312Y-62323887D01*
X233640198Y-62365001D01*
X231438072Y-62365001D01*
X231438072Y-61200000D01*
X231425812Y-61075518D01*
X231389502Y-60955820D01*
X231330537Y-60845506D01*
X231251185Y-60748815D01*
X231154494Y-60669463D01*
X231044180Y-60610498D01*
X230924482Y-60574188D01*
X230800000Y-60561928D01*
X229200000Y-60561928D01*
X229075518Y-60574188D01*
X228955820Y-60610498D01*
X228845506Y-60669463D01*
X228748815Y-60748815D01*
X228669463Y-60845506D01*
X228610498Y-60955820D01*
X228574188Y-61075518D01*
X228561928Y-61200000D01*
X228561928Y-62365001D01*
X228519803Y-62365001D01*
X228478688Y-62323886D01*
X228515000Y-62141335D01*
X228515000Y-61858665D01*
X228459853Y-61581426D01*
X228351680Y-61320273D01*
X228194637Y-61085241D01*
X227994759Y-60885363D01*
X227759727Y-60728320D01*
X227498574Y-60620147D01*
X227221335Y-60565000D01*
X226938665Y-60565000D01*
X226661426Y-60620147D01*
X226400273Y-60728320D01*
X226165241Y-60885363D01*
X225965363Y-61085241D01*
X225808320Y-61320273D01*
X225700147Y-61581426D01*
X225645000Y-61858665D01*
X225645000Y-62141335D01*
X225681312Y-62323887D01*
X225640198Y-62365001D01*
X223438072Y-62365001D01*
X223438072Y-61200000D01*
X223425812Y-61075518D01*
X223389502Y-60955820D01*
X223330537Y-60845506D01*
X223251185Y-60748815D01*
X223154494Y-60669463D01*
X223044180Y-60610498D01*
X222924482Y-60574188D01*
X222800000Y-60561928D01*
X221200000Y-60561928D01*
X221075518Y-60574188D01*
X220955820Y-60610498D01*
X220845506Y-60669463D01*
X220748815Y-60748815D01*
X220669463Y-60845506D01*
X220610498Y-60955820D01*
X220574188Y-61075518D01*
X220561928Y-61200000D01*
X220561928Y-62365001D01*
X220519803Y-62365001D01*
X220478688Y-62323886D01*
X220515000Y-62141335D01*
X220515000Y-61858665D01*
X220459853Y-61581426D01*
X220351680Y-61320273D01*
X220194637Y-61085241D01*
X219994759Y-60885363D01*
X219759727Y-60728320D01*
X219498574Y-60620147D01*
X219221335Y-60565000D01*
X218938665Y-60565000D01*
X218661426Y-60620147D01*
X218400273Y-60728320D01*
X218165241Y-60885363D01*
X217965363Y-61085241D01*
X217808320Y-61320273D01*
X217700147Y-61581426D01*
X217645000Y-61858665D01*
X217645000Y-62141335D01*
X217681312Y-62323887D01*
X217640198Y-62365001D01*
X215438072Y-62365001D01*
X215438072Y-61200000D01*
X215425812Y-61075518D01*
X215389502Y-60955820D01*
X215330537Y-60845506D01*
X215251185Y-60748815D01*
X215154494Y-60669463D01*
X215044180Y-60610498D01*
X214924482Y-60574188D01*
X214800000Y-60561928D01*
X213200000Y-60561928D01*
X213075518Y-60574188D01*
X212955820Y-60610498D01*
X212845506Y-60669463D01*
X212748815Y-60748815D01*
X212669463Y-60845506D01*
X212610498Y-60955820D01*
X212574188Y-61075518D01*
X212561928Y-61200000D01*
X212561928Y-62365001D01*
X212519803Y-62365001D01*
X212478688Y-62323886D01*
X212515000Y-62141335D01*
X212515000Y-61858665D01*
X212459853Y-61581426D01*
X212351680Y-61320273D01*
X212194637Y-61085241D01*
X211994759Y-60885363D01*
X211759727Y-60728320D01*
X211498574Y-60620147D01*
X211221335Y-60565000D01*
X210938665Y-60565000D01*
X210661426Y-60620147D01*
X210400273Y-60728320D01*
X210165241Y-60885363D01*
X209965363Y-61085241D01*
X209808320Y-61320273D01*
X209700147Y-61581426D01*
X209645000Y-61858665D01*
X209645000Y-62141335D01*
X209681312Y-62323886D01*
X209350200Y-62654999D01*
X207438072Y-62654999D01*
X207438072Y-61200000D01*
X207425812Y-61075518D01*
X207389502Y-60955820D01*
X207330537Y-60845506D01*
X207251185Y-60748815D01*
X207154494Y-60669463D01*
X207044180Y-60610498D01*
X206924482Y-60574188D01*
X206800000Y-60561928D01*
X205200000Y-60561928D01*
X205075518Y-60574188D01*
X204955820Y-60610498D01*
X204845506Y-60669463D01*
X204748815Y-60748815D01*
X204669463Y-60845506D01*
X204610498Y-60955820D01*
X204574188Y-61075518D01*
X204561928Y-61200000D01*
X204561928Y-62407126D01*
X204478688Y-62323886D01*
X204515000Y-62141335D01*
X204515000Y-61858665D01*
X204459853Y-61581426D01*
X204351680Y-61320273D01*
X204194637Y-61085241D01*
X203994759Y-60885363D01*
X203759727Y-60728320D01*
X203498574Y-60620147D01*
X203221335Y-60565000D01*
X202938665Y-60565000D01*
X202661426Y-60620147D01*
X202400273Y-60728320D01*
X202165241Y-60885363D01*
X201965363Y-61085241D01*
X201808320Y-61320273D01*
X201700147Y-61581426D01*
X201645000Y-61858665D01*
X201645000Y-62141335D01*
X201681312Y-62323887D01*
X201640198Y-62365001D01*
X199438072Y-62365001D01*
X199438072Y-61200000D01*
X199425812Y-61075518D01*
X199389502Y-60955820D01*
X199330537Y-60845506D01*
X199251185Y-60748815D01*
X199154494Y-60669463D01*
X199044180Y-60610498D01*
X198924482Y-60574188D01*
X198800000Y-60561928D01*
X197200000Y-60561928D01*
X197075518Y-60574188D01*
X196955820Y-60610498D01*
X196845506Y-60669463D01*
X196748815Y-60748815D01*
X196669463Y-60845506D01*
X196610498Y-60955820D01*
X196574188Y-61075518D01*
X196561928Y-61200000D01*
X196561928Y-62365001D01*
X196519803Y-62365001D01*
X196478688Y-62323886D01*
X196515000Y-62141335D01*
X196515000Y-61858665D01*
X196459853Y-61581426D01*
X196351680Y-61320273D01*
X196194637Y-61085241D01*
X195994759Y-60885363D01*
X195759727Y-60728320D01*
X195498574Y-60620147D01*
X195221335Y-60565000D01*
X194938665Y-60565000D01*
X194661426Y-60620147D01*
X194400273Y-60728320D01*
X194165241Y-60885363D01*
X193965363Y-61085241D01*
X193808320Y-61320273D01*
X193700147Y-61581426D01*
X193645000Y-61858665D01*
X193645000Y-62141335D01*
X193681312Y-62323886D01*
X193350200Y-62654999D01*
X191438072Y-62654999D01*
X191438072Y-61200000D01*
X191425812Y-61075518D01*
X191389502Y-60955820D01*
X191330537Y-60845506D01*
X191251185Y-60748815D01*
X191154494Y-60669463D01*
X191044180Y-60610498D01*
X190924482Y-60574188D01*
X190800000Y-60561928D01*
X189200000Y-60561928D01*
X189075518Y-60574188D01*
X188955820Y-60610498D01*
X188845506Y-60669463D01*
X188748815Y-60748815D01*
X188669463Y-60845506D01*
X188610498Y-60955820D01*
X188574188Y-61075518D01*
X188561928Y-61200000D01*
X188561928Y-62407126D01*
X188478688Y-62323886D01*
X188515000Y-62141335D01*
X188515000Y-61858665D01*
X188459853Y-61581426D01*
X188351680Y-61320273D01*
X188194637Y-61085241D01*
X187994759Y-60885363D01*
X187759727Y-60728320D01*
X187498574Y-60620147D01*
X187221335Y-60565000D01*
X186938665Y-60565000D01*
X186661426Y-60620147D01*
X186400273Y-60728320D01*
X186165241Y-60885363D01*
X185965363Y-61085241D01*
X185808320Y-61320273D01*
X185700147Y-61581426D01*
X185645000Y-61858665D01*
X185645000Y-62141335D01*
X185681312Y-62323887D01*
X185640198Y-62365001D01*
X183438072Y-62365001D01*
X183438072Y-61200000D01*
X183425812Y-61075518D01*
X183389502Y-60955820D01*
X183330537Y-60845506D01*
X183251185Y-60748815D01*
X183154494Y-60669463D01*
X183044180Y-60610498D01*
X182924482Y-60574188D01*
X182800000Y-60561928D01*
X181200000Y-60561928D01*
X181075518Y-60574188D01*
X180955820Y-60610498D01*
X180845506Y-60669463D01*
X180748815Y-60748815D01*
X180669463Y-60845506D01*
X180610498Y-60955820D01*
X180574188Y-61075518D01*
X180561928Y-61200000D01*
X180561928Y-62365001D01*
X180519803Y-62365001D01*
X180478688Y-62323886D01*
X180515000Y-62141335D01*
X180515000Y-61858665D01*
X180459853Y-61581426D01*
X180351680Y-61320273D01*
X180194637Y-61085241D01*
X179994759Y-60885363D01*
X179759727Y-60728320D01*
X179498574Y-60620147D01*
X179221335Y-60565000D01*
X178938665Y-60565000D01*
X178661426Y-60620147D01*
X178400273Y-60728320D01*
X178165241Y-60885363D01*
X177965363Y-61085241D01*
X177808320Y-61320273D01*
X177700147Y-61581426D01*
X177645000Y-61858665D01*
X177645000Y-62141335D01*
X177700147Y-62418574D01*
X177798077Y-62654999D01*
X175438072Y-62654999D01*
X175438072Y-61200000D01*
X175425812Y-61075518D01*
X175389502Y-60955820D01*
X175330537Y-60845506D01*
X175251185Y-60748815D01*
X175154494Y-60669463D01*
X175044180Y-60610498D01*
X174924482Y-60574188D01*
X174800000Y-60561928D01*
X173200000Y-60561928D01*
X173075518Y-60574188D01*
X172955820Y-60610498D01*
X172845506Y-60669463D01*
X172748815Y-60748815D01*
X172669463Y-60845506D01*
X172610498Y-60955820D01*
X172574188Y-61075518D01*
X172561928Y-61200000D01*
X171695000Y-61200000D01*
X171695000Y-60033992D01*
X171742168Y-59552937D01*
X171872003Y-59122903D01*
X172082892Y-58726276D01*
X172366801Y-58378169D01*
X172712923Y-58091831D01*
X173108068Y-57878178D01*
X173537184Y-57745344D01*
X174016176Y-57695000D01*
X236966008Y-57695000D01*
X237447063Y-57742168D01*
G36*
X228871599Y-88690010D02*
G01*
X228344802Y-88690010D01*
X227228793Y-87574002D01*
X227204990Y-87544998D01*
X227089265Y-87450025D01*
X226957236Y-87379453D01*
X226813975Y-87335996D01*
X226702322Y-87324999D01*
X226702311Y-87324999D01*
X226664989Y-87321323D01*
X226627667Y-87324999D01*
X222662324Y-87324999D01*
X222625001Y-87321323D01*
X222587678Y-87324999D01*
X222587668Y-87324999D01*
X222476015Y-87335996D01*
X222332754Y-87379453D01*
X222200724Y-87450025D01*
X222138614Y-87500998D01*
X222085000Y-87544998D01*
X222061201Y-87573997D01*
X221960198Y-87675000D01*
X221898061Y-87675000D01*
X221698102Y-87714774D01*
X221509744Y-87792795D01*
X221340226Y-87906063D01*
X221196063Y-88050226D01*
X221082795Y-88219744D01*
X221004774Y-88408102D01*
X220965000Y-88608061D01*
X220965000Y-88811939D01*
X221004774Y-89011898D01*
X221057553Y-89139318D01*
X221050626Y-89140000D01*
X221050617Y-89140000D01*
X220938964Y-89150997D01*
X220795703Y-89194454D01*
X220663674Y-89265026D01*
X220547949Y-89359999D01*
X220524151Y-89388997D01*
X217843179Y-92069970D01*
X215118123Y-92069970D01*
X215080800Y-92066294D01*
X215043478Y-92069970D01*
X215043467Y-92069970D01*
X214931814Y-92080967D01*
X214902233Y-92089940D01*
X194634802Y-92089940D01*
X194550000Y-92005139D01*
X194550000Y-90233506D01*
X194641898Y-90215226D01*
X194830256Y-90137205D01*
X194999774Y-90023937D01*
X195115000Y-89908711D01*
X195130226Y-89923937D01*
X195299744Y-90037205D01*
X195488102Y-90115226D01*
X195688061Y-90155000D01*
X195891939Y-90155000D01*
X196091898Y-90115226D01*
X196280256Y-90037205D01*
X196449774Y-89923937D01*
X196593937Y-89779774D01*
X196707205Y-89610256D01*
X196785226Y-89421898D01*
X196825000Y-89221939D01*
X196825000Y-89018061D01*
X196785226Y-88818102D01*
X196707205Y-88629744D01*
X196593937Y-88460226D01*
X196449774Y-88316063D01*
X196280256Y-88202795D01*
X196091898Y-88124774D01*
X195891939Y-88085000D01*
X195688061Y-88085000D01*
X195488102Y-88124774D01*
X195299744Y-88202795D01*
X195130226Y-88316063D01*
X195086289Y-88360000D01*
X194915870Y-88360000D01*
X194830256Y-88302795D01*
X194641898Y-88224774D01*
X194441939Y-88185000D01*
X194238061Y-88185000D01*
X194038102Y-88224774D01*
X193849744Y-88302795D01*
X193680226Y-88416063D01*
X193536063Y-88560226D01*
X193422795Y-88729744D01*
X193344774Y-88918102D01*
X193325491Y-89015045D01*
X193226302Y-89034775D01*
X193082459Y-89094357D01*
X193020256Y-89052795D01*
X192831898Y-88974774D01*
X192631939Y-88935000D01*
X192428061Y-88935000D01*
X192228102Y-88974774D01*
X192039744Y-89052795D01*
X191870226Y-89166063D01*
X191850099Y-89186190D01*
X191740256Y-89112795D01*
X191551898Y-89034774D01*
X191351939Y-88995000D01*
X191148061Y-88995000D01*
X190948102Y-89034774D01*
X190760000Y-89112689D01*
X190760000Y-86941304D01*
X190878102Y-86990224D01*
X191047572Y-87023933D01*
X191080113Y-87063585D01*
X191109999Y-87100001D01*
X191225724Y-87194974D01*
X191357753Y-87265546D01*
X191501014Y-87309003D01*
X191650000Y-87323677D01*
X191687333Y-87320000D01*
X192906212Y-87320000D01*
X193011384Y-87406312D01*
X193143413Y-87476884D01*
X193286674Y-87520341D01*
X193398327Y-87531338D01*
X193398336Y-87531338D01*
X193435659Y-87535014D01*
X193472982Y-87531338D01*
X195934016Y-87531338D01*
X195971338Y-87535014D01*
X196008660Y-87531338D01*
X196440827Y-87531338D01*
X196552480Y-87520341D01*
X196695741Y-87476884D01*
X196827770Y-87406312D01*
X196943495Y-87311339D01*
X197038468Y-87195614D01*
X197109040Y-87063585D01*
X197152497Y-86920324D01*
X197167171Y-86771338D01*
X197153292Y-86630419D01*
X197263937Y-86519774D01*
X197322252Y-86432500D01*
X197581426Y-86539853D01*
X197858665Y-86595000D01*
X198141335Y-86595000D01*
X198418574Y-86539853D01*
X198679727Y-86431680D01*
X198914759Y-86274637D01*
X199114637Y-86074759D01*
X199218043Y-85920000D01*
X201139088Y-85920000D01*
X201176410Y-85923676D01*
X201213732Y-85920000D01*
X201213743Y-85920000D01*
X201325396Y-85909003D01*
X201468657Y-85865546D01*
X201600686Y-85794974D01*
X201716411Y-85700001D01*
X201739028Y-85672442D01*
X201808320Y-85839727D01*
X201965363Y-86074759D01*
X202165241Y-86274637D01*
X202400273Y-86431680D01*
X202661426Y-86539853D01*
X202938665Y-86595000D01*
X203221335Y-86595000D01*
X203498574Y-86539853D01*
X203759727Y-86431680D01*
X203994759Y-86274637D01*
X204194637Y-86074759D01*
X204351680Y-85839727D01*
X204361246Y-85816633D01*
X204452755Y-85865546D01*
X204596016Y-85909003D01*
X204707669Y-85920000D01*
X204707677Y-85920000D01*
X204745002Y-85923676D01*
X204781979Y-85920034D01*
X204885363Y-86074759D01*
X205085241Y-86274637D01*
X205320273Y-86431680D01*
X205581426Y-86539853D01*
X205858665Y-86595000D01*
X206141335Y-86595000D01*
X206418574Y-86539853D01*
X206679727Y-86431680D01*
X206914759Y-86274637D01*
X207114637Y-86074759D01*
X207218043Y-85920000D01*
X209139088Y-85920000D01*
X209176410Y-85923676D01*
X209213732Y-85920000D01*
X209213743Y-85920000D01*
X209325396Y-85909003D01*
X209468657Y-85865546D01*
X209600686Y-85794974D01*
X209716411Y-85700001D01*
X209739028Y-85672442D01*
X209808320Y-85839727D01*
X209965363Y-86074759D01*
X210165241Y-86274637D01*
X210400273Y-86431680D01*
X210661426Y-86539853D01*
X210938665Y-86595000D01*
X211221335Y-86595000D01*
X211498574Y-86539853D01*
X211759727Y-86431680D01*
X211994759Y-86274637D01*
X212194637Y-86074759D01*
X212351680Y-85839727D01*
X212361246Y-85816633D01*
X212452755Y-85865546D01*
X212596016Y-85909003D01*
X212707669Y-85920000D01*
X212707677Y-85920000D01*
X212745002Y-85923676D01*
X212781979Y-85920034D01*
X212885363Y-86074759D01*
X213085241Y-86274637D01*
X213320273Y-86431680D01*
X213581426Y-86539853D01*
X213858665Y-86595000D01*
X214141335Y-86595000D01*
X214418574Y-86539853D01*
X214679727Y-86431680D01*
X214914759Y-86274637D01*
X215114637Y-86074759D01*
X215218043Y-85920000D01*
X217139088Y-85920000D01*
X217176410Y-85923676D01*
X217213732Y-85920000D01*
X217213743Y-85920000D01*
X217325396Y-85909003D01*
X217468657Y-85865546D01*
X217600686Y-85794974D01*
X217716411Y-85700001D01*
X217739028Y-85672442D01*
X217808320Y-85839727D01*
X217965363Y-86074759D01*
X218165241Y-86274637D01*
X218400273Y-86431680D01*
X218661426Y-86539853D01*
X218938665Y-86595000D01*
X219221335Y-86595000D01*
X219498574Y-86539853D01*
X219759727Y-86431680D01*
X219994759Y-86274637D01*
X220194637Y-86074759D01*
X220351680Y-85839727D01*
X220361246Y-85816633D01*
X220452755Y-85865546D01*
X220596016Y-85909003D01*
X220707669Y-85920000D01*
X220707677Y-85920000D01*
X220745002Y-85923676D01*
X220781979Y-85920034D01*
X220885363Y-86074759D01*
X221085241Y-86274637D01*
X221320273Y-86431680D01*
X221581426Y-86539853D01*
X221858665Y-86595000D01*
X222141335Y-86595000D01*
X222418574Y-86539853D01*
X222679727Y-86431680D01*
X222914759Y-86274637D01*
X223114637Y-86074759D01*
X223218043Y-85920000D01*
X225377676Y-85920000D01*
X225414998Y-85923676D01*
X225452320Y-85920000D01*
X225452331Y-85920000D01*
X225563984Y-85909003D01*
X225707245Y-85865546D01*
X225798754Y-85816633D01*
X225808320Y-85839727D01*
X225965363Y-86074759D01*
X226165241Y-86274637D01*
X226400273Y-86431680D01*
X226661426Y-86539853D01*
X226938665Y-86595000D01*
X227221335Y-86595000D01*
X227498574Y-86539853D01*
X227759727Y-86431680D01*
X227994759Y-86274637D01*
X228194637Y-86074759D01*
X228351680Y-85839727D01*
X228361246Y-85816633D01*
X228452755Y-85865546D01*
X228596016Y-85909003D01*
X228707669Y-85920000D01*
X228707677Y-85920000D01*
X228745002Y-85923676D01*
X228781979Y-85920034D01*
X228885363Y-86074759D01*
X229085241Y-86274637D01*
X229320273Y-86431680D01*
X229581426Y-86539853D01*
X229858665Y-86595000D01*
X230141335Y-86595000D01*
X230418574Y-86539853D01*
X230679727Y-86431680D01*
X230914759Y-86274637D01*
X231114637Y-86074759D01*
X231271680Y-85839727D01*
X231379853Y-85578574D01*
X231435000Y-85301335D01*
X231435000Y-85018665D01*
X231379853Y-84741426D01*
X231281923Y-84505001D01*
X233056606Y-84505001D01*
X228871599Y-88690010D01*
X228871599Y-88690010D01*
G37*
X228871599Y-88690010D02*
X228344802Y-88690010D01*
X227228793Y-87574002D01*
X227204990Y-87544998D01*
X227089265Y-87450025D01*
X226957236Y-87379453D01*
X226813975Y-87335996D01*
X226702322Y-87324999D01*
X226702311Y-87324999D01*
X226664989Y-87321323D01*
X226627667Y-87324999D01*
X222662324Y-87324999D01*
X222625001Y-87321323D01*
X222587678Y-87324999D01*
X222587668Y-87324999D01*
X222476015Y-87335996D01*
X222332754Y-87379453D01*
X222200724Y-87450025D01*
X222138614Y-87500998D01*
X222085000Y-87544998D01*
X222061201Y-87573997D01*
X221960198Y-87675000D01*
X221898061Y-87675000D01*
X221698102Y-87714774D01*
X221509744Y-87792795D01*
X221340226Y-87906063D01*
X221196063Y-88050226D01*
X221082795Y-88219744D01*
X221004774Y-88408102D01*
X220965000Y-88608061D01*
X220965000Y-88811939D01*
X221004774Y-89011898D01*
X221057553Y-89139318D01*
X221050626Y-89140000D01*
X221050617Y-89140000D01*
X220938964Y-89150997D01*
X220795703Y-89194454D01*
X220663674Y-89265026D01*
X220547949Y-89359999D01*
X220524151Y-89388997D01*
X217843179Y-92069970D01*
X215118123Y-92069970D01*
X215080800Y-92066294D01*
X215043478Y-92069970D01*
X215043467Y-92069970D01*
X214931814Y-92080967D01*
X214902233Y-92089940D01*
X194634802Y-92089940D01*
X194550000Y-92005139D01*
X194550000Y-90233506D01*
X194641898Y-90215226D01*
X194830256Y-90137205D01*
X194999774Y-90023937D01*
X195115000Y-89908711D01*
X195130226Y-89923937D01*
X195299744Y-90037205D01*
X195488102Y-90115226D01*
X195688061Y-90155000D01*
X195891939Y-90155000D01*
X196091898Y-90115226D01*
X196280256Y-90037205D01*
X196449774Y-89923937D01*
X196593937Y-89779774D01*
X196707205Y-89610256D01*
X196785226Y-89421898D01*
X196825000Y-89221939D01*
X196825000Y-89018061D01*
X196785226Y-88818102D01*
X196707205Y-88629744D01*
X196593937Y-88460226D01*
X196449774Y-88316063D01*
X196280256Y-88202795D01*
X196091898Y-88124774D01*
X195891939Y-88085000D01*
X195688061Y-88085000D01*
X195488102Y-88124774D01*
X195299744Y-88202795D01*
X195130226Y-88316063D01*
X195086289Y-88360000D01*
X194915870Y-88360000D01*
X194830256Y-88302795D01*
X194641898Y-88224774D01*
X194441939Y-88185000D01*
X194238061Y-88185000D01*
X194038102Y-88224774D01*
X193849744Y-88302795D01*
X193680226Y-88416063D01*
X193536063Y-88560226D01*
X193422795Y-88729744D01*
X193344774Y-88918102D01*
X193325491Y-89015045D01*
X193226302Y-89034775D01*
X193082459Y-89094357D01*
X193020256Y-89052795D01*
X192831898Y-88974774D01*
X192631939Y-88935000D01*
X192428061Y-88935000D01*
X192228102Y-88974774D01*
X192039744Y-89052795D01*
X191870226Y-89166063D01*
X191850099Y-89186190D01*
X191740256Y-89112795D01*
X191551898Y-89034774D01*
X191351939Y-88995000D01*
X191148061Y-88995000D01*
X190948102Y-89034774D01*
X190760000Y-89112689D01*
X190760000Y-86941304D01*
X190878102Y-86990224D01*
X191047572Y-87023933D01*
X191080113Y-87063585D01*
X191109999Y-87100001D01*
X191225724Y-87194974D01*
X191357753Y-87265546D01*
X191501014Y-87309003D01*
X191650000Y-87323677D01*
X191687333Y-87320000D01*
X192906212Y-87320000D01*
X193011384Y-87406312D01*
X193143413Y-87476884D01*
X193286674Y-87520341D01*
X193398327Y-87531338D01*
X193398336Y-87531338D01*
X193435659Y-87535014D01*
X193472982Y-87531338D01*
X195934016Y-87531338D01*
X195971338Y-87535014D01*
X196008660Y-87531338D01*
X196440827Y-87531338D01*
X196552480Y-87520341D01*
X196695741Y-87476884D01*
X196827770Y-87406312D01*
X196943495Y-87311339D01*
X197038468Y-87195614D01*
X197109040Y-87063585D01*
X197152497Y-86920324D01*
X197167171Y-86771338D01*
X197153292Y-86630419D01*
X197263937Y-86519774D01*
X197322252Y-86432500D01*
X197581426Y-86539853D01*
X197858665Y-86595000D01*
X198141335Y-86595000D01*
X198418574Y-86539853D01*
X198679727Y-86431680D01*
X198914759Y-86274637D01*
X199114637Y-86074759D01*
X199218043Y-85920000D01*
X201139088Y-85920000D01*
X201176410Y-85923676D01*
X201213732Y-85920000D01*
X201213743Y-85920000D01*
X201325396Y-85909003D01*
X201468657Y-85865546D01*
X201600686Y-85794974D01*
X201716411Y-85700001D01*
X201739028Y-85672442D01*
X201808320Y-85839727D01*
X201965363Y-86074759D01*
X202165241Y-86274637D01*
X202400273Y-86431680D01*
X202661426Y-86539853D01*
X202938665Y-86595000D01*
X203221335Y-86595000D01*
X203498574Y-86539853D01*
X203759727Y-86431680D01*
X203994759Y-86274637D01*
X204194637Y-86074759D01*
X204351680Y-85839727D01*
X204361246Y-85816633D01*
X204452755Y-85865546D01*
X204596016Y-85909003D01*
X204707669Y-85920000D01*
X204707677Y-85920000D01*
X204745002Y-85923676D01*
X204781979Y-85920034D01*
X204885363Y-86074759D01*
X205085241Y-86274637D01*
X205320273Y-86431680D01*
X205581426Y-86539853D01*
X205858665Y-86595000D01*
X206141335Y-86595000D01*
X206418574Y-86539853D01*
X206679727Y-86431680D01*
X206914759Y-86274637D01*
X207114637Y-86074759D01*
X207218043Y-85920000D01*
X209139088Y-85920000D01*
X209176410Y-85923676D01*
X209213732Y-85920000D01*
X209213743Y-85920000D01*
X209325396Y-85909003D01*
X209468657Y-85865546D01*
X209600686Y-85794974D01*
X209716411Y-85700001D01*
X209739028Y-85672442D01*
X209808320Y-85839727D01*
X209965363Y-86074759D01*
X210165241Y-86274637D01*
X210400273Y-86431680D01*
X210661426Y-86539853D01*
X210938665Y-86595000D01*
X211221335Y-86595000D01*
X211498574Y-86539853D01*
X211759727Y-86431680D01*
X211994759Y-86274637D01*
X212194637Y-86074759D01*
X212351680Y-85839727D01*
X212361246Y-85816633D01*
X212452755Y-85865546D01*
X212596016Y-85909003D01*
X212707669Y-85920000D01*
X212707677Y-85920000D01*
X212745002Y-85923676D01*
X212781979Y-85920034D01*
X212885363Y-86074759D01*
X213085241Y-86274637D01*
X213320273Y-86431680D01*
X213581426Y-86539853D01*
X213858665Y-86595000D01*
X214141335Y-86595000D01*
X214418574Y-86539853D01*
X214679727Y-86431680D01*
X214914759Y-86274637D01*
X215114637Y-86074759D01*
X215218043Y-85920000D01*
X217139088Y-85920000D01*
X217176410Y-85923676D01*
X217213732Y-85920000D01*
X217213743Y-85920000D01*
X217325396Y-85909003D01*
X217468657Y-85865546D01*
X217600686Y-85794974D01*
X217716411Y-85700001D01*
X217739028Y-85672442D01*
X217808320Y-85839727D01*
X217965363Y-86074759D01*
X218165241Y-86274637D01*
X218400273Y-86431680D01*
X218661426Y-86539853D01*
X218938665Y-86595000D01*
X219221335Y-86595000D01*
X219498574Y-86539853D01*
X219759727Y-86431680D01*
X219994759Y-86274637D01*
X220194637Y-86074759D01*
X220351680Y-85839727D01*
X220361246Y-85816633D01*
X220452755Y-85865546D01*
X220596016Y-85909003D01*
X220707669Y-85920000D01*
X220707677Y-85920000D01*
X220745002Y-85923676D01*
X220781979Y-85920034D01*
X220885363Y-86074759D01*
X221085241Y-86274637D01*
X221320273Y-86431680D01*
X221581426Y-86539853D01*
X221858665Y-86595000D01*
X222141335Y-86595000D01*
X222418574Y-86539853D01*
X222679727Y-86431680D01*
X222914759Y-86274637D01*
X223114637Y-86074759D01*
X223218043Y-85920000D01*
X225377676Y-85920000D01*
X225414998Y-85923676D01*
X225452320Y-85920000D01*
X225452331Y-85920000D01*
X225563984Y-85909003D01*
X225707245Y-85865546D01*
X225798754Y-85816633D01*
X225808320Y-85839727D01*
X225965363Y-86074759D01*
X226165241Y-86274637D01*
X226400273Y-86431680D01*
X226661426Y-86539853D01*
X226938665Y-86595000D01*
X227221335Y-86595000D01*
X227498574Y-86539853D01*
X227759727Y-86431680D01*
X227994759Y-86274637D01*
X228194637Y-86074759D01*
X228351680Y-85839727D01*
X228361246Y-85816633D01*
X228452755Y-85865546D01*
X228596016Y-85909003D01*
X228707669Y-85920000D01*
X228707677Y-85920000D01*
X228745002Y-85923676D01*
X228781979Y-85920034D01*
X228885363Y-86074759D01*
X229085241Y-86274637D01*
X229320273Y-86431680D01*
X229581426Y-86539853D01*
X229858665Y-86595000D01*
X230141335Y-86595000D01*
X230418574Y-86539853D01*
X230679727Y-86431680D01*
X230914759Y-86274637D01*
X231114637Y-86074759D01*
X231271680Y-85839727D01*
X231379853Y-85578574D01*
X231435000Y-85301335D01*
X231435000Y-85018665D01*
X231379853Y-84741426D01*
X231281923Y-84505001D01*
X233056606Y-84505001D01*
X228871599Y-88690010D01*
M02*
