G04 #@! TF.GenerationSoftware,KiCad,Pcbnew,(5.1.0-0)*
G04 #@! TF.CreationDate,2020-06-30T09:10:09+01:00*
G04 #@! TF.ProjectId,Display,44697370-6c61-4792-9e6b-696361645f70,rev?*
G04 #@! TF.SameCoordinates,Original*
G04 #@! TF.FileFunction,Soldermask,Top*
G04 #@! TF.FilePolarity,Negative*
%FSLAX46Y46*%
G04 Gerber Fmt 4.6, Leading zero omitted, Abs format (unit mm)*
G04 Created by KiCad (PCBNEW (5.1.0-0)) date 2020-06-30 09:10:09*
%MOMM*%
%LPD*%
G04 APERTURE LIST*
%ADD10C,0.100000*%
G04 APERTURE END LIST*
D10*
G36*
X185886811Y-96778271D02*
G01*
X185922603Y-96789129D01*
X185955595Y-96806763D01*
X185984508Y-96830492D01*
X186008237Y-96859405D01*
X186025871Y-96892397D01*
X186036729Y-96928189D01*
X186041000Y-96971555D01*
X186041000Y-99028445D01*
X186036729Y-99071811D01*
X186025871Y-99107603D01*
X186008237Y-99140595D01*
X185984508Y-99169508D01*
X185955595Y-99193237D01*
X185922603Y-99210871D01*
X185886811Y-99221729D01*
X185843445Y-99226000D01*
X184811555Y-99226000D01*
X184768189Y-99221729D01*
X184732397Y-99210871D01*
X184699405Y-99193237D01*
X184670492Y-99169508D01*
X184646763Y-99140595D01*
X184629129Y-99107603D01*
X184618271Y-99071811D01*
X184614000Y-99028445D01*
X184614000Y-96971555D01*
X184618271Y-96928189D01*
X184629129Y-96892397D01*
X184646763Y-96859405D01*
X184670492Y-96830492D01*
X184699405Y-96806763D01*
X184732397Y-96789129D01*
X184768189Y-96778271D01*
X184811555Y-96774000D01*
X185843445Y-96774000D01*
X185886811Y-96778271D01*
X185886811Y-96778271D01*
G37*
G36*
X182811811Y-96778271D02*
G01*
X182847603Y-96789129D01*
X182880595Y-96806763D01*
X182909508Y-96830492D01*
X182933237Y-96859405D01*
X182950871Y-96892397D01*
X182961729Y-96928189D01*
X182966000Y-96971555D01*
X182966000Y-99028445D01*
X182961729Y-99071811D01*
X182950871Y-99107603D01*
X182933237Y-99140595D01*
X182909508Y-99169508D01*
X182880595Y-99193237D01*
X182847603Y-99210871D01*
X182811811Y-99221729D01*
X182768445Y-99226000D01*
X181736555Y-99226000D01*
X181693189Y-99221729D01*
X181657397Y-99210871D01*
X181624405Y-99193237D01*
X181595492Y-99169508D01*
X181571763Y-99140595D01*
X181554129Y-99107603D01*
X181543271Y-99071811D01*
X181539000Y-99028445D01*
X181539000Y-96971555D01*
X181543271Y-96928189D01*
X181554129Y-96892397D01*
X181571763Y-96859405D01*
X181595492Y-96830492D01*
X181624405Y-96806763D01*
X181657397Y-96789129D01*
X181693189Y-96778271D01*
X181736555Y-96774000D01*
X182768445Y-96774000D01*
X182811811Y-96778271D01*
X182811811Y-96778271D01*
G37*
G36*
X174132770Y-96852860D02*
G01*
X174335734Y-96893232D01*
X174449146Y-96940209D01*
X174524823Y-96971555D01*
X174545203Y-96979997D01*
X174733720Y-97105960D01*
X174894040Y-97266280D01*
X175020003Y-97454797D01*
X175106768Y-97664266D01*
X175151000Y-97886636D01*
X175151000Y-98113364D01*
X175106768Y-98335734D01*
X175020003Y-98545203D01*
X174894040Y-98733720D01*
X174733720Y-98894040D01*
X174545203Y-99020003D01*
X174545202Y-99020004D01*
X174545201Y-99020004D01*
X174483850Y-99045416D01*
X174335734Y-99106768D01*
X174224549Y-99128884D01*
X174113365Y-99151000D01*
X173886635Y-99151000D01*
X173775451Y-99128884D01*
X173664266Y-99106768D01*
X173516150Y-99045416D01*
X173454799Y-99020004D01*
X173454798Y-99020004D01*
X173454797Y-99020003D01*
X173266280Y-98894040D01*
X173105960Y-98733720D01*
X172979997Y-98545203D01*
X172893232Y-98335734D01*
X172849000Y-98113364D01*
X172849000Y-97886636D01*
X172893232Y-97664266D01*
X172979997Y-97454797D01*
X173105960Y-97266280D01*
X173266280Y-97105960D01*
X173454797Y-96979997D01*
X173475178Y-96971555D01*
X173550854Y-96940209D01*
X173664266Y-96893232D01*
X173867230Y-96852860D01*
X173886635Y-96849000D01*
X174113365Y-96849000D01*
X174132770Y-96852860D01*
X174132770Y-96852860D01*
G37*
G36*
X237132770Y-96852860D02*
G01*
X237335734Y-96893232D01*
X237449146Y-96940209D01*
X237524823Y-96971555D01*
X237545203Y-96979997D01*
X237733720Y-97105960D01*
X237894040Y-97266280D01*
X238020003Y-97454797D01*
X238106768Y-97664266D01*
X238151000Y-97886636D01*
X238151000Y-98113364D01*
X238106768Y-98335734D01*
X238020003Y-98545203D01*
X237894040Y-98733720D01*
X237733720Y-98894040D01*
X237545203Y-99020003D01*
X237545202Y-99020004D01*
X237545201Y-99020004D01*
X237483850Y-99045416D01*
X237335734Y-99106768D01*
X237224549Y-99128884D01*
X237113365Y-99151000D01*
X236886635Y-99151000D01*
X236775451Y-99128884D01*
X236664266Y-99106768D01*
X236516150Y-99045416D01*
X236454799Y-99020004D01*
X236454798Y-99020004D01*
X236454797Y-99020003D01*
X236266280Y-98894040D01*
X236105960Y-98733720D01*
X235979997Y-98545203D01*
X235893232Y-98335734D01*
X235849000Y-98113364D01*
X235849000Y-97886636D01*
X235893232Y-97664266D01*
X235979997Y-97454797D01*
X236105960Y-97266280D01*
X236266280Y-97105960D01*
X236454797Y-96979997D01*
X236475178Y-96971555D01*
X236550854Y-96940209D01*
X236664266Y-96893232D01*
X236867230Y-96852860D01*
X236886635Y-96849000D01*
X237113365Y-96849000D01*
X237132770Y-96852860D01*
X237132770Y-96852860D01*
G37*
G36*
X199226000Y-97396000D02*
G01*
X198524000Y-97396000D01*
X198524000Y-95619000D01*
X199226000Y-95619000D01*
X199226000Y-97396000D01*
X199226000Y-97396000D01*
G37*
G36*
X197956000Y-97396000D02*
G01*
X197254000Y-97396000D01*
X197254000Y-95619000D01*
X197956000Y-95619000D01*
X197956000Y-97396000D01*
X197956000Y-97396000D01*
G37*
G36*
X196686000Y-97396000D02*
G01*
X195984000Y-97396000D01*
X195984000Y-95619000D01*
X196686000Y-95619000D01*
X196686000Y-97396000D01*
X196686000Y-97396000D01*
G37*
G36*
X195416000Y-97396000D02*
G01*
X194714000Y-97396000D01*
X194714000Y-95619000D01*
X195416000Y-95619000D01*
X195416000Y-97396000D01*
X195416000Y-97396000D01*
G37*
G36*
X194146000Y-97396000D02*
G01*
X193444000Y-97396000D01*
X193444000Y-95619000D01*
X194146000Y-95619000D01*
X194146000Y-97396000D01*
X194146000Y-97396000D01*
G37*
G36*
X192876000Y-97396000D02*
G01*
X192174000Y-97396000D01*
X192174000Y-95619000D01*
X192876000Y-95619000D01*
X192876000Y-97396000D01*
X192876000Y-97396000D01*
G37*
G36*
X191606000Y-97396000D02*
G01*
X190904000Y-97396000D01*
X190904000Y-95619000D01*
X191606000Y-95619000D01*
X191606000Y-97396000D01*
X191606000Y-97396000D01*
G37*
G36*
X190336000Y-97396000D02*
G01*
X189634000Y-97396000D01*
X189634000Y-95619000D01*
X190336000Y-95619000D01*
X190336000Y-97396000D01*
X190336000Y-97396000D01*
G37*
G36*
X189066000Y-97396000D02*
G01*
X188364000Y-97396000D01*
X188364000Y-95619000D01*
X189066000Y-95619000D01*
X189066000Y-97396000D01*
X189066000Y-97396000D01*
G37*
G36*
X187796000Y-97396000D02*
G01*
X187094000Y-97396000D01*
X187094000Y-95619000D01*
X187796000Y-95619000D01*
X187796000Y-97396000D01*
X187796000Y-97396000D01*
G37*
G36*
X204306000Y-97396000D02*
G01*
X203604000Y-97396000D01*
X203604000Y-95619000D01*
X204306000Y-95619000D01*
X204306000Y-97396000D01*
X204306000Y-97396000D01*
G37*
G36*
X200496000Y-97396000D02*
G01*
X199794000Y-97396000D01*
X199794000Y-95619000D01*
X200496000Y-95619000D01*
X200496000Y-97396000D01*
X200496000Y-97396000D01*
G37*
G36*
X201766000Y-97396000D02*
G01*
X201064000Y-97396000D01*
X201064000Y-95619000D01*
X201766000Y-95619000D01*
X201766000Y-97396000D01*
X201766000Y-97396000D01*
G37*
G36*
X203036000Y-97396000D02*
G01*
X202334000Y-97396000D01*
X202334000Y-95619000D01*
X203036000Y-95619000D01*
X203036000Y-97396000D01*
X203036000Y-97396000D01*
G37*
G36*
X176559591Y-92875585D02*
G01*
X176593569Y-92885893D01*
X176624890Y-92902634D01*
X176652339Y-92925161D01*
X176674866Y-92952610D01*
X176691607Y-92983931D01*
X176701915Y-93017909D01*
X176706000Y-93059390D01*
X176706000Y-93660610D01*
X176701915Y-93702091D01*
X176691607Y-93736069D01*
X176674866Y-93767390D01*
X176652339Y-93794839D01*
X176624890Y-93817366D01*
X176593569Y-93834107D01*
X176559591Y-93844415D01*
X176518110Y-93848500D01*
X175841890Y-93848500D01*
X175800409Y-93844415D01*
X175766431Y-93834107D01*
X175735110Y-93817366D01*
X175707661Y-93794839D01*
X175685134Y-93767390D01*
X175668393Y-93736069D01*
X175658085Y-93702091D01*
X175654000Y-93660610D01*
X175654000Y-93059390D01*
X175658085Y-93017909D01*
X175668393Y-92983931D01*
X175685134Y-92952610D01*
X175707661Y-92925161D01*
X175735110Y-92902634D01*
X175766431Y-92885893D01*
X175800409Y-92875585D01*
X175841890Y-92871500D01*
X176518110Y-92871500D01*
X176559591Y-92875585D01*
X176559591Y-92875585D01*
G37*
G36*
X178081591Y-92875585D02*
G01*
X178115569Y-92885893D01*
X178146890Y-92902634D01*
X178174339Y-92925161D01*
X178196866Y-92952610D01*
X178213607Y-92983931D01*
X178223915Y-93017909D01*
X178228000Y-93059390D01*
X178228000Y-93660610D01*
X178223915Y-93702091D01*
X178213607Y-93736069D01*
X178196866Y-93767390D01*
X178174339Y-93794839D01*
X178146890Y-93817366D01*
X178115569Y-93834107D01*
X178081591Y-93844415D01*
X178040110Y-93848500D01*
X177363890Y-93848500D01*
X177322409Y-93844415D01*
X177288431Y-93834107D01*
X177257110Y-93817366D01*
X177229661Y-93794839D01*
X177207134Y-93767390D01*
X177190393Y-93736069D01*
X177180085Y-93702091D01*
X177176000Y-93660610D01*
X177176000Y-93059390D01*
X177180085Y-93017909D01*
X177190393Y-92983931D01*
X177207134Y-92952610D01*
X177229661Y-92925161D01*
X177257110Y-92902634D01*
X177288431Y-92885893D01*
X177322409Y-92875585D01*
X177363890Y-92871500D01*
X178040110Y-92871500D01*
X178081591Y-92875585D01*
X178081591Y-92875585D01*
G37*
G36*
X179603591Y-92875585D02*
G01*
X179637569Y-92885893D01*
X179668890Y-92902634D01*
X179696339Y-92925161D01*
X179718866Y-92952610D01*
X179735607Y-92983931D01*
X179745915Y-93017909D01*
X179750000Y-93059390D01*
X179750000Y-93660610D01*
X179745915Y-93702091D01*
X179735607Y-93736069D01*
X179718866Y-93767390D01*
X179696339Y-93794839D01*
X179668890Y-93817366D01*
X179637569Y-93834107D01*
X179603591Y-93844415D01*
X179562110Y-93848500D01*
X178885890Y-93848500D01*
X178844409Y-93844415D01*
X178810431Y-93834107D01*
X178779110Y-93817366D01*
X178751661Y-93794839D01*
X178729134Y-93767390D01*
X178712393Y-93736069D01*
X178702085Y-93702091D01*
X178698000Y-93660610D01*
X178698000Y-93059390D01*
X178702085Y-93017909D01*
X178712393Y-92983931D01*
X178729134Y-92952610D01*
X178751661Y-92925161D01*
X178779110Y-92902634D01*
X178810431Y-92885893D01*
X178844409Y-92875585D01*
X178885890Y-92871500D01*
X179562110Y-92871500D01*
X179603591Y-92875585D01*
X179603591Y-92875585D01*
G37*
G36*
X182647591Y-92875585D02*
G01*
X182681569Y-92885893D01*
X182712890Y-92902634D01*
X182740339Y-92925161D01*
X182762866Y-92952610D01*
X182779607Y-92983931D01*
X182789915Y-93017909D01*
X182794000Y-93059390D01*
X182794000Y-93660610D01*
X182789915Y-93702091D01*
X182779607Y-93736069D01*
X182762866Y-93767390D01*
X182740339Y-93794839D01*
X182712890Y-93817366D01*
X182681569Y-93834107D01*
X182647591Y-93844415D01*
X182606110Y-93848500D01*
X181929890Y-93848500D01*
X181888409Y-93844415D01*
X181854431Y-93834107D01*
X181823110Y-93817366D01*
X181795661Y-93794839D01*
X181773134Y-93767390D01*
X181756393Y-93736069D01*
X181746085Y-93702091D01*
X181742000Y-93660610D01*
X181742000Y-93059390D01*
X181746085Y-93017909D01*
X181756393Y-92983931D01*
X181773134Y-92952610D01*
X181795661Y-92925161D01*
X181823110Y-92902634D01*
X181854431Y-92885893D01*
X181888409Y-92875585D01*
X181929890Y-92871500D01*
X182606110Y-92871500D01*
X182647591Y-92875585D01*
X182647591Y-92875585D01*
G37*
G36*
X181125591Y-92875585D02*
G01*
X181159569Y-92885893D01*
X181190890Y-92902634D01*
X181218339Y-92925161D01*
X181240866Y-92952610D01*
X181257607Y-92983931D01*
X181267915Y-93017909D01*
X181272000Y-93059390D01*
X181272000Y-93660610D01*
X181267915Y-93702091D01*
X181257607Y-93736069D01*
X181240866Y-93767390D01*
X181218339Y-93794839D01*
X181190890Y-93817366D01*
X181159569Y-93834107D01*
X181125591Y-93844415D01*
X181084110Y-93848500D01*
X180407890Y-93848500D01*
X180366409Y-93844415D01*
X180332431Y-93834107D01*
X180301110Y-93817366D01*
X180273661Y-93794839D01*
X180251134Y-93767390D01*
X180234393Y-93736069D01*
X180224085Y-93702091D01*
X180220000Y-93660610D01*
X180220000Y-93059390D01*
X180224085Y-93017909D01*
X180234393Y-92983931D01*
X180251134Y-92952610D01*
X180273661Y-92925161D01*
X180301110Y-92902634D01*
X180332431Y-92885893D01*
X180366409Y-92875585D01*
X180407890Y-92871500D01*
X181084110Y-92871500D01*
X181125591Y-92875585D01*
X181125591Y-92875585D01*
G37*
G36*
X178081591Y-91300585D02*
G01*
X178115569Y-91310893D01*
X178146890Y-91327634D01*
X178174339Y-91350161D01*
X178196866Y-91377610D01*
X178213607Y-91408931D01*
X178223915Y-91442909D01*
X178228000Y-91484390D01*
X178228000Y-92085610D01*
X178223915Y-92127091D01*
X178213607Y-92161069D01*
X178196866Y-92192390D01*
X178174339Y-92219839D01*
X178146890Y-92242366D01*
X178115569Y-92259107D01*
X178081591Y-92269415D01*
X178040110Y-92273500D01*
X177363890Y-92273500D01*
X177322409Y-92269415D01*
X177288431Y-92259107D01*
X177257110Y-92242366D01*
X177229661Y-92219839D01*
X177207134Y-92192390D01*
X177190393Y-92161069D01*
X177180085Y-92127091D01*
X177176000Y-92085610D01*
X177176000Y-91484390D01*
X177180085Y-91442909D01*
X177190393Y-91408931D01*
X177207134Y-91377610D01*
X177229661Y-91350161D01*
X177257110Y-91327634D01*
X177288431Y-91310893D01*
X177322409Y-91300585D01*
X177363890Y-91296500D01*
X178040110Y-91296500D01*
X178081591Y-91300585D01*
X178081591Y-91300585D01*
G37*
G36*
X176559591Y-91300585D02*
G01*
X176593569Y-91310893D01*
X176624890Y-91327634D01*
X176652339Y-91350161D01*
X176674866Y-91377610D01*
X176691607Y-91408931D01*
X176701915Y-91442909D01*
X176706000Y-91484390D01*
X176706000Y-92085610D01*
X176701915Y-92127091D01*
X176691607Y-92161069D01*
X176674866Y-92192390D01*
X176652339Y-92219839D01*
X176624890Y-92242366D01*
X176593569Y-92259107D01*
X176559591Y-92269415D01*
X176518110Y-92273500D01*
X175841890Y-92273500D01*
X175800409Y-92269415D01*
X175766431Y-92259107D01*
X175735110Y-92242366D01*
X175707661Y-92219839D01*
X175685134Y-92192390D01*
X175668393Y-92161069D01*
X175658085Y-92127091D01*
X175654000Y-92085610D01*
X175654000Y-91484390D01*
X175658085Y-91442909D01*
X175668393Y-91408931D01*
X175685134Y-91377610D01*
X175707661Y-91350161D01*
X175735110Y-91327634D01*
X175766431Y-91310893D01*
X175800409Y-91300585D01*
X175841890Y-91296500D01*
X176518110Y-91296500D01*
X176559591Y-91300585D01*
X176559591Y-91300585D01*
G37*
G36*
X179603591Y-91300585D02*
G01*
X179637569Y-91310893D01*
X179668890Y-91327634D01*
X179696339Y-91350161D01*
X179718866Y-91377610D01*
X179735607Y-91408931D01*
X179745915Y-91442909D01*
X179750000Y-91484390D01*
X179750000Y-92085610D01*
X179745915Y-92127091D01*
X179735607Y-92161069D01*
X179718866Y-92192390D01*
X179696339Y-92219839D01*
X179668890Y-92242366D01*
X179637569Y-92259107D01*
X179603591Y-92269415D01*
X179562110Y-92273500D01*
X178885890Y-92273500D01*
X178844409Y-92269415D01*
X178810431Y-92259107D01*
X178779110Y-92242366D01*
X178751661Y-92219839D01*
X178729134Y-92192390D01*
X178712393Y-92161069D01*
X178702085Y-92127091D01*
X178698000Y-92085610D01*
X178698000Y-91484390D01*
X178702085Y-91442909D01*
X178712393Y-91408931D01*
X178729134Y-91377610D01*
X178751661Y-91350161D01*
X178779110Y-91327634D01*
X178810431Y-91310893D01*
X178844409Y-91300585D01*
X178885890Y-91296500D01*
X179562110Y-91296500D01*
X179603591Y-91300585D01*
X179603591Y-91300585D01*
G37*
G36*
X181125591Y-91300585D02*
G01*
X181159569Y-91310893D01*
X181190890Y-91327634D01*
X181218339Y-91350161D01*
X181240866Y-91377610D01*
X181257607Y-91408931D01*
X181267915Y-91442909D01*
X181272000Y-91484390D01*
X181272000Y-92085610D01*
X181267915Y-92127091D01*
X181257607Y-92161069D01*
X181240866Y-92192390D01*
X181218339Y-92219839D01*
X181190890Y-92242366D01*
X181159569Y-92259107D01*
X181125591Y-92269415D01*
X181084110Y-92273500D01*
X180407890Y-92273500D01*
X180366409Y-92269415D01*
X180332431Y-92259107D01*
X180301110Y-92242366D01*
X180273661Y-92219839D01*
X180251134Y-92192390D01*
X180234393Y-92161069D01*
X180224085Y-92127091D01*
X180220000Y-92085610D01*
X180220000Y-91484390D01*
X180224085Y-91442909D01*
X180234393Y-91408931D01*
X180251134Y-91377610D01*
X180273661Y-91350161D01*
X180301110Y-91327634D01*
X180332431Y-91310893D01*
X180366409Y-91300585D01*
X180407890Y-91296500D01*
X181084110Y-91296500D01*
X181125591Y-91300585D01*
X181125591Y-91300585D01*
G37*
G36*
X182647591Y-91300585D02*
G01*
X182681569Y-91310893D01*
X182712890Y-91327634D01*
X182740339Y-91350161D01*
X182762866Y-91377610D01*
X182779607Y-91408931D01*
X182789915Y-91442909D01*
X182794000Y-91484390D01*
X182794000Y-92085610D01*
X182789915Y-92127091D01*
X182779607Y-92161069D01*
X182762866Y-92192390D01*
X182740339Y-92219839D01*
X182712890Y-92242366D01*
X182681569Y-92259107D01*
X182647591Y-92269415D01*
X182606110Y-92273500D01*
X181929890Y-92273500D01*
X181888409Y-92269415D01*
X181854431Y-92259107D01*
X181823110Y-92242366D01*
X181795661Y-92219839D01*
X181773134Y-92192390D01*
X181756393Y-92161069D01*
X181746085Y-92127091D01*
X181742000Y-92085610D01*
X181742000Y-91484390D01*
X181746085Y-91442909D01*
X181756393Y-91408931D01*
X181773134Y-91377610D01*
X181795661Y-91350161D01*
X181823110Y-91327634D01*
X181854431Y-91310893D01*
X181888409Y-91300585D01*
X181929890Y-91296500D01*
X182606110Y-91296500D01*
X182647591Y-91300585D01*
X182647591Y-91300585D01*
G37*
G36*
X183730443Y-88105519D02*
G01*
X183796627Y-88112037D01*
X183966466Y-88163557D01*
X184122991Y-88247222D01*
X184158729Y-88276552D01*
X184260186Y-88359814D01*
X184343448Y-88461271D01*
X184372778Y-88497009D01*
X184456443Y-88653534D01*
X184507963Y-88823373D01*
X184525359Y-89000000D01*
X184507963Y-89176627D01*
X184456443Y-89346466D01*
X184372778Y-89502991D01*
X184343448Y-89538729D01*
X184260186Y-89640186D01*
X184158729Y-89723448D01*
X184122991Y-89752778D01*
X183966466Y-89836443D01*
X183796627Y-89887963D01*
X183730442Y-89894482D01*
X183664260Y-89901000D01*
X183575740Y-89901000D01*
X183509558Y-89894482D01*
X183443373Y-89887963D01*
X183273534Y-89836443D01*
X183117009Y-89752778D01*
X183081271Y-89723448D01*
X182979814Y-89640186D01*
X182896552Y-89538729D01*
X182867222Y-89502991D01*
X182783557Y-89346466D01*
X182732037Y-89176627D01*
X182714641Y-89000000D01*
X182732037Y-88823373D01*
X182783557Y-88653534D01*
X182867222Y-88497009D01*
X182896552Y-88461271D01*
X182979814Y-88359814D01*
X183081271Y-88276552D01*
X183117009Y-88247222D01*
X183273534Y-88163557D01*
X183443373Y-88112037D01*
X183509557Y-88105519D01*
X183575740Y-88099000D01*
X183664260Y-88099000D01*
X183730443Y-88105519D01*
X183730443Y-88105519D01*
G37*
G36*
X181190443Y-88105519D02*
G01*
X181256627Y-88112037D01*
X181426466Y-88163557D01*
X181582991Y-88247222D01*
X181618729Y-88276552D01*
X181720186Y-88359814D01*
X181803448Y-88461271D01*
X181832778Y-88497009D01*
X181916443Y-88653534D01*
X181967963Y-88823373D01*
X181985359Y-89000000D01*
X181967963Y-89176627D01*
X181916443Y-89346466D01*
X181832778Y-89502991D01*
X181803448Y-89538729D01*
X181720186Y-89640186D01*
X181618729Y-89723448D01*
X181582991Y-89752778D01*
X181426466Y-89836443D01*
X181256627Y-89887963D01*
X181190442Y-89894482D01*
X181124260Y-89901000D01*
X181035740Y-89901000D01*
X180969558Y-89894482D01*
X180903373Y-89887963D01*
X180733534Y-89836443D01*
X180577009Y-89752778D01*
X180541271Y-89723448D01*
X180439814Y-89640186D01*
X180356552Y-89538729D01*
X180327222Y-89502991D01*
X180243557Y-89346466D01*
X180192037Y-89176627D01*
X180174641Y-89000000D01*
X180192037Y-88823373D01*
X180243557Y-88653534D01*
X180327222Y-88497009D01*
X180356552Y-88461271D01*
X180439814Y-88359814D01*
X180541271Y-88276552D01*
X180577009Y-88247222D01*
X180733534Y-88163557D01*
X180903373Y-88112037D01*
X180969557Y-88105519D01*
X181035740Y-88099000D01*
X181124260Y-88099000D01*
X181190443Y-88105519D01*
X181190443Y-88105519D01*
G37*
G36*
X178650443Y-88105519D02*
G01*
X178716627Y-88112037D01*
X178886466Y-88163557D01*
X179042991Y-88247222D01*
X179078729Y-88276552D01*
X179180186Y-88359814D01*
X179263448Y-88461271D01*
X179292778Y-88497009D01*
X179376443Y-88653534D01*
X179427963Y-88823373D01*
X179445359Y-89000000D01*
X179427963Y-89176627D01*
X179376443Y-89346466D01*
X179292778Y-89502991D01*
X179263448Y-89538729D01*
X179180186Y-89640186D01*
X179078729Y-89723448D01*
X179042991Y-89752778D01*
X178886466Y-89836443D01*
X178716627Y-89887963D01*
X178650442Y-89894482D01*
X178584260Y-89901000D01*
X178495740Y-89901000D01*
X178429558Y-89894482D01*
X178363373Y-89887963D01*
X178193534Y-89836443D01*
X178037009Y-89752778D01*
X178001271Y-89723448D01*
X177899814Y-89640186D01*
X177816552Y-89538729D01*
X177787222Y-89502991D01*
X177703557Y-89346466D01*
X177652037Y-89176627D01*
X177634641Y-89000000D01*
X177652037Y-88823373D01*
X177703557Y-88653534D01*
X177787222Y-88497009D01*
X177816552Y-88461271D01*
X177899814Y-88359814D01*
X178001271Y-88276552D01*
X178037009Y-88247222D01*
X178193534Y-88163557D01*
X178363373Y-88112037D01*
X178429557Y-88105519D01*
X178495740Y-88099000D01*
X178584260Y-88099000D01*
X178650443Y-88105519D01*
X178650443Y-88105519D01*
G37*
G36*
X176901000Y-89901000D02*
G01*
X175099000Y-89901000D01*
X175099000Y-88099000D01*
X176901000Y-88099000D01*
X176901000Y-89901000D01*
X176901000Y-89901000D01*
G37*
G36*
X200496000Y-88321000D02*
G01*
X199794000Y-88321000D01*
X199794000Y-86544000D01*
X200496000Y-86544000D01*
X200496000Y-88321000D01*
X200496000Y-88321000D01*
G37*
G36*
X192876000Y-88321000D02*
G01*
X192174000Y-88321000D01*
X192174000Y-86544000D01*
X192876000Y-86544000D01*
X192876000Y-88321000D01*
X192876000Y-88321000D01*
G37*
G36*
X194146000Y-88321000D02*
G01*
X193444000Y-88321000D01*
X193444000Y-86544000D01*
X194146000Y-86544000D01*
X194146000Y-88321000D01*
X194146000Y-88321000D01*
G37*
G36*
X191606000Y-88321000D02*
G01*
X190904000Y-88321000D01*
X190904000Y-86544000D01*
X191606000Y-86544000D01*
X191606000Y-88321000D01*
X191606000Y-88321000D01*
G37*
G36*
X195416000Y-88321000D02*
G01*
X194714000Y-88321000D01*
X194714000Y-86544000D01*
X195416000Y-86544000D01*
X195416000Y-88321000D01*
X195416000Y-88321000D01*
G37*
G36*
X190336000Y-88321000D02*
G01*
X189634000Y-88321000D01*
X189634000Y-86544000D01*
X190336000Y-86544000D01*
X190336000Y-88321000D01*
X190336000Y-88321000D01*
G37*
G36*
X196686000Y-88321000D02*
G01*
X195984000Y-88321000D01*
X195984000Y-86544000D01*
X196686000Y-86544000D01*
X196686000Y-88321000D01*
X196686000Y-88321000D01*
G37*
G36*
X189066000Y-88321000D02*
G01*
X188364000Y-88321000D01*
X188364000Y-86544000D01*
X189066000Y-86544000D01*
X189066000Y-88321000D01*
X189066000Y-88321000D01*
G37*
G36*
X187796000Y-88321000D02*
G01*
X187094000Y-88321000D01*
X187094000Y-86544000D01*
X187796000Y-86544000D01*
X187796000Y-88321000D01*
X187796000Y-88321000D01*
G37*
G36*
X197956000Y-88321000D02*
G01*
X197254000Y-88321000D01*
X197254000Y-86544000D01*
X197956000Y-86544000D01*
X197956000Y-88321000D01*
X197956000Y-88321000D01*
G37*
G36*
X199226000Y-88321000D02*
G01*
X198524000Y-88321000D01*
X198524000Y-86544000D01*
X199226000Y-86544000D01*
X199226000Y-88321000D01*
X199226000Y-88321000D01*
G37*
G36*
X204306000Y-88321000D02*
G01*
X203604000Y-88321000D01*
X203604000Y-86544000D01*
X204306000Y-86544000D01*
X204306000Y-88321000D01*
X204306000Y-88321000D01*
G37*
G36*
X201766000Y-88321000D02*
G01*
X201064000Y-88321000D01*
X201064000Y-86544000D01*
X201766000Y-86544000D01*
X201766000Y-88321000D01*
X201766000Y-88321000D01*
G37*
G36*
X203036000Y-88321000D02*
G01*
X202334000Y-88321000D01*
X202334000Y-86544000D01*
X203036000Y-86544000D01*
X203036000Y-88321000D01*
X203036000Y-88321000D01*
G37*
G36*
X211328228Y-84341703D02*
G01*
X211483100Y-84405853D01*
X211622481Y-84498985D01*
X211741015Y-84617519D01*
X211834147Y-84756900D01*
X211898297Y-84911772D01*
X211931000Y-85076184D01*
X211931000Y-85243816D01*
X211898297Y-85408228D01*
X211834147Y-85563100D01*
X211741015Y-85702481D01*
X211622481Y-85821015D01*
X211483100Y-85914147D01*
X211328228Y-85978297D01*
X211163816Y-86011000D01*
X210996184Y-86011000D01*
X210831772Y-85978297D01*
X210676900Y-85914147D01*
X210537519Y-85821015D01*
X210418985Y-85702481D01*
X210325853Y-85563100D01*
X210261703Y-85408228D01*
X210229000Y-85243816D01*
X210229000Y-85076184D01*
X210261703Y-84911772D01*
X210325853Y-84756900D01*
X210418985Y-84617519D01*
X210537519Y-84498985D01*
X210676900Y-84405853D01*
X210831772Y-84341703D01*
X210996184Y-84309000D01*
X211163816Y-84309000D01*
X211328228Y-84341703D01*
X211328228Y-84341703D01*
G37*
G36*
X206248228Y-84341703D02*
G01*
X206403100Y-84405853D01*
X206542481Y-84498985D01*
X206661015Y-84617519D01*
X206754147Y-84756900D01*
X206818297Y-84911772D01*
X206851000Y-85076184D01*
X206851000Y-85243816D01*
X206818297Y-85408228D01*
X206754147Y-85563100D01*
X206661015Y-85702481D01*
X206542481Y-85821015D01*
X206403100Y-85914147D01*
X206248228Y-85978297D01*
X206083816Y-86011000D01*
X205916184Y-86011000D01*
X205751772Y-85978297D01*
X205596900Y-85914147D01*
X205457519Y-85821015D01*
X205338985Y-85702481D01*
X205245853Y-85563100D01*
X205181703Y-85408228D01*
X205149000Y-85243816D01*
X205149000Y-85076184D01*
X205181703Y-84911772D01*
X205245853Y-84756900D01*
X205338985Y-84617519D01*
X205457519Y-84498985D01*
X205596900Y-84405853D01*
X205751772Y-84341703D01*
X205916184Y-84309000D01*
X206083816Y-84309000D01*
X206248228Y-84341703D01*
X206248228Y-84341703D01*
G37*
G36*
X187328228Y-84341703D02*
G01*
X187483100Y-84405853D01*
X187622481Y-84498985D01*
X187741015Y-84617519D01*
X187834147Y-84756900D01*
X187898297Y-84911772D01*
X187931000Y-85076184D01*
X187931000Y-85243816D01*
X187898297Y-85408228D01*
X187834147Y-85563100D01*
X187741015Y-85702481D01*
X187622481Y-85821015D01*
X187483100Y-85914147D01*
X187328228Y-85978297D01*
X187163816Y-86011000D01*
X186996184Y-86011000D01*
X186831772Y-85978297D01*
X186676900Y-85914147D01*
X186537519Y-85821015D01*
X186418985Y-85702481D01*
X186325853Y-85563100D01*
X186261703Y-85408228D01*
X186229000Y-85243816D01*
X186229000Y-85076184D01*
X186261703Y-84911772D01*
X186325853Y-84756900D01*
X186418985Y-84617519D01*
X186537519Y-84498985D01*
X186676900Y-84405853D01*
X186831772Y-84341703D01*
X186996184Y-84309000D01*
X187163816Y-84309000D01*
X187328228Y-84341703D01*
X187328228Y-84341703D01*
G37*
G36*
X182248228Y-84341703D02*
G01*
X182403100Y-84405853D01*
X182542481Y-84498985D01*
X182661015Y-84617519D01*
X182754147Y-84756900D01*
X182818297Y-84911772D01*
X182851000Y-85076184D01*
X182851000Y-85243816D01*
X182818297Y-85408228D01*
X182754147Y-85563100D01*
X182661015Y-85702481D01*
X182542481Y-85821015D01*
X182403100Y-85914147D01*
X182248228Y-85978297D01*
X182083816Y-86011000D01*
X181916184Y-86011000D01*
X181751772Y-85978297D01*
X181596900Y-85914147D01*
X181457519Y-85821015D01*
X181338985Y-85702481D01*
X181245853Y-85563100D01*
X181181703Y-85408228D01*
X181149000Y-85243816D01*
X181149000Y-85076184D01*
X181181703Y-84911772D01*
X181245853Y-84756900D01*
X181338985Y-84617519D01*
X181457519Y-84498985D01*
X181596900Y-84405853D01*
X181751772Y-84341703D01*
X181916184Y-84309000D01*
X182083816Y-84309000D01*
X182248228Y-84341703D01*
X182248228Y-84341703D01*
G37*
G36*
X198248228Y-84341703D02*
G01*
X198403100Y-84405853D01*
X198542481Y-84498985D01*
X198661015Y-84617519D01*
X198754147Y-84756900D01*
X198818297Y-84911772D01*
X198851000Y-85076184D01*
X198851000Y-85243816D01*
X198818297Y-85408228D01*
X198754147Y-85563100D01*
X198661015Y-85702481D01*
X198542481Y-85821015D01*
X198403100Y-85914147D01*
X198248228Y-85978297D01*
X198083816Y-86011000D01*
X197916184Y-86011000D01*
X197751772Y-85978297D01*
X197596900Y-85914147D01*
X197457519Y-85821015D01*
X197338985Y-85702481D01*
X197245853Y-85563100D01*
X197181703Y-85408228D01*
X197149000Y-85243816D01*
X197149000Y-85076184D01*
X197181703Y-84911772D01*
X197245853Y-84756900D01*
X197338985Y-84617519D01*
X197457519Y-84498985D01*
X197596900Y-84405853D01*
X197751772Y-84341703D01*
X197916184Y-84309000D01*
X198083816Y-84309000D01*
X198248228Y-84341703D01*
X198248228Y-84341703D01*
G37*
G36*
X203328228Y-84341703D02*
G01*
X203483100Y-84405853D01*
X203622481Y-84498985D01*
X203741015Y-84617519D01*
X203834147Y-84756900D01*
X203898297Y-84911772D01*
X203931000Y-85076184D01*
X203931000Y-85243816D01*
X203898297Y-85408228D01*
X203834147Y-85563100D01*
X203741015Y-85702481D01*
X203622481Y-85821015D01*
X203483100Y-85914147D01*
X203328228Y-85978297D01*
X203163816Y-86011000D01*
X202996184Y-86011000D01*
X202831772Y-85978297D01*
X202676900Y-85914147D01*
X202537519Y-85821015D01*
X202418985Y-85702481D01*
X202325853Y-85563100D01*
X202261703Y-85408228D01*
X202229000Y-85243816D01*
X202229000Y-85076184D01*
X202261703Y-84911772D01*
X202325853Y-84756900D01*
X202418985Y-84617519D01*
X202537519Y-84498985D01*
X202676900Y-84405853D01*
X202831772Y-84341703D01*
X202996184Y-84309000D01*
X203163816Y-84309000D01*
X203328228Y-84341703D01*
X203328228Y-84341703D01*
G37*
G36*
X235328228Y-84341703D02*
G01*
X235483100Y-84405853D01*
X235622481Y-84498985D01*
X235741015Y-84617519D01*
X235834147Y-84756900D01*
X235898297Y-84911772D01*
X235931000Y-85076184D01*
X235931000Y-85243816D01*
X235898297Y-85408228D01*
X235834147Y-85563100D01*
X235741015Y-85702481D01*
X235622481Y-85821015D01*
X235483100Y-85914147D01*
X235328228Y-85978297D01*
X235163816Y-86011000D01*
X234996184Y-86011000D01*
X234831772Y-85978297D01*
X234676900Y-85914147D01*
X234537519Y-85821015D01*
X234418985Y-85702481D01*
X234325853Y-85563100D01*
X234261703Y-85408228D01*
X234229000Y-85243816D01*
X234229000Y-85076184D01*
X234261703Y-84911772D01*
X234325853Y-84756900D01*
X234418985Y-84617519D01*
X234537519Y-84498985D01*
X234676900Y-84405853D01*
X234831772Y-84341703D01*
X234996184Y-84309000D01*
X235163816Y-84309000D01*
X235328228Y-84341703D01*
X235328228Y-84341703D01*
G37*
G36*
X230248228Y-84341703D02*
G01*
X230403100Y-84405853D01*
X230542481Y-84498985D01*
X230661015Y-84617519D01*
X230754147Y-84756900D01*
X230818297Y-84911772D01*
X230851000Y-85076184D01*
X230851000Y-85243816D01*
X230818297Y-85408228D01*
X230754147Y-85563100D01*
X230661015Y-85702481D01*
X230542481Y-85821015D01*
X230403100Y-85914147D01*
X230248228Y-85978297D01*
X230083816Y-86011000D01*
X229916184Y-86011000D01*
X229751772Y-85978297D01*
X229596900Y-85914147D01*
X229457519Y-85821015D01*
X229338985Y-85702481D01*
X229245853Y-85563100D01*
X229181703Y-85408228D01*
X229149000Y-85243816D01*
X229149000Y-85076184D01*
X229181703Y-84911772D01*
X229245853Y-84756900D01*
X229338985Y-84617519D01*
X229457519Y-84498985D01*
X229596900Y-84405853D01*
X229751772Y-84341703D01*
X229916184Y-84309000D01*
X230083816Y-84309000D01*
X230248228Y-84341703D01*
X230248228Y-84341703D01*
G37*
G36*
X195328228Y-84341703D02*
G01*
X195483100Y-84405853D01*
X195622481Y-84498985D01*
X195741015Y-84617519D01*
X195834147Y-84756900D01*
X195898297Y-84911772D01*
X195931000Y-85076184D01*
X195931000Y-85243816D01*
X195898297Y-85408228D01*
X195834147Y-85563100D01*
X195741015Y-85702481D01*
X195622481Y-85821015D01*
X195483100Y-85914147D01*
X195328228Y-85978297D01*
X195163816Y-86011000D01*
X194996184Y-86011000D01*
X194831772Y-85978297D01*
X194676900Y-85914147D01*
X194537519Y-85821015D01*
X194418985Y-85702481D01*
X194325853Y-85563100D01*
X194261703Y-85408228D01*
X194229000Y-85243816D01*
X194229000Y-85076184D01*
X194261703Y-84911772D01*
X194325853Y-84756900D01*
X194418985Y-84617519D01*
X194537519Y-84498985D01*
X194676900Y-84405853D01*
X194831772Y-84341703D01*
X194996184Y-84309000D01*
X195163816Y-84309000D01*
X195328228Y-84341703D01*
X195328228Y-84341703D01*
G37*
G36*
X190248228Y-84341703D02*
G01*
X190403100Y-84405853D01*
X190542481Y-84498985D01*
X190661015Y-84617519D01*
X190754147Y-84756900D01*
X190818297Y-84911772D01*
X190851000Y-85076184D01*
X190851000Y-85243816D01*
X190818297Y-85408228D01*
X190754147Y-85563100D01*
X190661015Y-85702481D01*
X190542481Y-85821015D01*
X190403100Y-85914147D01*
X190248228Y-85978297D01*
X190083816Y-86011000D01*
X189916184Y-86011000D01*
X189751772Y-85978297D01*
X189596900Y-85914147D01*
X189457519Y-85821015D01*
X189338985Y-85702481D01*
X189245853Y-85563100D01*
X189181703Y-85408228D01*
X189149000Y-85243816D01*
X189149000Y-85076184D01*
X189181703Y-84911772D01*
X189245853Y-84756900D01*
X189338985Y-84617519D01*
X189457519Y-84498985D01*
X189596900Y-84405853D01*
X189751772Y-84341703D01*
X189916184Y-84309000D01*
X190083816Y-84309000D01*
X190248228Y-84341703D01*
X190248228Y-84341703D01*
G37*
G36*
X227328228Y-84341703D02*
G01*
X227483100Y-84405853D01*
X227622481Y-84498985D01*
X227741015Y-84617519D01*
X227834147Y-84756900D01*
X227898297Y-84911772D01*
X227931000Y-85076184D01*
X227931000Y-85243816D01*
X227898297Y-85408228D01*
X227834147Y-85563100D01*
X227741015Y-85702481D01*
X227622481Y-85821015D01*
X227483100Y-85914147D01*
X227328228Y-85978297D01*
X227163816Y-86011000D01*
X226996184Y-86011000D01*
X226831772Y-85978297D01*
X226676900Y-85914147D01*
X226537519Y-85821015D01*
X226418985Y-85702481D01*
X226325853Y-85563100D01*
X226261703Y-85408228D01*
X226229000Y-85243816D01*
X226229000Y-85076184D01*
X226261703Y-84911772D01*
X226325853Y-84756900D01*
X226418985Y-84617519D01*
X226537519Y-84498985D01*
X226676900Y-84405853D01*
X226831772Y-84341703D01*
X226996184Y-84309000D01*
X227163816Y-84309000D01*
X227328228Y-84341703D01*
X227328228Y-84341703D01*
G37*
G36*
X222248228Y-84341703D02*
G01*
X222403100Y-84405853D01*
X222542481Y-84498985D01*
X222661015Y-84617519D01*
X222754147Y-84756900D01*
X222818297Y-84911772D01*
X222851000Y-85076184D01*
X222851000Y-85243816D01*
X222818297Y-85408228D01*
X222754147Y-85563100D01*
X222661015Y-85702481D01*
X222542481Y-85821015D01*
X222403100Y-85914147D01*
X222248228Y-85978297D01*
X222083816Y-86011000D01*
X221916184Y-86011000D01*
X221751772Y-85978297D01*
X221596900Y-85914147D01*
X221457519Y-85821015D01*
X221338985Y-85702481D01*
X221245853Y-85563100D01*
X221181703Y-85408228D01*
X221149000Y-85243816D01*
X221149000Y-85076184D01*
X221181703Y-84911772D01*
X221245853Y-84756900D01*
X221338985Y-84617519D01*
X221457519Y-84498985D01*
X221596900Y-84405853D01*
X221751772Y-84341703D01*
X221916184Y-84309000D01*
X222083816Y-84309000D01*
X222248228Y-84341703D01*
X222248228Y-84341703D01*
G37*
G36*
X179328228Y-84341703D02*
G01*
X179483100Y-84405853D01*
X179622481Y-84498985D01*
X179741015Y-84617519D01*
X179834147Y-84756900D01*
X179898297Y-84911772D01*
X179931000Y-85076184D01*
X179931000Y-85243816D01*
X179898297Y-85408228D01*
X179834147Y-85563100D01*
X179741015Y-85702481D01*
X179622481Y-85821015D01*
X179483100Y-85914147D01*
X179328228Y-85978297D01*
X179163816Y-86011000D01*
X178996184Y-86011000D01*
X178831772Y-85978297D01*
X178676900Y-85914147D01*
X178537519Y-85821015D01*
X178418985Y-85702481D01*
X178325853Y-85563100D01*
X178261703Y-85408228D01*
X178229000Y-85243816D01*
X178229000Y-85076184D01*
X178261703Y-84911772D01*
X178325853Y-84756900D01*
X178418985Y-84617519D01*
X178537519Y-84498985D01*
X178676900Y-84405853D01*
X178831772Y-84341703D01*
X178996184Y-84309000D01*
X179163816Y-84309000D01*
X179328228Y-84341703D01*
X179328228Y-84341703D01*
G37*
G36*
X174248228Y-84341703D02*
G01*
X174403100Y-84405853D01*
X174542481Y-84498985D01*
X174661015Y-84617519D01*
X174754147Y-84756900D01*
X174818297Y-84911772D01*
X174851000Y-85076184D01*
X174851000Y-85243816D01*
X174818297Y-85408228D01*
X174754147Y-85563100D01*
X174661015Y-85702481D01*
X174542481Y-85821015D01*
X174403100Y-85914147D01*
X174248228Y-85978297D01*
X174083816Y-86011000D01*
X173916184Y-86011000D01*
X173751772Y-85978297D01*
X173596900Y-85914147D01*
X173457519Y-85821015D01*
X173338985Y-85702481D01*
X173245853Y-85563100D01*
X173181703Y-85408228D01*
X173149000Y-85243816D01*
X173149000Y-85076184D01*
X173181703Y-84911772D01*
X173245853Y-84756900D01*
X173338985Y-84617519D01*
X173457519Y-84498985D01*
X173596900Y-84405853D01*
X173751772Y-84341703D01*
X173916184Y-84309000D01*
X174083816Y-84309000D01*
X174248228Y-84341703D01*
X174248228Y-84341703D01*
G37*
G36*
X219328228Y-84341703D02*
G01*
X219483100Y-84405853D01*
X219622481Y-84498985D01*
X219741015Y-84617519D01*
X219834147Y-84756900D01*
X219898297Y-84911772D01*
X219931000Y-85076184D01*
X219931000Y-85243816D01*
X219898297Y-85408228D01*
X219834147Y-85563100D01*
X219741015Y-85702481D01*
X219622481Y-85821015D01*
X219483100Y-85914147D01*
X219328228Y-85978297D01*
X219163816Y-86011000D01*
X218996184Y-86011000D01*
X218831772Y-85978297D01*
X218676900Y-85914147D01*
X218537519Y-85821015D01*
X218418985Y-85702481D01*
X218325853Y-85563100D01*
X218261703Y-85408228D01*
X218229000Y-85243816D01*
X218229000Y-85076184D01*
X218261703Y-84911772D01*
X218325853Y-84756900D01*
X218418985Y-84617519D01*
X218537519Y-84498985D01*
X218676900Y-84405853D01*
X218831772Y-84341703D01*
X218996184Y-84309000D01*
X219163816Y-84309000D01*
X219328228Y-84341703D01*
X219328228Y-84341703D01*
G37*
G36*
X214248228Y-84341703D02*
G01*
X214403100Y-84405853D01*
X214542481Y-84498985D01*
X214661015Y-84617519D01*
X214754147Y-84756900D01*
X214818297Y-84911772D01*
X214851000Y-85076184D01*
X214851000Y-85243816D01*
X214818297Y-85408228D01*
X214754147Y-85563100D01*
X214661015Y-85702481D01*
X214542481Y-85821015D01*
X214403100Y-85914147D01*
X214248228Y-85978297D01*
X214083816Y-86011000D01*
X213916184Y-86011000D01*
X213751772Y-85978297D01*
X213596900Y-85914147D01*
X213457519Y-85821015D01*
X213338985Y-85702481D01*
X213245853Y-85563100D01*
X213181703Y-85408228D01*
X213149000Y-85243816D01*
X213149000Y-85076184D01*
X213181703Y-84911772D01*
X213245853Y-84756900D01*
X213338985Y-84617519D01*
X213457519Y-84498985D01*
X213596900Y-84405853D01*
X213751772Y-84341703D01*
X213916184Y-84309000D01*
X214083816Y-84309000D01*
X214248228Y-84341703D01*
X214248228Y-84341703D01*
G37*
G36*
X195328228Y-81801703D02*
G01*
X195483100Y-81865853D01*
X195622481Y-81958985D01*
X195741015Y-82077519D01*
X195834147Y-82216900D01*
X195898297Y-82371772D01*
X195931000Y-82536184D01*
X195931000Y-82703816D01*
X195898297Y-82868228D01*
X195834147Y-83023100D01*
X195741015Y-83162481D01*
X195622481Y-83281015D01*
X195483100Y-83374147D01*
X195328228Y-83438297D01*
X195163816Y-83471000D01*
X194996184Y-83471000D01*
X194831772Y-83438297D01*
X194676900Y-83374147D01*
X194537519Y-83281015D01*
X194418985Y-83162481D01*
X194325853Y-83023100D01*
X194261703Y-82868228D01*
X194229000Y-82703816D01*
X194229000Y-82536184D01*
X194261703Y-82371772D01*
X194325853Y-82216900D01*
X194418985Y-82077519D01*
X194537519Y-81958985D01*
X194676900Y-81865853D01*
X194831772Y-81801703D01*
X194996184Y-81769000D01*
X195163816Y-81769000D01*
X195328228Y-81801703D01*
X195328228Y-81801703D01*
G37*
G36*
X198248228Y-81801703D02*
G01*
X198403100Y-81865853D01*
X198542481Y-81958985D01*
X198661015Y-82077519D01*
X198754147Y-82216900D01*
X198818297Y-82371772D01*
X198851000Y-82536184D01*
X198851000Y-82703816D01*
X198818297Y-82868228D01*
X198754147Y-83023100D01*
X198661015Y-83162481D01*
X198542481Y-83281015D01*
X198403100Y-83374147D01*
X198248228Y-83438297D01*
X198083816Y-83471000D01*
X197916184Y-83471000D01*
X197751772Y-83438297D01*
X197596900Y-83374147D01*
X197457519Y-83281015D01*
X197338985Y-83162481D01*
X197245853Y-83023100D01*
X197181703Y-82868228D01*
X197149000Y-82703816D01*
X197149000Y-82536184D01*
X197181703Y-82371772D01*
X197245853Y-82216900D01*
X197338985Y-82077519D01*
X197457519Y-81958985D01*
X197596900Y-81865853D01*
X197751772Y-81801703D01*
X197916184Y-81769000D01*
X198083816Y-81769000D01*
X198248228Y-81801703D01*
X198248228Y-81801703D01*
G37*
G36*
X203328228Y-81801703D02*
G01*
X203483100Y-81865853D01*
X203622481Y-81958985D01*
X203741015Y-82077519D01*
X203834147Y-82216900D01*
X203898297Y-82371772D01*
X203931000Y-82536184D01*
X203931000Y-82703816D01*
X203898297Y-82868228D01*
X203834147Y-83023100D01*
X203741015Y-83162481D01*
X203622481Y-83281015D01*
X203483100Y-83374147D01*
X203328228Y-83438297D01*
X203163816Y-83471000D01*
X202996184Y-83471000D01*
X202831772Y-83438297D01*
X202676900Y-83374147D01*
X202537519Y-83281015D01*
X202418985Y-83162481D01*
X202325853Y-83023100D01*
X202261703Y-82868228D01*
X202229000Y-82703816D01*
X202229000Y-82536184D01*
X202261703Y-82371772D01*
X202325853Y-82216900D01*
X202418985Y-82077519D01*
X202537519Y-81958985D01*
X202676900Y-81865853D01*
X202831772Y-81801703D01*
X202996184Y-81769000D01*
X203163816Y-81769000D01*
X203328228Y-81801703D01*
X203328228Y-81801703D01*
G37*
G36*
X206248228Y-81801703D02*
G01*
X206403100Y-81865853D01*
X206542481Y-81958985D01*
X206661015Y-82077519D01*
X206754147Y-82216900D01*
X206818297Y-82371772D01*
X206851000Y-82536184D01*
X206851000Y-82703816D01*
X206818297Y-82868228D01*
X206754147Y-83023100D01*
X206661015Y-83162481D01*
X206542481Y-83281015D01*
X206403100Y-83374147D01*
X206248228Y-83438297D01*
X206083816Y-83471000D01*
X205916184Y-83471000D01*
X205751772Y-83438297D01*
X205596900Y-83374147D01*
X205457519Y-83281015D01*
X205338985Y-83162481D01*
X205245853Y-83023100D01*
X205181703Y-82868228D01*
X205149000Y-82703816D01*
X205149000Y-82536184D01*
X205181703Y-82371772D01*
X205245853Y-82216900D01*
X205338985Y-82077519D01*
X205457519Y-81958985D01*
X205596900Y-81865853D01*
X205751772Y-81801703D01*
X205916184Y-81769000D01*
X206083816Y-81769000D01*
X206248228Y-81801703D01*
X206248228Y-81801703D01*
G37*
G36*
X211328228Y-81801703D02*
G01*
X211483100Y-81865853D01*
X211622481Y-81958985D01*
X211741015Y-82077519D01*
X211834147Y-82216900D01*
X211898297Y-82371772D01*
X211931000Y-82536184D01*
X211931000Y-82703816D01*
X211898297Y-82868228D01*
X211834147Y-83023100D01*
X211741015Y-83162481D01*
X211622481Y-83281015D01*
X211483100Y-83374147D01*
X211328228Y-83438297D01*
X211163816Y-83471000D01*
X210996184Y-83471000D01*
X210831772Y-83438297D01*
X210676900Y-83374147D01*
X210537519Y-83281015D01*
X210418985Y-83162481D01*
X210325853Y-83023100D01*
X210261703Y-82868228D01*
X210229000Y-82703816D01*
X210229000Y-82536184D01*
X210261703Y-82371772D01*
X210325853Y-82216900D01*
X210418985Y-82077519D01*
X210537519Y-81958985D01*
X210676900Y-81865853D01*
X210831772Y-81801703D01*
X210996184Y-81769000D01*
X211163816Y-81769000D01*
X211328228Y-81801703D01*
X211328228Y-81801703D01*
G37*
G36*
X214248228Y-81801703D02*
G01*
X214403100Y-81865853D01*
X214542481Y-81958985D01*
X214661015Y-82077519D01*
X214754147Y-82216900D01*
X214818297Y-82371772D01*
X214851000Y-82536184D01*
X214851000Y-82703816D01*
X214818297Y-82868228D01*
X214754147Y-83023100D01*
X214661015Y-83162481D01*
X214542481Y-83281015D01*
X214403100Y-83374147D01*
X214248228Y-83438297D01*
X214083816Y-83471000D01*
X213916184Y-83471000D01*
X213751772Y-83438297D01*
X213596900Y-83374147D01*
X213457519Y-83281015D01*
X213338985Y-83162481D01*
X213245853Y-83023100D01*
X213181703Y-82868228D01*
X213149000Y-82703816D01*
X213149000Y-82536184D01*
X213181703Y-82371772D01*
X213245853Y-82216900D01*
X213338985Y-82077519D01*
X213457519Y-81958985D01*
X213596900Y-81865853D01*
X213751772Y-81801703D01*
X213916184Y-81769000D01*
X214083816Y-81769000D01*
X214248228Y-81801703D01*
X214248228Y-81801703D01*
G37*
G36*
X219328228Y-81801703D02*
G01*
X219483100Y-81865853D01*
X219622481Y-81958985D01*
X219741015Y-82077519D01*
X219834147Y-82216900D01*
X219898297Y-82371772D01*
X219931000Y-82536184D01*
X219931000Y-82703816D01*
X219898297Y-82868228D01*
X219834147Y-83023100D01*
X219741015Y-83162481D01*
X219622481Y-83281015D01*
X219483100Y-83374147D01*
X219328228Y-83438297D01*
X219163816Y-83471000D01*
X218996184Y-83471000D01*
X218831772Y-83438297D01*
X218676900Y-83374147D01*
X218537519Y-83281015D01*
X218418985Y-83162481D01*
X218325853Y-83023100D01*
X218261703Y-82868228D01*
X218229000Y-82703816D01*
X218229000Y-82536184D01*
X218261703Y-82371772D01*
X218325853Y-82216900D01*
X218418985Y-82077519D01*
X218537519Y-81958985D01*
X218676900Y-81865853D01*
X218831772Y-81801703D01*
X218996184Y-81769000D01*
X219163816Y-81769000D01*
X219328228Y-81801703D01*
X219328228Y-81801703D01*
G37*
G36*
X222248228Y-81801703D02*
G01*
X222403100Y-81865853D01*
X222542481Y-81958985D01*
X222661015Y-82077519D01*
X222754147Y-82216900D01*
X222818297Y-82371772D01*
X222851000Y-82536184D01*
X222851000Y-82703816D01*
X222818297Y-82868228D01*
X222754147Y-83023100D01*
X222661015Y-83162481D01*
X222542481Y-83281015D01*
X222403100Y-83374147D01*
X222248228Y-83438297D01*
X222083816Y-83471000D01*
X221916184Y-83471000D01*
X221751772Y-83438297D01*
X221596900Y-83374147D01*
X221457519Y-83281015D01*
X221338985Y-83162481D01*
X221245853Y-83023100D01*
X221181703Y-82868228D01*
X221149000Y-82703816D01*
X221149000Y-82536184D01*
X221181703Y-82371772D01*
X221245853Y-82216900D01*
X221338985Y-82077519D01*
X221457519Y-81958985D01*
X221596900Y-81865853D01*
X221751772Y-81801703D01*
X221916184Y-81769000D01*
X222083816Y-81769000D01*
X222248228Y-81801703D01*
X222248228Y-81801703D01*
G37*
G36*
X227328228Y-81801703D02*
G01*
X227483100Y-81865853D01*
X227622481Y-81958985D01*
X227741015Y-82077519D01*
X227834147Y-82216900D01*
X227898297Y-82371772D01*
X227931000Y-82536184D01*
X227931000Y-82703816D01*
X227898297Y-82868228D01*
X227834147Y-83023100D01*
X227741015Y-83162481D01*
X227622481Y-83281015D01*
X227483100Y-83374147D01*
X227328228Y-83438297D01*
X227163816Y-83471000D01*
X226996184Y-83471000D01*
X226831772Y-83438297D01*
X226676900Y-83374147D01*
X226537519Y-83281015D01*
X226418985Y-83162481D01*
X226325853Y-83023100D01*
X226261703Y-82868228D01*
X226229000Y-82703816D01*
X226229000Y-82536184D01*
X226261703Y-82371772D01*
X226325853Y-82216900D01*
X226418985Y-82077519D01*
X226537519Y-81958985D01*
X226676900Y-81865853D01*
X226831772Y-81801703D01*
X226996184Y-81769000D01*
X227163816Y-81769000D01*
X227328228Y-81801703D01*
X227328228Y-81801703D01*
G37*
G36*
X230248228Y-81801703D02*
G01*
X230403100Y-81865853D01*
X230542481Y-81958985D01*
X230661015Y-82077519D01*
X230754147Y-82216900D01*
X230818297Y-82371772D01*
X230851000Y-82536184D01*
X230851000Y-82703816D01*
X230818297Y-82868228D01*
X230754147Y-83023100D01*
X230661015Y-83162481D01*
X230542481Y-83281015D01*
X230403100Y-83374147D01*
X230248228Y-83438297D01*
X230083816Y-83471000D01*
X229916184Y-83471000D01*
X229751772Y-83438297D01*
X229596900Y-83374147D01*
X229457519Y-83281015D01*
X229338985Y-83162481D01*
X229245853Y-83023100D01*
X229181703Y-82868228D01*
X229149000Y-82703816D01*
X229149000Y-82536184D01*
X229181703Y-82371772D01*
X229245853Y-82216900D01*
X229338985Y-82077519D01*
X229457519Y-81958985D01*
X229596900Y-81865853D01*
X229751772Y-81801703D01*
X229916184Y-81769000D01*
X230083816Y-81769000D01*
X230248228Y-81801703D01*
X230248228Y-81801703D01*
G37*
G36*
X235328228Y-81801703D02*
G01*
X235483100Y-81865853D01*
X235622481Y-81958985D01*
X235741015Y-82077519D01*
X235834147Y-82216900D01*
X235898297Y-82371772D01*
X235931000Y-82536184D01*
X235931000Y-82703816D01*
X235898297Y-82868228D01*
X235834147Y-83023100D01*
X235741015Y-83162481D01*
X235622481Y-83281015D01*
X235483100Y-83374147D01*
X235328228Y-83438297D01*
X235163816Y-83471000D01*
X234996184Y-83471000D01*
X234831772Y-83438297D01*
X234676900Y-83374147D01*
X234537519Y-83281015D01*
X234418985Y-83162481D01*
X234325853Y-83023100D01*
X234261703Y-82868228D01*
X234229000Y-82703816D01*
X234229000Y-82536184D01*
X234261703Y-82371772D01*
X234325853Y-82216900D01*
X234418985Y-82077519D01*
X234537519Y-81958985D01*
X234676900Y-81865853D01*
X234831772Y-81801703D01*
X234996184Y-81769000D01*
X235163816Y-81769000D01*
X235328228Y-81801703D01*
X235328228Y-81801703D01*
G37*
G36*
X190248228Y-81801703D02*
G01*
X190403100Y-81865853D01*
X190542481Y-81958985D01*
X190661015Y-82077519D01*
X190754147Y-82216900D01*
X190818297Y-82371772D01*
X190851000Y-82536184D01*
X190851000Y-82703816D01*
X190818297Y-82868228D01*
X190754147Y-83023100D01*
X190661015Y-83162481D01*
X190542481Y-83281015D01*
X190403100Y-83374147D01*
X190248228Y-83438297D01*
X190083816Y-83471000D01*
X189916184Y-83471000D01*
X189751772Y-83438297D01*
X189596900Y-83374147D01*
X189457519Y-83281015D01*
X189338985Y-83162481D01*
X189245853Y-83023100D01*
X189181703Y-82868228D01*
X189149000Y-82703816D01*
X189149000Y-82536184D01*
X189181703Y-82371772D01*
X189245853Y-82216900D01*
X189338985Y-82077519D01*
X189457519Y-81958985D01*
X189596900Y-81865853D01*
X189751772Y-81801703D01*
X189916184Y-81769000D01*
X190083816Y-81769000D01*
X190248228Y-81801703D01*
X190248228Y-81801703D01*
G37*
G36*
X187328228Y-81801703D02*
G01*
X187483100Y-81865853D01*
X187622481Y-81958985D01*
X187741015Y-82077519D01*
X187834147Y-82216900D01*
X187898297Y-82371772D01*
X187931000Y-82536184D01*
X187931000Y-82703816D01*
X187898297Y-82868228D01*
X187834147Y-83023100D01*
X187741015Y-83162481D01*
X187622481Y-83281015D01*
X187483100Y-83374147D01*
X187328228Y-83438297D01*
X187163816Y-83471000D01*
X186996184Y-83471000D01*
X186831772Y-83438297D01*
X186676900Y-83374147D01*
X186537519Y-83281015D01*
X186418985Y-83162481D01*
X186325853Y-83023100D01*
X186261703Y-82868228D01*
X186229000Y-82703816D01*
X186229000Y-82536184D01*
X186261703Y-82371772D01*
X186325853Y-82216900D01*
X186418985Y-82077519D01*
X186537519Y-81958985D01*
X186676900Y-81865853D01*
X186831772Y-81801703D01*
X186996184Y-81769000D01*
X187163816Y-81769000D01*
X187328228Y-81801703D01*
X187328228Y-81801703D01*
G37*
G36*
X182248228Y-81801703D02*
G01*
X182403100Y-81865853D01*
X182542481Y-81958985D01*
X182661015Y-82077519D01*
X182754147Y-82216900D01*
X182818297Y-82371772D01*
X182851000Y-82536184D01*
X182851000Y-82703816D01*
X182818297Y-82868228D01*
X182754147Y-83023100D01*
X182661015Y-83162481D01*
X182542481Y-83281015D01*
X182403100Y-83374147D01*
X182248228Y-83438297D01*
X182083816Y-83471000D01*
X181916184Y-83471000D01*
X181751772Y-83438297D01*
X181596900Y-83374147D01*
X181457519Y-83281015D01*
X181338985Y-83162481D01*
X181245853Y-83023100D01*
X181181703Y-82868228D01*
X181149000Y-82703816D01*
X181149000Y-82536184D01*
X181181703Y-82371772D01*
X181245853Y-82216900D01*
X181338985Y-82077519D01*
X181457519Y-81958985D01*
X181596900Y-81865853D01*
X181751772Y-81801703D01*
X181916184Y-81769000D01*
X182083816Y-81769000D01*
X182248228Y-81801703D01*
X182248228Y-81801703D01*
G37*
G36*
X179328228Y-81801703D02*
G01*
X179483100Y-81865853D01*
X179622481Y-81958985D01*
X179741015Y-82077519D01*
X179834147Y-82216900D01*
X179898297Y-82371772D01*
X179931000Y-82536184D01*
X179931000Y-82703816D01*
X179898297Y-82868228D01*
X179834147Y-83023100D01*
X179741015Y-83162481D01*
X179622481Y-83281015D01*
X179483100Y-83374147D01*
X179328228Y-83438297D01*
X179163816Y-83471000D01*
X178996184Y-83471000D01*
X178831772Y-83438297D01*
X178676900Y-83374147D01*
X178537519Y-83281015D01*
X178418985Y-83162481D01*
X178325853Y-83023100D01*
X178261703Y-82868228D01*
X178229000Y-82703816D01*
X178229000Y-82536184D01*
X178261703Y-82371772D01*
X178325853Y-82216900D01*
X178418985Y-82077519D01*
X178537519Y-81958985D01*
X178676900Y-81865853D01*
X178831772Y-81801703D01*
X178996184Y-81769000D01*
X179163816Y-81769000D01*
X179328228Y-81801703D01*
X179328228Y-81801703D01*
G37*
G36*
X174248228Y-81801703D02*
G01*
X174403100Y-81865853D01*
X174542481Y-81958985D01*
X174661015Y-82077519D01*
X174754147Y-82216900D01*
X174818297Y-82371772D01*
X174851000Y-82536184D01*
X174851000Y-82703816D01*
X174818297Y-82868228D01*
X174754147Y-83023100D01*
X174661015Y-83162481D01*
X174542481Y-83281015D01*
X174403100Y-83374147D01*
X174248228Y-83438297D01*
X174083816Y-83471000D01*
X173916184Y-83471000D01*
X173751772Y-83438297D01*
X173596900Y-83374147D01*
X173457519Y-83281015D01*
X173338985Y-83162481D01*
X173245853Y-83023100D01*
X173181703Y-82868228D01*
X173149000Y-82703816D01*
X173149000Y-82536184D01*
X173181703Y-82371772D01*
X173245853Y-82216900D01*
X173338985Y-82077519D01*
X173457519Y-81958985D01*
X173596900Y-81865853D01*
X173751772Y-81801703D01*
X173916184Y-81769000D01*
X174083816Y-81769000D01*
X174248228Y-81801703D01*
X174248228Y-81801703D01*
G37*
G36*
X187328228Y-79261703D02*
G01*
X187483100Y-79325853D01*
X187622481Y-79418985D01*
X187741015Y-79537519D01*
X187834147Y-79676900D01*
X187898297Y-79831772D01*
X187931000Y-79996184D01*
X187931000Y-80163816D01*
X187898297Y-80328228D01*
X187834147Y-80483100D01*
X187741015Y-80622481D01*
X187622481Y-80741015D01*
X187483100Y-80834147D01*
X187328228Y-80898297D01*
X187163816Y-80931000D01*
X186996184Y-80931000D01*
X186831772Y-80898297D01*
X186676900Y-80834147D01*
X186537519Y-80741015D01*
X186418985Y-80622481D01*
X186325853Y-80483100D01*
X186261703Y-80328228D01*
X186229000Y-80163816D01*
X186229000Y-79996184D01*
X186261703Y-79831772D01*
X186325853Y-79676900D01*
X186418985Y-79537519D01*
X186537519Y-79418985D01*
X186676900Y-79325853D01*
X186831772Y-79261703D01*
X186996184Y-79229000D01*
X187163816Y-79229000D01*
X187328228Y-79261703D01*
X187328228Y-79261703D01*
G37*
G36*
X190248228Y-79261703D02*
G01*
X190403100Y-79325853D01*
X190542481Y-79418985D01*
X190661015Y-79537519D01*
X190754147Y-79676900D01*
X190818297Y-79831772D01*
X190851000Y-79996184D01*
X190851000Y-80163816D01*
X190818297Y-80328228D01*
X190754147Y-80483100D01*
X190661015Y-80622481D01*
X190542481Y-80741015D01*
X190403100Y-80834147D01*
X190248228Y-80898297D01*
X190083816Y-80931000D01*
X189916184Y-80931000D01*
X189751772Y-80898297D01*
X189596900Y-80834147D01*
X189457519Y-80741015D01*
X189338985Y-80622481D01*
X189245853Y-80483100D01*
X189181703Y-80328228D01*
X189149000Y-80163816D01*
X189149000Y-79996184D01*
X189181703Y-79831772D01*
X189245853Y-79676900D01*
X189338985Y-79537519D01*
X189457519Y-79418985D01*
X189596900Y-79325853D01*
X189751772Y-79261703D01*
X189916184Y-79229000D01*
X190083816Y-79229000D01*
X190248228Y-79261703D01*
X190248228Y-79261703D01*
G37*
G36*
X235328228Y-79261703D02*
G01*
X235483100Y-79325853D01*
X235622481Y-79418985D01*
X235741015Y-79537519D01*
X235834147Y-79676900D01*
X235898297Y-79831772D01*
X235931000Y-79996184D01*
X235931000Y-80163816D01*
X235898297Y-80328228D01*
X235834147Y-80483100D01*
X235741015Y-80622481D01*
X235622481Y-80741015D01*
X235483100Y-80834147D01*
X235328228Y-80898297D01*
X235163816Y-80931000D01*
X234996184Y-80931000D01*
X234831772Y-80898297D01*
X234676900Y-80834147D01*
X234537519Y-80741015D01*
X234418985Y-80622481D01*
X234325853Y-80483100D01*
X234261703Y-80328228D01*
X234229000Y-80163816D01*
X234229000Y-79996184D01*
X234261703Y-79831772D01*
X234325853Y-79676900D01*
X234418985Y-79537519D01*
X234537519Y-79418985D01*
X234676900Y-79325853D01*
X234831772Y-79261703D01*
X234996184Y-79229000D01*
X235163816Y-79229000D01*
X235328228Y-79261703D01*
X235328228Y-79261703D01*
G37*
G36*
X182248228Y-79261703D02*
G01*
X182403100Y-79325853D01*
X182542481Y-79418985D01*
X182661015Y-79537519D01*
X182754147Y-79676900D01*
X182818297Y-79831772D01*
X182851000Y-79996184D01*
X182851000Y-80163816D01*
X182818297Y-80328228D01*
X182754147Y-80483100D01*
X182661015Y-80622481D01*
X182542481Y-80741015D01*
X182403100Y-80834147D01*
X182248228Y-80898297D01*
X182083816Y-80931000D01*
X181916184Y-80931000D01*
X181751772Y-80898297D01*
X181596900Y-80834147D01*
X181457519Y-80741015D01*
X181338985Y-80622481D01*
X181245853Y-80483100D01*
X181181703Y-80328228D01*
X181149000Y-80163816D01*
X181149000Y-79996184D01*
X181181703Y-79831772D01*
X181245853Y-79676900D01*
X181338985Y-79537519D01*
X181457519Y-79418985D01*
X181596900Y-79325853D01*
X181751772Y-79261703D01*
X181916184Y-79229000D01*
X182083816Y-79229000D01*
X182248228Y-79261703D01*
X182248228Y-79261703D01*
G37*
G36*
X195328228Y-79261703D02*
G01*
X195483100Y-79325853D01*
X195622481Y-79418985D01*
X195741015Y-79537519D01*
X195834147Y-79676900D01*
X195898297Y-79831772D01*
X195931000Y-79996184D01*
X195931000Y-80163816D01*
X195898297Y-80328228D01*
X195834147Y-80483100D01*
X195741015Y-80622481D01*
X195622481Y-80741015D01*
X195483100Y-80834147D01*
X195328228Y-80898297D01*
X195163816Y-80931000D01*
X194996184Y-80931000D01*
X194831772Y-80898297D01*
X194676900Y-80834147D01*
X194537519Y-80741015D01*
X194418985Y-80622481D01*
X194325853Y-80483100D01*
X194261703Y-80328228D01*
X194229000Y-80163816D01*
X194229000Y-79996184D01*
X194261703Y-79831772D01*
X194325853Y-79676900D01*
X194418985Y-79537519D01*
X194537519Y-79418985D01*
X194676900Y-79325853D01*
X194831772Y-79261703D01*
X194996184Y-79229000D01*
X195163816Y-79229000D01*
X195328228Y-79261703D01*
X195328228Y-79261703D01*
G37*
G36*
X230248228Y-79261703D02*
G01*
X230403100Y-79325853D01*
X230542481Y-79418985D01*
X230661015Y-79537519D01*
X230754147Y-79676900D01*
X230818297Y-79831772D01*
X230851000Y-79996184D01*
X230851000Y-80163816D01*
X230818297Y-80328228D01*
X230754147Y-80483100D01*
X230661015Y-80622481D01*
X230542481Y-80741015D01*
X230403100Y-80834147D01*
X230248228Y-80898297D01*
X230083816Y-80931000D01*
X229916184Y-80931000D01*
X229751772Y-80898297D01*
X229596900Y-80834147D01*
X229457519Y-80741015D01*
X229338985Y-80622481D01*
X229245853Y-80483100D01*
X229181703Y-80328228D01*
X229149000Y-80163816D01*
X229149000Y-79996184D01*
X229181703Y-79831772D01*
X229245853Y-79676900D01*
X229338985Y-79537519D01*
X229457519Y-79418985D01*
X229596900Y-79325853D01*
X229751772Y-79261703D01*
X229916184Y-79229000D01*
X230083816Y-79229000D01*
X230248228Y-79261703D01*
X230248228Y-79261703D01*
G37*
G36*
X227328228Y-79261703D02*
G01*
X227483100Y-79325853D01*
X227622481Y-79418985D01*
X227741015Y-79537519D01*
X227834147Y-79676900D01*
X227898297Y-79831772D01*
X227931000Y-79996184D01*
X227931000Y-80163816D01*
X227898297Y-80328228D01*
X227834147Y-80483100D01*
X227741015Y-80622481D01*
X227622481Y-80741015D01*
X227483100Y-80834147D01*
X227328228Y-80898297D01*
X227163816Y-80931000D01*
X226996184Y-80931000D01*
X226831772Y-80898297D01*
X226676900Y-80834147D01*
X226537519Y-80741015D01*
X226418985Y-80622481D01*
X226325853Y-80483100D01*
X226261703Y-80328228D01*
X226229000Y-80163816D01*
X226229000Y-79996184D01*
X226261703Y-79831772D01*
X226325853Y-79676900D01*
X226418985Y-79537519D01*
X226537519Y-79418985D01*
X226676900Y-79325853D01*
X226831772Y-79261703D01*
X226996184Y-79229000D01*
X227163816Y-79229000D01*
X227328228Y-79261703D01*
X227328228Y-79261703D01*
G37*
G36*
X222248228Y-79261703D02*
G01*
X222403100Y-79325853D01*
X222542481Y-79418985D01*
X222661015Y-79537519D01*
X222754147Y-79676900D01*
X222818297Y-79831772D01*
X222851000Y-79996184D01*
X222851000Y-80163816D01*
X222818297Y-80328228D01*
X222754147Y-80483100D01*
X222661015Y-80622481D01*
X222542481Y-80741015D01*
X222403100Y-80834147D01*
X222248228Y-80898297D01*
X222083816Y-80931000D01*
X221916184Y-80931000D01*
X221751772Y-80898297D01*
X221596900Y-80834147D01*
X221457519Y-80741015D01*
X221338985Y-80622481D01*
X221245853Y-80483100D01*
X221181703Y-80328228D01*
X221149000Y-80163816D01*
X221149000Y-79996184D01*
X221181703Y-79831772D01*
X221245853Y-79676900D01*
X221338985Y-79537519D01*
X221457519Y-79418985D01*
X221596900Y-79325853D01*
X221751772Y-79261703D01*
X221916184Y-79229000D01*
X222083816Y-79229000D01*
X222248228Y-79261703D01*
X222248228Y-79261703D01*
G37*
G36*
X219328228Y-79261703D02*
G01*
X219483100Y-79325853D01*
X219622481Y-79418985D01*
X219741015Y-79537519D01*
X219834147Y-79676900D01*
X219898297Y-79831772D01*
X219931000Y-79996184D01*
X219931000Y-80163816D01*
X219898297Y-80328228D01*
X219834147Y-80483100D01*
X219741015Y-80622481D01*
X219622481Y-80741015D01*
X219483100Y-80834147D01*
X219328228Y-80898297D01*
X219163816Y-80931000D01*
X218996184Y-80931000D01*
X218831772Y-80898297D01*
X218676900Y-80834147D01*
X218537519Y-80741015D01*
X218418985Y-80622481D01*
X218325853Y-80483100D01*
X218261703Y-80328228D01*
X218229000Y-80163816D01*
X218229000Y-79996184D01*
X218261703Y-79831772D01*
X218325853Y-79676900D01*
X218418985Y-79537519D01*
X218537519Y-79418985D01*
X218676900Y-79325853D01*
X218831772Y-79261703D01*
X218996184Y-79229000D01*
X219163816Y-79229000D01*
X219328228Y-79261703D01*
X219328228Y-79261703D01*
G37*
G36*
X203328228Y-79261703D02*
G01*
X203483100Y-79325853D01*
X203622481Y-79418985D01*
X203741015Y-79537519D01*
X203834147Y-79676900D01*
X203898297Y-79831772D01*
X203931000Y-79996184D01*
X203931000Y-80163816D01*
X203898297Y-80328228D01*
X203834147Y-80483100D01*
X203741015Y-80622481D01*
X203622481Y-80741015D01*
X203483100Y-80834147D01*
X203328228Y-80898297D01*
X203163816Y-80931000D01*
X202996184Y-80931000D01*
X202831772Y-80898297D01*
X202676900Y-80834147D01*
X202537519Y-80741015D01*
X202418985Y-80622481D01*
X202325853Y-80483100D01*
X202261703Y-80328228D01*
X202229000Y-80163816D01*
X202229000Y-79996184D01*
X202261703Y-79831772D01*
X202325853Y-79676900D01*
X202418985Y-79537519D01*
X202537519Y-79418985D01*
X202676900Y-79325853D01*
X202831772Y-79261703D01*
X202996184Y-79229000D01*
X203163816Y-79229000D01*
X203328228Y-79261703D01*
X203328228Y-79261703D01*
G37*
G36*
X179328228Y-79261703D02*
G01*
X179483100Y-79325853D01*
X179622481Y-79418985D01*
X179741015Y-79537519D01*
X179834147Y-79676900D01*
X179898297Y-79831772D01*
X179931000Y-79996184D01*
X179931000Y-80163816D01*
X179898297Y-80328228D01*
X179834147Y-80483100D01*
X179741015Y-80622481D01*
X179622481Y-80741015D01*
X179483100Y-80834147D01*
X179328228Y-80898297D01*
X179163816Y-80931000D01*
X178996184Y-80931000D01*
X178831772Y-80898297D01*
X178676900Y-80834147D01*
X178537519Y-80741015D01*
X178418985Y-80622481D01*
X178325853Y-80483100D01*
X178261703Y-80328228D01*
X178229000Y-80163816D01*
X178229000Y-79996184D01*
X178261703Y-79831772D01*
X178325853Y-79676900D01*
X178418985Y-79537519D01*
X178537519Y-79418985D01*
X178676900Y-79325853D01*
X178831772Y-79261703D01*
X178996184Y-79229000D01*
X179163816Y-79229000D01*
X179328228Y-79261703D01*
X179328228Y-79261703D01*
G37*
G36*
X198248228Y-79261703D02*
G01*
X198403100Y-79325853D01*
X198542481Y-79418985D01*
X198661015Y-79537519D01*
X198754147Y-79676900D01*
X198818297Y-79831772D01*
X198851000Y-79996184D01*
X198851000Y-80163816D01*
X198818297Y-80328228D01*
X198754147Y-80483100D01*
X198661015Y-80622481D01*
X198542481Y-80741015D01*
X198403100Y-80834147D01*
X198248228Y-80898297D01*
X198083816Y-80931000D01*
X197916184Y-80931000D01*
X197751772Y-80898297D01*
X197596900Y-80834147D01*
X197457519Y-80741015D01*
X197338985Y-80622481D01*
X197245853Y-80483100D01*
X197181703Y-80328228D01*
X197149000Y-80163816D01*
X197149000Y-79996184D01*
X197181703Y-79831772D01*
X197245853Y-79676900D01*
X197338985Y-79537519D01*
X197457519Y-79418985D01*
X197596900Y-79325853D01*
X197751772Y-79261703D01*
X197916184Y-79229000D01*
X198083816Y-79229000D01*
X198248228Y-79261703D01*
X198248228Y-79261703D01*
G37*
G36*
X206248228Y-79261703D02*
G01*
X206403100Y-79325853D01*
X206542481Y-79418985D01*
X206661015Y-79537519D01*
X206754147Y-79676900D01*
X206818297Y-79831772D01*
X206851000Y-79996184D01*
X206851000Y-80163816D01*
X206818297Y-80328228D01*
X206754147Y-80483100D01*
X206661015Y-80622481D01*
X206542481Y-80741015D01*
X206403100Y-80834147D01*
X206248228Y-80898297D01*
X206083816Y-80931000D01*
X205916184Y-80931000D01*
X205751772Y-80898297D01*
X205596900Y-80834147D01*
X205457519Y-80741015D01*
X205338985Y-80622481D01*
X205245853Y-80483100D01*
X205181703Y-80328228D01*
X205149000Y-80163816D01*
X205149000Y-79996184D01*
X205181703Y-79831772D01*
X205245853Y-79676900D01*
X205338985Y-79537519D01*
X205457519Y-79418985D01*
X205596900Y-79325853D01*
X205751772Y-79261703D01*
X205916184Y-79229000D01*
X206083816Y-79229000D01*
X206248228Y-79261703D01*
X206248228Y-79261703D01*
G37*
G36*
X214248228Y-79261703D02*
G01*
X214403100Y-79325853D01*
X214542481Y-79418985D01*
X214661015Y-79537519D01*
X214754147Y-79676900D01*
X214818297Y-79831772D01*
X214851000Y-79996184D01*
X214851000Y-80163816D01*
X214818297Y-80328228D01*
X214754147Y-80483100D01*
X214661015Y-80622481D01*
X214542481Y-80741015D01*
X214403100Y-80834147D01*
X214248228Y-80898297D01*
X214083816Y-80931000D01*
X213916184Y-80931000D01*
X213751772Y-80898297D01*
X213596900Y-80834147D01*
X213457519Y-80741015D01*
X213338985Y-80622481D01*
X213245853Y-80483100D01*
X213181703Y-80328228D01*
X213149000Y-80163816D01*
X213149000Y-79996184D01*
X213181703Y-79831772D01*
X213245853Y-79676900D01*
X213338985Y-79537519D01*
X213457519Y-79418985D01*
X213596900Y-79325853D01*
X213751772Y-79261703D01*
X213916184Y-79229000D01*
X214083816Y-79229000D01*
X214248228Y-79261703D01*
X214248228Y-79261703D01*
G37*
G36*
X211328228Y-79261703D02*
G01*
X211483100Y-79325853D01*
X211622481Y-79418985D01*
X211741015Y-79537519D01*
X211834147Y-79676900D01*
X211898297Y-79831772D01*
X211931000Y-79996184D01*
X211931000Y-80163816D01*
X211898297Y-80328228D01*
X211834147Y-80483100D01*
X211741015Y-80622481D01*
X211622481Y-80741015D01*
X211483100Y-80834147D01*
X211328228Y-80898297D01*
X211163816Y-80931000D01*
X210996184Y-80931000D01*
X210831772Y-80898297D01*
X210676900Y-80834147D01*
X210537519Y-80741015D01*
X210418985Y-80622481D01*
X210325853Y-80483100D01*
X210261703Y-80328228D01*
X210229000Y-80163816D01*
X210229000Y-79996184D01*
X210261703Y-79831772D01*
X210325853Y-79676900D01*
X210418985Y-79537519D01*
X210537519Y-79418985D01*
X210676900Y-79325853D01*
X210831772Y-79261703D01*
X210996184Y-79229000D01*
X211163816Y-79229000D01*
X211328228Y-79261703D01*
X211328228Y-79261703D01*
G37*
G36*
X174248228Y-79261703D02*
G01*
X174403100Y-79325853D01*
X174542481Y-79418985D01*
X174661015Y-79537519D01*
X174754147Y-79676900D01*
X174818297Y-79831772D01*
X174851000Y-79996184D01*
X174851000Y-80163816D01*
X174818297Y-80328228D01*
X174754147Y-80483100D01*
X174661015Y-80622481D01*
X174542481Y-80741015D01*
X174403100Y-80834147D01*
X174248228Y-80898297D01*
X174083816Y-80931000D01*
X173916184Y-80931000D01*
X173751772Y-80898297D01*
X173596900Y-80834147D01*
X173457519Y-80741015D01*
X173338985Y-80622481D01*
X173245853Y-80483100D01*
X173181703Y-80328228D01*
X173149000Y-80163816D01*
X173149000Y-79996184D01*
X173181703Y-79831772D01*
X173245853Y-79676900D01*
X173338985Y-79537519D01*
X173457519Y-79418985D01*
X173596900Y-79325853D01*
X173751772Y-79261703D01*
X173916184Y-79229000D01*
X174083816Y-79229000D01*
X174248228Y-79261703D01*
X174248228Y-79261703D01*
G37*
G36*
X187328228Y-76721703D02*
G01*
X187483100Y-76785853D01*
X187622481Y-76878985D01*
X187741015Y-76997519D01*
X187834147Y-77136900D01*
X187898297Y-77291772D01*
X187931000Y-77456184D01*
X187931000Y-77623816D01*
X187898297Y-77788228D01*
X187834147Y-77943100D01*
X187741015Y-78082481D01*
X187622481Y-78201015D01*
X187483100Y-78294147D01*
X187328228Y-78358297D01*
X187163816Y-78391000D01*
X186996184Y-78391000D01*
X186831772Y-78358297D01*
X186676900Y-78294147D01*
X186537519Y-78201015D01*
X186418985Y-78082481D01*
X186325853Y-77943100D01*
X186261703Y-77788228D01*
X186229000Y-77623816D01*
X186229000Y-77456184D01*
X186261703Y-77291772D01*
X186325853Y-77136900D01*
X186418985Y-76997519D01*
X186537519Y-76878985D01*
X186676900Y-76785853D01*
X186831772Y-76721703D01*
X186996184Y-76689000D01*
X187163816Y-76689000D01*
X187328228Y-76721703D01*
X187328228Y-76721703D01*
G37*
G36*
X190248228Y-76721703D02*
G01*
X190403100Y-76785853D01*
X190542481Y-76878985D01*
X190661015Y-76997519D01*
X190754147Y-77136900D01*
X190818297Y-77291772D01*
X190851000Y-77456184D01*
X190851000Y-77623816D01*
X190818297Y-77788228D01*
X190754147Y-77943100D01*
X190661015Y-78082481D01*
X190542481Y-78201015D01*
X190403100Y-78294147D01*
X190248228Y-78358297D01*
X190083816Y-78391000D01*
X189916184Y-78391000D01*
X189751772Y-78358297D01*
X189596900Y-78294147D01*
X189457519Y-78201015D01*
X189338985Y-78082481D01*
X189245853Y-77943100D01*
X189181703Y-77788228D01*
X189149000Y-77623816D01*
X189149000Y-77456184D01*
X189181703Y-77291772D01*
X189245853Y-77136900D01*
X189338985Y-76997519D01*
X189457519Y-76878985D01*
X189596900Y-76785853D01*
X189751772Y-76721703D01*
X189916184Y-76689000D01*
X190083816Y-76689000D01*
X190248228Y-76721703D01*
X190248228Y-76721703D01*
G37*
G36*
X211328228Y-76721703D02*
G01*
X211483100Y-76785853D01*
X211622481Y-76878985D01*
X211741015Y-76997519D01*
X211834147Y-77136900D01*
X211898297Y-77291772D01*
X211931000Y-77456184D01*
X211931000Y-77623816D01*
X211898297Y-77788228D01*
X211834147Y-77943100D01*
X211741015Y-78082481D01*
X211622481Y-78201015D01*
X211483100Y-78294147D01*
X211328228Y-78358297D01*
X211163816Y-78391000D01*
X210996184Y-78391000D01*
X210831772Y-78358297D01*
X210676900Y-78294147D01*
X210537519Y-78201015D01*
X210418985Y-78082481D01*
X210325853Y-77943100D01*
X210261703Y-77788228D01*
X210229000Y-77623816D01*
X210229000Y-77456184D01*
X210261703Y-77291772D01*
X210325853Y-77136900D01*
X210418985Y-76997519D01*
X210537519Y-76878985D01*
X210676900Y-76785853D01*
X210831772Y-76721703D01*
X210996184Y-76689000D01*
X211163816Y-76689000D01*
X211328228Y-76721703D01*
X211328228Y-76721703D01*
G37*
G36*
X219328228Y-76721703D02*
G01*
X219483100Y-76785853D01*
X219622481Y-76878985D01*
X219741015Y-76997519D01*
X219834147Y-77136900D01*
X219898297Y-77291772D01*
X219931000Y-77456184D01*
X219931000Y-77623816D01*
X219898297Y-77788228D01*
X219834147Y-77943100D01*
X219741015Y-78082481D01*
X219622481Y-78201015D01*
X219483100Y-78294147D01*
X219328228Y-78358297D01*
X219163816Y-78391000D01*
X218996184Y-78391000D01*
X218831772Y-78358297D01*
X218676900Y-78294147D01*
X218537519Y-78201015D01*
X218418985Y-78082481D01*
X218325853Y-77943100D01*
X218261703Y-77788228D01*
X218229000Y-77623816D01*
X218229000Y-77456184D01*
X218261703Y-77291772D01*
X218325853Y-77136900D01*
X218418985Y-76997519D01*
X218537519Y-76878985D01*
X218676900Y-76785853D01*
X218831772Y-76721703D01*
X218996184Y-76689000D01*
X219163816Y-76689000D01*
X219328228Y-76721703D01*
X219328228Y-76721703D01*
G37*
G36*
X214248228Y-76721703D02*
G01*
X214403100Y-76785853D01*
X214542481Y-76878985D01*
X214661015Y-76997519D01*
X214754147Y-77136900D01*
X214818297Y-77291772D01*
X214851000Y-77456184D01*
X214851000Y-77623816D01*
X214818297Y-77788228D01*
X214754147Y-77943100D01*
X214661015Y-78082481D01*
X214542481Y-78201015D01*
X214403100Y-78294147D01*
X214248228Y-78358297D01*
X214083816Y-78391000D01*
X213916184Y-78391000D01*
X213751772Y-78358297D01*
X213596900Y-78294147D01*
X213457519Y-78201015D01*
X213338985Y-78082481D01*
X213245853Y-77943100D01*
X213181703Y-77788228D01*
X213149000Y-77623816D01*
X213149000Y-77456184D01*
X213181703Y-77291772D01*
X213245853Y-77136900D01*
X213338985Y-76997519D01*
X213457519Y-76878985D01*
X213596900Y-76785853D01*
X213751772Y-76721703D01*
X213916184Y-76689000D01*
X214083816Y-76689000D01*
X214248228Y-76721703D01*
X214248228Y-76721703D01*
G37*
G36*
X174248228Y-76721703D02*
G01*
X174403100Y-76785853D01*
X174542481Y-76878985D01*
X174661015Y-76997519D01*
X174754147Y-77136900D01*
X174818297Y-77291772D01*
X174851000Y-77456184D01*
X174851000Y-77623816D01*
X174818297Y-77788228D01*
X174754147Y-77943100D01*
X174661015Y-78082481D01*
X174542481Y-78201015D01*
X174403100Y-78294147D01*
X174248228Y-78358297D01*
X174083816Y-78391000D01*
X173916184Y-78391000D01*
X173751772Y-78358297D01*
X173596900Y-78294147D01*
X173457519Y-78201015D01*
X173338985Y-78082481D01*
X173245853Y-77943100D01*
X173181703Y-77788228D01*
X173149000Y-77623816D01*
X173149000Y-77456184D01*
X173181703Y-77291772D01*
X173245853Y-77136900D01*
X173338985Y-76997519D01*
X173457519Y-76878985D01*
X173596900Y-76785853D01*
X173751772Y-76721703D01*
X173916184Y-76689000D01*
X174083816Y-76689000D01*
X174248228Y-76721703D01*
X174248228Y-76721703D01*
G37*
G36*
X222248228Y-76721703D02*
G01*
X222403100Y-76785853D01*
X222542481Y-76878985D01*
X222661015Y-76997519D01*
X222754147Y-77136900D01*
X222818297Y-77291772D01*
X222851000Y-77456184D01*
X222851000Y-77623816D01*
X222818297Y-77788228D01*
X222754147Y-77943100D01*
X222661015Y-78082481D01*
X222542481Y-78201015D01*
X222403100Y-78294147D01*
X222248228Y-78358297D01*
X222083816Y-78391000D01*
X221916184Y-78391000D01*
X221751772Y-78358297D01*
X221596900Y-78294147D01*
X221457519Y-78201015D01*
X221338985Y-78082481D01*
X221245853Y-77943100D01*
X221181703Y-77788228D01*
X221149000Y-77623816D01*
X221149000Y-77456184D01*
X221181703Y-77291772D01*
X221245853Y-77136900D01*
X221338985Y-76997519D01*
X221457519Y-76878985D01*
X221596900Y-76785853D01*
X221751772Y-76721703D01*
X221916184Y-76689000D01*
X222083816Y-76689000D01*
X222248228Y-76721703D01*
X222248228Y-76721703D01*
G37*
G36*
X235328228Y-76721703D02*
G01*
X235483100Y-76785853D01*
X235622481Y-76878985D01*
X235741015Y-76997519D01*
X235834147Y-77136900D01*
X235898297Y-77291772D01*
X235931000Y-77456184D01*
X235931000Y-77623816D01*
X235898297Y-77788228D01*
X235834147Y-77943100D01*
X235741015Y-78082481D01*
X235622481Y-78201015D01*
X235483100Y-78294147D01*
X235328228Y-78358297D01*
X235163816Y-78391000D01*
X234996184Y-78391000D01*
X234831772Y-78358297D01*
X234676900Y-78294147D01*
X234537519Y-78201015D01*
X234418985Y-78082481D01*
X234325853Y-77943100D01*
X234261703Y-77788228D01*
X234229000Y-77623816D01*
X234229000Y-77456184D01*
X234261703Y-77291772D01*
X234325853Y-77136900D01*
X234418985Y-76997519D01*
X234537519Y-76878985D01*
X234676900Y-76785853D01*
X234831772Y-76721703D01*
X234996184Y-76689000D01*
X235163816Y-76689000D01*
X235328228Y-76721703D01*
X235328228Y-76721703D01*
G37*
G36*
X227328228Y-76721703D02*
G01*
X227483100Y-76785853D01*
X227622481Y-76878985D01*
X227741015Y-76997519D01*
X227834147Y-77136900D01*
X227898297Y-77291772D01*
X227931000Y-77456184D01*
X227931000Y-77623816D01*
X227898297Y-77788228D01*
X227834147Y-77943100D01*
X227741015Y-78082481D01*
X227622481Y-78201015D01*
X227483100Y-78294147D01*
X227328228Y-78358297D01*
X227163816Y-78391000D01*
X226996184Y-78391000D01*
X226831772Y-78358297D01*
X226676900Y-78294147D01*
X226537519Y-78201015D01*
X226418985Y-78082481D01*
X226325853Y-77943100D01*
X226261703Y-77788228D01*
X226229000Y-77623816D01*
X226229000Y-77456184D01*
X226261703Y-77291772D01*
X226325853Y-77136900D01*
X226418985Y-76997519D01*
X226537519Y-76878985D01*
X226676900Y-76785853D01*
X226831772Y-76721703D01*
X226996184Y-76689000D01*
X227163816Y-76689000D01*
X227328228Y-76721703D01*
X227328228Y-76721703D01*
G37*
G36*
X206248228Y-76721703D02*
G01*
X206403100Y-76785853D01*
X206542481Y-76878985D01*
X206661015Y-76997519D01*
X206754147Y-77136900D01*
X206818297Y-77291772D01*
X206851000Y-77456184D01*
X206851000Y-77623816D01*
X206818297Y-77788228D01*
X206754147Y-77943100D01*
X206661015Y-78082481D01*
X206542481Y-78201015D01*
X206403100Y-78294147D01*
X206248228Y-78358297D01*
X206083816Y-78391000D01*
X205916184Y-78391000D01*
X205751772Y-78358297D01*
X205596900Y-78294147D01*
X205457519Y-78201015D01*
X205338985Y-78082481D01*
X205245853Y-77943100D01*
X205181703Y-77788228D01*
X205149000Y-77623816D01*
X205149000Y-77456184D01*
X205181703Y-77291772D01*
X205245853Y-77136900D01*
X205338985Y-76997519D01*
X205457519Y-76878985D01*
X205596900Y-76785853D01*
X205751772Y-76721703D01*
X205916184Y-76689000D01*
X206083816Y-76689000D01*
X206248228Y-76721703D01*
X206248228Y-76721703D01*
G37*
G36*
X195328228Y-76721703D02*
G01*
X195483100Y-76785853D01*
X195622481Y-76878985D01*
X195741015Y-76997519D01*
X195834147Y-77136900D01*
X195898297Y-77291772D01*
X195931000Y-77456184D01*
X195931000Y-77623816D01*
X195898297Y-77788228D01*
X195834147Y-77943100D01*
X195741015Y-78082481D01*
X195622481Y-78201015D01*
X195483100Y-78294147D01*
X195328228Y-78358297D01*
X195163816Y-78391000D01*
X194996184Y-78391000D01*
X194831772Y-78358297D01*
X194676900Y-78294147D01*
X194537519Y-78201015D01*
X194418985Y-78082481D01*
X194325853Y-77943100D01*
X194261703Y-77788228D01*
X194229000Y-77623816D01*
X194229000Y-77456184D01*
X194261703Y-77291772D01*
X194325853Y-77136900D01*
X194418985Y-76997519D01*
X194537519Y-76878985D01*
X194676900Y-76785853D01*
X194831772Y-76721703D01*
X194996184Y-76689000D01*
X195163816Y-76689000D01*
X195328228Y-76721703D01*
X195328228Y-76721703D01*
G37*
G36*
X198248228Y-76721703D02*
G01*
X198403100Y-76785853D01*
X198542481Y-76878985D01*
X198661015Y-76997519D01*
X198754147Y-77136900D01*
X198818297Y-77291772D01*
X198851000Y-77456184D01*
X198851000Y-77623816D01*
X198818297Y-77788228D01*
X198754147Y-77943100D01*
X198661015Y-78082481D01*
X198542481Y-78201015D01*
X198403100Y-78294147D01*
X198248228Y-78358297D01*
X198083816Y-78391000D01*
X197916184Y-78391000D01*
X197751772Y-78358297D01*
X197596900Y-78294147D01*
X197457519Y-78201015D01*
X197338985Y-78082481D01*
X197245853Y-77943100D01*
X197181703Y-77788228D01*
X197149000Y-77623816D01*
X197149000Y-77456184D01*
X197181703Y-77291772D01*
X197245853Y-77136900D01*
X197338985Y-76997519D01*
X197457519Y-76878985D01*
X197596900Y-76785853D01*
X197751772Y-76721703D01*
X197916184Y-76689000D01*
X198083816Y-76689000D01*
X198248228Y-76721703D01*
X198248228Y-76721703D01*
G37*
G36*
X182248228Y-76721703D02*
G01*
X182403100Y-76785853D01*
X182542481Y-76878985D01*
X182661015Y-76997519D01*
X182754147Y-77136900D01*
X182818297Y-77291772D01*
X182851000Y-77456184D01*
X182851000Y-77623816D01*
X182818297Y-77788228D01*
X182754147Y-77943100D01*
X182661015Y-78082481D01*
X182542481Y-78201015D01*
X182403100Y-78294147D01*
X182248228Y-78358297D01*
X182083816Y-78391000D01*
X181916184Y-78391000D01*
X181751772Y-78358297D01*
X181596900Y-78294147D01*
X181457519Y-78201015D01*
X181338985Y-78082481D01*
X181245853Y-77943100D01*
X181181703Y-77788228D01*
X181149000Y-77623816D01*
X181149000Y-77456184D01*
X181181703Y-77291772D01*
X181245853Y-77136900D01*
X181338985Y-76997519D01*
X181457519Y-76878985D01*
X181596900Y-76785853D01*
X181751772Y-76721703D01*
X181916184Y-76689000D01*
X182083816Y-76689000D01*
X182248228Y-76721703D01*
X182248228Y-76721703D01*
G37*
G36*
X230248228Y-76721703D02*
G01*
X230403100Y-76785853D01*
X230542481Y-76878985D01*
X230661015Y-76997519D01*
X230754147Y-77136900D01*
X230818297Y-77291772D01*
X230851000Y-77456184D01*
X230851000Y-77623816D01*
X230818297Y-77788228D01*
X230754147Y-77943100D01*
X230661015Y-78082481D01*
X230542481Y-78201015D01*
X230403100Y-78294147D01*
X230248228Y-78358297D01*
X230083816Y-78391000D01*
X229916184Y-78391000D01*
X229751772Y-78358297D01*
X229596900Y-78294147D01*
X229457519Y-78201015D01*
X229338985Y-78082481D01*
X229245853Y-77943100D01*
X229181703Y-77788228D01*
X229149000Y-77623816D01*
X229149000Y-77456184D01*
X229181703Y-77291772D01*
X229245853Y-77136900D01*
X229338985Y-76997519D01*
X229457519Y-76878985D01*
X229596900Y-76785853D01*
X229751772Y-76721703D01*
X229916184Y-76689000D01*
X230083816Y-76689000D01*
X230248228Y-76721703D01*
X230248228Y-76721703D01*
G37*
G36*
X179328228Y-76721703D02*
G01*
X179483100Y-76785853D01*
X179622481Y-76878985D01*
X179741015Y-76997519D01*
X179834147Y-77136900D01*
X179898297Y-77291772D01*
X179931000Y-77456184D01*
X179931000Y-77623816D01*
X179898297Y-77788228D01*
X179834147Y-77943100D01*
X179741015Y-78082481D01*
X179622481Y-78201015D01*
X179483100Y-78294147D01*
X179328228Y-78358297D01*
X179163816Y-78391000D01*
X178996184Y-78391000D01*
X178831772Y-78358297D01*
X178676900Y-78294147D01*
X178537519Y-78201015D01*
X178418985Y-78082481D01*
X178325853Y-77943100D01*
X178261703Y-77788228D01*
X178229000Y-77623816D01*
X178229000Y-77456184D01*
X178261703Y-77291772D01*
X178325853Y-77136900D01*
X178418985Y-76997519D01*
X178537519Y-76878985D01*
X178676900Y-76785853D01*
X178831772Y-76721703D01*
X178996184Y-76689000D01*
X179163816Y-76689000D01*
X179328228Y-76721703D01*
X179328228Y-76721703D01*
G37*
G36*
X203328228Y-76721703D02*
G01*
X203483100Y-76785853D01*
X203622481Y-76878985D01*
X203741015Y-76997519D01*
X203834147Y-77136900D01*
X203898297Y-77291772D01*
X203931000Y-77456184D01*
X203931000Y-77623816D01*
X203898297Y-77788228D01*
X203834147Y-77943100D01*
X203741015Y-78082481D01*
X203622481Y-78201015D01*
X203483100Y-78294147D01*
X203328228Y-78358297D01*
X203163816Y-78391000D01*
X202996184Y-78391000D01*
X202831772Y-78358297D01*
X202676900Y-78294147D01*
X202537519Y-78201015D01*
X202418985Y-78082481D01*
X202325853Y-77943100D01*
X202261703Y-77788228D01*
X202229000Y-77623816D01*
X202229000Y-77456184D01*
X202261703Y-77291772D01*
X202325853Y-77136900D01*
X202418985Y-76997519D01*
X202537519Y-76878985D01*
X202676900Y-76785853D01*
X202831772Y-76721703D01*
X202996184Y-76689000D01*
X203163816Y-76689000D01*
X203328228Y-76721703D01*
X203328228Y-76721703D01*
G37*
G36*
X182851000Y-75851000D02*
G01*
X181149000Y-75851000D01*
X181149000Y-74149000D01*
X182851000Y-74149000D01*
X182851000Y-75851000D01*
X182851000Y-75851000D01*
G37*
G36*
X195328228Y-74181703D02*
G01*
X195483100Y-74245853D01*
X195622481Y-74338985D01*
X195741015Y-74457519D01*
X195834147Y-74596900D01*
X195898297Y-74751772D01*
X195931000Y-74916184D01*
X195931000Y-75083816D01*
X195898297Y-75248228D01*
X195834147Y-75403100D01*
X195741015Y-75542481D01*
X195622481Y-75661015D01*
X195483100Y-75754147D01*
X195328228Y-75818297D01*
X195163816Y-75851000D01*
X194996184Y-75851000D01*
X194831772Y-75818297D01*
X194676900Y-75754147D01*
X194537519Y-75661015D01*
X194418985Y-75542481D01*
X194325853Y-75403100D01*
X194261703Y-75248228D01*
X194229000Y-75083816D01*
X194229000Y-74916184D01*
X194261703Y-74751772D01*
X194325853Y-74596900D01*
X194418985Y-74457519D01*
X194537519Y-74338985D01*
X194676900Y-74245853D01*
X194831772Y-74181703D01*
X194996184Y-74149000D01*
X195163816Y-74149000D01*
X195328228Y-74181703D01*
X195328228Y-74181703D01*
G37*
G36*
X190851000Y-75851000D02*
G01*
X189149000Y-75851000D01*
X189149000Y-74149000D01*
X190851000Y-74149000D01*
X190851000Y-75851000D01*
X190851000Y-75851000D01*
G37*
G36*
X179328228Y-74181703D02*
G01*
X179483100Y-74245853D01*
X179622481Y-74338985D01*
X179741015Y-74457519D01*
X179834147Y-74596900D01*
X179898297Y-74751772D01*
X179931000Y-74916184D01*
X179931000Y-75083816D01*
X179898297Y-75248228D01*
X179834147Y-75403100D01*
X179741015Y-75542481D01*
X179622481Y-75661015D01*
X179483100Y-75754147D01*
X179328228Y-75818297D01*
X179163816Y-75851000D01*
X178996184Y-75851000D01*
X178831772Y-75818297D01*
X178676900Y-75754147D01*
X178537519Y-75661015D01*
X178418985Y-75542481D01*
X178325853Y-75403100D01*
X178261703Y-75248228D01*
X178229000Y-75083816D01*
X178229000Y-74916184D01*
X178261703Y-74751772D01*
X178325853Y-74596900D01*
X178418985Y-74457519D01*
X178537519Y-74338985D01*
X178676900Y-74245853D01*
X178831772Y-74181703D01*
X178996184Y-74149000D01*
X179163816Y-74149000D01*
X179328228Y-74181703D01*
X179328228Y-74181703D01*
G37*
G36*
X203328228Y-74181703D02*
G01*
X203483100Y-74245853D01*
X203622481Y-74338985D01*
X203741015Y-74457519D01*
X203834147Y-74596900D01*
X203898297Y-74751772D01*
X203931000Y-74916184D01*
X203931000Y-75083816D01*
X203898297Y-75248228D01*
X203834147Y-75403100D01*
X203741015Y-75542481D01*
X203622481Y-75661015D01*
X203483100Y-75754147D01*
X203328228Y-75818297D01*
X203163816Y-75851000D01*
X202996184Y-75851000D01*
X202831772Y-75818297D01*
X202676900Y-75754147D01*
X202537519Y-75661015D01*
X202418985Y-75542481D01*
X202325853Y-75403100D01*
X202261703Y-75248228D01*
X202229000Y-75083816D01*
X202229000Y-74916184D01*
X202261703Y-74751772D01*
X202325853Y-74596900D01*
X202418985Y-74457519D01*
X202537519Y-74338985D01*
X202676900Y-74245853D01*
X202831772Y-74181703D01*
X202996184Y-74149000D01*
X203163816Y-74149000D01*
X203328228Y-74181703D01*
X203328228Y-74181703D01*
G37*
G36*
X187328228Y-74181703D02*
G01*
X187483100Y-74245853D01*
X187622481Y-74338985D01*
X187741015Y-74457519D01*
X187834147Y-74596900D01*
X187898297Y-74751772D01*
X187931000Y-74916184D01*
X187931000Y-75083816D01*
X187898297Y-75248228D01*
X187834147Y-75403100D01*
X187741015Y-75542481D01*
X187622481Y-75661015D01*
X187483100Y-75754147D01*
X187328228Y-75818297D01*
X187163816Y-75851000D01*
X186996184Y-75851000D01*
X186831772Y-75818297D01*
X186676900Y-75754147D01*
X186537519Y-75661015D01*
X186418985Y-75542481D01*
X186325853Y-75403100D01*
X186261703Y-75248228D01*
X186229000Y-75083816D01*
X186229000Y-74916184D01*
X186261703Y-74751772D01*
X186325853Y-74596900D01*
X186418985Y-74457519D01*
X186537519Y-74338985D01*
X186676900Y-74245853D01*
X186831772Y-74181703D01*
X186996184Y-74149000D01*
X187163816Y-74149000D01*
X187328228Y-74181703D01*
X187328228Y-74181703D01*
G37*
G36*
X198851000Y-75851000D02*
G01*
X197149000Y-75851000D01*
X197149000Y-74149000D01*
X198851000Y-74149000D01*
X198851000Y-75851000D01*
X198851000Y-75851000D01*
G37*
G36*
X206851000Y-75851000D02*
G01*
X205149000Y-75851000D01*
X205149000Y-74149000D01*
X206851000Y-74149000D01*
X206851000Y-75851000D01*
X206851000Y-75851000D01*
G37*
G36*
X211328228Y-74181703D02*
G01*
X211483100Y-74245853D01*
X211622481Y-74338985D01*
X211741015Y-74457519D01*
X211834147Y-74596900D01*
X211898297Y-74751772D01*
X211931000Y-74916184D01*
X211931000Y-75083816D01*
X211898297Y-75248228D01*
X211834147Y-75403100D01*
X211741015Y-75542481D01*
X211622481Y-75661015D01*
X211483100Y-75754147D01*
X211328228Y-75818297D01*
X211163816Y-75851000D01*
X210996184Y-75851000D01*
X210831772Y-75818297D01*
X210676900Y-75754147D01*
X210537519Y-75661015D01*
X210418985Y-75542481D01*
X210325853Y-75403100D01*
X210261703Y-75248228D01*
X210229000Y-75083816D01*
X210229000Y-74916184D01*
X210261703Y-74751772D01*
X210325853Y-74596900D01*
X210418985Y-74457519D01*
X210537519Y-74338985D01*
X210676900Y-74245853D01*
X210831772Y-74181703D01*
X210996184Y-74149000D01*
X211163816Y-74149000D01*
X211328228Y-74181703D01*
X211328228Y-74181703D01*
G37*
G36*
X219328228Y-74181703D02*
G01*
X219483100Y-74245853D01*
X219622481Y-74338985D01*
X219741015Y-74457519D01*
X219834147Y-74596900D01*
X219898297Y-74751772D01*
X219931000Y-74916184D01*
X219931000Y-75083816D01*
X219898297Y-75248228D01*
X219834147Y-75403100D01*
X219741015Y-75542481D01*
X219622481Y-75661015D01*
X219483100Y-75754147D01*
X219328228Y-75818297D01*
X219163816Y-75851000D01*
X218996184Y-75851000D01*
X218831772Y-75818297D01*
X218676900Y-75754147D01*
X218537519Y-75661015D01*
X218418985Y-75542481D01*
X218325853Y-75403100D01*
X218261703Y-75248228D01*
X218229000Y-75083816D01*
X218229000Y-74916184D01*
X218261703Y-74751772D01*
X218325853Y-74596900D01*
X218418985Y-74457519D01*
X218537519Y-74338985D01*
X218676900Y-74245853D01*
X218831772Y-74181703D01*
X218996184Y-74149000D01*
X219163816Y-74149000D01*
X219328228Y-74181703D01*
X219328228Y-74181703D01*
G37*
G36*
X214851000Y-75851000D02*
G01*
X213149000Y-75851000D01*
X213149000Y-74149000D01*
X214851000Y-74149000D01*
X214851000Y-75851000D01*
X214851000Y-75851000D01*
G37*
G36*
X222851000Y-75851000D02*
G01*
X221149000Y-75851000D01*
X221149000Y-74149000D01*
X222851000Y-74149000D01*
X222851000Y-75851000D01*
X222851000Y-75851000D01*
G37*
G36*
X174851000Y-75851000D02*
G01*
X173149000Y-75851000D01*
X173149000Y-74149000D01*
X174851000Y-74149000D01*
X174851000Y-75851000D01*
X174851000Y-75851000D01*
G37*
G36*
X227328228Y-74181703D02*
G01*
X227483100Y-74245853D01*
X227622481Y-74338985D01*
X227741015Y-74457519D01*
X227834147Y-74596900D01*
X227898297Y-74751772D01*
X227931000Y-74916184D01*
X227931000Y-75083816D01*
X227898297Y-75248228D01*
X227834147Y-75403100D01*
X227741015Y-75542481D01*
X227622481Y-75661015D01*
X227483100Y-75754147D01*
X227328228Y-75818297D01*
X227163816Y-75851000D01*
X226996184Y-75851000D01*
X226831772Y-75818297D01*
X226676900Y-75754147D01*
X226537519Y-75661015D01*
X226418985Y-75542481D01*
X226325853Y-75403100D01*
X226261703Y-75248228D01*
X226229000Y-75083816D01*
X226229000Y-74916184D01*
X226261703Y-74751772D01*
X226325853Y-74596900D01*
X226418985Y-74457519D01*
X226537519Y-74338985D01*
X226676900Y-74245853D01*
X226831772Y-74181703D01*
X226996184Y-74149000D01*
X227163816Y-74149000D01*
X227328228Y-74181703D01*
X227328228Y-74181703D01*
G37*
G36*
X235328228Y-74181703D02*
G01*
X235483100Y-74245853D01*
X235622481Y-74338985D01*
X235741015Y-74457519D01*
X235834147Y-74596900D01*
X235898297Y-74751772D01*
X235931000Y-74916184D01*
X235931000Y-75083816D01*
X235898297Y-75248228D01*
X235834147Y-75403100D01*
X235741015Y-75542481D01*
X235622481Y-75661015D01*
X235483100Y-75754147D01*
X235328228Y-75818297D01*
X235163816Y-75851000D01*
X234996184Y-75851000D01*
X234831772Y-75818297D01*
X234676900Y-75754147D01*
X234537519Y-75661015D01*
X234418985Y-75542481D01*
X234325853Y-75403100D01*
X234261703Y-75248228D01*
X234229000Y-75083816D01*
X234229000Y-74916184D01*
X234261703Y-74751772D01*
X234325853Y-74596900D01*
X234418985Y-74457519D01*
X234537519Y-74338985D01*
X234676900Y-74245853D01*
X234831772Y-74181703D01*
X234996184Y-74149000D01*
X235163816Y-74149000D01*
X235328228Y-74181703D01*
X235328228Y-74181703D01*
G37*
G36*
X230851000Y-75851000D02*
G01*
X229149000Y-75851000D01*
X229149000Y-74149000D01*
X230851000Y-74149000D01*
X230851000Y-75851000D01*
X230851000Y-75851000D01*
G37*
G36*
X235328228Y-71341703D02*
G01*
X235483100Y-71405853D01*
X235622481Y-71498985D01*
X235741015Y-71617519D01*
X235834147Y-71756900D01*
X235898297Y-71911772D01*
X235931000Y-72076184D01*
X235931000Y-72243816D01*
X235898297Y-72408228D01*
X235834147Y-72563100D01*
X235741015Y-72702481D01*
X235622481Y-72821015D01*
X235483100Y-72914147D01*
X235328228Y-72978297D01*
X235163816Y-73011000D01*
X234996184Y-73011000D01*
X234831772Y-72978297D01*
X234676900Y-72914147D01*
X234537519Y-72821015D01*
X234418985Y-72702481D01*
X234325853Y-72563100D01*
X234261703Y-72408228D01*
X234229000Y-72243816D01*
X234229000Y-72076184D01*
X234261703Y-71911772D01*
X234325853Y-71756900D01*
X234418985Y-71617519D01*
X234537519Y-71498985D01*
X234676900Y-71405853D01*
X234831772Y-71341703D01*
X234996184Y-71309000D01*
X235163816Y-71309000D01*
X235328228Y-71341703D01*
X235328228Y-71341703D01*
G37*
G36*
X230248228Y-71341703D02*
G01*
X230403100Y-71405853D01*
X230542481Y-71498985D01*
X230661015Y-71617519D01*
X230754147Y-71756900D01*
X230818297Y-71911772D01*
X230851000Y-72076184D01*
X230851000Y-72243816D01*
X230818297Y-72408228D01*
X230754147Y-72563100D01*
X230661015Y-72702481D01*
X230542481Y-72821015D01*
X230403100Y-72914147D01*
X230248228Y-72978297D01*
X230083816Y-73011000D01*
X229916184Y-73011000D01*
X229751772Y-72978297D01*
X229596900Y-72914147D01*
X229457519Y-72821015D01*
X229338985Y-72702481D01*
X229245853Y-72563100D01*
X229181703Y-72408228D01*
X229149000Y-72243816D01*
X229149000Y-72076184D01*
X229181703Y-71911772D01*
X229245853Y-71756900D01*
X229338985Y-71617519D01*
X229457519Y-71498985D01*
X229596900Y-71405853D01*
X229751772Y-71341703D01*
X229916184Y-71309000D01*
X230083816Y-71309000D01*
X230248228Y-71341703D01*
X230248228Y-71341703D01*
G37*
G36*
X227328228Y-71341703D02*
G01*
X227483100Y-71405853D01*
X227622481Y-71498985D01*
X227741015Y-71617519D01*
X227834147Y-71756900D01*
X227898297Y-71911772D01*
X227931000Y-72076184D01*
X227931000Y-72243816D01*
X227898297Y-72408228D01*
X227834147Y-72563100D01*
X227741015Y-72702481D01*
X227622481Y-72821015D01*
X227483100Y-72914147D01*
X227328228Y-72978297D01*
X227163816Y-73011000D01*
X226996184Y-73011000D01*
X226831772Y-72978297D01*
X226676900Y-72914147D01*
X226537519Y-72821015D01*
X226418985Y-72702481D01*
X226325853Y-72563100D01*
X226261703Y-72408228D01*
X226229000Y-72243816D01*
X226229000Y-72076184D01*
X226261703Y-71911772D01*
X226325853Y-71756900D01*
X226418985Y-71617519D01*
X226537519Y-71498985D01*
X226676900Y-71405853D01*
X226831772Y-71341703D01*
X226996184Y-71309000D01*
X227163816Y-71309000D01*
X227328228Y-71341703D01*
X227328228Y-71341703D01*
G37*
G36*
X222248228Y-71341703D02*
G01*
X222403100Y-71405853D01*
X222542481Y-71498985D01*
X222661015Y-71617519D01*
X222754147Y-71756900D01*
X222818297Y-71911772D01*
X222851000Y-72076184D01*
X222851000Y-72243816D01*
X222818297Y-72408228D01*
X222754147Y-72563100D01*
X222661015Y-72702481D01*
X222542481Y-72821015D01*
X222403100Y-72914147D01*
X222248228Y-72978297D01*
X222083816Y-73011000D01*
X221916184Y-73011000D01*
X221751772Y-72978297D01*
X221596900Y-72914147D01*
X221457519Y-72821015D01*
X221338985Y-72702481D01*
X221245853Y-72563100D01*
X221181703Y-72408228D01*
X221149000Y-72243816D01*
X221149000Y-72076184D01*
X221181703Y-71911772D01*
X221245853Y-71756900D01*
X221338985Y-71617519D01*
X221457519Y-71498985D01*
X221596900Y-71405853D01*
X221751772Y-71341703D01*
X221916184Y-71309000D01*
X222083816Y-71309000D01*
X222248228Y-71341703D01*
X222248228Y-71341703D01*
G37*
G36*
X219328228Y-71341703D02*
G01*
X219483100Y-71405853D01*
X219622481Y-71498985D01*
X219741015Y-71617519D01*
X219834147Y-71756900D01*
X219898297Y-71911772D01*
X219931000Y-72076184D01*
X219931000Y-72243816D01*
X219898297Y-72408228D01*
X219834147Y-72563100D01*
X219741015Y-72702481D01*
X219622481Y-72821015D01*
X219483100Y-72914147D01*
X219328228Y-72978297D01*
X219163816Y-73011000D01*
X218996184Y-73011000D01*
X218831772Y-72978297D01*
X218676900Y-72914147D01*
X218537519Y-72821015D01*
X218418985Y-72702481D01*
X218325853Y-72563100D01*
X218261703Y-72408228D01*
X218229000Y-72243816D01*
X218229000Y-72076184D01*
X218261703Y-71911772D01*
X218325853Y-71756900D01*
X218418985Y-71617519D01*
X218537519Y-71498985D01*
X218676900Y-71405853D01*
X218831772Y-71341703D01*
X218996184Y-71309000D01*
X219163816Y-71309000D01*
X219328228Y-71341703D01*
X219328228Y-71341703D01*
G37*
G36*
X214248228Y-71341703D02*
G01*
X214403100Y-71405853D01*
X214542481Y-71498985D01*
X214661015Y-71617519D01*
X214754147Y-71756900D01*
X214818297Y-71911772D01*
X214851000Y-72076184D01*
X214851000Y-72243816D01*
X214818297Y-72408228D01*
X214754147Y-72563100D01*
X214661015Y-72702481D01*
X214542481Y-72821015D01*
X214403100Y-72914147D01*
X214248228Y-72978297D01*
X214083816Y-73011000D01*
X213916184Y-73011000D01*
X213751772Y-72978297D01*
X213596900Y-72914147D01*
X213457519Y-72821015D01*
X213338985Y-72702481D01*
X213245853Y-72563100D01*
X213181703Y-72408228D01*
X213149000Y-72243816D01*
X213149000Y-72076184D01*
X213181703Y-71911772D01*
X213245853Y-71756900D01*
X213338985Y-71617519D01*
X213457519Y-71498985D01*
X213596900Y-71405853D01*
X213751772Y-71341703D01*
X213916184Y-71309000D01*
X214083816Y-71309000D01*
X214248228Y-71341703D01*
X214248228Y-71341703D01*
G37*
G36*
X211328228Y-71341703D02*
G01*
X211483100Y-71405853D01*
X211622481Y-71498985D01*
X211741015Y-71617519D01*
X211834147Y-71756900D01*
X211898297Y-71911772D01*
X211931000Y-72076184D01*
X211931000Y-72243816D01*
X211898297Y-72408228D01*
X211834147Y-72563100D01*
X211741015Y-72702481D01*
X211622481Y-72821015D01*
X211483100Y-72914147D01*
X211328228Y-72978297D01*
X211163816Y-73011000D01*
X210996184Y-73011000D01*
X210831772Y-72978297D01*
X210676900Y-72914147D01*
X210537519Y-72821015D01*
X210418985Y-72702481D01*
X210325853Y-72563100D01*
X210261703Y-72408228D01*
X210229000Y-72243816D01*
X210229000Y-72076184D01*
X210261703Y-71911772D01*
X210325853Y-71756900D01*
X210418985Y-71617519D01*
X210537519Y-71498985D01*
X210676900Y-71405853D01*
X210831772Y-71341703D01*
X210996184Y-71309000D01*
X211163816Y-71309000D01*
X211328228Y-71341703D01*
X211328228Y-71341703D01*
G37*
G36*
X206248228Y-71341703D02*
G01*
X206403100Y-71405853D01*
X206542481Y-71498985D01*
X206661015Y-71617519D01*
X206754147Y-71756900D01*
X206818297Y-71911772D01*
X206851000Y-72076184D01*
X206851000Y-72243816D01*
X206818297Y-72408228D01*
X206754147Y-72563100D01*
X206661015Y-72702481D01*
X206542481Y-72821015D01*
X206403100Y-72914147D01*
X206248228Y-72978297D01*
X206083816Y-73011000D01*
X205916184Y-73011000D01*
X205751772Y-72978297D01*
X205596900Y-72914147D01*
X205457519Y-72821015D01*
X205338985Y-72702481D01*
X205245853Y-72563100D01*
X205181703Y-72408228D01*
X205149000Y-72243816D01*
X205149000Y-72076184D01*
X205181703Y-71911772D01*
X205245853Y-71756900D01*
X205338985Y-71617519D01*
X205457519Y-71498985D01*
X205596900Y-71405853D01*
X205751772Y-71341703D01*
X205916184Y-71309000D01*
X206083816Y-71309000D01*
X206248228Y-71341703D01*
X206248228Y-71341703D01*
G37*
G36*
X174248228Y-71341703D02*
G01*
X174403100Y-71405853D01*
X174542481Y-71498985D01*
X174661015Y-71617519D01*
X174754147Y-71756900D01*
X174818297Y-71911772D01*
X174851000Y-72076184D01*
X174851000Y-72243816D01*
X174818297Y-72408228D01*
X174754147Y-72563100D01*
X174661015Y-72702481D01*
X174542481Y-72821015D01*
X174403100Y-72914147D01*
X174248228Y-72978297D01*
X174083816Y-73011000D01*
X173916184Y-73011000D01*
X173751772Y-72978297D01*
X173596900Y-72914147D01*
X173457519Y-72821015D01*
X173338985Y-72702481D01*
X173245853Y-72563100D01*
X173181703Y-72408228D01*
X173149000Y-72243816D01*
X173149000Y-72076184D01*
X173181703Y-71911772D01*
X173245853Y-71756900D01*
X173338985Y-71617519D01*
X173457519Y-71498985D01*
X173596900Y-71405853D01*
X173751772Y-71341703D01*
X173916184Y-71309000D01*
X174083816Y-71309000D01*
X174248228Y-71341703D01*
X174248228Y-71341703D01*
G37*
G36*
X179328228Y-71341703D02*
G01*
X179483100Y-71405853D01*
X179622481Y-71498985D01*
X179741015Y-71617519D01*
X179834147Y-71756900D01*
X179898297Y-71911772D01*
X179931000Y-72076184D01*
X179931000Y-72243816D01*
X179898297Y-72408228D01*
X179834147Y-72563100D01*
X179741015Y-72702481D01*
X179622481Y-72821015D01*
X179483100Y-72914147D01*
X179328228Y-72978297D01*
X179163816Y-73011000D01*
X178996184Y-73011000D01*
X178831772Y-72978297D01*
X178676900Y-72914147D01*
X178537519Y-72821015D01*
X178418985Y-72702481D01*
X178325853Y-72563100D01*
X178261703Y-72408228D01*
X178229000Y-72243816D01*
X178229000Y-72076184D01*
X178261703Y-71911772D01*
X178325853Y-71756900D01*
X178418985Y-71617519D01*
X178537519Y-71498985D01*
X178676900Y-71405853D01*
X178831772Y-71341703D01*
X178996184Y-71309000D01*
X179163816Y-71309000D01*
X179328228Y-71341703D01*
X179328228Y-71341703D01*
G37*
G36*
X182248228Y-71341703D02*
G01*
X182403100Y-71405853D01*
X182542481Y-71498985D01*
X182661015Y-71617519D01*
X182754147Y-71756900D01*
X182818297Y-71911772D01*
X182851000Y-72076184D01*
X182851000Y-72243816D01*
X182818297Y-72408228D01*
X182754147Y-72563100D01*
X182661015Y-72702481D01*
X182542481Y-72821015D01*
X182403100Y-72914147D01*
X182248228Y-72978297D01*
X182083816Y-73011000D01*
X181916184Y-73011000D01*
X181751772Y-72978297D01*
X181596900Y-72914147D01*
X181457519Y-72821015D01*
X181338985Y-72702481D01*
X181245853Y-72563100D01*
X181181703Y-72408228D01*
X181149000Y-72243816D01*
X181149000Y-72076184D01*
X181181703Y-71911772D01*
X181245853Y-71756900D01*
X181338985Y-71617519D01*
X181457519Y-71498985D01*
X181596900Y-71405853D01*
X181751772Y-71341703D01*
X181916184Y-71309000D01*
X182083816Y-71309000D01*
X182248228Y-71341703D01*
X182248228Y-71341703D01*
G37*
G36*
X187328228Y-71341703D02*
G01*
X187483100Y-71405853D01*
X187622481Y-71498985D01*
X187741015Y-71617519D01*
X187834147Y-71756900D01*
X187898297Y-71911772D01*
X187931000Y-72076184D01*
X187931000Y-72243816D01*
X187898297Y-72408228D01*
X187834147Y-72563100D01*
X187741015Y-72702481D01*
X187622481Y-72821015D01*
X187483100Y-72914147D01*
X187328228Y-72978297D01*
X187163816Y-73011000D01*
X186996184Y-73011000D01*
X186831772Y-72978297D01*
X186676900Y-72914147D01*
X186537519Y-72821015D01*
X186418985Y-72702481D01*
X186325853Y-72563100D01*
X186261703Y-72408228D01*
X186229000Y-72243816D01*
X186229000Y-72076184D01*
X186261703Y-71911772D01*
X186325853Y-71756900D01*
X186418985Y-71617519D01*
X186537519Y-71498985D01*
X186676900Y-71405853D01*
X186831772Y-71341703D01*
X186996184Y-71309000D01*
X187163816Y-71309000D01*
X187328228Y-71341703D01*
X187328228Y-71341703D01*
G37*
G36*
X190248228Y-71341703D02*
G01*
X190403100Y-71405853D01*
X190542481Y-71498985D01*
X190661015Y-71617519D01*
X190754147Y-71756900D01*
X190818297Y-71911772D01*
X190851000Y-72076184D01*
X190851000Y-72243816D01*
X190818297Y-72408228D01*
X190754147Y-72563100D01*
X190661015Y-72702481D01*
X190542481Y-72821015D01*
X190403100Y-72914147D01*
X190248228Y-72978297D01*
X190083816Y-73011000D01*
X189916184Y-73011000D01*
X189751772Y-72978297D01*
X189596900Y-72914147D01*
X189457519Y-72821015D01*
X189338985Y-72702481D01*
X189245853Y-72563100D01*
X189181703Y-72408228D01*
X189149000Y-72243816D01*
X189149000Y-72076184D01*
X189181703Y-71911772D01*
X189245853Y-71756900D01*
X189338985Y-71617519D01*
X189457519Y-71498985D01*
X189596900Y-71405853D01*
X189751772Y-71341703D01*
X189916184Y-71309000D01*
X190083816Y-71309000D01*
X190248228Y-71341703D01*
X190248228Y-71341703D01*
G37*
G36*
X195328228Y-71341703D02*
G01*
X195483100Y-71405853D01*
X195622481Y-71498985D01*
X195741015Y-71617519D01*
X195834147Y-71756900D01*
X195898297Y-71911772D01*
X195931000Y-72076184D01*
X195931000Y-72243816D01*
X195898297Y-72408228D01*
X195834147Y-72563100D01*
X195741015Y-72702481D01*
X195622481Y-72821015D01*
X195483100Y-72914147D01*
X195328228Y-72978297D01*
X195163816Y-73011000D01*
X194996184Y-73011000D01*
X194831772Y-72978297D01*
X194676900Y-72914147D01*
X194537519Y-72821015D01*
X194418985Y-72702481D01*
X194325853Y-72563100D01*
X194261703Y-72408228D01*
X194229000Y-72243816D01*
X194229000Y-72076184D01*
X194261703Y-71911772D01*
X194325853Y-71756900D01*
X194418985Y-71617519D01*
X194537519Y-71498985D01*
X194676900Y-71405853D01*
X194831772Y-71341703D01*
X194996184Y-71309000D01*
X195163816Y-71309000D01*
X195328228Y-71341703D01*
X195328228Y-71341703D01*
G37*
G36*
X198248228Y-71341703D02*
G01*
X198403100Y-71405853D01*
X198542481Y-71498985D01*
X198661015Y-71617519D01*
X198754147Y-71756900D01*
X198818297Y-71911772D01*
X198851000Y-72076184D01*
X198851000Y-72243816D01*
X198818297Y-72408228D01*
X198754147Y-72563100D01*
X198661015Y-72702481D01*
X198542481Y-72821015D01*
X198403100Y-72914147D01*
X198248228Y-72978297D01*
X198083816Y-73011000D01*
X197916184Y-73011000D01*
X197751772Y-72978297D01*
X197596900Y-72914147D01*
X197457519Y-72821015D01*
X197338985Y-72702481D01*
X197245853Y-72563100D01*
X197181703Y-72408228D01*
X197149000Y-72243816D01*
X197149000Y-72076184D01*
X197181703Y-71911772D01*
X197245853Y-71756900D01*
X197338985Y-71617519D01*
X197457519Y-71498985D01*
X197596900Y-71405853D01*
X197751772Y-71341703D01*
X197916184Y-71309000D01*
X198083816Y-71309000D01*
X198248228Y-71341703D01*
X198248228Y-71341703D01*
G37*
G36*
X203328228Y-71341703D02*
G01*
X203483100Y-71405853D01*
X203622481Y-71498985D01*
X203741015Y-71617519D01*
X203834147Y-71756900D01*
X203898297Y-71911772D01*
X203931000Y-72076184D01*
X203931000Y-72243816D01*
X203898297Y-72408228D01*
X203834147Y-72563100D01*
X203741015Y-72702481D01*
X203622481Y-72821015D01*
X203483100Y-72914147D01*
X203328228Y-72978297D01*
X203163816Y-73011000D01*
X202996184Y-73011000D01*
X202831772Y-72978297D01*
X202676900Y-72914147D01*
X202537519Y-72821015D01*
X202418985Y-72702481D01*
X202325853Y-72563100D01*
X202261703Y-72408228D01*
X202229000Y-72243816D01*
X202229000Y-72076184D01*
X202261703Y-71911772D01*
X202325853Y-71756900D01*
X202418985Y-71617519D01*
X202537519Y-71498985D01*
X202676900Y-71405853D01*
X202831772Y-71341703D01*
X202996184Y-71309000D01*
X203163816Y-71309000D01*
X203328228Y-71341703D01*
X203328228Y-71341703D01*
G37*
G36*
X190248228Y-68801703D02*
G01*
X190403100Y-68865853D01*
X190542481Y-68958985D01*
X190661015Y-69077519D01*
X190754147Y-69216900D01*
X190818297Y-69371772D01*
X190851000Y-69536184D01*
X190851000Y-69703816D01*
X190818297Y-69868228D01*
X190754147Y-70023100D01*
X190661015Y-70162481D01*
X190542481Y-70281015D01*
X190403100Y-70374147D01*
X190248228Y-70438297D01*
X190083816Y-70471000D01*
X189916184Y-70471000D01*
X189751772Y-70438297D01*
X189596900Y-70374147D01*
X189457519Y-70281015D01*
X189338985Y-70162481D01*
X189245853Y-70023100D01*
X189181703Y-69868228D01*
X189149000Y-69703816D01*
X189149000Y-69536184D01*
X189181703Y-69371772D01*
X189245853Y-69216900D01*
X189338985Y-69077519D01*
X189457519Y-68958985D01*
X189596900Y-68865853D01*
X189751772Y-68801703D01*
X189916184Y-68769000D01*
X190083816Y-68769000D01*
X190248228Y-68801703D01*
X190248228Y-68801703D01*
G37*
G36*
X235328228Y-68801703D02*
G01*
X235483100Y-68865853D01*
X235622481Y-68958985D01*
X235741015Y-69077519D01*
X235834147Y-69216900D01*
X235898297Y-69371772D01*
X235931000Y-69536184D01*
X235931000Y-69703816D01*
X235898297Y-69868228D01*
X235834147Y-70023100D01*
X235741015Y-70162481D01*
X235622481Y-70281015D01*
X235483100Y-70374147D01*
X235328228Y-70438297D01*
X235163816Y-70471000D01*
X234996184Y-70471000D01*
X234831772Y-70438297D01*
X234676900Y-70374147D01*
X234537519Y-70281015D01*
X234418985Y-70162481D01*
X234325853Y-70023100D01*
X234261703Y-69868228D01*
X234229000Y-69703816D01*
X234229000Y-69536184D01*
X234261703Y-69371772D01*
X234325853Y-69216900D01*
X234418985Y-69077519D01*
X234537519Y-68958985D01*
X234676900Y-68865853D01*
X234831772Y-68801703D01*
X234996184Y-68769000D01*
X235163816Y-68769000D01*
X235328228Y-68801703D01*
X235328228Y-68801703D01*
G37*
G36*
X195328228Y-68801703D02*
G01*
X195483100Y-68865853D01*
X195622481Y-68958985D01*
X195741015Y-69077519D01*
X195834147Y-69216900D01*
X195898297Y-69371772D01*
X195931000Y-69536184D01*
X195931000Y-69703816D01*
X195898297Y-69868228D01*
X195834147Y-70023100D01*
X195741015Y-70162481D01*
X195622481Y-70281015D01*
X195483100Y-70374147D01*
X195328228Y-70438297D01*
X195163816Y-70471000D01*
X194996184Y-70471000D01*
X194831772Y-70438297D01*
X194676900Y-70374147D01*
X194537519Y-70281015D01*
X194418985Y-70162481D01*
X194325853Y-70023100D01*
X194261703Y-69868228D01*
X194229000Y-69703816D01*
X194229000Y-69536184D01*
X194261703Y-69371772D01*
X194325853Y-69216900D01*
X194418985Y-69077519D01*
X194537519Y-68958985D01*
X194676900Y-68865853D01*
X194831772Y-68801703D01*
X194996184Y-68769000D01*
X195163816Y-68769000D01*
X195328228Y-68801703D01*
X195328228Y-68801703D01*
G37*
G36*
X182248228Y-68801703D02*
G01*
X182403100Y-68865853D01*
X182542481Y-68958985D01*
X182661015Y-69077519D01*
X182754147Y-69216900D01*
X182818297Y-69371772D01*
X182851000Y-69536184D01*
X182851000Y-69703816D01*
X182818297Y-69868228D01*
X182754147Y-70023100D01*
X182661015Y-70162481D01*
X182542481Y-70281015D01*
X182403100Y-70374147D01*
X182248228Y-70438297D01*
X182083816Y-70471000D01*
X181916184Y-70471000D01*
X181751772Y-70438297D01*
X181596900Y-70374147D01*
X181457519Y-70281015D01*
X181338985Y-70162481D01*
X181245853Y-70023100D01*
X181181703Y-69868228D01*
X181149000Y-69703816D01*
X181149000Y-69536184D01*
X181181703Y-69371772D01*
X181245853Y-69216900D01*
X181338985Y-69077519D01*
X181457519Y-68958985D01*
X181596900Y-68865853D01*
X181751772Y-68801703D01*
X181916184Y-68769000D01*
X182083816Y-68769000D01*
X182248228Y-68801703D01*
X182248228Y-68801703D01*
G37*
G36*
X179328228Y-68801703D02*
G01*
X179483100Y-68865853D01*
X179622481Y-68958985D01*
X179741015Y-69077519D01*
X179834147Y-69216900D01*
X179898297Y-69371772D01*
X179931000Y-69536184D01*
X179931000Y-69703816D01*
X179898297Y-69868228D01*
X179834147Y-70023100D01*
X179741015Y-70162481D01*
X179622481Y-70281015D01*
X179483100Y-70374147D01*
X179328228Y-70438297D01*
X179163816Y-70471000D01*
X178996184Y-70471000D01*
X178831772Y-70438297D01*
X178676900Y-70374147D01*
X178537519Y-70281015D01*
X178418985Y-70162481D01*
X178325853Y-70023100D01*
X178261703Y-69868228D01*
X178229000Y-69703816D01*
X178229000Y-69536184D01*
X178261703Y-69371772D01*
X178325853Y-69216900D01*
X178418985Y-69077519D01*
X178537519Y-68958985D01*
X178676900Y-68865853D01*
X178831772Y-68801703D01*
X178996184Y-68769000D01*
X179163816Y-68769000D01*
X179328228Y-68801703D01*
X179328228Y-68801703D01*
G37*
G36*
X187328228Y-68801703D02*
G01*
X187483100Y-68865853D01*
X187622481Y-68958985D01*
X187741015Y-69077519D01*
X187834147Y-69216900D01*
X187898297Y-69371772D01*
X187931000Y-69536184D01*
X187931000Y-69703816D01*
X187898297Y-69868228D01*
X187834147Y-70023100D01*
X187741015Y-70162481D01*
X187622481Y-70281015D01*
X187483100Y-70374147D01*
X187328228Y-70438297D01*
X187163816Y-70471000D01*
X186996184Y-70471000D01*
X186831772Y-70438297D01*
X186676900Y-70374147D01*
X186537519Y-70281015D01*
X186418985Y-70162481D01*
X186325853Y-70023100D01*
X186261703Y-69868228D01*
X186229000Y-69703816D01*
X186229000Y-69536184D01*
X186261703Y-69371772D01*
X186325853Y-69216900D01*
X186418985Y-69077519D01*
X186537519Y-68958985D01*
X186676900Y-68865853D01*
X186831772Y-68801703D01*
X186996184Y-68769000D01*
X187163816Y-68769000D01*
X187328228Y-68801703D01*
X187328228Y-68801703D01*
G37*
G36*
X198248228Y-68801703D02*
G01*
X198403100Y-68865853D01*
X198542481Y-68958985D01*
X198661015Y-69077519D01*
X198754147Y-69216900D01*
X198818297Y-69371772D01*
X198851000Y-69536184D01*
X198851000Y-69703816D01*
X198818297Y-69868228D01*
X198754147Y-70023100D01*
X198661015Y-70162481D01*
X198542481Y-70281015D01*
X198403100Y-70374147D01*
X198248228Y-70438297D01*
X198083816Y-70471000D01*
X197916184Y-70471000D01*
X197751772Y-70438297D01*
X197596900Y-70374147D01*
X197457519Y-70281015D01*
X197338985Y-70162481D01*
X197245853Y-70023100D01*
X197181703Y-69868228D01*
X197149000Y-69703816D01*
X197149000Y-69536184D01*
X197181703Y-69371772D01*
X197245853Y-69216900D01*
X197338985Y-69077519D01*
X197457519Y-68958985D01*
X197596900Y-68865853D01*
X197751772Y-68801703D01*
X197916184Y-68769000D01*
X198083816Y-68769000D01*
X198248228Y-68801703D01*
X198248228Y-68801703D01*
G37*
G36*
X203328228Y-68801703D02*
G01*
X203483100Y-68865853D01*
X203622481Y-68958985D01*
X203741015Y-69077519D01*
X203834147Y-69216900D01*
X203898297Y-69371772D01*
X203931000Y-69536184D01*
X203931000Y-69703816D01*
X203898297Y-69868228D01*
X203834147Y-70023100D01*
X203741015Y-70162481D01*
X203622481Y-70281015D01*
X203483100Y-70374147D01*
X203328228Y-70438297D01*
X203163816Y-70471000D01*
X202996184Y-70471000D01*
X202831772Y-70438297D01*
X202676900Y-70374147D01*
X202537519Y-70281015D01*
X202418985Y-70162481D01*
X202325853Y-70023100D01*
X202261703Y-69868228D01*
X202229000Y-69703816D01*
X202229000Y-69536184D01*
X202261703Y-69371772D01*
X202325853Y-69216900D01*
X202418985Y-69077519D01*
X202537519Y-68958985D01*
X202676900Y-68865853D01*
X202831772Y-68801703D01*
X202996184Y-68769000D01*
X203163816Y-68769000D01*
X203328228Y-68801703D01*
X203328228Y-68801703D01*
G37*
G36*
X206248228Y-68801703D02*
G01*
X206403100Y-68865853D01*
X206542481Y-68958985D01*
X206661015Y-69077519D01*
X206754147Y-69216900D01*
X206818297Y-69371772D01*
X206851000Y-69536184D01*
X206851000Y-69703816D01*
X206818297Y-69868228D01*
X206754147Y-70023100D01*
X206661015Y-70162481D01*
X206542481Y-70281015D01*
X206403100Y-70374147D01*
X206248228Y-70438297D01*
X206083816Y-70471000D01*
X205916184Y-70471000D01*
X205751772Y-70438297D01*
X205596900Y-70374147D01*
X205457519Y-70281015D01*
X205338985Y-70162481D01*
X205245853Y-70023100D01*
X205181703Y-69868228D01*
X205149000Y-69703816D01*
X205149000Y-69536184D01*
X205181703Y-69371772D01*
X205245853Y-69216900D01*
X205338985Y-69077519D01*
X205457519Y-68958985D01*
X205596900Y-68865853D01*
X205751772Y-68801703D01*
X205916184Y-68769000D01*
X206083816Y-68769000D01*
X206248228Y-68801703D01*
X206248228Y-68801703D01*
G37*
G36*
X211328228Y-68801703D02*
G01*
X211483100Y-68865853D01*
X211622481Y-68958985D01*
X211741015Y-69077519D01*
X211834147Y-69216900D01*
X211898297Y-69371772D01*
X211931000Y-69536184D01*
X211931000Y-69703816D01*
X211898297Y-69868228D01*
X211834147Y-70023100D01*
X211741015Y-70162481D01*
X211622481Y-70281015D01*
X211483100Y-70374147D01*
X211328228Y-70438297D01*
X211163816Y-70471000D01*
X210996184Y-70471000D01*
X210831772Y-70438297D01*
X210676900Y-70374147D01*
X210537519Y-70281015D01*
X210418985Y-70162481D01*
X210325853Y-70023100D01*
X210261703Y-69868228D01*
X210229000Y-69703816D01*
X210229000Y-69536184D01*
X210261703Y-69371772D01*
X210325853Y-69216900D01*
X210418985Y-69077519D01*
X210537519Y-68958985D01*
X210676900Y-68865853D01*
X210831772Y-68801703D01*
X210996184Y-68769000D01*
X211163816Y-68769000D01*
X211328228Y-68801703D01*
X211328228Y-68801703D01*
G37*
G36*
X214248228Y-68801703D02*
G01*
X214403100Y-68865853D01*
X214542481Y-68958985D01*
X214661015Y-69077519D01*
X214754147Y-69216900D01*
X214818297Y-69371772D01*
X214851000Y-69536184D01*
X214851000Y-69703816D01*
X214818297Y-69868228D01*
X214754147Y-70023100D01*
X214661015Y-70162481D01*
X214542481Y-70281015D01*
X214403100Y-70374147D01*
X214248228Y-70438297D01*
X214083816Y-70471000D01*
X213916184Y-70471000D01*
X213751772Y-70438297D01*
X213596900Y-70374147D01*
X213457519Y-70281015D01*
X213338985Y-70162481D01*
X213245853Y-70023100D01*
X213181703Y-69868228D01*
X213149000Y-69703816D01*
X213149000Y-69536184D01*
X213181703Y-69371772D01*
X213245853Y-69216900D01*
X213338985Y-69077519D01*
X213457519Y-68958985D01*
X213596900Y-68865853D01*
X213751772Y-68801703D01*
X213916184Y-68769000D01*
X214083816Y-68769000D01*
X214248228Y-68801703D01*
X214248228Y-68801703D01*
G37*
G36*
X219328228Y-68801703D02*
G01*
X219483100Y-68865853D01*
X219622481Y-68958985D01*
X219741015Y-69077519D01*
X219834147Y-69216900D01*
X219898297Y-69371772D01*
X219931000Y-69536184D01*
X219931000Y-69703816D01*
X219898297Y-69868228D01*
X219834147Y-70023100D01*
X219741015Y-70162481D01*
X219622481Y-70281015D01*
X219483100Y-70374147D01*
X219328228Y-70438297D01*
X219163816Y-70471000D01*
X218996184Y-70471000D01*
X218831772Y-70438297D01*
X218676900Y-70374147D01*
X218537519Y-70281015D01*
X218418985Y-70162481D01*
X218325853Y-70023100D01*
X218261703Y-69868228D01*
X218229000Y-69703816D01*
X218229000Y-69536184D01*
X218261703Y-69371772D01*
X218325853Y-69216900D01*
X218418985Y-69077519D01*
X218537519Y-68958985D01*
X218676900Y-68865853D01*
X218831772Y-68801703D01*
X218996184Y-68769000D01*
X219163816Y-68769000D01*
X219328228Y-68801703D01*
X219328228Y-68801703D01*
G37*
G36*
X222248228Y-68801703D02*
G01*
X222403100Y-68865853D01*
X222542481Y-68958985D01*
X222661015Y-69077519D01*
X222754147Y-69216900D01*
X222818297Y-69371772D01*
X222851000Y-69536184D01*
X222851000Y-69703816D01*
X222818297Y-69868228D01*
X222754147Y-70023100D01*
X222661015Y-70162481D01*
X222542481Y-70281015D01*
X222403100Y-70374147D01*
X222248228Y-70438297D01*
X222083816Y-70471000D01*
X221916184Y-70471000D01*
X221751772Y-70438297D01*
X221596900Y-70374147D01*
X221457519Y-70281015D01*
X221338985Y-70162481D01*
X221245853Y-70023100D01*
X221181703Y-69868228D01*
X221149000Y-69703816D01*
X221149000Y-69536184D01*
X221181703Y-69371772D01*
X221245853Y-69216900D01*
X221338985Y-69077519D01*
X221457519Y-68958985D01*
X221596900Y-68865853D01*
X221751772Y-68801703D01*
X221916184Y-68769000D01*
X222083816Y-68769000D01*
X222248228Y-68801703D01*
X222248228Y-68801703D01*
G37*
G36*
X227328228Y-68801703D02*
G01*
X227483100Y-68865853D01*
X227622481Y-68958985D01*
X227741015Y-69077519D01*
X227834147Y-69216900D01*
X227898297Y-69371772D01*
X227931000Y-69536184D01*
X227931000Y-69703816D01*
X227898297Y-69868228D01*
X227834147Y-70023100D01*
X227741015Y-70162481D01*
X227622481Y-70281015D01*
X227483100Y-70374147D01*
X227328228Y-70438297D01*
X227163816Y-70471000D01*
X226996184Y-70471000D01*
X226831772Y-70438297D01*
X226676900Y-70374147D01*
X226537519Y-70281015D01*
X226418985Y-70162481D01*
X226325853Y-70023100D01*
X226261703Y-69868228D01*
X226229000Y-69703816D01*
X226229000Y-69536184D01*
X226261703Y-69371772D01*
X226325853Y-69216900D01*
X226418985Y-69077519D01*
X226537519Y-68958985D01*
X226676900Y-68865853D01*
X226831772Y-68801703D01*
X226996184Y-68769000D01*
X227163816Y-68769000D01*
X227328228Y-68801703D01*
X227328228Y-68801703D01*
G37*
G36*
X230248228Y-68801703D02*
G01*
X230403100Y-68865853D01*
X230542481Y-68958985D01*
X230661015Y-69077519D01*
X230754147Y-69216900D01*
X230818297Y-69371772D01*
X230851000Y-69536184D01*
X230851000Y-69703816D01*
X230818297Y-69868228D01*
X230754147Y-70023100D01*
X230661015Y-70162481D01*
X230542481Y-70281015D01*
X230403100Y-70374147D01*
X230248228Y-70438297D01*
X230083816Y-70471000D01*
X229916184Y-70471000D01*
X229751772Y-70438297D01*
X229596900Y-70374147D01*
X229457519Y-70281015D01*
X229338985Y-70162481D01*
X229245853Y-70023100D01*
X229181703Y-69868228D01*
X229149000Y-69703816D01*
X229149000Y-69536184D01*
X229181703Y-69371772D01*
X229245853Y-69216900D01*
X229338985Y-69077519D01*
X229457519Y-68958985D01*
X229596900Y-68865853D01*
X229751772Y-68801703D01*
X229916184Y-68769000D01*
X230083816Y-68769000D01*
X230248228Y-68801703D01*
X230248228Y-68801703D01*
G37*
G36*
X174248228Y-68801703D02*
G01*
X174403100Y-68865853D01*
X174542481Y-68958985D01*
X174661015Y-69077519D01*
X174754147Y-69216900D01*
X174818297Y-69371772D01*
X174851000Y-69536184D01*
X174851000Y-69703816D01*
X174818297Y-69868228D01*
X174754147Y-70023100D01*
X174661015Y-70162481D01*
X174542481Y-70281015D01*
X174403100Y-70374147D01*
X174248228Y-70438297D01*
X174083816Y-70471000D01*
X173916184Y-70471000D01*
X173751772Y-70438297D01*
X173596900Y-70374147D01*
X173457519Y-70281015D01*
X173338985Y-70162481D01*
X173245853Y-70023100D01*
X173181703Y-69868228D01*
X173149000Y-69703816D01*
X173149000Y-69536184D01*
X173181703Y-69371772D01*
X173245853Y-69216900D01*
X173338985Y-69077519D01*
X173457519Y-68958985D01*
X173596900Y-68865853D01*
X173751772Y-68801703D01*
X173916184Y-68769000D01*
X174083816Y-68769000D01*
X174248228Y-68801703D01*
X174248228Y-68801703D01*
G37*
G36*
X182248228Y-66261703D02*
G01*
X182403100Y-66325853D01*
X182542481Y-66418985D01*
X182661015Y-66537519D01*
X182754147Y-66676900D01*
X182818297Y-66831772D01*
X182851000Y-66996184D01*
X182851000Y-67163816D01*
X182818297Y-67328228D01*
X182754147Y-67483100D01*
X182661015Y-67622481D01*
X182542481Y-67741015D01*
X182403100Y-67834147D01*
X182248228Y-67898297D01*
X182083816Y-67931000D01*
X181916184Y-67931000D01*
X181751772Y-67898297D01*
X181596900Y-67834147D01*
X181457519Y-67741015D01*
X181338985Y-67622481D01*
X181245853Y-67483100D01*
X181181703Y-67328228D01*
X181149000Y-67163816D01*
X181149000Y-66996184D01*
X181181703Y-66831772D01*
X181245853Y-66676900D01*
X181338985Y-66537519D01*
X181457519Y-66418985D01*
X181596900Y-66325853D01*
X181751772Y-66261703D01*
X181916184Y-66229000D01*
X182083816Y-66229000D01*
X182248228Y-66261703D01*
X182248228Y-66261703D01*
G37*
G36*
X214248228Y-66261703D02*
G01*
X214403100Y-66325853D01*
X214542481Y-66418985D01*
X214661015Y-66537519D01*
X214754147Y-66676900D01*
X214818297Y-66831772D01*
X214851000Y-66996184D01*
X214851000Y-67163816D01*
X214818297Y-67328228D01*
X214754147Y-67483100D01*
X214661015Y-67622481D01*
X214542481Y-67741015D01*
X214403100Y-67834147D01*
X214248228Y-67898297D01*
X214083816Y-67931000D01*
X213916184Y-67931000D01*
X213751772Y-67898297D01*
X213596900Y-67834147D01*
X213457519Y-67741015D01*
X213338985Y-67622481D01*
X213245853Y-67483100D01*
X213181703Y-67328228D01*
X213149000Y-67163816D01*
X213149000Y-66996184D01*
X213181703Y-66831772D01*
X213245853Y-66676900D01*
X213338985Y-66537519D01*
X213457519Y-66418985D01*
X213596900Y-66325853D01*
X213751772Y-66261703D01*
X213916184Y-66229000D01*
X214083816Y-66229000D01*
X214248228Y-66261703D01*
X214248228Y-66261703D01*
G37*
G36*
X235328228Y-66261703D02*
G01*
X235483100Y-66325853D01*
X235622481Y-66418985D01*
X235741015Y-66537519D01*
X235834147Y-66676900D01*
X235898297Y-66831772D01*
X235931000Y-66996184D01*
X235931000Y-67163816D01*
X235898297Y-67328228D01*
X235834147Y-67483100D01*
X235741015Y-67622481D01*
X235622481Y-67741015D01*
X235483100Y-67834147D01*
X235328228Y-67898297D01*
X235163816Y-67931000D01*
X234996184Y-67931000D01*
X234831772Y-67898297D01*
X234676900Y-67834147D01*
X234537519Y-67741015D01*
X234418985Y-67622481D01*
X234325853Y-67483100D01*
X234261703Y-67328228D01*
X234229000Y-67163816D01*
X234229000Y-66996184D01*
X234261703Y-66831772D01*
X234325853Y-66676900D01*
X234418985Y-66537519D01*
X234537519Y-66418985D01*
X234676900Y-66325853D01*
X234831772Y-66261703D01*
X234996184Y-66229000D01*
X235163816Y-66229000D01*
X235328228Y-66261703D01*
X235328228Y-66261703D01*
G37*
G36*
X230248228Y-66261703D02*
G01*
X230403100Y-66325853D01*
X230542481Y-66418985D01*
X230661015Y-66537519D01*
X230754147Y-66676900D01*
X230818297Y-66831772D01*
X230851000Y-66996184D01*
X230851000Y-67163816D01*
X230818297Y-67328228D01*
X230754147Y-67483100D01*
X230661015Y-67622481D01*
X230542481Y-67741015D01*
X230403100Y-67834147D01*
X230248228Y-67898297D01*
X230083816Y-67931000D01*
X229916184Y-67931000D01*
X229751772Y-67898297D01*
X229596900Y-67834147D01*
X229457519Y-67741015D01*
X229338985Y-67622481D01*
X229245853Y-67483100D01*
X229181703Y-67328228D01*
X229149000Y-67163816D01*
X229149000Y-66996184D01*
X229181703Y-66831772D01*
X229245853Y-66676900D01*
X229338985Y-66537519D01*
X229457519Y-66418985D01*
X229596900Y-66325853D01*
X229751772Y-66261703D01*
X229916184Y-66229000D01*
X230083816Y-66229000D01*
X230248228Y-66261703D01*
X230248228Y-66261703D01*
G37*
G36*
X227328228Y-66261703D02*
G01*
X227483100Y-66325853D01*
X227622481Y-66418985D01*
X227741015Y-66537519D01*
X227834147Y-66676900D01*
X227898297Y-66831772D01*
X227931000Y-66996184D01*
X227931000Y-67163816D01*
X227898297Y-67328228D01*
X227834147Y-67483100D01*
X227741015Y-67622481D01*
X227622481Y-67741015D01*
X227483100Y-67834147D01*
X227328228Y-67898297D01*
X227163816Y-67931000D01*
X226996184Y-67931000D01*
X226831772Y-67898297D01*
X226676900Y-67834147D01*
X226537519Y-67741015D01*
X226418985Y-67622481D01*
X226325853Y-67483100D01*
X226261703Y-67328228D01*
X226229000Y-67163816D01*
X226229000Y-66996184D01*
X226261703Y-66831772D01*
X226325853Y-66676900D01*
X226418985Y-66537519D01*
X226537519Y-66418985D01*
X226676900Y-66325853D01*
X226831772Y-66261703D01*
X226996184Y-66229000D01*
X227163816Y-66229000D01*
X227328228Y-66261703D01*
X227328228Y-66261703D01*
G37*
G36*
X222248228Y-66261703D02*
G01*
X222403100Y-66325853D01*
X222542481Y-66418985D01*
X222661015Y-66537519D01*
X222754147Y-66676900D01*
X222818297Y-66831772D01*
X222851000Y-66996184D01*
X222851000Y-67163816D01*
X222818297Y-67328228D01*
X222754147Y-67483100D01*
X222661015Y-67622481D01*
X222542481Y-67741015D01*
X222403100Y-67834147D01*
X222248228Y-67898297D01*
X222083816Y-67931000D01*
X221916184Y-67931000D01*
X221751772Y-67898297D01*
X221596900Y-67834147D01*
X221457519Y-67741015D01*
X221338985Y-67622481D01*
X221245853Y-67483100D01*
X221181703Y-67328228D01*
X221149000Y-67163816D01*
X221149000Y-66996184D01*
X221181703Y-66831772D01*
X221245853Y-66676900D01*
X221338985Y-66537519D01*
X221457519Y-66418985D01*
X221596900Y-66325853D01*
X221751772Y-66261703D01*
X221916184Y-66229000D01*
X222083816Y-66229000D01*
X222248228Y-66261703D01*
X222248228Y-66261703D01*
G37*
G36*
X219328228Y-66261703D02*
G01*
X219483100Y-66325853D01*
X219622481Y-66418985D01*
X219741015Y-66537519D01*
X219834147Y-66676900D01*
X219898297Y-66831772D01*
X219931000Y-66996184D01*
X219931000Y-67163816D01*
X219898297Y-67328228D01*
X219834147Y-67483100D01*
X219741015Y-67622481D01*
X219622481Y-67741015D01*
X219483100Y-67834147D01*
X219328228Y-67898297D01*
X219163816Y-67931000D01*
X218996184Y-67931000D01*
X218831772Y-67898297D01*
X218676900Y-67834147D01*
X218537519Y-67741015D01*
X218418985Y-67622481D01*
X218325853Y-67483100D01*
X218261703Y-67328228D01*
X218229000Y-67163816D01*
X218229000Y-66996184D01*
X218261703Y-66831772D01*
X218325853Y-66676900D01*
X218418985Y-66537519D01*
X218537519Y-66418985D01*
X218676900Y-66325853D01*
X218831772Y-66261703D01*
X218996184Y-66229000D01*
X219163816Y-66229000D01*
X219328228Y-66261703D01*
X219328228Y-66261703D01*
G37*
G36*
X187328228Y-66261703D02*
G01*
X187483100Y-66325853D01*
X187622481Y-66418985D01*
X187741015Y-66537519D01*
X187834147Y-66676900D01*
X187898297Y-66831772D01*
X187931000Y-66996184D01*
X187931000Y-67163816D01*
X187898297Y-67328228D01*
X187834147Y-67483100D01*
X187741015Y-67622481D01*
X187622481Y-67741015D01*
X187483100Y-67834147D01*
X187328228Y-67898297D01*
X187163816Y-67931000D01*
X186996184Y-67931000D01*
X186831772Y-67898297D01*
X186676900Y-67834147D01*
X186537519Y-67741015D01*
X186418985Y-67622481D01*
X186325853Y-67483100D01*
X186261703Y-67328228D01*
X186229000Y-67163816D01*
X186229000Y-66996184D01*
X186261703Y-66831772D01*
X186325853Y-66676900D01*
X186418985Y-66537519D01*
X186537519Y-66418985D01*
X186676900Y-66325853D01*
X186831772Y-66261703D01*
X186996184Y-66229000D01*
X187163816Y-66229000D01*
X187328228Y-66261703D01*
X187328228Y-66261703D01*
G37*
G36*
X211328228Y-66261703D02*
G01*
X211483100Y-66325853D01*
X211622481Y-66418985D01*
X211741015Y-66537519D01*
X211834147Y-66676900D01*
X211898297Y-66831772D01*
X211931000Y-66996184D01*
X211931000Y-67163816D01*
X211898297Y-67328228D01*
X211834147Y-67483100D01*
X211741015Y-67622481D01*
X211622481Y-67741015D01*
X211483100Y-67834147D01*
X211328228Y-67898297D01*
X211163816Y-67931000D01*
X210996184Y-67931000D01*
X210831772Y-67898297D01*
X210676900Y-67834147D01*
X210537519Y-67741015D01*
X210418985Y-67622481D01*
X210325853Y-67483100D01*
X210261703Y-67328228D01*
X210229000Y-67163816D01*
X210229000Y-66996184D01*
X210261703Y-66831772D01*
X210325853Y-66676900D01*
X210418985Y-66537519D01*
X210537519Y-66418985D01*
X210676900Y-66325853D01*
X210831772Y-66261703D01*
X210996184Y-66229000D01*
X211163816Y-66229000D01*
X211328228Y-66261703D01*
X211328228Y-66261703D01*
G37*
G36*
X206248228Y-66261703D02*
G01*
X206403100Y-66325853D01*
X206542481Y-66418985D01*
X206661015Y-66537519D01*
X206754147Y-66676900D01*
X206818297Y-66831772D01*
X206851000Y-66996184D01*
X206851000Y-67163816D01*
X206818297Y-67328228D01*
X206754147Y-67483100D01*
X206661015Y-67622481D01*
X206542481Y-67741015D01*
X206403100Y-67834147D01*
X206248228Y-67898297D01*
X206083816Y-67931000D01*
X205916184Y-67931000D01*
X205751772Y-67898297D01*
X205596900Y-67834147D01*
X205457519Y-67741015D01*
X205338985Y-67622481D01*
X205245853Y-67483100D01*
X205181703Y-67328228D01*
X205149000Y-67163816D01*
X205149000Y-66996184D01*
X205181703Y-66831772D01*
X205245853Y-66676900D01*
X205338985Y-66537519D01*
X205457519Y-66418985D01*
X205596900Y-66325853D01*
X205751772Y-66261703D01*
X205916184Y-66229000D01*
X206083816Y-66229000D01*
X206248228Y-66261703D01*
X206248228Y-66261703D01*
G37*
G36*
X203328228Y-66261703D02*
G01*
X203483100Y-66325853D01*
X203622481Y-66418985D01*
X203741015Y-66537519D01*
X203834147Y-66676900D01*
X203898297Y-66831772D01*
X203931000Y-66996184D01*
X203931000Y-67163816D01*
X203898297Y-67328228D01*
X203834147Y-67483100D01*
X203741015Y-67622481D01*
X203622481Y-67741015D01*
X203483100Y-67834147D01*
X203328228Y-67898297D01*
X203163816Y-67931000D01*
X202996184Y-67931000D01*
X202831772Y-67898297D01*
X202676900Y-67834147D01*
X202537519Y-67741015D01*
X202418985Y-67622481D01*
X202325853Y-67483100D01*
X202261703Y-67328228D01*
X202229000Y-67163816D01*
X202229000Y-66996184D01*
X202261703Y-66831772D01*
X202325853Y-66676900D01*
X202418985Y-66537519D01*
X202537519Y-66418985D01*
X202676900Y-66325853D01*
X202831772Y-66261703D01*
X202996184Y-66229000D01*
X203163816Y-66229000D01*
X203328228Y-66261703D01*
X203328228Y-66261703D01*
G37*
G36*
X198248228Y-66261703D02*
G01*
X198403100Y-66325853D01*
X198542481Y-66418985D01*
X198661015Y-66537519D01*
X198754147Y-66676900D01*
X198818297Y-66831772D01*
X198851000Y-66996184D01*
X198851000Y-67163816D01*
X198818297Y-67328228D01*
X198754147Y-67483100D01*
X198661015Y-67622481D01*
X198542481Y-67741015D01*
X198403100Y-67834147D01*
X198248228Y-67898297D01*
X198083816Y-67931000D01*
X197916184Y-67931000D01*
X197751772Y-67898297D01*
X197596900Y-67834147D01*
X197457519Y-67741015D01*
X197338985Y-67622481D01*
X197245853Y-67483100D01*
X197181703Y-67328228D01*
X197149000Y-67163816D01*
X197149000Y-66996184D01*
X197181703Y-66831772D01*
X197245853Y-66676900D01*
X197338985Y-66537519D01*
X197457519Y-66418985D01*
X197596900Y-66325853D01*
X197751772Y-66261703D01*
X197916184Y-66229000D01*
X198083816Y-66229000D01*
X198248228Y-66261703D01*
X198248228Y-66261703D01*
G37*
G36*
X195328228Y-66261703D02*
G01*
X195483100Y-66325853D01*
X195622481Y-66418985D01*
X195741015Y-66537519D01*
X195834147Y-66676900D01*
X195898297Y-66831772D01*
X195931000Y-66996184D01*
X195931000Y-67163816D01*
X195898297Y-67328228D01*
X195834147Y-67483100D01*
X195741015Y-67622481D01*
X195622481Y-67741015D01*
X195483100Y-67834147D01*
X195328228Y-67898297D01*
X195163816Y-67931000D01*
X194996184Y-67931000D01*
X194831772Y-67898297D01*
X194676900Y-67834147D01*
X194537519Y-67741015D01*
X194418985Y-67622481D01*
X194325853Y-67483100D01*
X194261703Y-67328228D01*
X194229000Y-67163816D01*
X194229000Y-66996184D01*
X194261703Y-66831772D01*
X194325853Y-66676900D01*
X194418985Y-66537519D01*
X194537519Y-66418985D01*
X194676900Y-66325853D01*
X194831772Y-66261703D01*
X194996184Y-66229000D01*
X195163816Y-66229000D01*
X195328228Y-66261703D01*
X195328228Y-66261703D01*
G37*
G36*
X190248228Y-66261703D02*
G01*
X190403100Y-66325853D01*
X190542481Y-66418985D01*
X190661015Y-66537519D01*
X190754147Y-66676900D01*
X190818297Y-66831772D01*
X190851000Y-66996184D01*
X190851000Y-67163816D01*
X190818297Y-67328228D01*
X190754147Y-67483100D01*
X190661015Y-67622481D01*
X190542481Y-67741015D01*
X190403100Y-67834147D01*
X190248228Y-67898297D01*
X190083816Y-67931000D01*
X189916184Y-67931000D01*
X189751772Y-67898297D01*
X189596900Y-67834147D01*
X189457519Y-67741015D01*
X189338985Y-67622481D01*
X189245853Y-67483100D01*
X189181703Y-67328228D01*
X189149000Y-67163816D01*
X189149000Y-66996184D01*
X189181703Y-66831772D01*
X189245853Y-66676900D01*
X189338985Y-66537519D01*
X189457519Y-66418985D01*
X189596900Y-66325853D01*
X189751772Y-66261703D01*
X189916184Y-66229000D01*
X190083816Y-66229000D01*
X190248228Y-66261703D01*
X190248228Y-66261703D01*
G37*
G36*
X179328228Y-66261703D02*
G01*
X179483100Y-66325853D01*
X179622481Y-66418985D01*
X179741015Y-66537519D01*
X179834147Y-66676900D01*
X179898297Y-66831772D01*
X179931000Y-66996184D01*
X179931000Y-67163816D01*
X179898297Y-67328228D01*
X179834147Y-67483100D01*
X179741015Y-67622481D01*
X179622481Y-67741015D01*
X179483100Y-67834147D01*
X179328228Y-67898297D01*
X179163816Y-67931000D01*
X178996184Y-67931000D01*
X178831772Y-67898297D01*
X178676900Y-67834147D01*
X178537519Y-67741015D01*
X178418985Y-67622481D01*
X178325853Y-67483100D01*
X178261703Y-67328228D01*
X178229000Y-67163816D01*
X178229000Y-66996184D01*
X178261703Y-66831772D01*
X178325853Y-66676900D01*
X178418985Y-66537519D01*
X178537519Y-66418985D01*
X178676900Y-66325853D01*
X178831772Y-66261703D01*
X178996184Y-66229000D01*
X179163816Y-66229000D01*
X179328228Y-66261703D01*
X179328228Y-66261703D01*
G37*
G36*
X174248228Y-66261703D02*
G01*
X174403100Y-66325853D01*
X174542481Y-66418985D01*
X174661015Y-66537519D01*
X174754147Y-66676900D01*
X174818297Y-66831772D01*
X174851000Y-66996184D01*
X174851000Y-67163816D01*
X174818297Y-67328228D01*
X174754147Y-67483100D01*
X174661015Y-67622481D01*
X174542481Y-67741015D01*
X174403100Y-67834147D01*
X174248228Y-67898297D01*
X174083816Y-67931000D01*
X173916184Y-67931000D01*
X173751772Y-67898297D01*
X173596900Y-67834147D01*
X173457519Y-67741015D01*
X173338985Y-67622481D01*
X173245853Y-67483100D01*
X173181703Y-67328228D01*
X173149000Y-67163816D01*
X173149000Y-66996184D01*
X173181703Y-66831772D01*
X173245853Y-66676900D01*
X173338985Y-66537519D01*
X173457519Y-66418985D01*
X173596900Y-66325853D01*
X173751772Y-66261703D01*
X173916184Y-66229000D01*
X174083816Y-66229000D01*
X174248228Y-66261703D01*
X174248228Y-66261703D01*
G37*
G36*
X179328228Y-63721703D02*
G01*
X179483100Y-63785853D01*
X179622481Y-63878985D01*
X179741015Y-63997519D01*
X179834147Y-64136900D01*
X179898297Y-64291772D01*
X179931000Y-64456184D01*
X179931000Y-64623816D01*
X179898297Y-64788228D01*
X179834147Y-64943100D01*
X179741015Y-65082481D01*
X179622481Y-65201015D01*
X179483100Y-65294147D01*
X179328228Y-65358297D01*
X179163816Y-65391000D01*
X178996184Y-65391000D01*
X178831772Y-65358297D01*
X178676900Y-65294147D01*
X178537519Y-65201015D01*
X178418985Y-65082481D01*
X178325853Y-64943100D01*
X178261703Y-64788228D01*
X178229000Y-64623816D01*
X178229000Y-64456184D01*
X178261703Y-64291772D01*
X178325853Y-64136900D01*
X178418985Y-63997519D01*
X178537519Y-63878985D01*
X178676900Y-63785853D01*
X178831772Y-63721703D01*
X178996184Y-63689000D01*
X179163816Y-63689000D01*
X179328228Y-63721703D01*
X179328228Y-63721703D01*
G37*
G36*
X174248228Y-63721703D02*
G01*
X174403100Y-63785853D01*
X174542481Y-63878985D01*
X174661015Y-63997519D01*
X174754147Y-64136900D01*
X174818297Y-64291772D01*
X174851000Y-64456184D01*
X174851000Y-64623816D01*
X174818297Y-64788228D01*
X174754147Y-64943100D01*
X174661015Y-65082481D01*
X174542481Y-65201015D01*
X174403100Y-65294147D01*
X174248228Y-65358297D01*
X174083816Y-65391000D01*
X173916184Y-65391000D01*
X173751772Y-65358297D01*
X173596900Y-65294147D01*
X173457519Y-65201015D01*
X173338985Y-65082481D01*
X173245853Y-64943100D01*
X173181703Y-64788228D01*
X173149000Y-64623816D01*
X173149000Y-64456184D01*
X173181703Y-64291772D01*
X173245853Y-64136900D01*
X173338985Y-63997519D01*
X173457519Y-63878985D01*
X173596900Y-63785853D01*
X173751772Y-63721703D01*
X173916184Y-63689000D01*
X174083816Y-63689000D01*
X174248228Y-63721703D01*
X174248228Y-63721703D01*
G37*
G36*
X206248228Y-63721703D02*
G01*
X206403100Y-63785853D01*
X206542481Y-63878985D01*
X206661015Y-63997519D01*
X206754147Y-64136900D01*
X206818297Y-64291772D01*
X206851000Y-64456184D01*
X206851000Y-64623816D01*
X206818297Y-64788228D01*
X206754147Y-64943100D01*
X206661015Y-65082481D01*
X206542481Y-65201015D01*
X206403100Y-65294147D01*
X206248228Y-65358297D01*
X206083816Y-65391000D01*
X205916184Y-65391000D01*
X205751772Y-65358297D01*
X205596900Y-65294147D01*
X205457519Y-65201015D01*
X205338985Y-65082481D01*
X205245853Y-64943100D01*
X205181703Y-64788228D01*
X205149000Y-64623816D01*
X205149000Y-64456184D01*
X205181703Y-64291772D01*
X205245853Y-64136900D01*
X205338985Y-63997519D01*
X205457519Y-63878985D01*
X205596900Y-63785853D01*
X205751772Y-63721703D01*
X205916184Y-63689000D01*
X206083816Y-63689000D01*
X206248228Y-63721703D01*
X206248228Y-63721703D01*
G37*
G36*
X214248228Y-63721703D02*
G01*
X214403100Y-63785853D01*
X214542481Y-63878985D01*
X214661015Y-63997519D01*
X214754147Y-64136900D01*
X214818297Y-64291772D01*
X214851000Y-64456184D01*
X214851000Y-64623816D01*
X214818297Y-64788228D01*
X214754147Y-64943100D01*
X214661015Y-65082481D01*
X214542481Y-65201015D01*
X214403100Y-65294147D01*
X214248228Y-65358297D01*
X214083816Y-65391000D01*
X213916184Y-65391000D01*
X213751772Y-65358297D01*
X213596900Y-65294147D01*
X213457519Y-65201015D01*
X213338985Y-65082481D01*
X213245853Y-64943100D01*
X213181703Y-64788228D01*
X213149000Y-64623816D01*
X213149000Y-64456184D01*
X213181703Y-64291772D01*
X213245853Y-64136900D01*
X213338985Y-63997519D01*
X213457519Y-63878985D01*
X213596900Y-63785853D01*
X213751772Y-63721703D01*
X213916184Y-63689000D01*
X214083816Y-63689000D01*
X214248228Y-63721703D01*
X214248228Y-63721703D01*
G37*
G36*
X222248228Y-63721703D02*
G01*
X222403100Y-63785853D01*
X222542481Y-63878985D01*
X222661015Y-63997519D01*
X222754147Y-64136900D01*
X222818297Y-64291772D01*
X222851000Y-64456184D01*
X222851000Y-64623816D01*
X222818297Y-64788228D01*
X222754147Y-64943100D01*
X222661015Y-65082481D01*
X222542481Y-65201015D01*
X222403100Y-65294147D01*
X222248228Y-65358297D01*
X222083816Y-65391000D01*
X221916184Y-65391000D01*
X221751772Y-65358297D01*
X221596900Y-65294147D01*
X221457519Y-65201015D01*
X221338985Y-65082481D01*
X221245853Y-64943100D01*
X221181703Y-64788228D01*
X221149000Y-64623816D01*
X221149000Y-64456184D01*
X221181703Y-64291772D01*
X221245853Y-64136900D01*
X221338985Y-63997519D01*
X221457519Y-63878985D01*
X221596900Y-63785853D01*
X221751772Y-63721703D01*
X221916184Y-63689000D01*
X222083816Y-63689000D01*
X222248228Y-63721703D01*
X222248228Y-63721703D01*
G37*
G36*
X198248228Y-63721703D02*
G01*
X198403100Y-63785853D01*
X198542481Y-63878985D01*
X198661015Y-63997519D01*
X198754147Y-64136900D01*
X198818297Y-64291772D01*
X198851000Y-64456184D01*
X198851000Y-64623816D01*
X198818297Y-64788228D01*
X198754147Y-64943100D01*
X198661015Y-65082481D01*
X198542481Y-65201015D01*
X198403100Y-65294147D01*
X198248228Y-65358297D01*
X198083816Y-65391000D01*
X197916184Y-65391000D01*
X197751772Y-65358297D01*
X197596900Y-65294147D01*
X197457519Y-65201015D01*
X197338985Y-65082481D01*
X197245853Y-64943100D01*
X197181703Y-64788228D01*
X197149000Y-64623816D01*
X197149000Y-64456184D01*
X197181703Y-64291772D01*
X197245853Y-64136900D01*
X197338985Y-63997519D01*
X197457519Y-63878985D01*
X197596900Y-63785853D01*
X197751772Y-63721703D01*
X197916184Y-63689000D01*
X198083816Y-63689000D01*
X198248228Y-63721703D01*
X198248228Y-63721703D01*
G37*
G36*
X219328228Y-63721703D02*
G01*
X219483100Y-63785853D01*
X219622481Y-63878985D01*
X219741015Y-63997519D01*
X219834147Y-64136900D01*
X219898297Y-64291772D01*
X219931000Y-64456184D01*
X219931000Y-64623816D01*
X219898297Y-64788228D01*
X219834147Y-64943100D01*
X219741015Y-65082481D01*
X219622481Y-65201015D01*
X219483100Y-65294147D01*
X219328228Y-65358297D01*
X219163816Y-65391000D01*
X218996184Y-65391000D01*
X218831772Y-65358297D01*
X218676900Y-65294147D01*
X218537519Y-65201015D01*
X218418985Y-65082481D01*
X218325853Y-64943100D01*
X218261703Y-64788228D01*
X218229000Y-64623816D01*
X218229000Y-64456184D01*
X218261703Y-64291772D01*
X218325853Y-64136900D01*
X218418985Y-63997519D01*
X218537519Y-63878985D01*
X218676900Y-63785853D01*
X218831772Y-63721703D01*
X218996184Y-63689000D01*
X219163816Y-63689000D01*
X219328228Y-63721703D01*
X219328228Y-63721703D01*
G37*
G36*
X227328228Y-63721703D02*
G01*
X227483100Y-63785853D01*
X227622481Y-63878985D01*
X227741015Y-63997519D01*
X227834147Y-64136900D01*
X227898297Y-64291772D01*
X227931000Y-64456184D01*
X227931000Y-64623816D01*
X227898297Y-64788228D01*
X227834147Y-64943100D01*
X227741015Y-65082481D01*
X227622481Y-65201015D01*
X227483100Y-65294147D01*
X227328228Y-65358297D01*
X227163816Y-65391000D01*
X226996184Y-65391000D01*
X226831772Y-65358297D01*
X226676900Y-65294147D01*
X226537519Y-65201015D01*
X226418985Y-65082481D01*
X226325853Y-64943100D01*
X226261703Y-64788228D01*
X226229000Y-64623816D01*
X226229000Y-64456184D01*
X226261703Y-64291772D01*
X226325853Y-64136900D01*
X226418985Y-63997519D01*
X226537519Y-63878985D01*
X226676900Y-63785853D01*
X226831772Y-63721703D01*
X226996184Y-63689000D01*
X227163816Y-63689000D01*
X227328228Y-63721703D01*
X227328228Y-63721703D01*
G37*
G36*
X190248228Y-63721703D02*
G01*
X190403100Y-63785853D01*
X190542481Y-63878985D01*
X190661015Y-63997519D01*
X190754147Y-64136900D01*
X190818297Y-64291772D01*
X190851000Y-64456184D01*
X190851000Y-64623816D01*
X190818297Y-64788228D01*
X190754147Y-64943100D01*
X190661015Y-65082481D01*
X190542481Y-65201015D01*
X190403100Y-65294147D01*
X190248228Y-65358297D01*
X190083816Y-65391000D01*
X189916184Y-65391000D01*
X189751772Y-65358297D01*
X189596900Y-65294147D01*
X189457519Y-65201015D01*
X189338985Y-65082481D01*
X189245853Y-64943100D01*
X189181703Y-64788228D01*
X189149000Y-64623816D01*
X189149000Y-64456184D01*
X189181703Y-64291772D01*
X189245853Y-64136900D01*
X189338985Y-63997519D01*
X189457519Y-63878985D01*
X189596900Y-63785853D01*
X189751772Y-63721703D01*
X189916184Y-63689000D01*
X190083816Y-63689000D01*
X190248228Y-63721703D01*
X190248228Y-63721703D01*
G37*
G36*
X182248228Y-63721703D02*
G01*
X182403100Y-63785853D01*
X182542481Y-63878985D01*
X182661015Y-63997519D01*
X182754147Y-64136900D01*
X182818297Y-64291772D01*
X182851000Y-64456184D01*
X182851000Y-64623816D01*
X182818297Y-64788228D01*
X182754147Y-64943100D01*
X182661015Y-65082481D01*
X182542481Y-65201015D01*
X182403100Y-65294147D01*
X182248228Y-65358297D01*
X182083816Y-65391000D01*
X181916184Y-65391000D01*
X181751772Y-65358297D01*
X181596900Y-65294147D01*
X181457519Y-65201015D01*
X181338985Y-65082481D01*
X181245853Y-64943100D01*
X181181703Y-64788228D01*
X181149000Y-64623816D01*
X181149000Y-64456184D01*
X181181703Y-64291772D01*
X181245853Y-64136900D01*
X181338985Y-63997519D01*
X181457519Y-63878985D01*
X181596900Y-63785853D01*
X181751772Y-63721703D01*
X181916184Y-63689000D01*
X182083816Y-63689000D01*
X182248228Y-63721703D01*
X182248228Y-63721703D01*
G37*
G36*
X203328228Y-63721703D02*
G01*
X203483100Y-63785853D01*
X203622481Y-63878985D01*
X203741015Y-63997519D01*
X203834147Y-64136900D01*
X203898297Y-64291772D01*
X203931000Y-64456184D01*
X203931000Y-64623816D01*
X203898297Y-64788228D01*
X203834147Y-64943100D01*
X203741015Y-65082481D01*
X203622481Y-65201015D01*
X203483100Y-65294147D01*
X203328228Y-65358297D01*
X203163816Y-65391000D01*
X202996184Y-65391000D01*
X202831772Y-65358297D01*
X202676900Y-65294147D01*
X202537519Y-65201015D01*
X202418985Y-65082481D01*
X202325853Y-64943100D01*
X202261703Y-64788228D01*
X202229000Y-64623816D01*
X202229000Y-64456184D01*
X202261703Y-64291772D01*
X202325853Y-64136900D01*
X202418985Y-63997519D01*
X202537519Y-63878985D01*
X202676900Y-63785853D01*
X202831772Y-63721703D01*
X202996184Y-63689000D01*
X203163816Y-63689000D01*
X203328228Y-63721703D01*
X203328228Y-63721703D01*
G37*
G36*
X235328228Y-63721703D02*
G01*
X235483100Y-63785853D01*
X235622481Y-63878985D01*
X235741015Y-63997519D01*
X235834147Y-64136900D01*
X235898297Y-64291772D01*
X235931000Y-64456184D01*
X235931000Y-64623816D01*
X235898297Y-64788228D01*
X235834147Y-64943100D01*
X235741015Y-65082481D01*
X235622481Y-65201015D01*
X235483100Y-65294147D01*
X235328228Y-65358297D01*
X235163816Y-65391000D01*
X234996184Y-65391000D01*
X234831772Y-65358297D01*
X234676900Y-65294147D01*
X234537519Y-65201015D01*
X234418985Y-65082481D01*
X234325853Y-64943100D01*
X234261703Y-64788228D01*
X234229000Y-64623816D01*
X234229000Y-64456184D01*
X234261703Y-64291772D01*
X234325853Y-64136900D01*
X234418985Y-63997519D01*
X234537519Y-63878985D01*
X234676900Y-63785853D01*
X234831772Y-63721703D01*
X234996184Y-63689000D01*
X235163816Y-63689000D01*
X235328228Y-63721703D01*
X235328228Y-63721703D01*
G37*
G36*
X211328228Y-63721703D02*
G01*
X211483100Y-63785853D01*
X211622481Y-63878985D01*
X211741015Y-63997519D01*
X211834147Y-64136900D01*
X211898297Y-64291772D01*
X211931000Y-64456184D01*
X211931000Y-64623816D01*
X211898297Y-64788228D01*
X211834147Y-64943100D01*
X211741015Y-65082481D01*
X211622481Y-65201015D01*
X211483100Y-65294147D01*
X211328228Y-65358297D01*
X211163816Y-65391000D01*
X210996184Y-65391000D01*
X210831772Y-65358297D01*
X210676900Y-65294147D01*
X210537519Y-65201015D01*
X210418985Y-65082481D01*
X210325853Y-64943100D01*
X210261703Y-64788228D01*
X210229000Y-64623816D01*
X210229000Y-64456184D01*
X210261703Y-64291772D01*
X210325853Y-64136900D01*
X210418985Y-63997519D01*
X210537519Y-63878985D01*
X210676900Y-63785853D01*
X210831772Y-63721703D01*
X210996184Y-63689000D01*
X211163816Y-63689000D01*
X211328228Y-63721703D01*
X211328228Y-63721703D01*
G37*
G36*
X195328228Y-63721703D02*
G01*
X195483100Y-63785853D01*
X195622481Y-63878985D01*
X195741015Y-63997519D01*
X195834147Y-64136900D01*
X195898297Y-64291772D01*
X195931000Y-64456184D01*
X195931000Y-64623816D01*
X195898297Y-64788228D01*
X195834147Y-64943100D01*
X195741015Y-65082481D01*
X195622481Y-65201015D01*
X195483100Y-65294147D01*
X195328228Y-65358297D01*
X195163816Y-65391000D01*
X194996184Y-65391000D01*
X194831772Y-65358297D01*
X194676900Y-65294147D01*
X194537519Y-65201015D01*
X194418985Y-65082481D01*
X194325853Y-64943100D01*
X194261703Y-64788228D01*
X194229000Y-64623816D01*
X194229000Y-64456184D01*
X194261703Y-64291772D01*
X194325853Y-64136900D01*
X194418985Y-63997519D01*
X194537519Y-63878985D01*
X194676900Y-63785853D01*
X194831772Y-63721703D01*
X194996184Y-63689000D01*
X195163816Y-63689000D01*
X195328228Y-63721703D01*
X195328228Y-63721703D01*
G37*
G36*
X187328228Y-63721703D02*
G01*
X187483100Y-63785853D01*
X187622481Y-63878985D01*
X187741015Y-63997519D01*
X187834147Y-64136900D01*
X187898297Y-64291772D01*
X187931000Y-64456184D01*
X187931000Y-64623816D01*
X187898297Y-64788228D01*
X187834147Y-64943100D01*
X187741015Y-65082481D01*
X187622481Y-65201015D01*
X187483100Y-65294147D01*
X187328228Y-65358297D01*
X187163816Y-65391000D01*
X186996184Y-65391000D01*
X186831772Y-65358297D01*
X186676900Y-65294147D01*
X186537519Y-65201015D01*
X186418985Y-65082481D01*
X186325853Y-64943100D01*
X186261703Y-64788228D01*
X186229000Y-64623816D01*
X186229000Y-64456184D01*
X186261703Y-64291772D01*
X186325853Y-64136900D01*
X186418985Y-63997519D01*
X186537519Y-63878985D01*
X186676900Y-63785853D01*
X186831772Y-63721703D01*
X186996184Y-63689000D01*
X187163816Y-63689000D01*
X187328228Y-63721703D01*
X187328228Y-63721703D01*
G37*
G36*
X230248228Y-63721703D02*
G01*
X230403100Y-63785853D01*
X230542481Y-63878985D01*
X230661015Y-63997519D01*
X230754147Y-64136900D01*
X230818297Y-64291772D01*
X230851000Y-64456184D01*
X230851000Y-64623816D01*
X230818297Y-64788228D01*
X230754147Y-64943100D01*
X230661015Y-65082481D01*
X230542481Y-65201015D01*
X230403100Y-65294147D01*
X230248228Y-65358297D01*
X230083816Y-65391000D01*
X229916184Y-65391000D01*
X229751772Y-65358297D01*
X229596900Y-65294147D01*
X229457519Y-65201015D01*
X229338985Y-65082481D01*
X229245853Y-64943100D01*
X229181703Y-64788228D01*
X229149000Y-64623816D01*
X229149000Y-64456184D01*
X229181703Y-64291772D01*
X229245853Y-64136900D01*
X229338985Y-63997519D01*
X229457519Y-63878985D01*
X229596900Y-63785853D01*
X229751772Y-63721703D01*
X229916184Y-63689000D01*
X230083816Y-63689000D01*
X230248228Y-63721703D01*
X230248228Y-63721703D01*
G37*
G36*
X174851000Y-62851000D02*
G01*
X173149000Y-62851000D01*
X173149000Y-61149000D01*
X174851000Y-61149000D01*
X174851000Y-62851000D01*
X174851000Y-62851000D01*
G37*
G36*
X235328228Y-61181703D02*
G01*
X235483100Y-61245853D01*
X235622481Y-61338985D01*
X235741015Y-61457519D01*
X235834147Y-61596900D01*
X235898297Y-61751772D01*
X235931000Y-61916184D01*
X235931000Y-62083816D01*
X235898297Y-62248228D01*
X235834147Y-62403100D01*
X235741015Y-62542481D01*
X235622481Y-62661015D01*
X235483100Y-62754147D01*
X235328228Y-62818297D01*
X235163816Y-62851000D01*
X234996184Y-62851000D01*
X234831772Y-62818297D01*
X234676900Y-62754147D01*
X234537519Y-62661015D01*
X234418985Y-62542481D01*
X234325853Y-62403100D01*
X234261703Y-62248228D01*
X234229000Y-62083816D01*
X234229000Y-61916184D01*
X234261703Y-61751772D01*
X234325853Y-61596900D01*
X234418985Y-61457519D01*
X234537519Y-61338985D01*
X234676900Y-61245853D01*
X234831772Y-61181703D01*
X234996184Y-61149000D01*
X235163816Y-61149000D01*
X235328228Y-61181703D01*
X235328228Y-61181703D01*
G37*
G36*
X230851000Y-62851000D02*
G01*
X229149000Y-62851000D01*
X229149000Y-61149000D01*
X230851000Y-61149000D01*
X230851000Y-62851000D01*
X230851000Y-62851000D01*
G37*
G36*
X227328228Y-61181703D02*
G01*
X227483100Y-61245853D01*
X227622481Y-61338985D01*
X227741015Y-61457519D01*
X227834147Y-61596900D01*
X227898297Y-61751772D01*
X227931000Y-61916184D01*
X227931000Y-62083816D01*
X227898297Y-62248228D01*
X227834147Y-62403100D01*
X227741015Y-62542481D01*
X227622481Y-62661015D01*
X227483100Y-62754147D01*
X227328228Y-62818297D01*
X227163816Y-62851000D01*
X226996184Y-62851000D01*
X226831772Y-62818297D01*
X226676900Y-62754147D01*
X226537519Y-62661015D01*
X226418985Y-62542481D01*
X226325853Y-62403100D01*
X226261703Y-62248228D01*
X226229000Y-62083816D01*
X226229000Y-61916184D01*
X226261703Y-61751772D01*
X226325853Y-61596900D01*
X226418985Y-61457519D01*
X226537519Y-61338985D01*
X226676900Y-61245853D01*
X226831772Y-61181703D01*
X226996184Y-61149000D01*
X227163816Y-61149000D01*
X227328228Y-61181703D01*
X227328228Y-61181703D01*
G37*
G36*
X222851000Y-62851000D02*
G01*
X221149000Y-62851000D01*
X221149000Y-61149000D01*
X222851000Y-61149000D01*
X222851000Y-62851000D01*
X222851000Y-62851000D01*
G37*
G36*
X219328228Y-61181703D02*
G01*
X219483100Y-61245853D01*
X219622481Y-61338985D01*
X219741015Y-61457519D01*
X219834147Y-61596900D01*
X219898297Y-61751772D01*
X219931000Y-61916184D01*
X219931000Y-62083816D01*
X219898297Y-62248228D01*
X219834147Y-62403100D01*
X219741015Y-62542481D01*
X219622481Y-62661015D01*
X219483100Y-62754147D01*
X219328228Y-62818297D01*
X219163816Y-62851000D01*
X218996184Y-62851000D01*
X218831772Y-62818297D01*
X218676900Y-62754147D01*
X218537519Y-62661015D01*
X218418985Y-62542481D01*
X218325853Y-62403100D01*
X218261703Y-62248228D01*
X218229000Y-62083816D01*
X218229000Y-61916184D01*
X218261703Y-61751772D01*
X218325853Y-61596900D01*
X218418985Y-61457519D01*
X218537519Y-61338985D01*
X218676900Y-61245853D01*
X218831772Y-61181703D01*
X218996184Y-61149000D01*
X219163816Y-61149000D01*
X219328228Y-61181703D01*
X219328228Y-61181703D01*
G37*
G36*
X214851000Y-62851000D02*
G01*
X213149000Y-62851000D01*
X213149000Y-61149000D01*
X214851000Y-61149000D01*
X214851000Y-62851000D01*
X214851000Y-62851000D01*
G37*
G36*
X211328228Y-61181703D02*
G01*
X211483100Y-61245853D01*
X211622481Y-61338985D01*
X211741015Y-61457519D01*
X211834147Y-61596900D01*
X211898297Y-61751772D01*
X211931000Y-61916184D01*
X211931000Y-62083816D01*
X211898297Y-62248228D01*
X211834147Y-62403100D01*
X211741015Y-62542481D01*
X211622481Y-62661015D01*
X211483100Y-62754147D01*
X211328228Y-62818297D01*
X211163816Y-62851000D01*
X210996184Y-62851000D01*
X210831772Y-62818297D01*
X210676900Y-62754147D01*
X210537519Y-62661015D01*
X210418985Y-62542481D01*
X210325853Y-62403100D01*
X210261703Y-62248228D01*
X210229000Y-62083816D01*
X210229000Y-61916184D01*
X210261703Y-61751772D01*
X210325853Y-61596900D01*
X210418985Y-61457519D01*
X210537519Y-61338985D01*
X210676900Y-61245853D01*
X210831772Y-61181703D01*
X210996184Y-61149000D01*
X211163816Y-61149000D01*
X211328228Y-61181703D01*
X211328228Y-61181703D01*
G37*
G36*
X206851000Y-62851000D02*
G01*
X205149000Y-62851000D01*
X205149000Y-61149000D01*
X206851000Y-61149000D01*
X206851000Y-62851000D01*
X206851000Y-62851000D01*
G37*
G36*
X203328228Y-61181703D02*
G01*
X203483100Y-61245853D01*
X203622481Y-61338985D01*
X203741015Y-61457519D01*
X203834147Y-61596900D01*
X203898297Y-61751772D01*
X203931000Y-61916184D01*
X203931000Y-62083816D01*
X203898297Y-62248228D01*
X203834147Y-62403100D01*
X203741015Y-62542481D01*
X203622481Y-62661015D01*
X203483100Y-62754147D01*
X203328228Y-62818297D01*
X203163816Y-62851000D01*
X202996184Y-62851000D01*
X202831772Y-62818297D01*
X202676900Y-62754147D01*
X202537519Y-62661015D01*
X202418985Y-62542481D01*
X202325853Y-62403100D01*
X202261703Y-62248228D01*
X202229000Y-62083816D01*
X202229000Y-61916184D01*
X202261703Y-61751772D01*
X202325853Y-61596900D01*
X202418985Y-61457519D01*
X202537519Y-61338985D01*
X202676900Y-61245853D01*
X202831772Y-61181703D01*
X202996184Y-61149000D01*
X203163816Y-61149000D01*
X203328228Y-61181703D01*
X203328228Y-61181703D01*
G37*
G36*
X198851000Y-62851000D02*
G01*
X197149000Y-62851000D01*
X197149000Y-61149000D01*
X198851000Y-61149000D01*
X198851000Y-62851000D01*
X198851000Y-62851000D01*
G37*
G36*
X195328228Y-61181703D02*
G01*
X195483100Y-61245853D01*
X195622481Y-61338985D01*
X195741015Y-61457519D01*
X195834147Y-61596900D01*
X195898297Y-61751772D01*
X195931000Y-61916184D01*
X195931000Y-62083816D01*
X195898297Y-62248228D01*
X195834147Y-62403100D01*
X195741015Y-62542481D01*
X195622481Y-62661015D01*
X195483100Y-62754147D01*
X195328228Y-62818297D01*
X195163816Y-62851000D01*
X194996184Y-62851000D01*
X194831772Y-62818297D01*
X194676900Y-62754147D01*
X194537519Y-62661015D01*
X194418985Y-62542481D01*
X194325853Y-62403100D01*
X194261703Y-62248228D01*
X194229000Y-62083816D01*
X194229000Y-61916184D01*
X194261703Y-61751772D01*
X194325853Y-61596900D01*
X194418985Y-61457519D01*
X194537519Y-61338985D01*
X194676900Y-61245853D01*
X194831772Y-61181703D01*
X194996184Y-61149000D01*
X195163816Y-61149000D01*
X195328228Y-61181703D01*
X195328228Y-61181703D01*
G37*
G36*
X190851000Y-62851000D02*
G01*
X189149000Y-62851000D01*
X189149000Y-61149000D01*
X190851000Y-61149000D01*
X190851000Y-62851000D01*
X190851000Y-62851000D01*
G37*
G36*
X187328228Y-61181703D02*
G01*
X187483100Y-61245853D01*
X187622481Y-61338985D01*
X187741015Y-61457519D01*
X187834147Y-61596900D01*
X187898297Y-61751772D01*
X187931000Y-61916184D01*
X187931000Y-62083816D01*
X187898297Y-62248228D01*
X187834147Y-62403100D01*
X187741015Y-62542481D01*
X187622481Y-62661015D01*
X187483100Y-62754147D01*
X187328228Y-62818297D01*
X187163816Y-62851000D01*
X186996184Y-62851000D01*
X186831772Y-62818297D01*
X186676900Y-62754147D01*
X186537519Y-62661015D01*
X186418985Y-62542481D01*
X186325853Y-62403100D01*
X186261703Y-62248228D01*
X186229000Y-62083816D01*
X186229000Y-61916184D01*
X186261703Y-61751772D01*
X186325853Y-61596900D01*
X186418985Y-61457519D01*
X186537519Y-61338985D01*
X186676900Y-61245853D01*
X186831772Y-61181703D01*
X186996184Y-61149000D01*
X187163816Y-61149000D01*
X187328228Y-61181703D01*
X187328228Y-61181703D01*
G37*
G36*
X182851000Y-62851000D02*
G01*
X181149000Y-62851000D01*
X181149000Y-61149000D01*
X182851000Y-61149000D01*
X182851000Y-62851000D01*
X182851000Y-62851000D01*
G37*
G36*
X179328228Y-61181703D02*
G01*
X179483100Y-61245853D01*
X179622481Y-61338985D01*
X179741015Y-61457519D01*
X179834147Y-61596900D01*
X179898297Y-61751772D01*
X179931000Y-61916184D01*
X179931000Y-62083816D01*
X179898297Y-62248228D01*
X179834147Y-62403100D01*
X179741015Y-62542481D01*
X179622481Y-62661015D01*
X179483100Y-62754147D01*
X179328228Y-62818297D01*
X179163816Y-62851000D01*
X178996184Y-62851000D01*
X178831772Y-62818297D01*
X178676900Y-62754147D01*
X178537519Y-62661015D01*
X178418985Y-62542481D01*
X178325853Y-62403100D01*
X178261703Y-62248228D01*
X178229000Y-62083816D01*
X178229000Y-61916184D01*
X178261703Y-61751772D01*
X178325853Y-61596900D01*
X178418985Y-61457519D01*
X178537519Y-61338985D01*
X178676900Y-61245853D01*
X178831772Y-61181703D01*
X178996184Y-61149000D01*
X179163816Y-61149000D01*
X179328228Y-61181703D01*
X179328228Y-61181703D01*
G37*
M02*
