M48
; DRILL file {KiCad (5.1.0-0)} date Tuesday, 30 June 2020 at 09:10:11
; FORMAT={-:-/ absolute / inch / decimal}
; #@! TF.CreationDate,2020-06-30T09:10:11+01:00
; #@! TF.GenerationSoftware,Kicad,Pcbnew,(5.1.0-0)
; #@! TF.FileFunction,Plated,1,2,PTH
FMAT,2
INCH
T1C0.0157
T2C0.0315
T3C0.0394
%
G90
G05
T1
X6.9006Y-3.5728
X6.9067Y-3.352
X6.9232Y-3.237
X6.9421Y-2.9799
X6.9577Y-3.5693
X6.9598Y-3.0799
X6.9776Y-3.1799
X6.9972Y-3.2528
X7.0275Y-3.5681
X7.072Y-2.3449
X7.174Y-3.5654
X7.1795Y-3.4291
X7.1972Y-2.3547
X7.2008Y-3.4079
X7.2287Y-3.7146
X7.2965Y-3.5354
X7.2965Y-3.6142
X7.3382Y-3.4744
X7.3407Y-3.6738
X7.3795Y-3.5402
X7.3799Y-3.7028
X7.3878Y-2.3567
X7.4207Y-3.3794
X7.4295Y-3.5409
X7.4295Y-3.7024
X7.4803Y-3.5433
X7.5268Y-3.3856
X7.5295Y-3.5445
X7.5799Y-3.5421
X7.6192Y-3.5445
X7.6512Y-3.5126
X7.6689Y-3.602
X7.7083Y-3.5087
X7.7232Y-2.3622
X7.7346Y-3.3803
X7.7677Y-3.5953
X7.8297Y-3.7995
X7.8797Y-3.7995
X7.9146Y-2.4161
X8.1173Y-3.4543
X8.1874Y-3.8014
X8.2283Y-2.4331
X8.3547Y-3.4803
X8.3594Y-3.8299
X8.7031Y-3.8035
X8.7358Y-3.6992
X8.7402Y-3.4925
X8.7815Y-3.4992
X8.7819Y-3.7949
X8.81Y-3.6496
X8.811Y-3.7663
X8.8393Y-3.7378
X8.8394Y-3.4965
X8.8972Y-3.6807
X8.8972Y-3.5087
X8.9274Y-3.534
X8.9288Y-3.6519
X9.1553Y-3.1256
X9.1896Y-3.0528
T2
X7.4803Y-2.9528
X7.4803Y-3.0528
X7.4803Y-3.1528
X7.4803Y-3.2528
X7.4803Y-3.3528
X7.6803Y-2.9528
X7.6803Y-3.0528
X7.6803Y-3.1528
X7.6803Y-3.2528
X7.6803Y-3.3528
X7.1654Y-2.4409
X7.1654Y-2.5409
X7.1654Y-2.6409
X7.1654Y-2.7409
X7.1654Y-2.8409
X7.3654Y-2.4409
X7.3654Y-2.5409
X6.8504Y-2.9528
X6.8504Y-3.0528
X6.8504Y-3.1528
X6.8504Y-3.2528
X6.8504Y-3.3528
X7.0504Y-2.9528
X7.0504Y-3.0528
X7.0504Y-3.1528
X7.0504Y-3.2528
X9.0551Y-2.4409
X9.0551Y-2.5409
X9.0551Y-2.6409
X9.0551Y-2.7409
X9.0551Y-2.8409
X7.3654Y-2.6409
X7.0504Y-3.3528
X7.3654Y-2.7409
X7.3654Y-2.8409
X6.8504Y-2.4409
X6.8504Y-2.5409
X6.8504Y-2.6409
X6.8504Y-2.7409
X6.8504Y-2.8409
X7.0504Y-2.4409
X7.0504Y-2.5409
X7.0504Y-2.6409
X7.0504Y-2.7409
X7.0504Y-2.8409
X9.2551Y-2.4409
X9.2551Y-2.5409
X9.2551Y-2.6409
X9.2551Y-2.7409
X9.2551Y-2.8409
X8.4252Y-2.4409
X8.4252Y-2.5409
X8.4252Y-2.6409
X8.4252Y-2.7409
X8.4252Y-2.8409
X8.6252Y-2.4409
X8.6252Y-2.5409
X8.6252Y-2.6409
X8.6252Y-2.7409
X8.6252Y-2.8409
X8.1102Y-2.4409
X8.1102Y-2.5409
X8.1102Y-2.6409
X8.1102Y-2.7409
X8.1102Y-2.8409
X7.7953Y-3.0528
X7.7953Y-3.1528
X7.7953Y-3.2528
X7.7953Y-3.3528
X7.9953Y-2.9528
X7.9953Y-3.0528
X7.9953Y-3.1528
X7.9953Y-3.2528
X7.9953Y-3.3528
X8.3102Y-2.4409
X7.7953Y-2.9528
X8.3102Y-2.5409
X8.3102Y-2.6409
X8.3102Y-2.7409
X8.3102Y-2.8409
X7.7953Y-2.4409
X7.7953Y-2.5409
X7.7953Y-2.6409
X7.7953Y-2.7409
X7.7953Y-2.8409
X7.9953Y-2.4409
X7.9953Y-2.5409
X7.9953Y-2.6409
X7.9953Y-2.7409
X7.9953Y-2.8409
X8.7402Y-2.4409
X8.7402Y-2.5409
X8.7402Y-2.6409
X8.7402Y-2.7409
X8.7402Y-2.8409
X9.0551Y-3.0528
X8.9402Y-2.4409
X9.0551Y-2.9528
X9.0551Y-3.1528
X9.0551Y-3.2528
X9.0551Y-3.3528
X9.2551Y-2.9528
X9.2551Y-3.0528
X9.2551Y-3.1528
X9.2551Y-3.2528
X9.2551Y-3.3528
X8.9402Y-2.5409
X8.9402Y-2.6409
X8.9402Y-2.7409
X8.9402Y-2.8409
X7.4803Y-2.4409
X7.4803Y-2.5409
X8.7402Y-3.0528
X8.7402Y-3.1528
X8.7402Y-3.2528
X8.7402Y-3.3528
X8.9402Y-2.9528
X8.9402Y-3.0528
X8.9402Y-3.1528
X8.9402Y-3.2528
X8.9402Y-3.3528
X7.1654Y-2.9528
X7.1654Y-3.0528
X7.1654Y-3.1528
X7.1654Y-3.2528
X7.1654Y-3.3528
X7.3654Y-3.0528
X7.3654Y-3.1528
X7.3654Y-3.2528
X7.3654Y-3.3528
X8.4252Y-2.9528
X8.4252Y-3.0528
X8.4252Y-3.2528
X8.4252Y-3.3528
X8.6252Y-2.9528
X7.4803Y-2.7409
X8.4252Y-3.1528
X7.4803Y-2.8409
X7.6803Y-2.4409
X7.6803Y-2.5409
X8.7402Y-2.9528
X7.6803Y-2.6409
X7.6803Y-2.7409
X7.3654Y-2.9528
X7.6803Y-2.8409
X8.6252Y-3.0528
X7.4803Y-2.6409
X8.6252Y-3.1528
X8.6252Y-3.2528
X8.6252Y-3.3528
X8.1102Y-2.9528
X8.1102Y-3.0528
X8.1102Y-3.1528
X8.1102Y-3.2528
X8.1102Y-3.3528
X8.3102Y-2.9528
X8.3102Y-3.0528
X8.3102Y-3.1528
X8.3102Y-3.2528
X8.3102Y-3.3528
T3
X6.9291Y-3.5039
X7.0291Y-3.5039
X7.1291Y-3.5039
X7.2291Y-3.5039
T0
M30
