G04 #@! TF.GenerationSoftware,KiCad,Pcbnew,(5.1.0-0)*
G04 #@! TF.CreationDate,2020-06-30T09:10:09+01:00*
G04 #@! TF.ProjectId,Display,44697370-6c61-4792-9e6b-696361645f70,rev?*
G04 #@! TF.SameCoordinates,Original*
G04 #@! TF.FileFunction,Copper,L1,Top*
G04 #@! TF.FilePolarity,Positive*
%FSLAX46Y46*%
G04 Gerber Fmt 4.6, Leading zero omitted, Abs format (unit mm)*
G04 Created by KiCad (PCBNEW (5.1.0-0)) date 2020-06-30 09:10:09*
%MOMM*%
%LPD*%
G04 APERTURE LIST*
%ADD10C,0.300000*%
%ADD11C,1.600000*%
%ADD12R,1.600000X1.600000*%
%ADD13R,0.600000X1.675000*%
%ADD14C,0.100000*%
%ADD15C,0.875000*%
%ADD16R,1.700000X1.700000*%
%ADD17O,1.700000X1.700000*%
%ADD18C,1.325000*%
%ADD19C,0.800000*%
%ADD20C,0.250000*%
%ADD21C,0.254000*%
G04 APERTURE END LIST*
D10*
X175714285Y-99178571D02*
X176214285Y-100678571D01*
X176714285Y-99178571D01*
X178000000Y-100678571D02*
X177142857Y-100678571D01*
X177571428Y-100678571D02*
X177571428Y-99178571D01*
X177428571Y-99392857D01*
X177285714Y-99535714D01*
X177142857Y-99607142D01*
X178642857Y-100535714D02*
X178714285Y-100607142D01*
X178642857Y-100678571D01*
X178571428Y-100607142D01*
X178642857Y-100535714D01*
X178642857Y-100678571D01*
X179642857Y-99178571D02*
X179785714Y-99178571D01*
X179928571Y-99250000D01*
X180000000Y-99321428D01*
X180071428Y-99464285D01*
X180142857Y-99750000D01*
X180142857Y-100107142D01*
X180071428Y-100392857D01*
X180000000Y-100535714D01*
X179928571Y-100607142D01*
X179785714Y-100678571D01*
X179642857Y-100678571D01*
X179500000Y-100607142D01*
X179428571Y-100535714D01*
X179357142Y-100392857D01*
X179285714Y-100107142D01*
X179285714Y-99750000D01*
X179357142Y-99464285D01*
X179428571Y-99321428D01*
X179500000Y-99250000D01*
X179642857Y-99178571D01*
D11*
X187080000Y-75000000D03*
X187080000Y-77540000D03*
X187080000Y-80080000D03*
X187080000Y-82620000D03*
X187080000Y-85160000D03*
X182000000Y-85160000D03*
X182000000Y-82620000D03*
X182000000Y-80080000D03*
X182000000Y-77540000D03*
D12*
X182000000Y-75000000D03*
D13*
X203955000Y-96507500D03*
X203955000Y-87432500D03*
X202685000Y-96507500D03*
X202685000Y-87432500D03*
X201415000Y-96507500D03*
X201415000Y-87432500D03*
X200145000Y-96507500D03*
X200145000Y-87432500D03*
X198875000Y-96507500D03*
X198875000Y-87432500D03*
X197605000Y-96507500D03*
X197605000Y-87432500D03*
X196335000Y-96507500D03*
X196335000Y-87432500D03*
X195065000Y-96507500D03*
X195065000Y-87432500D03*
X193795000Y-96507500D03*
X193795000Y-87432500D03*
X192525000Y-96507500D03*
X192525000Y-87432500D03*
X191255000Y-96507500D03*
X191255000Y-87432500D03*
X189985000Y-96507500D03*
X189985000Y-87432500D03*
X188715000Y-96507500D03*
X188715000Y-87432500D03*
X187445000Y-96507500D03*
X187445000Y-87432500D03*
D14*
G36*
X182545691Y-91348553D02*
G01*
X182566926Y-91351703D01*
X182587750Y-91356919D01*
X182607962Y-91364151D01*
X182627368Y-91373330D01*
X182645781Y-91384366D01*
X182663024Y-91397154D01*
X182678930Y-91411570D01*
X182693346Y-91427476D01*
X182706134Y-91444719D01*
X182717170Y-91463132D01*
X182726349Y-91482538D01*
X182733581Y-91502750D01*
X182738797Y-91523574D01*
X182741947Y-91544809D01*
X182743000Y-91566250D01*
X182743000Y-92003750D01*
X182741947Y-92025191D01*
X182738797Y-92046426D01*
X182733581Y-92067250D01*
X182726349Y-92087462D01*
X182717170Y-92106868D01*
X182706134Y-92125281D01*
X182693346Y-92142524D01*
X182678930Y-92158430D01*
X182663024Y-92172846D01*
X182645781Y-92185634D01*
X182627368Y-92196670D01*
X182607962Y-92205849D01*
X182587750Y-92213081D01*
X182566926Y-92218297D01*
X182545691Y-92221447D01*
X182524250Y-92222500D01*
X182011750Y-92222500D01*
X181990309Y-92221447D01*
X181969074Y-92218297D01*
X181948250Y-92213081D01*
X181928038Y-92205849D01*
X181908632Y-92196670D01*
X181890219Y-92185634D01*
X181872976Y-92172846D01*
X181857070Y-92158430D01*
X181842654Y-92142524D01*
X181829866Y-92125281D01*
X181818830Y-92106868D01*
X181809651Y-92087462D01*
X181802419Y-92067250D01*
X181797203Y-92046426D01*
X181794053Y-92025191D01*
X181793000Y-92003750D01*
X181793000Y-91566250D01*
X181794053Y-91544809D01*
X181797203Y-91523574D01*
X181802419Y-91502750D01*
X181809651Y-91482538D01*
X181818830Y-91463132D01*
X181829866Y-91444719D01*
X181842654Y-91427476D01*
X181857070Y-91411570D01*
X181872976Y-91397154D01*
X181890219Y-91384366D01*
X181908632Y-91373330D01*
X181928038Y-91364151D01*
X181948250Y-91356919D01*
X181969074Y-91351703D01*
X181990309Y-91348553D01*
X182011750Y-91347500D01*
X182524250Y-91347500D01*
X182545691Y-91348553D01*
X182545691Y-91348553D01*
G37*
D15*
X182268000Y-91785000D03*
D14*
G36*
X182545691Y-92923553D02*
G01*
X182566926Y-92926703D01*
X182587750Y-92931919D01*
X182607962Y-92939151D01*
X182627368Y-92948330D01*
X182645781Y-92959366D01*
X182663024Y-92972154D01*
X182678930Y-92986570D01*
X182693346Y-93002476D01*
X182706134Y-93019719D01*
X182717170Y-93038132D01*
X182726349Y-93057538D01*
X182733581Y-93077750D01*
X182738797Y-93098574D01*
X182741947Y-93119809D01*
X182743000Y-93141250D01*
X182743000Y-93578750D01*
X182741947Y-93600191D01*
X182738797Y-93621426D01*
X182733581Y-93642250D01*
X182726349Y-93662462D01*
X182717170Y-93681868D01*
X182706134Y-93700281D01*
X182693346Y-93717524D01*
X182678930Y-93733430D01*
X182663024Y-93747846D01*
X182645781Y-93760634D01*
X182627368Y-93771670D01*
X182607962Y-93780849D01*
X182587750Y-93788081D01*
X182566926Y-93793297D01*
X182545691Y-93796447D01*
X182524250Y-93797500D01*
X182011750Y-93797500D01*
X181990309Y-93796447D01*
X181969074Y-93793297D01*
X181948250Y-93788081D01*
X181928038Y-93780849D01*
X181908632Y-93771670D01*
X181890219Y-93760634D01*
X181872976Y-93747846D01*
X181857070Y-93733430D01*
X181842654Y-93717524D01*
X181829866Y-93700281D01*
X181818830Y-93681868D01*
X181809651Y-93662462D01*
X181802419Y-93642250D01*
X181797203Y-93621426D01*
X181794053Y-93600191D01*
X181793000Y-93578750D01*
X181793000Y-93141250D01*
X181794053Y-93119809D01*
X181797203Y-93098574D01*
X181802419Y-93077750D01*
X181809651Y-93057538D01*
X181818830Y-93038132D01*
X181829866Y-93019719D01*
X181842654Y-93002476D01*
X181857070Y-92986570D01*
X181872976Y-92972154D01*
X181890219Y-92959366D01*
X181908632Y-92948330D01*
X181928038Y-92939151D01*
X181948250Y-92931919D01*
X181969074Y-92926703D01*
X181990309Y-92923553D01*
X182011750Y-92922500D01*
X182524250Y-92922500D01*
X182545691Y-92923553D01*
X182545691Y-92923553D01*
G37*
D15*
X182268000Y-93360000D03*
D14*
G36*
X181023691Y-92923553D02*
G01*
X181044926Y-92926703D01*
X181065750Y-92931919D01*
X181085962Y-92939151D01*
X181105368Y-92948330D01*
X181123781Y-92959366D01*
X181141024Y-92972154D01*
X181156930Y-92986570D01*
X181171346Y-93002476D01*
X181184134Y-93019719D01*
X181195170Y-93038132D01*
X181204349Y-93057538D01*
X181211581Y-93077750D01*
X181216797Y-93098574D01*
X181219947Y-93119809D01*
X181221000Y-93141250D01*
X181221000Y-93578750D01*
X181219947Y-93600191D01*
X181216797Y-93621426D01*
X181211581Y-93642250D01*
X181204349Y-93662462D01*
X181195170Y-93681868D01*
X181184134Y-93700281D01*
X181171346Y-93717524D01*
X181156930Y-93733430D01*
X181141024Y-93747846D01*
X181123781Y-93760634D01*
X181105368Y-93771670D01*
X181085962Y-93780849D01*
X181065750Y-93788081D01*
X181044926Y-93793297D01*
X181023691Y-93796447D01*
X181002250Y-93797500D01*
X180489750Y-93797500D01*
X180468309Y-93796447D01*
X180447074Y-93793297D01*
X180426250Y-93788081D01*
X180406038Y-93780849D01*
X180386632Y-93771670D01*
X180368219Y-93760634D01*
X180350976Y-93747846D01*
X180335070Y-93733430D01*
X180320654Y-93717524D01*
X180307866Y-93700281D01*
X180296830Y-93681868D01*
X180287651Y-93662462D01*
X180280419Y-93642250D01*
X180275203Y-93621426D01*
X180272053Y-93600191D01*
X180271000Y-93578750D01*
X180271000Y-93141250D01*
X180272053Y-93119809D01*
X180275203Y-93098574D01*
X180280419Y-93077750D01*
X180287651Y-93057538D01*
X180296830Y-93038132D01*
X180307866Y-93019719D01*
X180320654Y-93002476D01*
X180335070Y-92986570D01*
X180350976Y-92972154D01*
X180368219Y-92959366D01*
X180386632Y-92948330D01*
X180406038Y-92939151D01*
X180426250Y-92931919D01*
X180447074Y-92926703D01*
X180468309Y-92923553D01*
X180489750Y-92922500D01*
X181002250Y-92922500D01*
X181023691Y-92923553D01*
X181023691Y-92923553D01*
G37*
D15*
X180746000Y-93360000D03*
D14*
G36*
X181023691Y-91348553D02*
G01*
X181044926Y-91351703D01*
X181065750Y-91356919D01*
X181085962Y-91364151D01*
X181105368Y-91373330D01*
X181123781Y-91384366D01*
X181141024Y-91397154D01*
X181156930Y-91411570D01*
X181171346Y-91427476D01*
X181184134Y-91444719D01*
X181195170Y-91463132D01*
X181204349Y-91482538D01*
X181211581Y-91502750D01*
X181216797Y-91523574D01*
X181219947Y-91544809D01*
X181221000Y-91566250D01*
X181221000Y-92003750D01*
X181219947Y-92025191D01*
X181216797Y-92046426D01*
X181211581Y-92067250D01*
X181204349Y-92087462D01*
X181195170Y-92106868D01*
X181184134Y-92125281D01*
X181171346Y-92142524D01*
X181156930Y-92158430D01*
X181141024Y-92172846D01*
X181123781Y-92185634D01*
X181105368Y-92196670D01*
X181085962Y-92205849D01*
X181065750Y-92213081D01*
X181044926Y-92218297D01*
X181023691Y-92221447D01*
X181002250Y-92222500D01*
X180489750Y-92222500D01*
X180468309Y-92221447D01*
X180447074Y-92218297D01*
X180426250Y-92213081D01*
X180406038Y-92205849D01*
X180386632Y-92196670D01*
X180368219Y-92185634D01*
X180350976Y-92172846D01*
X180335070Y-92158430D01*
X180320654Y-92142524D01*
X180307866Y-92125281D01*
X180296830Y-92106868D01*
X180287651Y-92087462D01*
X180280419Y-92067250D01*
X180275203Y-92046426D01*
X180272053Y-92025191D01*
X180271000Y-92003750D01*
X180271000Y-91566250D01*
X180272053Y-91544809D01*
X180275203Y-91523574D01*
X180280419Y-91502750D01*
X180287651Y-91482538D01*
X180296830Y-91463132D01*
X180307866Y-91444719D01*
X180320654Y-91427476D01*
X180335070Y-91411570D01*
X180350976Y-91397154D01*
X180368219Y-91384366D01*
X180386632Y-91373330D01*
X180406038Y-91364151D01*
X180426250Y-91356919D01*
X180447074Y-91351703D01*
X180468309Y-91348553D01*
X180489750Y-91347500D01*
X181002250Y-91347500D01*
X181023691Y-91348553D01*
X181023691Y-91348553D01*
G37*
D15*
X180746000Y-91785000D03*
D14*
G36*
X179501691Y-91348553D02*
G01*
X179522926Y-91351703D01*
X179543750Y-91356919D01*
X179563962Y-91364151D01*
X179583368Y-91373330D01*
X179601781Y-91384366D01*
X179619024Y-91397154D01*
X179634930Y-91411570D01*
X179649346Y-91427476D01*
X179662134Y-91444719D01*
X179673170Y-91463132D01*
X179682349Y-91482538D01*
X179689581Y-91502750D01*
X179694797Y-91523574D01*
X179697947Y-91544809D01*
X179699000Y-91566250D01*
X179699000Y-92003750D01*
X179697947Y-92025191D01*
X179694797Y-92046426D01*
X179689581Y-92067250D01*
X179682349Y-92087462D01*
X179673170Y-92106868D01*
X179662134Y-92125281D01*
X179649346Y-92142524D01*
X179634930Y-92158430D01*
X179619024Y-92172846D01*
X179601781Y-92185634D01*
X179583368Y-92196670D01*
X179563962Y-92205849D01*
X179543750Y-92213081D01*
X179522926Y-92218297D01*
X179501691Y-92221447D01*
X179480250Y-92222500D01*
X178967750Y-92222500D01*
X178946309Y-92221447D01*
X178925074Y-92218297D01*
X178904250Y-92213081D01*
X178884038Y-92205849D01*
X178864632Y-92196670D01*
X178846219Y-92185634D01*
X178828976Y-92172846D01*
X178813070Y-92158430D01*
X178798654Y-92142524D01*
X178785866Y-92125281D01*
X178774830Y-92106868D01*
X178765651Y-92087462D01*
X178758419Y-92067250D01*
X178753203Y-92046426D01*
X178750053Y-92025191D01*
X178749000Y-92003750D01*
X178749000Y-91566250D01*
X178750053Y-91544809D01*
X178753203Y-91523574D01*
X178758419Y-91502750D01*
X178765651Y-91482538D01*
X178774830Y-91463132D01*
X178785866Y-91444719D01*
X178798654Y-91427476D01*
X178813070Y-91411570D01*
X178828976Y-91397154D01*
X178846219Y-91384366D01*
X178864632Y-91373330D01*
X178884038Y-91364151D01*
X178904250Y-91356919D01*
X178925074Y-91351703D01*
X178946309Y-91348553D01*
X178967750Y-91347500D01*
X179480250Y-91347500D01*
X179501691Y-91348553D01*
X179501691Y-91348553D01*
G37*
D15*
X179224000Y-91785000D03*
D14*
G36*
X179501691Y-92923553D02*
G01*
X179522926Y-92926703D01*
X179543750Y-92931919D01*
X179563962Y-92939151D01*
X179583368Y-92948330D01*
X179601781Y-92959366D01*
X179619024Y-92972154D01*
X179634930Y-92986570D01*
X179649346Y-93002476D01*
X179662134Y-93019719D01*
X179673170Y-93038132D01*
X179682349Y-93057538D01*
X179689581Y-93077750D01*
X179694797Y-93098574D01*
X179697947Y-93119809D01*
X179699000Y-93141250D01*
X179699000Y-93578750D01*
X179697947Y-93600191D01*
X179694797Y-93621426D01*
X179689581Y-93642250D01*
X179682349Y-93662462D01*
X179673170Y-93681868D01*
X179662134Y-93700281D01*
X179649346Y-93717524D01*
X179634930Y-93733430D01*
X179619024Y-93747846D01*
X179601781Y-93760634D01*
X179583368Y-93771670D01*
X179563962Y-93780849D01*
X179543750Y-93788081D01*
X179522926Y-93793297D01*
X179501691Y-93796447D01*
X179480250Y-93797500D01*
X178967750Y-93797500D01*
X178946309Y-93796447D01*
X178925074Y-93793297D01*
X178904250Y-93788081D01*
X178884038Y-93780849D01*
X178864632Y-93771670D01*
X178846219Y-93760634D01*
X178828976Y-93747846D01*
X178813070Y-93733430D01*
X178798654Y-93717524D01*
X178785866Y-93700281D01*
X178774830Y-93681868D01*
X178765651Y-93662462D01*
X178758419Y-93642250D01*
X178753203Y-93621426D01*
X178750053Y-93600191D01*
X178749000Y-93578750D01*
X178749000Y-93141250D01*
X178750053Y-93119809D01*
X178753203Y-93098574D01*
X178758419Y-93077750D01*
X178765651Y-93057538D01*
X178774830Y-93038132D01*
X178785866Y-93019719D01*
X178798654Y-93002476D01*
X178813070Y-92986570D01*
X178828976Y-92972154D01*
X178846219Y-92959366D01*
X178864632Y-92948330D01*
X178884038Y-92939151D01*
X178904250Y-92931919D01*
X178925074Y-92926703D01*
X178946309Y-92923553D01*
X178967750Y-92922500D01*
X179480250Y-92922500D01*
X179501691Y-92923553D01*
X179501691Y-92923553D01*
G37*
D15*
X179224000Y-93360000D03*
D16*
X176000000Y-89000000D03*
D17*
X178540000Y-89000000D03*
X181080000Y-89000000D03*
X183620000Y-89000000D03*
D14*
G36*
X177979691Y-92923553D02*
G01*
X178000926Y-92926703D01*
X178021750Y-92931919D01*
X178041962Y-92939151D01*
X178061368Y-92948330D01*
X178079781Y-92959366D01*
X178097024Y-92972154D01*
X178112930Y-92986570D01*
X178127346Y-93002476D01*
X178140134Y-93019719D01*
X178151170Y-93038132D01*
X178160349Y-93057538D01*
X178167581Y-93077750D01*
X178172797Y-93098574D01*
X178175947Y-93119809D01*
X178177000Y-93141250D01*
X178177000Y-93578750D01*
X178175947Y-93600191D01*
X178172797Y-93621426D01*
X178167581Y-93642250D01*
X178160349Y-93662462D01*
X178151170Y-93681868D01*
X178140134Y-93700281D01*
X178127346Y-93717524D01*
X178112930Y-93733430D01*
X178097024Y-93747846D01*
X178079781Y-93760634D01*
X178061368Y-93771670D01*
X178041962Y-93780849D01*
X178021750Y-93788081D01*
X178000926Y-93793297D01*
X177979691Y-93796447D01*
X177958250Y-93797500D01*
X177445750Y-93797500D01*
X177424309Y-93796447D01*
X177403074Y-93793297D01*
X177382250Y-93788081D01*
X177362038Y-93780849D01*
X177342632Y-93771670D01*
X177324219Y-93760634D01*
X177306976Y-93747846D01*
X177291070Y-93733430D01*
X177276654Y-93717524D01*
X177263866Y-93700281D01*
X177252830Y-93681868D01*
X177243651Y-93662462D01*
X177236419Y-93642250D01*
X177231203Y-93621426D01*
X177228053Y-93600191D01*
X177227000Y-93578750D01*
X177227000Y-93141250D01*
X177228053Y-93119809D01*
X177231203Y-93098574D01*
X177236419Y-93077750D01*
X177243651Y-93057538D01*
X177252830Y-93038132D01*
X177263866Y-93019719D01*
X177276654Y-93002476D01*
X177291070Y-92986570D01*
X177306976Y-92972154D01*
X177324219Y-92959366D01*
X177342632Y-92948330D01*
X177362038Y-92939151D01*
X177382250Y-92931919D01*
X177403074Y-92926703D01*
X177424309Y-92923553D01*
X177445750Y-92922500D01*
X177958250Y-92922500D01*
X177979691Y-92923553D01*
X177979691Y-92923553D01*
G37*
D15*
X177702000Y-93360000D03*
D14*
G36*
X177979691Y-91348553D02*
G01*
X178000926Y-91351703D01*
X178021750Y-91356919D01*
X178041962Y-91364151D01*
X178061368Y-91373330D01*
X178079781Y-91384366D01*
X178097024Y-91397154D01*
X178112930Y-91411570D01*
X178127346Y-91427476D01*
X178140134Y-91444719D01*
X178151170Y-91463132D01*
X178160349Y-91482538D01*
X178167581Y-91502750D01*
X178172797Y-91523574D01*
X178175947Y-91544809D01*
X178177000Y-91566250D01*
X178177000Y-92003750D01*
X178175947Y-92025191D01*
X178172797Y-92046426D01*
X178167581Y-92067250D01*
X178160349Y-92087462D01*
X178151170Y-92106868D01*
X178140134Y-92125281D01*
X178127346Y-92142524D01*
X178112930Y-92158430D01*
X178097024Y-92172846D01*
X178079781Y-92185634D01*
X178061368Y-92196670D01*
X178041962Y-92205849D01*
X178021750Y-92213081D01*
X178000926Y-92218297D01*
X177979691Y-92221447D01*
X177958250Y-92222500D01*
X177445750Y-92222500D01*
X177424309Y-92221447D01*
X177403074Y-92218297D01*
X177382250Y-92213081D01*
X177362038Y-92205849D01*
X177342632Y-92196670D01*
X177324219Y-92185634D01*
X177306976Y-92172846D01*
X177291070Y-92158430D01*
X177276654Y-92142524D01*
X177263866Y-92125281D01*
X177252830Y-92106868D01*
X177243651Y-92087462D01*
X177236419Y-92067250D01*
X177231203Y-92046426D01*
X177228053Y-92025191D01*
X177227000Y-92003750D01*
X177227000Y-91566250D01*
X177228053Y-91544809D01*
X177231203Y-91523574D01*
X177236419Y-91502750D01*
X177243651Y-91482538D01*
X177252830Y-91463132D01*
X177263866Y-91444719D01*
X177276654Y-91427476D01*
X177291070Y-91411570D01*
X177306976Y-91397154D01*
X177324219Y-91384366D01*
X177342632Y-91373330D01*
X177362038Y-91364151D01*
X177382250Y-91356919D01*
X177403074Y-91351703D01*
X177424309Y-91348553D01*
X177445750Y-91347500D01*
X177958250Y-91347500D01*
X177979691Y-91348553D01*
X177979691Y-91348553D01*
G37*
D15*
X177702000Y-91785000D03*
D14*
G36*
X176457691Y-91348553D02*
G01*
X176478926Y-91351703D01*
X176499750Y-91356919D01*
X176519962Y-91364151D01*
X176539368Y-91373330D01*
X176557781Y-91384366D01*
X176575024Y-91397154D01*
X176590930Y-91411570D01*
X176605346Y-91427476D01*
X176618134Y-91444719D01*
X176629170Y-91463132D01*
X176638349Y-91482538D01*
X176645581Y-91502750D01*
X176650797Y-91523574D01*
X176653947Y-91544809D01*
X176655000Y-91566250D01*
X176655000Y-92003750D01*
X176653947Y-92025191D01*
X176650797Y-92046426D01*
X176645581Y-92067250D01*
X176638349Y-92087462D01*
X176629170Y-92106868D01*
X176618134Y-92125281D01*
X176605346Y-92142524D01*
X176590930Y-92158430D01*
X176575024Y-92172846D01*
X176557781Y-92185634D01*
X176539368Y-92196670D01*
X176519962Y-92205849D01*
X176499750Y-92213081D01*
X176478926Y-92218297D01*
X176457691Y-92221447D01*
X176436250Y-92222500D01*
X175923750Y-92222500D01*
X175902309Y-92221447D01*
X175881074Y-92218297D01*
X175860250Y-92213081D01*
X175840038Y-92205849D01*
X175820632Y-92196670D01*
X175802219Y-92185634D01*
X175784976Y-92172846D01*
X175769070Y-92158430D01*
X175754654Y-92142524D01*
X175741866Y-92125281D01*
X175730830Y-92106868D01*
X175721651Y-92087462D01*
X175714419Y-92067250D01*
X175709203Y-92046426D01*
X175706053Y-92025191D01*
X175705000Y-92003750D01*
X175705000Y-91566250D01*
X175706053Y-91544809D01*
X175709203Y-91523574D01*
X175714419Y-91502750D01*
X175721651Y-91482538D01*
X175730830Y-91463132D01*
X175741866Y-91444719D01*
X175754654Y-91427476D01*
X175769070Y-91411570D01*
X175784976Y-91397154D01*
X175802219Y-91384366D01*
X175820632Y-91373330D01*
X175840038Y-91364151D01*
X175860250Y-91356919D01*
X175881074Y-91351703D01*
X175902309Y-91348553D01*
X175923750Y-91347500D01*
X176436250Y-91347500D01*
X176457691Y-91348553D01*
X176457691Y-91348553D01*
G37*
D15*
X176180000Y-91785000D03*
D14*
G36*
X176457691Y-92923553D02*
G01*
X176478926Y-92926703D01*
X176499750Y-92931919D01*
X176519962Y-92939151D01*
X176539368Y-92948330D01*
X176557781Y-92959366D01*
X176575024Y-92972154D01*
X176590930Y-92986570D01*
X176605346Y-93002476D01*
X176618134Y-93019719D01*
X176629170Y-93038132D01*
X176638349Y-93057538D01*
X176645581Y-93077750D01*
X176650797Y-93098574D01*
X176653947Y-93119809D01*
X176655000Y-93141250D01*
X176655000Y-93578750D01*
X176653947Y-93600191D01*
X176650797Y-93621426D01*
X176645581Y-93642250D01*
X176638349Y-93662462D01*
X176629170Y-93681868D01*
X176618134Y-93700281D01*
X176605346Y-93717524D01*
X176590930Y-93733430D01*
X176575024Y-93747846D01*
X176557781Y-93760634D01*
X176539368Y-93771670D01*
X176519962Y-93780849D01*
X176499750Y-93788081D01*
X176478926Y-93793297D01*
X176457691Y-93796447D01*
X176436250Y-93797500D01*
X175923750Y-93797500D01*
X175902309Y-93796447D01*
X175881074Y-93793297D01*
X175860250Y-93788081D01*
X175840038Y-93780849D01*
X175820632Y-93771670D01*
X175802219Y-93760634D01*
X175784976Y-93747846D01*
X175769070Y-93733430D01*
X175754654Y-93717524D01*
X175741866Y-93700281D01*
X175730830Y-93681868D01*
X175721651Y-93662462D01*
X175714419Y-93642250D01*
X175709203Y-93621426D01*
X175706053Y-93600191D01*
X175705000Y-93578750D01*
X175705000Y-93141250D01*
X175706053Y-93119809D01*
X175709203Y-93098574D01*
X175714419Y-93077750D01*
X175721651Y-93057538D01*
X175730830Y-93038132D01*
X175741866Y-93019719D01*
X175754654Y-93002476D01*
X175769070Y-92986570D01*
X175784976Y-92972154D01*
X175802219Y-92959366D01*
X175820632Y-92948330D01*
X175840038Y-92939151D01*
X175860250Y-92931919D01*
X175881074Y-92926703D01*
X175902309Y-92923553D01*
X175923750Y-92922500D01*
X176436250Y-92922500D01*
X176457691Y-92923553D01*
X176457691Y-92923553D01*
G37*
D15*
X176180000Y-93360000D03*
D12*
X174000000Y-62000000D03*
D11*
X174000000Y-64540000D03*
X174000000Y-67080000D03*
X174000000Y-69620000D03*
X174000000Y-72160000D03*
X179080000Y-72160000D03*
X179080000Y-69620000D03*
X179080000Y-67080000D03*
X179080000Y-64540000D03*
X179080000Y-62000000D03*
X187080000Y-62000000D03*
X187080000Y-64540000D03*
X187080000Y-67080000D03*
X187080000Y-69620000D03*
X187080000Y-72160000D03*
X182000000Y-72160000D03*
X182000000Y-69620000D03*
X182000000Y-67080000D03*
X182000000Y-64540000D03*
D12*
X182000000Y-62000000D03*
X190000000Y-62000000D03*
D11*
X190000000Y-64540000D03*
X190000000Y-67080000D03*
X190000000Y-69620000D03*
X190000000Y-72160000D03*
X195080000Y-72160000D03*
X195080000Y-69620000D03*
X195080000Y-67080000D03*
X195080000Y-64540000D03*
X195080000Y-62000000D03*
X203080000Y-62000000D03*
X203080000Y-64540000D03*
X203080000Y-67080000D03*
X203080000Y-69620000D03*
X203080000Y-72160000D03*
X198000000Y-72160000D03*
X198000000Y-69620000D03*
X198000000Y-67080000D03*
X198000000Y-64540000D03*
D12*
X198000000Y-62000000D03*
X206000000Y-62000000D03*
D11*
X206000000Y-64540000D03*
X206000000Y-67080000D03*
X206000000Y-69620000D03*
X206000000Y-72160000D03*
X211080000Y-72160000D03*
X211080000Y-69620000D03*
X211080000Y-67080000D03*
X211080000Y-64540000D03*
X211080000Y-62000000D03*
X219080000Y-62000000D03*
X219080000Y-64540000D03*
X219080000Y-67080000D03*
X219080000Y-69620000D03*
X219080000Y-72160000D03*
X214000000Y-72160000D03*
X214000000Y-69620000D03*
X214000000Y-67080000D03*
X214000000Y-64540000D03*
D12*
X214000000Y-62000000D03*
X222000000Y-62000000D03*
D11*
X222000000Y-64540000D03*
X222000000Y-67080000D03*
X222000000Y-69620000D03*
X222000000Y-72160000D03*
X227080000Y-72160000D03*
X227080000Y-69620000D03*
X227080000Y-67080000D03*
X227080000Y-64540000D03*
X227080000Y-62000000D03*
X235080000Y-62000000D03*
X235080000Y-64540000D03*
X235080000Y-67080000D03*
X235080000Y-69620000D03*
X235080000Y-72160000D03*
X230000000Y-72160000D03*
X230000000Y-69620000D03*
X230000000Y-67080000D03*
X230000000Y-64540000D03*
D12*
X230000000Y-62000000D03*
X174000000Y-75000000D03*
D11*
X174000000Y-77540000D03*
X174000000Y-80080000D03*
X174000000Y-82620000D03*
X174000000Y-85160000D03*
X179080000Y-85160000D03*
X179080000Y-82620000D03*
X179080000Y-80080000D03*
X179080000Y-77540000D03*
X179080000Y-75000000D03*
D12*
X190000000Y-75000000D03*
D11*
X190000000Y-77540000D03*
X190000000Y-80080000D03*
X190000000Y-82620000D03*
X190000000Y-85160000D03*
X195080000Y-85160000D03*
X195080000Y-82620000D03*
X195080000Y-80080000D03*
X195080000Y-77540000D03*
X195080000Y-75000000D03*
X203080000Y-75000000D03*
X203080000Y-77540000D03*
X203080000Y-80080000D03*
X203080000Y-82620000D03*
X203080000Y-85160000D03*
X198000000Y-85160000D03*
X198000000Y-82620000D03*
X198000000Y-80080000D03*
X198000000Y-77540000D03*
D12*
X198000000Y-75000000D03*
X206000000Y-75000000D03*
D11*
X206000000Y-77540000D03*
X206000000Y-80080000D03*
X206000000Y-82620000D03*
X206000000Y-85160000D03*
X211080000Y-85160000D03*
X211080000Y-82620000D03*
X211080000Y-80080000D03*
X211080000Y-77540000D03*
X211080000Y-75000000D03*
X219080000Y-75000000D03*
X219080000Y-77540000D03*
X219080000Y-80080000D03*
X219080000Y-82620000D03*
X219080000Y-85160000D03*
X214000000Y-85160000D03*
X214000000Y-82620000D03*
X214000000Y-80080000D03*
X214000000Y-77540000D03*
D12*
X214000000Y-75000000D03*
X222000000Y-75000000D03*
D11*
X222000000Y-77540000D03*
X222000000Y-80080000D03*
X222000000Y-82620000D03*
X222000000Y-85160000D03*
X227080000Y-85160000D03*
X227080000Y-82620000D03*
X227080000Y-80080000D03*
X227080000Y-77540000D03*
X227080000Y-75000000D03*
X235080000Y-75000000D03*
X235080000Y-77540000D03*
X235080000Y-80080000D03*
X235080000Y-82620000D03*
X235080000Y-85160000D03*
X230000000Y-85160000D03*
X230000000Y-82620000D03*
X230000000Y-80080000D03*
X230000000Y-77540000D03*
D12*
X230000000Y-75000000D03*
D14*
G36*
X185764505Y-96826204D02*
G01*
X185788773Y-96829804D01*
X185812572Y-96835765D01*
X185835671Y-96844030D01*
X185857850Y-96854520D01*
X185878893Y-96867132D01*
X185898599Y-96881747D01*
X185916777Y-96898223D01*
X185933253Y-96916401D01*
X185947868Y-96936107D01*
X185960480Y-96957150D01*
X185970970Y-96979329D01*
X185979235Y-97002428D01*
X185985196Y-97026227D01*
X185988796Y-97050495D01*
X185990000Y-97074999D01*
X185990000Y-98925001D01*
X185988796Y-98949505D01*
X185985196Y-98973773D01*
X185979235Y-98997572D01*
X185970970Y-99020671D01*
X185960480Y-99042850D01*
X185947868Y-99063893D01*
X185933253Y-99083599D01*
X185916777Y-99101777D01*
X185898599Y-99118253D01*
X185878893Y-99132868D01*
X185857850Y-99145480D01*
X185835671Y-99155970D01*
X185812572Y-99164235D01*
X185788773Y-99170196D01*
X185764505Y-99173796D01*
X185740001Y-99175000D01*
X184914999Y-99175000D01*
X184890495Y-99173796D01*
X184866227Y-99170196D01*
X184842428Y-99164235D01*
X184819329Y-99155970D01*
X184797150Y-99145480D01*
X184776107Y-99132868D01*
X184756401Y-99118253D01*
X184738223Y-99101777D01*
X184721747Y-99083599D01*
X184707132Y-99063893D01*
X184694520Y-99042850D01*
X184684030Y-99020671D01*
X184675765Y-98997572D01*
X184669804Y-98973773D01*
X184666204Y-98949505D01*
X184665000Y-98925001D01*
X184665000Y-97074999D01*
X184666204Y-97050495D01*
X184669804Y-97026227D01*
X184675765Y-97002428D01*
X184684030Y-96979329D01*
X184694520Y-96957150D01*
X184707132Y-96936107D01*
X184721747Y-96916401D01*
X184738223Y-96898223D01*
X184756401Y-96881747D01*
X184776107Y-96867132D01*
X184797150Y-96854520D01*
X184819329Y-96844030D01*
X184842428Y-96835765D01*
X184866227Y-96829804D01*
X184890495Y-96826204D01*
X184914999Y-96825000D01*
X185740001Y-96825000D01*
X185764505Y-96826204D01*
X185764505Y-96826204D01*
G37*
D18*
X185327500Y-98000000D03*
D14*
G36*
X182689505Y-96826204D02*
G01*
X182713773Y-96829804D01*
X182737572Y-96835765D01*
X182760671Y-96844030D01*
X182782850Y-96854520D01*
X182803893Y-96867132D01*
X182823599Y-96881747D01*
X182841777Y-96898223D01*
X182858253Y-96916401D01*
X182872868Y-96936107D01*
X182885480Y-96957150D01*
X182895970Y-96979329D01*
X182904235Y-97002428D01*
X182910196Y-97026227D01*
X182913796Y-97050495D01*
X182915000Y-97074999D01*
X182915000Y-98925001D01*
X182913796Y-98949505D01*
X182910196Y-98973773D01*
X182904235Y-98997572D01*
X182895970Y-99020671D01*
X182885480Y-99042850D01*
X182872868Y-99063893D01*
X182858253Y-99083599D01*
X182841777Y-99101777D01*
X182823599Y-99118253D01*
X182803893Y-99132868D01*
X182782850Y-99145480D01*
X182760671Y-99155970D01*
X182737572Y-99164235D01*
X182713773Y-99170196D01*
X182689505Y-99173796D01*
X182665001Y-99175000D01*
X181839999Y-99175000D01*
X181815495Y-99173796D01*
X181791227Y-99170196D01*
X181767428Y-99164235D01*
X181744329Y-99155970D01*
X181722150Y-99145480D01*
X181701107Y-99132868D01*
X181681401Y-99118253D01*
X181663223Y-99101777D01*
X181646747Y-99083599D01*
X181632132Y-99063893D01*
X181619520Y-99042850D01*
X181609030Y-99020671D01*
X181600765Y-98997572D01*
X181594804Y-98973773D01*
X181591204Y-98949505D01*
X181590000Y-98925001D01*
X181590000Y-97074999D01*
X181591204Y-97050495D01*
X181594804Y-97026227D01*
X181600765Y-97002428D01*
X181609030Y-96979329D01*
X181619520Y-96957150D01*
X181632132Y-96936107D01*
X181646747Y-96916401D01*
X181663223Y-96898223D01*
X181681401Y-96881747D01*
X181701107Y-96867132D01*
X181722150Y-96854520D01*
X181744329Y-96844030D01*
X181767428Y-96835765D01*
X181791227Y-96829804D01*
X181815495Y-96826204D01*
X181839999Y-96825000D01*
X182665001Y-96825000D01*
X182689505Y-96826204D01*
X182689505Y-96826204D01*
G37*
D18*
X182252500Y-98000000D03*
D19*
X178499000Y-90630000D03*
X182220000Y-90560000D03*
X183610000Y-94350000D03*
X185330000Y-89800000D03*
X185330000Y-91800000D03*
X194790000Y-91490000D03*
X197300000Y-91320000D03*
X221060000Y-96610000D03*
X212210000Y-88400000D03*
X206180000Y-87740000D03*
X182810000Y-59810000D03*
X179630000Y-59560000D03*
X187650000Y-59860000D03*
X196170000Y-60000000D03*
X201030000Y-61370000D03*
X209000000Y-61800000D03*
X175275000Y-90750000D03*
X176725000Y-90660000D03*
X182360000Y-87099999D03*
X196460000Y-85860000D03*
X191180000Y-85994998D03*
X188486616Y-85837394D03*
X182899999Y-86560000D03*
X187440000Y-89920000D03*
X223798487Y-95665000D03*
X223775000Y-92700031D03*
X233414998Y-77540000D03*
X187450000Y-94050000D03*
X232545011Y-79390001D03*
X188710000Y-89940000D03*
X226791519Y-92757535D03*
X226754913Y-89764137D03*
X175850001Y-82220000D03*
X190000000Y-90000000D03*
X175430000Y-85140000D03*
X188710000Y-94040000D03*
X221890000Y-93960000D03*
X222000000Y-88710000D03*
X177730000Y-82620000D03*
X191250000Y-90030000D03*
X225989032Y-93490000D03*
X225990000Y-89120000D03*
X177229999Y-80769999D03*
X192530000Y-89970000D03*
X224517719Y-94940000D03*
X224520000Y-88810000D03*
X176779989Y-78229999D03*
X223050000Y-88880000D03*
X223060000Y-96390000D03*
X176329979Y-75689999D03*
X193528200Y-90030001D03*
X212330000Y-97280020D03*
X198875000Y-96507500D03*
X207960000Y-96555020D03*
X200145000Y-96507500D03*
X186455001Y-93314999D03*
X186390000Y-88250000D03*
X195790000Y-89120000D03*
X194340000Y-89220000D03*
D20*
X185319999Y-93314999D02*
X183790000Y-91785000D01*
X176000000Y-91605000D02*
X176180000Y-91785000D01*
X176000000Y-89000000D02*
X176000000Y-91605000D01*
X176180000Y-91785000D02*
X177702000Y-91785000D01*
X182268000Y-91785000D02*
X183790000Y-91785000D01*
X177702000Y-91427000D02*
X178499000Y-90630000D01*
X177702000Y-91785000D02*
X177702000Y-91427000D01*
X182220000Y-91737000D02*
X182268000Y-91785000D01*
X182220000Y-90560000D02*
X182220000Y-91737000D01*
X189985000Y-95680000D02*
X189985000Y-96480000D01*
X185319999Y-95540001D02*
X185319999Y-93314999D01*
X185327500Y-95547502D02*
X185327500Y-98000000D01*
X185319999Y-95540001D02*
X185327500Y-95547502D01*
X189985000Y-97045000D02*
X189985000Y-96507500D01*
X189030000Y-98000000D02*
X189985000Y-97045000D01*
X185327500Y-98000000D02*
X189030000Y-98000000D01*
X183790000Y-93360000D02*
X182268000Y-93360000D01*
X182268000Y-93360000D02*
X180746000Y-93360000D01*
X180746000Y-93360000D02*
X179224000Y-93360000D01*
X183610000Y-93540000D02*
X183790000Y-93360000D01*
X183610000Y-94350000D02*
X183610000Y-93540000D01*
X184530000Y-89000000D02*
X185330000Y-89800000D01*
X183620000Y-89000000D02*
X184530000Y-89000000D01*
X194480000Y-91800000D02*
X194790000Y-91490000D01*
X185330000Y-91800000D02*
X194480000Y-91800000D01*
X197300000Y-88565000D02*
X197605000Y-88260000D01*
X197300000Y-91320000D02*
X197300000Y-88565000D01*
X180746000Y-89334000D02*
X181080000Y-89000000D01*
X180746000Y-91785000D02*
X180746000Y-89334000D01*
X180284388Y-92246612D02*
X180746000Y-91785000D01*
X179933510Y-92597490D02*
X180284388Y-92246612D01*
X178464510Y-92597490D02*
X179933510Y-92597490D01*
X177702000Y-93360000D02*
X178464510Y-92597490D01*
X183488003Y-90755001D02*
X181733002Y-89000000D01*
X194008001Y-90755001D02*
X183488003Y-90755001D01*
X195065000Y-89698002D02*
X194008001Y-90755001D01*
X181733002Y-89000000D02*
X181080000Y-89000000D01*
X195065000Y-88260000D02*
X195065000Y-89698002D01*
X179224000Y-89684000D02*
X178540000Y-89000000D01*
X179224000Y-91785000D02*
X179224000Y-89684000D01*
X175275000Y-92455000D02*
X175275000Y-90750000D01*
X176180000Y-93360000D02*
X175275000Y-92455000D01*
X178385000Y-89000000D02*
X178540000Y-89000000D01*
X176725000Y-90660000D02*
X178385000Y-89000000D01*
X196335000Y-86839832D02*
X196403494Y-86771338D01*
X196335000Y-88260000D02*
X196335000Y-86839832D01*
X182724988Y-86735011D02*
X182360000Y-87099999D01*
X182899999Y-86560000D02*
X182724988Y-86735011D01*
X196335000Y-85985000D02*
X196460000Y-85860000D01*
X196335000Y-87432500D02*
X196335000Y-85985000D01*
X189459999Y-84034999D02*
X188874999Y-84619999D01*
X190540001Y-84034999D02*
X189459999Y-84034999D01*
X191180000Y-84674998D02*
X190540001Y-84034999D01*
X188874999Y-84619999D02*
X188874999Y-85365001D01*
X191180000Y-85994998D02*
X191180000Y-84674998D01*
X188874999Y-85449011D02*
X188486616Y-85837394D01*
X188874999Y-85365001D02*
X188874999Y-85449011D01*
X178875060Y-58174940D02*
X175050000Y-62000000D01*
X175050000Y-62000000D02*
X174000000Y-62000000D01*
X191255000Y-95680000D02*
X191255000Y-96480000D01*
X180810000Y-58299880D02*
X180685060Y-58174940D01*
X180810000Y-70430000D02*
X180810000Y-58299880D01*
X180685060Y-58174940D02*
X178875060Y-58174940D01*
X179080000Y-72160000D02*
X180810000Y-70430000D01*
X191255000Y-97045000D02*
X191255000Y-96507500D01*
X194465065Y-100255065D02*
X191255000Y-97045000D01*
X236101992Y-58174940D02*
X239355066Y-61428014D01*
X239355066Y-61428014D02*
X239355067Y-87004797D01*
X226104807Y-100255065D02*
X194465065Y-100255065D01*
X239355067Y-87004797D02*
X226104807Y-100255065D01*
X180685060Y-58174940D02*
X236101992Y-58174940D01*
X187445000Y-89915000D02*
X187440000Y-89920000D01*
X187445000Y-88260000D02*
X187445000Y-89915000D01*
X223775000Y-95641513D02*
X223798487Y-95665000D01*
X223775000Y-92700031D02*
X223775000Y-95641513D01*
X233414998Y-67954998D02*
X230000000Y-64540000D01*
X233414998Y-77540000D02*
X233414998Y-67954998D01*
X187445000Y-94055000D02*
X187450000Y-94050000D01*
X187445000Y-95680000D02*
X187445000Y-94055000D01*
X232545011Y-69625011D02*
X230000000Y-67080000D01*
X232545011Y-79390001D02*
X232545011Y-69625011D01*
X188715000Y-89935000D02*
X188710000Y-89940000D01*
X188715000Y-88260000D02*
X188715000Y-89935000D01*
X226754913Y-92720929D02*
X226791519Y-92757535D01*
X226754913Y-89764137D02*
X226754913Y-92720929D01*
X175575011Y-71195011D02*
X174799999Y-70419999D01*
X174799999Y-70419999D02*
X174000000Y-69620000D01*
X175575011Y-81379325D02*
X175575011Y-71195011D01*
X175850001Y-81654315D02*
X175575011Y-81379325D01*
X175850001Y-82220000D02*
X175850001Y-81654315D01*
X190000000Y-88275000D02*
X189985000Y-88260000D01*
X190000000Y-90000000D02*
X190000000Y-88275000D01*
X175125001Y-73285001D02*
X174000000Y-72160000D01*
X175125001Y-84269316D02*
X175125001Y-73285001D01*
X175430000Y-84574315D02*
X175125001Y-84269316D01*
X175430000Y-85140000D02*
X175430000Y-84574315D01*
X188715000Y-94045000D02*
X188710000Y-94040000D01*
X188715000Y-95680000D02*
X188715000Y-94045000D01*
X221890000Y-88820000D02*
X222000000Y-88710000D01*
X221890000Y-93960000D02*
X221890000Y-88820000D01*
X177730000Y-82054315D02*
X177954999Y-81829316D01*
X177730000Y-82620000D02*
X177730000Y-82054315D01*
X177954999Y-70745001D02*
X179080000Y-69620000D01*
X177954999Y-81829316D02*
X177954999Y-70745001D01*
X191255000Y-90025000D02*
X191250000Y-90030000D01*
X191255000Y-88260000D02*
X191255000Y-90025000D01*
X225990000Y-93489032D02*
X225989032Y-93490000D01*
X225990000Y-89120000D02*
X225990000Y-93489032D01*
X177504989Y-68655011D02*
X179080000Y-67080000D01*
X177504989Y-79929324D02*
X177504989Y-68655011D01*
X177229999Y-80204314D02*
X177504989Y-79929324D01*
X177229999Y-80769999D02*
X177229999Y-80204314D01*
X192525000Y-89965000D02*
X192530000Y-89970000D01*
X192525000Y-88260000D02*
X192525000Y-89965000D01*
X224520000Y-94937719D02*
X224517719Y-94940000D01*
X224520000Y-88810000D02*
X224520000Y-94937719D01*
X177054979Y-77145021D02*
X177054979Y-66565021D01*
X177054979Y-66565021D02*
X179080000Y-64540000D01*
X176779989Y-77420011D02*
X177054979Y-77145021D01*
X176779989Y-78229999D02*
X176779989Y-77420011D01*
X223050000Y-96380000D02*
X223060000Y-96390000D01*
X223050000Y-88880000D02*
X223050000Y-96380000D01*
X176329979Y-75689999D02*
X176329979Y-75034990D01*
X178280001Y-62799999D02*
X179080000Y-62000000D01*
X176604969Y-64475031D02*
X178280001Y-62799999D01*
X176604969Y-74760000D02*
X176604969Y-64475031D01*
X176329979Y-75034990D02*
X176604969Y-74760000D01*
X193795000Y-88520000D02*
X193695000Y-88620000D01*
X193795000Y-87432500D02*
X193795000Y-88520000D01*
X193695000Y-88620000D02*
X193230000Y-88620000D01*
X193230000Y-89731801D02*
X193528200Y-90030001D01*
X193230000Y-88620000D02*
X193230000Y-89731801D01*
X185954999Y-71034999D02*
X186280001Y-71360001D01*
X183050000Y-62000000D02*
X185954999Y-64904999D01*
X186280001Y-71360001D02*
X187080000Y-72160000D01*
X185954999Y-64904999D02*
X185954999Y-71034999D01*
X183050000Y-62000000D02*
X182000000Y-62000000D01*
X192525000Y-95680000D02*
X192525000Y-96480000D01*
X192525000Y-97045000D02*
X192525000Y-96507500D01*
X195285057Y-99805057D02*
X192525000Y-97045000D01*
X225918406Y-99805056D02*
X195285057Y-99805057D01*
X238905058Y-86818398D02*
X225918406Y-99805056D01*
X186425050Y-58624950D02*
X235915592Y-58624950D01*
X235915592Y-58624950D02*
X238905057Y-61614415D01*
X238905057Y-61614415D02*
X238905058Y-86818398D01*
X183050000Y-62000000D02*
X186425050Y-58624950D01*
X193954999Y-71034999D02*
X194280001Y-71360001D01*
X194280001Y-71360001D02*
X195080000Y-72160000D01*
X193954999Y-64904999D02*
X193954999Y-71034999D01*
X191050000Y-62000000D02*
X193954999Y-64904999D01*
X191050000Y-62000000D02*
X190000000Y-62000000D01*
X193795000Y-95680000D02*
X193795000Y-96480000D01*
X196105048Y-99355048D02*
X193795000Y-97045000D01*
X225732005Y-99355047D02*
X196105048Y-99355048D01*
X238455048Y-61800816D02*
X238455049Y-86631999D01*
X235729192Y-59074960D02*
X238455048Y-61800816D01*
X193795000Y-97045000D02*
X193795000Y-96507500D01*
X238455049Y-86631999D02*
X225732005Y-99355047D01*
X193975040Y-59074960D02*
X235729192Y-59074960D01*
X191050000Y-62000000D02*
X193975040Y-59074960D01*
X202280001Y-71360001D02*
X203080000Y-72160000D01*
X201954999Y-64904999D02*
X201954999Y-71034999D01*
X199050000Y-62000000D02*
X201954999Y-64904999D01*
X201954999Y-71034999D02*
X202280001Y-71360001D01*
X199050000Y-62000000D02*
X198000000Y-62000000D01*
X195065000Y-95680000D02*
X195065000Y-96480000D01*
X225545604Y-98905038D02*
X196925038Y-98905038D01*
X238005040Y-86445600D02*
X225545604Y-98905038D01*
X235542792Y-59524970D02*
X238005039Y-61987217D01*
X196925038Y-98905038D02*
X195065000Y-97045000D01*
X238005039Y-61987217D02*
X238005040Y-86445600D01*
X195065000Y-97045000D02*
X195065000Y-96507500D01*
X201525030Y-59524970D02*
X235542792Y-59524970D01*
X199050000Y-62000000D02*
X201525030Y-59524970D01*
X210280001Y-71360001D02*
X211080000Y-72160000D01*
X209954999Y-71034999D02*
X210280001Y-71360001D01*
X207050000Y-62000000D02*
X209954999Y-64904999D01*
X209954999Y-64904999D02*
X209954999Y-71034999D01*
X207050000Y-62000000D02*
X206000000Y-62000000D01*
X196335000Y-95680000D02*
X196335000Y-96480000D01*
X196335000Y-97045000D02*
X196335000Y-96507500D01*
X197745029Y-98455029D02*
X196335000Y-97045000D01*
X225359203Y-98455029D02*
X197745029Y-98455029D01*
X237555031Y-86259201D02*
X225359203Y-98455029D01*
X237555030Y-62173618D02*
X237555031Y-86259201D01*
X209075020Y-59974980D02*
X235356392Y-59974980D01*
X235356392Y-59974980D02*
X237555030Y-62173618D01*
X207050000Y-62000000D02*
X209075020Y-59974980D01*
X218280001Y-71360001D02*
X219080000Y-72160000D01*
X216860000Y-63810000D02*
X216860000Y-69940000D01*
X216860000Y-69940000D02*
X218280001Y-71360001D01*
X215050000Y-62000000D02*
X216860000Y-63810000D01*
X215050000Y-62000000D02*
X214000000Y-62000000D01*
X197605000Y-95680000D02*
X197605000Y-96480000D01*
X198565020Y-98005020D02*
X197605000Y-97045000D01*
X225172802Y-98005020D02*
X198565020Y-98005020D01*
X237105021Y-86072801D02*
X225172802Y-98005020D01*
X228753598Y-60424990D02*
X235169992Y-60424990D01*
X235169992Y-60424990D02*
X237105021Y-62360019D01*
X216175001Y-60874999D02*
X224289997Y-60874999D01*
X227620001Y-63125001D02*
X228205001Y-62540001D01*
X228205001Y-60973587D02*
X228753598Y-60424990D01*
X197605000Y-97045000D02*
X197605000Y-96507500D01*
X224289997Y-60874999D02*
X226539999Y-63125001D01*
X228205001Y-62540001D02*
X228205001Y-60973587D01*
X226539999Y-63125001D02*
X227620001Y-63125001D01*
X237105021Y-62360019D02*
X237105021Y-86072801D01*
X215050000Y-62000000D02*
X216175001Y-60874999D01*
X225954999Y-71034999D02*
X226280001Y-71360001D01*
X223050000Y-62000000D02*
X225954999Y-64904999D01*
X226280001Y-71360001D02*
X227080000Y-72160000D01*
X222000000Y-62000000D02*
X223050000Y-62000000D01*
X227879999Y-71360001D02*
X227080000Y-72160000D01*
X228874999Y-63060001D02*
X228939999Y-63125001D01*
X228874999Y-60939999D02*
X228874999Y-63060001D01*
X228939999Y-60874999D02*
X228874999Y-60939999D01*
X233600001Y-63414999D02*
X231060001Y-60874999D01*
X231060001Y-60874999D02*
X228939999Y-60874999D01*
X235620001Y-63414999D02*
X233600001Y-63414999D01*
X236655011Y-85886401D02*
X236655011Y-64450009D01*
X224986401Y-97555011D02*
X236655011Y-85886401D01*
X236655011Y-64450009D02*
X235620001Y-63414999D01*
X198875000Y-95680000D02*
X198875000Y-96480000D01*
X227600001Y-65685001D02*
X225954999Y-65685001D01*
X228874999Y-64410003D02*
X227600001Y-65685001D01*
X228874999Y-63060001D02*
X228874999Y-64410003D01*
X225954999Y-65685001D02*
X225954999Y-71034999D01*
X225954999Y-64904999D02*
X225954999Y-65685001D01*
X212604991Y-97555011D02*
X212330000Y-97280020D01*
X224986401Y-97555011D02*
X212604991Y-97555011D01*
X234280001Y-71360001D02*
X235080000Y-72160000D01*
X233954999Y-71034999D02*
X234280001Y-71360001D01*
X233954999Y-64904999D02*
X233954999Y-71034999D01*
X231050000Y-62000000D02*
X233954999Y-64904999D01*
X230000000Y-62000000D02*
X231050000Y-62000000D01*
X236205001Y-73285001D02*
X235879999Y-72959999D01*
X235879999Y-72959999D02*
X235080000Y-72160000D01*
X219646390Y-87620020D02*
X234284982Y-87620020D01*
X210161409Y-97105001D02*
X219646390Y-87620020D01*
X236205001Y-85700001D02*
X236205001Y-73285001D01*
X234284982Y-87620020D02*
X236205001Y-85700001D01*
X200145000Y-95680000D02*
X200145000Y-96480000D01*
X208509981Y-97105001D02*
X207960000Y-96555020D01*
X210161409Y-97105001D02*
X208509981Y-97105001D01*
X201415000Y-95680000D02*
X201415000Y-94880000D01*
X177954999Y-86285001D02*
X178280001Y-85959999D01*
X172874999Y-85700001D02*
X173459999Y-86285001D01*
X172874999Y-75075001D02*
X172874999Y-85700001D01*
X178280001Y-85959999D02*
X179080000Y-85160000D01*
X172950000Y-75000000D02*
X172874999Y-75075001D01*
X173459999Y-86285001D02*
X177954999Y-86285001D01*
X174000000Y-75000000D02*
X172950000Y-75000000D01*
X199849999Y-93314999D02*
X186455001Y-93314999D01*
X201415000Y-94880000D02*
X199849999Y-93314999D01*
X179879999Y-85959999D02*
X179080000Y-85160000D01*
X181744999Y-87824999D02*
X179879999Y-85959999D01*
X185964999Y-87824999D02*
X181744999Y-87824999D01*
X186390000Y-88250000D02*
X185964999Y-87824999D01*
X185954999Y-84034999D02*
X186280001Y-84360001D01*
X185954999Y-77904999D02*
X185954999Y-84034999D01*
X186280001Y-84360001D02*
X187080000Y-85160000D01*
X183050000Y-75000000D02*
X185954999Y-77904999D01*
X182000000Y-75000000D02*
X183050000Y-75000000D01*
X202685000Y-94880000D02*
X202685000Y-95680000D01*
X202685000Y-94880000D02*
X200595000Y-92790000D01*
X200595000Y-92790000D02*
X196300000Y-92790000D01*
X195690001Y-92180001D02*
X195690001Y-89310001D01*
X196300000Y-92790000D02*
X195690001Y-92180001D01*
X195690001Y-89310001D02*
X195690001Y-89600003D01*
X188240000Y-84000000D02*
X187080000Y-85160000D01*
X194539999Y-86285001D02*
X192254998Y-84000000D01*
X188240000Y-82714998D02*
X188240000Y-84000000D01*
X190540001Y-81494999D02*
X189459999Y-81494999D01*
X192254998Y-83209996D02*
X190540001Y-81494999D01*
X189459999Y-81494999D02*
X188240000Y-82714998D01*
X192254998Y-84000000D02*
X192254998Y-83209996D01*
X195690001Y-89219999D02*
X195790000Y-89120000D01*
X195690001Y-89310001D02*
X195690001Y-89219999D01*
X194420001Y-86404999D02*
X194539999Y-86285001D01*
X194420001Y-88530001D02*
X194420001Y-86404999D01*
X194340000Y-88610002D02*
X194420001Y-88530001D01*
X194340000Y-89220000D02*
X194340000Y-88610002D01*
X194280001Y-84360001D02*
X195080000Y-85160000D01*
X193954999Y-84034999D02*
X194280001Y-84360001D01*
X193954999Y-77904999D02*
X193954999Y-84034999D01*
X191050000Y-75000000D02*
X193954999Y-77904999D01*
X190000000Y-75000000D02*
X191050000Y-75000000D01*
X198540001Y-84034999D02*
X199125001Y-84619999D01*
X196205001Y-84034999D02*
X198540001Y-84034999D01*
X195080000Y-85160000D02*
X196205001Y-84034999D01*
X198249999Y-89620001D02*
X198249999Y-86310001D01*
X202884997Y-94254999D02*
X198249999Y-89620001D01*
X203955000Y-94880000D02*
X203329999Y-94254999D01*
X198249999Y-86310001D02*
X198300000Y-86260000D01*
X203955000Y-95680000D02*
X203955000Y-94880000D01*
X203329999Y-94254999D02*
X202884997Y-94254999D01*
X198740000Y-86260000D02*
X199125001Y-85874999D01*
X198300000Y-86260000D02*
X198740000Y-86260000D01*
X199125001Y-85874999D02*
X199125001Y-86044995D01*
X199125001Y-84619999D02*
X199125001Y-85874999D01*
X202280001Y-84360001D02*
X203080000Y-85160000D01*
X201954999Y-84034999D02*
X202280001Y-84360001D01*
X199050000Y-75000000D02*
X201954999Y-77904999D01*
X201954999Y-77904999D02*
X201954999Y-84034999D01*
X198000000Y-75000000D02*
X199050000Y-75000000D01*
X203955000Y-86035000D02*
X203080000Y-85160000D01*
X203955000Y-88260000D02*
X203955000Y-86035000D01*
X209954999Y-84034999D02*
X210280001Y-84360001D01*
X207050000Y-75000000D02*
X209954999Y-77904999D01*
X209954999Y-77904999D02*
X209954999Y-84034999D01*
X206000000Y-75000000D02*
X207050000Y-75000000D01*
X210280001Y-84360001D02*
X211080000Y-85160000D01*
X210280001Y-85959999D02*
X211080000Y-85160000D01*
X206554999Y-89685001D02*
X210280001Y-85959999D01*
X202760001Y-89685001D02*
X206554999Y-89685001D01*
X202685000Y-89610000D02*
X202760001Y-89685001D01*
X202685000Y-88260000D02*
X202685000Y-89610000D01*
X218280001Y-84360001D02*
X219080000Y-85160000D01*
X217954999Y-84034999D02*
X218280001Y-84360001D01*
X217954999Y-77904999D02*
X217954999Y-84034999D01*
X215050000Y-75000000D02*
X217954999Y-77904999D01*
X214000000Y-75000000D02*
X215050000Y-75000000D01*
X201940011Y-90135011D02*
X214104989Y-90135011D01*
X214104989Y-90135011D02*
X218280001Y-85959999D01*
X201415000Y-89610000D02*
X201940011Y-90135011D01*
X218280001Y-85959999D02*
X219080000Y-85160000D01*
X201415000Y-88260000D02*
X201415000Y-89610000D01*
X225954999Y-84034999D02*
X226280001Y-84360001D01*
X225954999Y-77904999D02*
X225954999Y-84034999D01*
X226280001Y-84360001D02*
X227080000Y-85160000D01*
X223050000Y-75000000D02*
X225954999Y-77904999D01*
X222000000Y-75000000D02*
X223050000Y-75000000D01*
X225520000Y-86720000D02*
X227080000Y-85160000D01*
X215334979Y-90585021D02*
X219200000Y-86720000D01*
X201120021Y-90585021D02*
X215334979Y-90585021D01*
X219200000Y-86720000D02*
X225520000Y-86720000D01*
X200145000Y-89610000D02*
X201120021Y-90585021D01*
X200145000Y-88260000D02*
X200145000Y-89610000D01*
X200850031Y-91035031D02*
X215594969Y-91035031D01*
X198875000Y-89060000D02*
X200850031Y-91035031D01*
X198875000Y-88260000D02*
X198875000Y-89060000D01*
X233069990Y-87170010D02*
X234280001Y-85959999D01*
X234280001Y-85959999D02*
X235080000Y-85160000D01*
X219459990Y-87170010D02*
X233069990Y-87170010D01*
X215594969Y-91035031D02*
X219459990Y-87170010D01*
X233454999Y-84034999D02*
X232480000Y-83060000D01*
X235080000Y-85160000D02*
X233954999Y-84034999D01*
X233954999Y-84034999D02*
X233454999Y-84034999D01*
X232480000Y-83060000D02*
X232480000Y-81470000D01*
X232480000Y-81470000D02*
X231420000Y-80410000D01*
X231050000Y-75000000D02*
X230000000Y-75000000D01*
X231420000Y-75370000D02*
X231050000Y-75000000D01*
X231420000Y-80410000D02*
X231420000Y-75370000D01*
D21*
G36*
X175237563Y-60737636D02*
G01*
X175154494Y-60669463D01*
X175044180Y-60610498D01*
X174924482Y-60574188D01*
X174800000Y-60561928D01*
X173200000Y-60561928D01*
X173075518Y-60574188D01*
X172955820Y-60610498D01*
X172845506Y-60669463D01*
X172748815Y-60748815D01*
X172669463Y-60845506D01*
X172610498Y-60955820D01*
X172574188Y-61075518D01*
X172561928Y-61200000D01*
X172561928Y-62800000D01*
X172574188Y-62924482D01*
X172610498Y-63044180D01*
X172669463Y-63154494D01*
X172748815Y-63251185D01*
X172845506Y-63330537D01*
X172955820Y-63389502D01*
X173075518Y-63425812D01*
X173083961Y-63426643D01*
X172885363Y-63625241D01*
X172728320Y-63860273D01*
X172620147Y-64121426D01*
X172565000Y-64398665D01*
X172565000Y-64681335D01*
X172620147Y-64958574D01*
X172728320Y-65219727D01*
X172885363Y-65454759D01*
X173085241Y-65654637D01*
X173317759Y-65810000D01*
X173085241Y-65965363D01*
X172885363Y-66165241D01*
X172728320Y-66400273D01*
X172620147Y-66661426D01*
X172565000Y-66938665D01*
X172565000Y-67221335D01*
X172620147Y-67498574D01*
X172728320Y-67759727D01*
X172885363Y-67994759D01*
X173085241Y-68194637D01*
X173317759Y-68350000D01*
X173085241Y-68505363D01*
X172885363Y-68705241D01*
X172728320Y-68940273D01*
X172620147Y-69201426D01*
X172565000Y-69478665D01*
X172565000Y-69761335D01*
X172620147Y-70038574D01*
X172728320Y-70299727D01*
X172885363Y-70534759D01*
X173085241Y-70734637D01*
X173317759Y-70890000D01*
X173085241Y-71045363D01*
X172885363Y-71245241D01*
X172728320Y-71480273D01*
X172620147Y-71741426D01*
X172565000Y-72018665D01*
X172565000Y-72301335D01*
X172620147Y-72578574D01*
X172728320Y-72839727D01*
X172885363Y-73074759D01*
X173085241Y-73274637D01*
X173320273Y-73431680D01*
X173581426Y-73539853D01*
X173692403Y-73561928D01*
X173200000Y-73561928D01*
X173075518Y-73574188D01*
X172955820Y-73610498D01*
X172845506Y-73669463D01*
X172748815Y-73748815D01*
X172669463Y-73845506D01*
X172610498Y-73955820D01*
X172574188Y-74075518D01*
X172561928Y-74200000D01*
X172561928Y-74345674D01*
X172525724Y-74365026D01*
X172409999Y-74459999D01*
X172386199Y-74488999D01*
X172363999Y-74511199D01*
X172334998Y-74535000D01*
X172296898Y-74581426D01*
X172240025Y-74650725D01*
X172181616Y-74760000D01*
X172169453Y-74782755D01*
X172125996Y-74926016D01*
X172114999Y-75037669D01*
X172114999Y-75037679D01*
X172111323Y-75075001D01*
X172114999Y-75112323D01*
X172115000Y-85662669D01*
X172111323Y-85700001D01*
X172115000Y-85737333D01*
X172115000Y-85737334D01*
X172125997Y-85848987D01*
X172133368Y-85873286D01*
X172169453Y-85992247D01*
X172240025Y-86124277D01*
X172298075Y-86195010D01*
X172334999Y-86240002D01*
X172363997Y-86263800D01*
X172896199Y-86796003D01*
X172919998Y-86825002D01*
X172948996Y-86848800D01*
X173035722Y-86919975D01*
X173158497Y-86985600D01*
X173167752Y-86990547D01*
X173311013Y-87034004D01*
X173422666Y-87045001D01*
X173422676Y-87045001D01*
X173459999Y-87048677D01*
X173497322Y-87045001D01*
X177917677Y-87045001D01*
X177954999Y-87048677D01*
X177992321Y-87045001D01*
X177992332Y-87045001D01*
X178103985Y-87034004D01*
X178247246Y-86990547D01*
X178379275Y-86919975D01*
X178495000Y-86825002D01*
X178518803Y-86795998D01*
X178756113Y-86558688D01*
X178938665Y-86595000D01*
X179221335Y-86595000D01*
X179403887Y-86558688D01*
X180481357Y-87636158D01*
X180250986Y-87759294D01*
X180024866Y-87944866D01*
X179839294Y-88170986D01*
X179810000Y-88225791D01*
X179780706Y-88170986D01*
X179595134Y-87944866D01*
X179369014Y-87759294D01*
X179111034Y-87621401D01*
X178831111Y-87536487D01*
X178612950Y-87515000D01*
X178467050Y-87515000D01*
X178248889Y-87536487D01*
X177968966Y-87621401D01*
X177710986Y-87759294D01*
X177484866Y-87944866D01*
X177460393Y-87974687D01*
X177439502Y-87905820D01*
X177380537Y-87795506D01*
X177301185Y-87698815D01*
X177204494Y-87619463D01*
X177094180Y-87560498D01*
X176974482Y-87524188D01*
X176850000Y-87511928D01*
X175150000Y-87511928D01*
X175025518Y-87524188D01*
X174905820Y-87560498D01*
X174795506Y-87619463D01*
X174698815Y-87698815D01*
X174619463Y-87795506D01*
X174560498Y-87905820D01*
X174524188Y-88025518D01*
X174511928Y-88150000D01*
X174511928Y-89850000D01*
X174524188Y-89974482D01*
X174538762Y-90022527D01*
X174471063Y-90090226D01*
X174357795Y-90259744D01*
X174279774Y-90448102D01*
X174240000Y-90648061D01*
X174240000Y-90851939D01*
X174279774Y-91051898D01*
X174357795Y-91240256D01*
X174471063Y-91409774D01*
X174515001Y-91453712D01*
X174515000Y-92417677D01*
X174511324Y-92455000D01*
X174515000Y-92492322D01*
X174515000Y-92492332D01*
X174525997Y-92603985D01*
X174560028Y-92716171D01*
X174569454Y-92747246D01*
X174640026Y-92879276D01*
X174677551Y-92925000D01*
X174734999Y-92995001D01*
X174764002Y-93018803D01*
X175066928Y-93321729D01*
X175066928Y-93578750D01*
X175083392Y-93745908D01*
X175132150Y-93906642D01*
X175211329Y-94054775D01*
X175317885Y-94184615D01*
X175447725Y-94291171D01*
X175595858Y-94370350D01*
X175756592Y-94419108D01*
X175923750Y-94435572D01*
X176436250Y-94435572D01*
X176603408Y-94419108D01*
X176764142Y-94370350D01*
X176912275Y-94291171D01*
X176941000Y-94267597D01*
X176969725Y-94291171D01*
X177117858Y-94370350D01*
X177278592Y-94419108D01*
X177445750Y-94435572D01*
X177958250Y-94435572D01*
X178125408Y-94419108D01*
X178286142Y-94370350D01*
X178382988Y-94318585D01*
X178394506Y-94328037D01*
X178504820Y-94387002D01*
X178624518Y-94423312D01*
X178749000Y-94435572D01*
X178938250Y-94432500D01*
X179097000Y-94273750D01*
X179097000Y-93487000D01*
X179351000Y-93487000D01*
X179351000Y-94273750D01*
X179509750Y-94432500D01*
X179699000Y-94435572D01*
X179823482Y-94423312D01*
X179943180Y-94387002D01*
X179985000Y-94364648D01*
X180026820Y-94387002D01*
X180146518Y-94423312D01*
X180271000Y-94435572D01*
X180460250Y-94432500D01*
X180619000Y-94273750D01*
X180619000Y-93487000D01*
X180873000Y-93487000D01*
X180873000Y-94273750D01*
X181031750Y-94432500D01*
X181221000Y-94435572D01*
X181345482Y-94423312D01*
X181465180Y-94387002D01*
X181507000Y-94364648D01*
X181548820Y-94387002D01*
X181668518Y-94423312D01*
X181793000Y-94435572D01*
X181982250Y-94432500D01*
X182141000Y-94273750D01*
X182141000Y-93487000D01*
X182395000Y-93487000D01*
X182395000Y-94273750D01*
X182553750Y-94432500D01*
X182743000Y-94435572D01*
X182867482Y-94423312D01*
X182987180Y-94387002D01*
X183097494Y-94328037D01*
X183194185Y-94248685D01*
X183273537Y-94151994D01*
X183332502Y-94041680D01*
X183368812Y-93921982D01*
X183381072Y-93797500D01*
X183378000Y-93645750D01*
X183219250Y-93487000D01*
X182395000Y-93487000D01*
X182141000Y-93487000D01*
X180873000Y-93487000D01*
X180619000Y-93487000D01*
X179351000Y-93487000D01*
X179097000Y-93487000D01*
X179077000Y-93487000D01*
X179077000Y-93357490D01*
X179896188Y-93357490D01*
X179933510Y-93361166D01*
X179970832Y-93357490D01*
X179970843Y-93357490D01*
X180082496Y-93346493D01*
X180225757Y-93303036D01*
X180356783Y-93233000D01*
X180619000Y-93233000D01*
X180619000Y-93213000D01*
X180873000Y-93213000D01*
X180873000Y-93233000D01*
X182141000Y-93233000D01*
X182141000Y-93213000D01*
X182395000Y-93213000D01*
X182395000Y-93233000D01*
X183219250Y-93233000D01*
X183378000Y-93074250D01*
X183381072Y-92922500D01*
X183368812Y-92798018D01*
X183332502Y-92678320D01*
X183273537Y-92568006D01*
X183254657Y-92545000D01*
X183475199Y-92545000D01*
X184560000Y-93629802D01*
X184559999Y-95502678D01*
X184556323Y-95540001D01*
X184559999Y-95577323D01*
X184559999Y-95577333D01*
X184567500Y-95653492D01*
X184567500Y-96258616D01*
X184421613Y-96336595D01*
X184287038Y-96447038D01*
X184176595Y-96581613D01*
X184094528Y-96735149D01*
X184043992Y-96901745D01*
X184026928Y-97074999D01*
X184026928Y-98925001D01*
X184043992Y-99098255D01*
X184094528Y-99264851D01*
X184176595Y-99418387D01*
X184287038Y-99552962D01*
X184421613Y-99663405D01*
X184575149Y-99745472D01*
X184741745Y-99796008D01*
X184914999Y-99813072D01*
X185740001Y-99813072D01*
X185913255Y-99796008D01*
X186079851Y-99745472D01*
X186233387Y-99663405D01*
X186367962Y-99552962D01*
X186478405Y-99418387D01*
X186560472Y-99264851D01*
X186611008Y-99098255D01*
X186628072Y-98925001D01*
X186628072Y-98760000D01*
X188992678Y-98760000D01*
X189030000Y-98763676D01*
X189067322Y-98760000D01*
X189067333Y-98760000D01*
X189178986Y-98749003D01*
X189322247Y-98705546D01*
X189454276Y-98634974D01*
X189570001Y-98540001D01*
X189593804Y-98510998D01*
X190121730Y-97983072D01*
X190285000Y-97983072D01*
X190409482Y-97970812D01*
X190529180Y-97934502D01*
X190620000Y-97885957D01*
X190710820Y-97934502D01*
X190830518Y-97970812D01*
X190955000Y-97983072D01*
X191118271Y-97983072D01*
X193440197Y-100305000D01*
X181213572Y-100305000D01*
X181213572Y-99687536D01*
X181235506Y-99705537D01*
X181345820Y-99764502D01*
X181465518Y-99800812D01*
X181590000Y-99813072D01*
X181966750Y-99810000D01*
X182125500Y-99651250D01*
X182125500Y-98127000D01*
X182379500Y-98127000D01*
X182379500Y-99651250D01*
X182538250Y-99810000D01*
X182915000Y-99813072D01*
X183039482Y-99800812D01*
X183159180Y-99764502D01*
X183269494Y-99705537D01*
X183366185Y-99626185D01*
X183445537Y-99529494D01*
X183504502Y-99419180D01*
X183540812Y-99299482D01*
X183553072Y-99175000D01*
X183550000Y-98285750D01*
X183391250Y-98127000D01*
X182379500Y-98127000D01*
X182125500Y-98127000D01*
X181113750Y-98127000D01*
X181030750Y-98210000D01*
X175727219Y-98210000D01*
X175735000Y-98170883D01*
X175735000Y-97829117D01*
X175668325Y-97493919D01*
X175537537Y-97178169D01*
X175347663Y-96894002D01*
X175278661Y-96825000D01*
X180951928Y-96825000D01*
X180955000Y-97714250D01*
X181113750Y-97873000D01*
X182125500Y-97873000D01*
X182125500Y-96348750D01*
X182379500Y-96348750D01*
X182379500Y-97873000D01*
X183391250Y-97873000D01*
X183550000Y-97714250D01*
X183553072Y-96825000D01*
X183540812Y-96700518D01*
X183504502Y-96580820D01*
X183445537Y-96470506D01*
X183366185Y-96373815D01*
X183269494Y-96294463D01*
X183159180Y-96235498D01*
X183039482Y-96199188D01*
X182915000Y-96186928D01*
X182538250Y-96190000D01*
X182379500Y-96348750D01*
X182125500Y-96348750D01*
X181966750Y-96190000D01*
X181590000Y-96186928D01*
X181465518Y-96199188D01*
X181345820Y-96235498D01*
X181235506Y-96294463D01*
X181138815Y-96373815D01*
X181059463Y-96470506D01*
X181000498Y-96580820D01*
X180964188Y-96700518D01*
X180951928Y-96825000D01*
X175278661Y-96825000D01*
X175105998Y-96652337D01*
X174821831Y-96462463D01*
X174506081Y-96331675D01*
X174170883Y-96265000D01*
X173829117Y-96265000D01*
X173493919Y-96331675D01*
X173178169Y-96462463D01*
X172894002Y-96652337D01*
X172652337Y-96894002D01*
X172462463Y-97178169D01*
X172331675Y-97493919D01*
X172265000Y-97829117D01*
X172265000Y-98170883D01*
X172331675Y-98506081D01*
X172462463Y-98821831D01*
X172652337Y-99105998D01*
X172894002Y-99347663D01*
X173178169Y-99537537D01*
X173493919Y-99668325D01*
X173829117Y-99735000D01*
X174170883Y-99735000D01*
X174506081Y-99668325D01*
X174786429Y-99552201D01*
X174786429Y-100305000D01*
X174033991Y-100305000D01*
X173552937Y-100257832D01*
X173122903Y-100127997D01*
X172726277Y-99917108D01*
X172378168Y-99633197D01*
X172091830Y-99287074D01*
X171878177Y-98891931D01*
X171745344Y-98462817D01*
X171695000Y-97983824D01*
X171695000Y-60033992D01*
X171742168Y-59552937D01*
X171872003Y-59122903D01*
X172082892Y-58726276D01*
X172366801Y-58378169D01*
X172712923Y-58091831D01*
X173108068Y-57878178D01*
X173537184Y-57745344D01*
X174016176Y-57695000D01*
X178280198Y-57695000D01*
X175237563Y-60737636D01*
X175237563Y-60737636D01*
G37*
X175237563Y-60737636D02*
X175154494Y-60669463D01*
X175044180Y-60610498D01*
X174924482Y-60574188D01*
X174800000Y-60561928D01*
X173200000Y-60561928D01*
X173075518Y-60574188D01*
X172955820Y-60610498D01*
X172845506Y-60669463D01*
X172748815Y-60748815D01*
X172669463Y-60845506D01*
X172610498Y-60955820D01*
X172574188Y-61075518D01*
X172561928Y-61200000D01*
X172561928Y-62800000D01*
X172574188Y-62924482D01*
X172610498Y-63044180D01*
X172669463Y-63154494D01*
X172748815Y-63251185D01*
X172845506Y-63330537D01*
X172955820Y-63389502D01*
X173075518Y-63425812D01*
X173083961Y-63426643D01*
X172885363Y-63625241D01*
X172728320Y-63860273D01*
X172620147Y-64121426D01*
X172565000Y-64398665D01*
X172565000Y-64681335D01*
X172620147Y-64958574D01*
X172728320Y-65219727D01*
X172885363Y-65454759D01*
X173085241Y-65654637D01*
X173317759Y-65810000D01*
X173085241Y-65965363D01*
X172885363Y-66165241D01*
X172728320Y-66400273D01*
X172620147Y-66661426D01*
X172565000Y-66938665D01*
X172565000Y-67221335D01*
X172620147Y-67498574D01*
X172728320Y-67759727D01*
X172885363Y-67994759D01*
X173085241Y-68194637D01*
X173317759Y-68350000D01*
X173085241Y-68505363D01*
X172885363Y-68705241D01*
X172728320Y-68940273D01*
X172620147Y-69201426D01*
X172565000Y-69478665D01*
X172565000Y-69761335D01*
X172620147Y-70038574D01*
X172728320Y-70299727D01*
X172885363Y-70534759D01*
X173085241Y-70734637D01*
X173317759Y-70890000D01*
X173085241Y-71045363D01*
X172885363Y-71245241D01*
X172728320Y-71480273D01*
X172620147Y-71741426D01*
X172565000Y-72018665D01*
X172565000Y-72301335D01*
X172620147Y-72578574D01*
X172728320Y-72839727D01*
X172885363Y-73074759D01*
X173085241Y-73274637D01*
X173320273Y-73431680D01*
X173581426Y-73539853D01*
X173692403Y-73561928D01*
X173200000Y-73561928D01*
X173075518Y-73574188D01*
X172955820Y-73610498D01*
X172845506Y-73669463D01*
X172748815Y-73748815D01*
X172669463Y-73845506D01*
X172610498Y-73955820D01*
X172574188Y-74075518D01*
X172561928Y-74200000D01*
X172561928Y-74345674D01*
X172525724Y-74365026D01*
X172409999Y-74459999D01*
X172386199Y-74488999D01*
X172363999Y-74511199D01*
X172334998Y-74535000D01*
X172296898Y-74581426D01*
X172240025Y-74650725D01*
X172181616Y-74760000D01*
X172169453Y-74782755D01*
X172125996Y-74926016D01*
X172114999Y-75037669D01*
X172114999Y-75037679D01*
X172111323Y-75075001D01*
X172114999Y-75112323D01*
X172115000Y-85662669D01*
X172111323Y-85700001D01*
X172115000Y-85737333D01*
X172115000Y-85737334D01*
X172125997Y-85848987D01*
X172133368Y-85873286D01*
X172169453Y-85992247D01*
X172240025Y-86124277D01*
X172298075Y-86195010D01*
X172334999Y-86240002D01*
X172363997Y-86263800D01*
X172896199Y-86796003D01*
X172919998Y-86825002D01*
X172948996Y-86848800D01*
X173035722Y-86919975D01*
X173158497Y-86985600D01*
X173167752Y-86990547D01*
X173311013Y-87034004D01*
X173422666Y-87045001D01*
X173422676Y-87045001D01*
X173459999Y-87048677D01*
X173497322Y-87045001D01*
X177917677Y-87045001D01*
X177954999Y-87048677D01*
X177992321Y-87045001D01*
X177992332Y-87045001D01*
X178103985Y-87034004D01*
X178247246Y-86990547D01*
X178379275Y-86919975D01*
X178495000Y-86825002D01*
X178518803Y-86795998D01*
X178756113Y-86558688D01*
X178938665Y-86595000D01*
X179221335Y-86595000D01*
X179403887Y-86558688D01*
X180481357Y-87636158D01*
X180250986Y-87759294D01*
X180024866Y-87944866D01*
X179839294Y-88170986D01*
X179810000Y-88225791D01*
X179780706Y-88170986D01*
X179595134Y-87944866D01*
X179369014Y-87759294D01*
X179111034Y-87621401D01*
X178831111Y-87536487D01*
X178612950Y-87515000D01*
X178467050Y-87515000D01*
X178248889Y-87536487D01*
X177968966Y-87621401D01*
X177710986Y-87759294D01*
X177484866Y-87944866D01*
X177460393Y-87974687D01*
X177439502Y-87905820D01*
X177380537Y-87795506D01*
X177301185Y-87698815D01*
X177204494Y-87619463D01*
X177094180Y-87560498D01*
X176974482Y-87524188D01*
X176850000Y-87511928D01*
X175150000Y-87511928D01*
X175025518Y-87524188D01*
X174905820Y-87560498D01*
X174795506Y-87619463D01*
X174698815Y-87698815D01*
X174619463Y-87795506D01*
X174560498Y-87905820D01*
X174524188Y-88025518D01*
X174511928Y-88150000D01*
X174511928Y-89850000D01*
X174524188Y-89974482D01*
X174538762Y-90022527D01*
X174471063Y-90090226D01*
X174357795Y-90259744D01*
X174279774Y-90448102D01*
X174240000Y-90648061D01*
X174240000Y-90851939D01*
X174279774Y-91051898D01*
X174357795Y-91240256D01*
X174471063Y-91409774D01*
X174515001Y-91453712D01*
X174515000Y-92417677D01*
X174511324Y-92455000D01*
X174515000Y-92492322D01*
X174515000Y-92492332D01*
X174525997Y-92603985D01*
X174560028Y-92716171D01*
X174569454Y-92747246D01*
X174640026Y-92879276D01*
X174677551Y-92925000D01*
X174734999Y-92995001D01*
X174764002Y-93018803D01*
X175066928Y-93321729D01*
X175066928Y-93578750D01*
X175083392Y-93745908D01*
X175132150Y-93906642D01*
X175211329Y-94054775D01*
X175317885Y-94184615D01*
X175447725Y-94291171D01*
X175595858Y-94370350D01*
X175756592Y-94419108D01*
X175923750Y-94435572D01*
X176436250Y-94435572D01*
X176603408Y-94419108D01*
X176764142Y-94370350D01*
X176912275Y-94291171D01*
X176941000Y-94267597D01*
X176969725Y-94291171D01*
X177117858Y-94370350D01*
X177278592Y-94419108D01*
X177445750Y-94435572D01*
X177958250Y-94435572D01*
X178125408Y-94419108D01*
X178286142Y-94370350D01*
X178382988Y-94318585D01*
X178394506Y-94328037D01*
X178504820Y-94387002D01*
X178624518Y-94423312D01*
X178749000Y-94435572D01*
X178938250Y-94432500D01*
X179097000Y-94273750D01*
X179097000Y-93487000D01*
X179351000Y-93487000D01*
X179351000Y-94273750D01*
X179509750Y-94432500D01*
X179699000Y-94435572D01*
X179823482Y-94423312D01*
X179943180Y-94387002D01*
X179985000Y-94364648D01*
X180026820Y-94387002D01*
X180146518Y-94423312D01*
X180271000Y-94435572D01*
X180460250Y-94432500D01*
X180619000Y-94273750D01*
X180619000Y-93487000D01*
X180873000Y-93487000D01*
X180873000Y-94273750D01*
X181031750Y-94432500D01*
X181221000Y-94435572D01*
X181345482Y-94423312D01*
X181465180Y-94387002D01*
X181507000Y-94364648D01*
X181548820Y-94387002D01*
X181668518Y-94423312D01*
X181793000Y-94435572D01*
X181982250Y-94432500D01*
X182141000Y-94273750D01*
X182141000Y-93487000D01*
X182395000Y-93487000D01*
X182395000Y-94273750D01*
X182553750Y-94432500D01*
X182743000Y-94435572D01*
X182867482Y-94423312D01*
X182987180Y-94387002D01*
X183097494Y-94328037D01*
X183194185Y-94248685D01*
X183273537Y-94151994D01*
X183332502Y-94041680D01*
X183368812Y-93921982D01*
X183381072Y-93797500D01*
X183378000Y-93645750D01*
X183219250Y-93487000D01*
X182395000Y-93487000D01*
X182141000Y-93487000D01*
X180873000Y-93487000D01*
X180619000Y-93487000D01*
X179351000Y-93487000D01*
X179097000Y-93487000D01*
X179077000Y-93487000D01*
X179077000Y-93357490D01*
X179896188Y-93357490D01*
X179933510Y-93361166D01*
X179970832Y-93357490D01*
X179970843Y-93357490D01*
X180082496Y-93346493D01*
X180225757Y-93303036D01*
X180356783Y-93233000D01*
X180619000Y-93233000D01*
X180619000Y-93213000D01*
X180873000Y-93213000D01*
X180873000Y-93233000D01*
X182141000Y-93233000D01*
X182141000Y-93213000D01*
X182395000Y-93213000D01*
X182395000Y-93233000D01*
X183219250Y-93233000D01*
X183378000Y-93074250D01*
X183381072Y-92922500D01*
X183368812Y-92798018D01*
X183332502Y-92678320D01*
X183273537Y-92568006D01*
X183254657Y-92545000D01*
X183475199Y-92545000D01*
X184560000Y-93629802D01*
X184559999Y-95502678D01*
X184556323Y-95540001D01*
X184559999Y-95577323D01*
X184559999Y-95577333D01*
X184567500Y-95653492D01*
X184567500Y-96258616D01*
X184421613Y-96336595D01*
X184287038Y-96447038D01*
X184176595Y-96581613D01*
X184094528Y-96735149D01*
X184043992Y-96901745D01*
X184026928Y-97074999D01*
X184026928Y-98925001D01*
X184043992Y-99098255D01*
X184094528Y-99264851D01*
X184176595Y-99418387D01*
X184287038Y-99552962D01*
X184421613Y-99663405D01*
X184575149Y-99745472D01*
X184741745Y-99796008D01*
X184914999Y-99813072D01*
X185740001Y-99813072D01*
X185913255Y-99796008D01*
X186079851Y-99745472D01*
X186233387Y-99663405D01*
X186367962Y-99552962D01*
X186478405Y-99418387D01*
X186560472Y-99264851D01*
X186611008Y-99098255D01*
X186628072Y-98925001D01*
X186628072Y-98760000D01*
X188992678Y-98760000D01*
X189030000Y-98763676D01*
X189067322Y-98760000D01*
X189067333Y-98760000D01*
X189178986Y-98749003D01*
X189322247Y-98705546D01*
X189454276Y-98634974D01*
X189570001Y-98540001D01*
X189593804Y-98510998D01*
X190121730Y-97983072D01*
X190285000Y-97983072D01*
X190409482Y-97970812D01*
X190529180Y-97934502D01*
X190620000Y-97885957D01*
X190710820Y-97934502D01*
X190830518Y-97970812D01*
X190955000Y-97983072D01*
X191118271Y-97983072D01*
X193440197Y-100305000D01*
X181213572Y-100305000D01*
X181213572Y-99687536D01*
X181235506Y-99705537D01*
X181345820Y-99764502D01*
X181465518Y-99800812D01*
X181590000Y-99813072D01*
X181966750Y-99810000D01*
X182125500Y-99651250D01*
X182125500Y-98127000D01*
X182379500Y-98127000D01*
X182379500Y-99651250D01*
X182538250Y-99810000D01*
X182915000Y-99813072D01*
X183039482Y-99800812D01*
X183159180Y-99764502D01*
X183269494Y-99705537D01*
X183366185Y-99626185D01*
X183445537Y-99529494D01*
X183504502Y-99419180D01*
X183540812Y-99299482D01*
X183553072Y-99175000D01*
X183550000Y-98285750D01*
X183391250Y-98127000D01*
X182379500Y-98127000D01*
X182125500Y-98127000D01*
X181113750Y-98127000D01*
X181030750Y-98210000D01*
X175727219Y-98210000D01*
X175735000Y-98170883D01*
X175735000Y-97829117D01*
X175668325Y-97493919D01*
X175537537Y-97178169D01*
X175347663Y-96894002D01*
X175278661Y-96825000D01*
X180951928Y-96825000D01*
X180955000Y-97714250D01*
X181113750Y-97873000D01*
X182125500Y-97873000D01*
X182125500Y-96348750D01*
X182379500Y-96348750D01*
X182379500Y-97873000D01*
X183391250Y-97873000D01*
X183550000Y-97714250D01*
X183553072Y-96825000D01*
X183540812Y-96700518D01*
X183504502Y-96580820D01*
X183445537Y-96470506D01*
X183366185Y-96373815D01*
X183269494Y-96294463D01*
X183159180Y-96235498D01*
X183039482Y-96199188D01*
X182915000Y-96186928D01*
X182538250Y-96190000D01*
X182379500Y-96348750D01*
X182125500Y-96348750D01*
X181966750Y-96190000D01*
X181590000Y-96186928D01*
X181465518Y-96199188D01*
X181345820Y-96235498D01*
X181235506Y-96294463D01*
X181138815Y-96373815D01*
X181059463Y-96470506D01*
X181000498Y-96580820D01*
X180964188Y-96700518D01*
X180951928Y-96825000D01*
X175278661Y-96825000D01*
X175105998Y-96652337D01*
X174821831Y-96462463D01*
X174506081Y-96331675D01*
X174170883Y-96265000D01*
X173829117Y-96265000D01*
X173493919Y-96331675D01*
X173178169Y-96462463D01*
X172894002Y-96652337D01*
X172652337Y-96894002D01*
X172462463Y-97178169D01*
X172331675Y-97493919D01*
X172265000Y-97829117D01*
X172265000Y-98170883D01*
X172331675Y-98506081D01*
X172462463Y-98821831D01*
X172652337Y-99105998D01*
X172894002Y-99347663D01*
X173178169Y-99537537D01*
X173493919Y-99668325D01*
X173829117Y-99735000D01*
X174170883Y-99735000D01*
X174506081Y-99668325D01*
X174786429Y-99552201D01*
X174786429Y-100305000D01*
X174033991Y-100305000D01*
X173552937Y-100257832D01*
X173122903Y-100127997D01*
X172726277Y-99917108D01*
X172378168Y-99633197D01*
X172091830Y-99287074D01*
X171878177Y-98891931D01*
X171745344Y-98462817D01*
X171695000Y-97983824D01*
X171695000Y-60033992D01*
X171742168Y-59552937D01*
X171872003Y-59122903D01*
X172082892Y-58726276D01*
X172366801Y-58378169D01*
X172712923Y-58091831D01*
X173108068Y-57878178D01*
X173537184Y-57745344D01*
X174016176Y-57695000D01*
X178280198Y-57695000D01*
X175237563Y-60737636D01*
G36*
X221004774Y-88408102D02*
G01*
X220965000Y-88608061D01*
X220965000Y-88811939D01*
X221004774Y-89011898D01*
X221082795Y-89200256D01*
X221130001Y-89270905D01*
X221130000Y-93256289D01*
X221086063Y-93300226D01*
X220972795Y-93469744D01*
X220894774Y-93658102D01*
X220855000Y-93858061D01*
X220855000Y-94061939D01*
X220894774Y-94261898D01*
X220972795Y-94450256D01*
X221086063Y-94619774D01*
X221230226Y-94763937D01*
X221399744Y-94877205D01*
X221588102Y-94955226D01*
X221788061Y-94995000D01*
X221991939Y-94995000D01*
X222191898Y-94955226D01*
X222290001Y-94914590D01*
X222290001Y-95696288D01*
X222256063Y-95730226D01*
X222142795Y-95899744D01*
X222064774Y-96088102D01*
X222025000Y-96288061D01*
X222025000Y-96491939D01*
X222064774Y-96691898D01*
X222107485Y-96795011D01*
X213249378Y-96795011D01*
X213247205Y-96789764D01*
X213133937Y-96620246D01*
X212989774Y-96476083D01*
X212820256Y-96362815D01*
X212631898Y-96284794D01*
X212431939Y-96245020D01*
X212228061Y-96245020D01*
X212063448Y-96277763D01*
X219961192Y-88380020D01*
X221016406Y-88380020D01*
X221004774Y-88408102D01*
X221004774Y-88408102D01*
G37*
X221004774Y-88408102D02*
X220965000Y-88608061D01*
X220965000Y-88811939D01*
X221004774Y-89011898D01*
X221082795Y-89200256D01*
X221130001Y-89270905D01*
X221130000Y-93256289D01*
X221086063Y-93300226D01*
X220972795Y-93469744D01*
X220894774Y-93658102D01*
X220855000Y-93858061D01*
X220855000Y-94061939D01*
X220894774Y-94261898D01*
X220972795Y-94450256D01*
X221086063Y-94619774D01*
X221230226Y-94763937D01*
X221399744Y-94877205D01*
X221588102Y-94955226D01*
X221788061Y-94995000D01*
X221991939Y-94995000D01*
X222191898Y-94955226D01*
X222290001Y-94914590D01*
X222290001Y-95696288D01*
X222256063Y-95730226D01*
X222142795Y-95899744D01*
X222064774Y-96088102D01*
X222025000Y-96288061D01*
X222025000Y-96491939D01*
X222064774Y-96691898D01*
X222107485Y-96795011D01*
X213249378Y-96795011D01*
X213247205Y-96789764D01*
X213133937Y-96620246D01*
X212989774Y-96476083D01*
X212820256Y-96362815D01*
X212631898Y-96284794D01*
X212431939Y-96245020D01*
X212228061Y-96245020D01*
X212063448Y-96277763D01*
X219961192Y-88380020D01*
X221016406Y-88380020D01*
X221004774Y-88408102D01*
G36*
X194930001Y-92142678D02*
G01*
X194926325Y-92180001D01*
X194930001Y-92217323D01*
X194930001Y-92217333D01*
X194940998Y-92328986D01*
X194982344Y-92465289D01*
X194984455Y-92472247D01*
X195028687Y-92554999D01*
X187158712Y-92554999D01*
X187114775Y-92511062D01*
X186945257Y-92397794D01*
X186756899Y-92319773D01*
X186556940Y-92279999D01*
X186353062Y-92279999D01*
X186153103Y-92319773D01*
X185964745Y-92397794D01*
X185795227Y-92511062D01*
X185693045Y-92613244D01*
X184594802Y-91515001D01*
X193970679Y-91515001D01*
X194008001Y-91518677D01*
X194045323Y-91515001D01*
X194045334Y-91515001D01*
X194156987Y-91504004D01*
X194300248Y-91460547D01*
X194432277Y-91389975D01*
X194548002Y-91295002D01*
X194571805Y-91265999D01*
X194930001Y-90907802D01*
X194930001Y-92142678D01*
X194930001Y-92142678D01*
G37*
X194930001Y-92142678D02*
X194926325Y-92180001D01*
X194930001Y-92217323D01*
X194930001Y-92217333D01*
X194940998Y-92328986D01*
X194982344Y-92465289D01*
X194984455Y-92472247D01*
X195028687Y-92554999D01*
X187158712Y-92554999D01*
X187114775Y-92511062D01*
X186945257Y-92397794D01*
X186756899Y-92319773D01*
X186556940Y-92279999D01*
X186353062Y-92279999D01*
X186153103Y-92319773D01*
X185964745Y-92397794D01*
X185795227Y-92511062D01*
X185693045Y-92613244D01*
X184594802Y-91515001D01*
X193970679Y-91515001D01*
X194008001Y-91518677D01*
X194045323Y-91515001D01*
X194045334Y-91515001D01*
X194156987Y-91504004D01*
X194300248Y-91460547D01*
X194432277Y-91389975D01*
X194548002Y-91295002D01*
X194571805Y-91265999D01*
X194930001Y-90907802D01*
X194930001Y-92142678D01*
G36*
X197477998Y-88905000D02*
G01*
X197489999Y-88905000D01*
X197489999Y-89582678D01*
X197486323Y-89620001D01*
X197489999Y-89657323D01*
X197489999Y-89657333D01*
X197500996Y-89768986D01*
X197534512Y-89879475D01*
X197544453Y-89912247D01*
X197615025Y-90044277D01*
X197637727Y-90071939D01*
X197709998Y-90160002D01*
X197739002Y-90183805D01*
X199585197Y-92030000D01*
X196614802Y-92030000D01*
X196450001Y-91865200D01*
X196450001Y-89923710D01*
X196593937Y-89779774D01*
X196707205Y-89610256D01*
X196785226Y-89421898D01*
X196825000Y-89221939D01*
X196825000Y-89018061D01*
X196798339Y-88884025D01*
X196879180Y-88859502D01*
X196970000Y-88810957D01*
X197060820Y-88859502D01*
X197180518Y-88895812D01*
X197305000Y-88908072D01*
X197319250Y-88905000D01*
X197477998Y-88746252D01*
X197477998Y-88905000D01*
X197477998Y-88905000D01*
G37*
X197477998Y-88905000D02*
X197489999Y-88905000D01*
X197489999Y-89582678D01*
X197486323Y-89620001D01*
X197489999Y-89657323D01*
X197489999Y-89657333D01*
X197500996Y-89768986D01*
X197534512Y-89879475D01*
X197544453Y-89912247D01*
X197615025Y-90044277D01*
X197637727Y-90071939D01*
X197709998Y-90160002D01*
X197739002Y-90183805D01*
X199585197Y-92030000D01*
X196614802Y-92030000D01*
X196450001Y-91865200D01*
X196450001Y-89923710D01*
X196593937Y-89779774D01*
X196707205Y-89610256D01*
X196785226Y-89421898D01*
X196825000Y-89221939D01*
X196825000Y-89018061D01*
X196798339Y-88884025D01*
X196879180Y-88859502D01*
X196970000Y-88810957D01*
X197060820Y-88859502D01*
X197180518Y-88895812D01*
X197305000Y-88908072D01*
X197319250Y-88905000D01*
X197477998Y-88746252D01*
X197477998Y-88905000D01*
G36*
X185472795Y-88740256D02*
G01*
X185586063Y-88909774D01*
X185730226Y-89053937D01*
X185899744Y-89167205D01*
X186088102Y-89245226D01*
X186288061Y-89285000D01*
X186491939Y-89285000D01*
X186640924Y-89255365D01*
X186636063Y-89260226D01*
X186522795Y-89429744D01*
X186444774Y-89618102D01*
X186405000Y-89818061D01*
X186405000Y-89995001D01*
X184712739Y-89995001D01*
X184815178Y-89881355D01*
X184964157Y-89631252D01*
X185061481Y-89356891D01*
X184940814Y-89127000D01*
X183747000Y-89127000D01*
X183747000Y-89147000D01*
X183493000Y-89147000D01*
X183493000Y-89127000D01*
X183473000Y-89127000D01*
X183473000Y-88873000D01*
X183493000Y-88873000D01*
X183493000Y-88853000D01*
X183747000Y-88853000D01*
X183747000Y-88873000D01*
X184940814Y-88873000D01*
X185061481Y-88643109D01*
X185040868Y-88584999D01*
X185408485Y-88584999D01*
X185472795Y-88740256D01*
X185472795Y-88740256D01*
G37*
X185472795Y-88740256D02*
X185586063Y-88909774D01*
X185730226Y-89053937D01*
X185899744Y-89167205D01*
X186088102Y-89245226D01*
X186288061Y-89285000D01*
X186491939Y-89285000D01*
X186640924Y-89255365D01*
X186636063Y-89260226D01*
X186522795Y-89429744D01*
X186444774Y-89618102D01*
X186405000Y-89818061D01*
X186405000Y-89995001D01*
X184712739Y-89995001D01*
X184815178Y-89881355D01*
X184964157Y-89631252D01*
X185061481Y-89356891D01*
X184940814Y-89127000D01*
X183747000Y-89127000D01*
X183747000Y-89147000D01*
X183493000Y-89147000D01*
X183493000Y-89127000D01*
X183473000Y-89127000D01*
X183473000Y-88873000D01*
X183493000Y-88873000D01*
X183493000Y-88853000D01*
X183747000Y-88853000D01*
X183747000Y-88873000D01*
X184940814Y-88873000D01*
X185061481Y-88643109D01*
X185040868Y-88584999D01*
X185408485Y-88584999D01*
X185472795Y-88740256D01*
G36*
X212748815Y-60748815D02*
G01*
X212669463Y-60845506D01*
X212610498Y-60955820D01*
X212574188Y-61075518D01*
X212561928Y-61200000D01*
X212561928Y-62800000D01*
X212574188Y-62924482D01*
X212610498Y-63044180D01*
X212669463Y-63154494D01*
X212748815Y-63251185D01*
X212845506Y-63330537D01*
X212955820Y-63389502D01*
X213075518Y-63425812D01*
X213083961Y-63426643D01*
X212885363Y-63625241D01*
X212728320Y-63860273D01*
X212620147Y-64121426D01*
X212565000Y-64398665D01*
X212565000Y-64681335D01*
X212620147Y-64958574D01*
X212728320Y-65219727D01*
X212885363Y-65454759D01*
X213085241Y-65654637D01*
X213317759Y-65810000D01*
X213085241Y-65965363D01*
X212885363Y-66165241D01*
X212728320Y-66400273D01*
X212620147Y-66661426D01*
X212565000Y-66938665D01*
X212565000Y-67221335D01*
X212620147Y-67498574D01*
X212728320Y-67759727D01*
X212885363Y-67994759D01*
X213085241Y-68194637D01*
X213317759Y-68350000D01*
X213085241Y-68505363D01*
X212885363Y-68705241D01*
X212728320Y-68940273D01*
X212620147Y-69201426D01*
X212565000Y-69478665D01*
X212565000Y-69761335D01*
X212620147Y-70038574D01*
X212728320Y-70299727D01*
X212885363Y-70534759D01*
X213085241Y-70734637D01*
X213317759Y-70890000D01*
X213085241Y-71045363D01*
X212885363Y-71245241D01*
X212728320Y-71480273D01*
X212620147Y-71741426D01*
X212565000Y-72018665D01*
X212565000Y-72301335D01*
X212620147Y-72578574D01*
X212728320Y-72839727D01*
X212885363Y-73074759D01*
X213085241Y-73274637D01*
X213320273Y-73431680D01*
X213581426Y-73539853D01*
X213692403Y-73561928D01*
X213200000Y-73561928D01*
X213075518Y-73574188D01*
X212955820Y-73610498D01*
X212845506Y-73669463D01*
X212748815Y-73748815D01*
X212669463Y-73845506D01*
X212610498Y-73955820D01*
X212574188Y-74075518D01*
X212561928Y-74200000D01*
X212561928Y-75800000D01*
X212574188Y-75924482D01*
X212610498Y-76044180D01*
X212669463Y-76154494D01*
X212748815Y-76251185D01*
X212845506Y-76330537D01*
X212955820Y-76389502D01*
X213075518Y-76425812D01*
X213083961Y-76426643D01*
X212885363Y-76625241D01*
X212728320Y-76860273D01*
X212620147Y-77121426D01*
X212565000Y-77398665D01*
X212565000Y-77681335D01*
X212620147Y-77958574D01*
X212728320Y-78219727D01*
X212885363Y-78454759D01*
X213085241Y-78654637D01*
X213317759Y-78810000D01*
X213085241Y-78965363D01*
X212885363Y-79165241D01*
X212728320Y-79400273D01*
X212620147Y-79661426D01*
X212565000Y-79938665D01*
X212565000Y-80221335D01*
X212620147Y-80498574D01*
X212728320Y-80759727D01*
X212885363Y-80994759D01*
X213085241Y-81194637D01*
X213317759Y-81350000D01*
X213085241Y-81505363D01*
X212885363Y-81705241D01*
X212728320Y-81940273D01*
X212620147Y-82201426D01*
X212565000Y-82478665D01*
X212565000Y-82761335D01*
X212620147Y-83038574D01*
X212728320Y-83299727D01*
X212885363Y-83534759D01*
X213085241Y-83734637D01*
X213317759Y-83890000D01*
X213085241Y-84045363D01*
X212885363Y-84245241D01*
X212728320Y-84480273D01*
X212620147Y-84741426D01*
X212565000Y-85018665D01*
X212565000Y-85301335D01*
X212620147Y-85578574D01*
X212728320Y-85839727D01*
X212885363Y-86074759D01*
X213085241Y-86274637D01*
X213320273Y-86431680D01*
X213581426Y-86539853D01*
X213858665Y-86595000D01*
X214141335Y-86595000D01*
X214418574Y-86539853D01*
X214679727Y-86431680D01*
X214914759Y-86274637D01*
X215114637Y-86074759D01*
X215271680Y-85839727D01*
X215379853Y-85578574D01*
X215435000Y-85301335D01*
X215435000Y-85018665D01*
X215379853Y-84741426D01*
X215271680Y-84480273D01*
X215114637Y-84245241D01*
X214914759Y-84045363D01*
X214682241Y-83890000D01*
X214914759Y-83734637D01*
X215114637Y-83534759D01*
X215271680Y-83299727D01*
X215379853Y-83038574D01*
X215435000Y-82761335D01*
X215435000Y-82478665D01*
X215379853Y-82201426D01*
X215271680Y-81940273D01*
X215114637Y-81705241D01*
X214914759Y-81505363D01*
X214682241Y-81350000D01*
X214914759Y-81194637D01*
X215114637Y-80994759D01*
X215271680Y-80759727D01*
X215379853Y-80498574D01*
X215435000Y-80221335D01*
X215435000Y-79938665D01*
X215379853Y-79661426D01*
X215271680Y-79400273D01*
X215114637Y-79165241D01*
X214914759Y-78965363D01*
X214682241Y-78810000D01*
X214914759Y-78654637D01*
X215114637Y-78454759D01*
X215271680Y-78219727D01*
X215379853Y-77958574D01*
X215435000Y-77681335D01*
X215435000Y-77398665D01*
X215379853Y-77121426D01*
X215271680Y-76860273D01*
X215114637Y-76625241D01*
X214916039Y-76426643D01*
X214924482Y-76425812D01*
X215044180Y-76389502D01*
X215154494Y-76330537D01*
X215237563Y-76262364D01*
X217194999Y-78219801D01*
X217195000Y-83997667D01*
X217191323Y-84034999D01*
X217195000Y-84072332D01*
X217205997Y-84183985D01*
X217209558Y-84195723D01*
X217249453Y-84327245D01*
X217320025Y-84459275D01*
X217383798Y-84536982D01*
X217414999Y-84575000D01*
X217443997Y-84598798D01*
X217681312Y-84836113D01*
X217645000Y-85018665D01*
X217645000Y-85301335D01*
X217681312Y-85483886D01*
X213790188Y-89375011D01*
X207939790Y-89375011D01*
X210756114Y-86558688D01*
X210938665Y-86595000D01*
X211221335Y-86595000D01*
X211498574Y-86539853D01*
X211759727Y-86431680D01*
X211994759Y-86274637D01*
X212194637Y-86074759D01*
X212351680Y-85839727D01*
X212459853Y-85578574D01*
X212515000Y-85301335D01*
X212515000Y-85018665D01*
X212459853Y-84741426D01*
X212351680Y-84480273D01*
X212194637Y-84245241D01*
X211994759Y-84045363D01*
X211762241Y-83890000D01*
X211994759Y-83734637D01*
X212194637Y-83534759D01*
X212351680Y-83299727D01*
X212459853Y-83038574D01*
X212515000Y-82761335D01*
X212515000Y-82478665D01*
X212459853Y-82201426D01*
X212351680Y-81940273D01*
X212194637Y-81705241D01*
X211994759Y-81505363D01*
X211762241Y-81350000D01*
X211994759Y-81194637D01*
X212194637Y-80994759D01*
X212351680Y-80759727D01*
X212459853Y-80498574D01*
X212515000Y-80221335D01*
X212515000Y-79938665D01*
X212459853Y-79661426D01*
X212351680Y-79400273D01*
X212194637Y-79165241D01*
X211994759Y-78965363D01*
X211762241Y-78810000D01*
X211994759Y-78654637D01*
X212194637Y-78454759D01*
X212351680Y-78219727D01*
X212459853Y-77958574D01*
X212515000Y-77681335D01*
X212515000Y-77398665D01*
X212459853Y-77121426D01*
X212351680Y-76860273D01*
X212194637Y-76625241D01*
X211994759Y-76425363D01*
X211762241Y-76270000D01*
X211994759Y-76114637D01*
X212194637Y-75914759D01*
X212351680Y-75679727D01*
X212459853Y-75418574D01*
X212515000Y-75141335D01*
X212515000Y-74858665D01*
X212459853Y-74581426D01*
X212351680Y-74320273D01*
X212194637Y-74085241D01*
X211994759Y-73885363D01*
X211759727Y-73728320D01*
X211498574Y-73620147D01*
X211296744Y-73580000D01*
X211498574Y-73539853D01*
X211759727Y-73431680D01*
X211994759Y-73274637D01*
X212194637Y-73074759D01*
X212351680Y-72839727D01*
X212459853Y-72578574D01*
X212515000Y-72301335D01*
X212515000Y-72018665D01*
X212459853Y-71741426D01*
X212351680Y-71480273D01*
X212194637Y-71245241D01*
X211994759Y-71045363D01*
X211762241Y-70890000D01*
X211994759Y-70734637D01*
X212194637Y-70534759D01*
X212351680Y-70299727D01*
X212459853Y-70038574D01*
X212515000Y-69761335D01*
X212515000Y-69478665D01*
X212459853Y-69201426D01*
X212351680Y-68940273D01*
X212194637Y-68705241D01*
X211994759Y-68505363D01*
X211762241Y-68350000D01*
X211994759Y-68194637D01*
X212194637Y-67994759D01*
X212351680Y-67759727D01*
X212459853Y-67498574D01*
X212515000Y-67221335D01*
X212515000Y-66938665D01*
X212459853Y-66661426D01*
X212351680Y-66400273D01*
X212194637Y-66165241D01*
X211994759Y-65965363D01*
X211762241Y-65810000D01*
X211994759Y-65654637D01*
X212194637Y-65454759D01*
X212351680Y-65219727D01*
X212459853Y-64958574D01*
X212515000Y-64681335D01*
X212515000Y-64398665D01*
X212459853Y-64121426D01*
X212351680Y-63860273D01*
X212194637Y-63625241D01*
X211994759Y-63425363D01*
X211762241Y-63270000D01*
X211994759Y-63114637D01*
X212194637Y-62914759D01*
X212351680Y-62679727D01*
X212459853Y-62418574D01*
X212515000Y-62141335D01*
X212515000Y-61858665D01*
X212459853Y-61581426D01*
X212351680Y-61320273D01*
X212194637Y-61085241D01*
X211994759Y-60885363D01*
X211769694Y-60734980D01*
X212765673Y-60734980D01*
X212748815Y-60748815D01*
X212748815Y-60748815D01*
G37*
X212748815Y-60748815D02*
X212669463Y-60845506D01*
X212610498Y-60955820D01*
X212574188Y-61075518D01*
X212561928Y-61200000D01*
X212561928Y-62800000D01*
X212574188Y-62924482D01*
X212610498Y-63044180D01*
X212669463Y-63154494D01*
X212748815Y-63251185D01*
X212845506Y-63330537D01*
X212955820Y-63389502D01*
X213075518Y-63425812D01*
X213083961Y-63426643D01*
X212885363Y-63625241D01*
X212728320Y-63860273D01*
X212620147Y-64121426D01*
X212565000Y-64398665D01*
X212565000Y-64681335D01*
X212620147Y-64958574D01*
X212728320Y-65219727D01*
X212885363Y-65454759D01*
X213085241Y-65654637D01*
X213317759Y-65810000D01*
X213085241Y-65965363D01*
X212885363Y-66165241D01*
X212728320Y-66400273D01*
X212620147Y-66661426D01*
X212565000Y-66938665D01*
X212565000Y-67221335D01*
X212620147Y-67498574D01*
X212728320Y-67759727D01*
X212885363Y-67994759D01*
X213085241Y-68194637D01*
X213317759Y-68350000D01*
X213085241Y-68505363D01*
X212885363Y-68705241D01*
X212728320Y-68940273D01*
X212620147Y-69201426D01*
X212565000Y-69478665D01*
X212565000Y-69761335D01*
X212620147Y-70038574D01*
X212728320Y-70299727D01*
X212885363Y-70534759D01*
X213085241Y-70734637D01*
X213317759Y-70890000D01*
X213085241Y-71045363D01*
X212885363Y-71245241D01*
X212728320Y-71480273D01*
X212620147Y-71741426D01*
X212565000Y-72018665D01*
X212565000Y-72301335D01*
X212620147Y-72578574D01*
X212728320Y-72839727D01*
X212885363Y-73074759D01*
X213085241Y-73274637D01*
X213320273Y-73431680D01*
X213581426Y-73539853D01*
X213692403Y-73561928D01*
X213200000Y-73561928D01*
X213075518Y-73574188D01*
X212955820Y-73610498D01*
X212845506Y-73669463D01*
X212748815Y-73748815D01*
X212669463Y-73845506D01*
X212610498Y-73955820D01*
X212574188Y-74075518D01*
X212561928Y-74200000D01*
X212561928Y-75800000D01*
X212574188Y-75924482D01*
X212610498Y-76044180D01*
X212669463Y-76154494D01*
X212748815Y-76251185D01*
X212845506Y-76330537D01*
X212955820Y-76389502D01*
X213075518Y-76425812D01*
X213083961Y-76426643D01*
X212885363Y-76625241D01*
X212728320Y-76860273D01*
X212620147Y-77121426D01*
X212565000Y-77398665D01*
X212565000Y-77681335D01*
X212620147Y-77958574D01*
X212728320Y-78219727D01*
X212885363Y-78454759D01*
X213085241Y-78654637D01*
X213317759Y-78810000D01*
X213085241Y-78965363D01*
X212885363Y-79165241D01*
X212728320Y-79400273D01*
X212620147Y-79661426D01*
X212565000Y-79938665D01*
X212565000Y-80221335D01*
X212620147Y-80498574D01*
X212728320Y-80759727D01*
X212885363Y-80994759D01*
X213085241Y-81194637D01*
X213317759Y-81350000D01*
X213085241Y-81505363D01*
X212885363Y-81705241D01*
X212728320Y-81940273D01*
X212620147Y-82201426D01*
X212565000Y-82478665D01*
X212565000Y-82761335D01*
X212620147Y-83038574D01*
X212728320Y-83299727D01*
X212885363Y-83534759D01*
X213085241Y-83734637D01*
X213317759Y-83890000D01*
X213085241Y-84045363D01*
X212885363Y-84245241D01*
X212728320Y-84480273D01*
X212620147Y-84741426D01*
X212565000Y-85018665D01*
X212565000Y-85301335D01*
X212620147Y-85578574D01*
X212728320Y-85839727D01*
X212885363Y-86074759D01*
X213085241Y-86274637D01*
X213320273Y-86431680D01*
X213581426Y-86539853D01*
X213858665Y-86595000D01*
X214141335Y-86595000D01*
X214418574Y-86539853D01*
X214679727Y-86431680D01*
X214914759Y-86274637D01*
X215114637Y-86074759D01*
X215271680Y-85839727D01*
X215379853Y-85578574D01*
X215435000Y-85301335D01*
X215435000Y-85018665D01*
X215379853Y-84741426D01*
X215271680Y-84480273D01*
X215114637Y-84245241D01*
X214914759Y-84045363D01*
X214682241Y-83890000D01*
X214914759Y-83734637D01*
X215114637Y-83534759D01*
X215271680Y-83299727D01*
X215379853Y-83038574D01*
X215435000Y-82761335D01*
X215435000Y-82478665D01*
X215379853Y-82201426D01*
X215271680Y-81940273D01*
X215114637Y-81705241D01*
X214914759Y-81505363D01*
X214682241Y-81350000D01*
X214914759Y-81194637D01*
X215114637Y-80994759D01*
X215271680Y-80759727D01*
X215379853Y-80498574D01*
X215435000Y-80221335D01*
X215435000Y-79938665D01*
X215379853Y-79661426D01*
X215271680Y-79400273D01*
X215114637Y-79165241D01*
X214914759Y-78965363D01*
X214682241Y-78810000D01*
X214914759Y-78654637D01*
X215114637Y-78454759D01*
X215271680Y-78219727D01*
X215379853Y-77958574D01*
X215435000Y-77681335D01*
X215435000Y-77398665D01*
X215379853Y-77121426D01*
X215271680Y-76860273D01*
X215114637Y-76625241D01*
X214916039Y-76426643D01*
X214924482Y-76425812D01*
X215044180Y-76389502D01*
X215154494Y-76330537D01*
X215237563Y-76262364D01*
X217194999Y-78219801D01*
X217195000Y-83997667D01*
X217191323Y-84034999D01*
X217195000Y-84072332D01*
X217205997Y-84183985D01*
X217209558Y-84195723D01*
X217249453Y-84327245D01*
X217320025Y-84459275D01*
X217383798Y-84536982D01*
X217414999Y-84575000D01*
X217443997Y-84598798D01*
X217681312Y-84836113D01*
X217645000Y-85018665D01*
X217645000Y-85301335D01*
X217681312Y-85483886D01*
X213790188Y-89375011D01*
X207939790Y-89375011D01*
X210756114Y-86558688D01*
X210938665Y-86595000D01*
X211221335Y-86595000D01*
X211498574Y-86539853D01*
X211759727Y-86431680D01*
X211994759Y-86274637D01*
X212194637Y-86074759D01*
X212351680Y-85839727D01*
X212459853Y-85578574D01*
X212515000Y-85301335D01*
X212515000Y-85018665D01*
X212459853Y-84741426D01*
X212351680Y-84480273D01*
X212194637Y-84245241D01*
X211994759Y-84045363D01*
X211762241Y-83890000D01*
X211994759Y-83734637D01*
X212194637Y-83534759D01*
X212351680Y-83299727D01*
X212459853Y-83038574D01*
X212515000Y-82761335D01*
X212515000Y-82478665D01*
X212459853Y-82201426D01*
X212351680Y-81940273D01*
X212194637Y-81705241D01*
X211994759Y-81505363D01*
X211762241Y-81350000D01*
X211994759Y-81194637D01*
X212194637Y-80994759D01*
X212351680Y-80759727D01*
X212459853Y-80498574D01*
X212515000Y-80221335D01*
X212515000Y-79938665D01*
X212459853Y-79661426D01*
X212351680Y-79400273D01*
X212194637Y-79165241D01*
X211994759Y-78965363D01*
X211762241Y-78810000D01*
X211994759Y-78654637D01*
X212194637Y-78454759D01*
X212351680Y-78219727D01*
X212459853Y-77958574D01*
X212515000Y-77681335D01*
X212515000Y-77398665D01*
X212459853Y-77121426D01*
X212351680Y-76860273D01*
X212194637Y-76625241D01*
X211994759Y-76425363D01*
X211762241Y-76270000D01*
X211994759Y-76114637D01*
X212194637Y-75914759D01*
X212351680Y-75679727D01*
X212459853Y-75418574D01*
X212515000Y-75141335D01*
X212515000Y-74858665D01*
X212459853Y-74581426D01*
X212351680Y-74320273D01*
X212194637Y-74085241D01*
X211994759Y-73885363D01*
X211759727Y-73728320D01*
X211498574Y-73620147D01*
X211296744Y-73580000D01*
X211498574Y-73539853D01*
X211759727Y-73431680D01*
X211994759Y-73274637D01*
X212194637Y-73074759D01*
X212351680Y-72839727D01*
X212459853Y-72578574D01*
X212515000Y-72301335D01*
X212515000Y-72018665D01*
X212459853Y-71741426D01*
X212351680Y-71480273D01*
X212194637Y-71245241D01*
X211994759Y-71045363D01*
X211762241Y-70890000D01*
X211994759Y-70734637D01*
X212194637Y-70534759D01*
X212351680Y-70299727D01*
X212459853Y-70038574D01*
X212515000Y-69761335D01*
X212515000Y-69478665D01*
X212459853Y-69201426D01*
X212351680Y-68940273D01*
X212194637Y-68705241D01*
X211994759Y-68505363D01*
X211762241Y-68350000D01*
X211994759Y-68194637D01*
X212194637Y-67994759D01*
X212351680Y-67759727D01*
X212459853Y-67498574D01*
X212515000Y-67221335D01*
X212515000Y-66938665D01*
X212459853Y-66661426D01*
X212351680Y-66400273D01*
X212194637Y-66165241D01*
X211994759Y-65965363D01*
X211762241Y-65810000D01*
X211994759Y-65654637D01*
X212194637Y-65454759D01*
X212351680Y-65219727D01*
X212459853Y-64958574D01*
X212515000Y-64681335D01*
X212515000Y-64398665D01*
X212459853Y-64121426D01*
X212351680Y-63860273D01*
X212194637Y-63625241D01*
X211994759Y-63425363D01*
X211762241Y-63270000D01*
X211994759Y-63114637D01*
X212194637Y-62914759D01*
X212351680Y-62679727D01*
X212459853Y-62418574D01*
X212515000Y-62141335D01*
X212515000Y-61858665D01*
X212459853Y-61581426D01*
X212351680Y-61320273D01*
X212194637Y-61085241D01*
X211994759Y-60885363D01*
X211769694Y-60734980D01*
X212765673Y-60734980D01*
X212748815Y-60748815D01*
G36*
X207237563Y-60737636D02*
G01*
X207154494Y-60669463D01*
X207044180Y-60610498D01*
X206924482Y-60574188D01*
X206800000Y-60561928D01*
X205200000Y-60561928D01*
X205075518Y-60574188D01*
X204955820Y-60610498D01*
X204845506Y-60669463D01*
X204748815Y-60748815D01*
X204669463Y-60845506D01*
X204610498Y-60955820D01*
X204574188Y-61075518D01*
X204561928Y-61200000D01*
X204561928Y-62800000D01*
X204574188Y-62924482D01*
X204610498Y-63044180D01*
X204669463Y-63154494D01*
X204748815Y-63251185D01*
X204845506Y-63330537D01*
X204955820Y-63389502D01*
X205075518Y-63425812D01*
X205083961Y-63426643D01*
X204885363Y-63625241D01*
X204728320Y-63860273D01*
X204620147Y-64121426D01*
X204565000Y-64398665D01*
X204565000Y-64681335D01*
X204620147Y-64958574D01*
X204728320Y-65219727D01*
X204885363Y-65454759D01*
X205085241Y-65654637D01*
X205317759Y-65810000D01*
X205085241Y-65965363D01*
X204885363Y-66165241D01*
X204728320Y-66400273D01*
X204620147Y-66661426D01*
X204565000Y-66938665D01*
X204565000Y-67221335D01*
X204620147Y-67498574D01*
X204728320Y-67759727D01*
X204885363Y-67994759D01*
X205085241Y-68194637D01*
X205317759Y-68350000D01*
X205085241Y-68505363D01*
X204885363Y-68705241D01*
X204728320Y-68940273D01*
X204620147Y-69201426D01*
X204565000Y-69478665D01*
X204565000Y-69761335D01*
X204620147Y-70038574D01*
X204728320Y-70299727D01*
X204885363Y-70534759D01*
X205085241Y-70734637D01*
X205317759Y-70890000D01*
X205085241Y-71045363D01*
X204885363Y-71245241D01*
X204728320Y-71480273D01*
X204620147Y-71741426D01*
X204565000Y-72018665D01*
X204565000Y-72301335D01*
X204620147Y-72578574D01*
X204728320Y-72839727D01*
X204885363Y-73074759D01*
X205085241Y-73274637D01*
X205320273Y-73431680D01*
X205581426Y-73539853D01*
X205692403Y-73561928D01*
X205200000Y-73561928D01*
X205075518Y-73574188D01*
X204955820Y-73610498D01*
X204845506Y-73669463D01*
X204748815Y-73748815D01*
X204669463Y-73845506D01*
X204610498Y-73955820D01*
X204574188Y-74075518D01*
X204561928Y-74200000D01*
X204561928Y-75800000D01*
X204574188Y-75924482D01*
X204610498Y-76044180D01*
X204669463Y-76154494D01*
X204748815Y-76251185D01*
X204845506Y-76330537D01*
X204955820Y-76389502D01*
X205075518Y-76425812D01*
X205083961Y-76426643D01*
X204885363Y-76625241D01*
X204728320Y-76860273D01*
X204620147Y-77121426D01*
X204565000Y-77398665D01*
X204565000Y-77681335D01*
X204620147Y-77958574D01*
X204728320Y-78219727D01*
X204885363Y-78454759D01*
X205085241Y-78654637D01*
X205317759Y-78810000D01*
X205085241Y-78965363D01*
X204885363Y-79165241D01*
X204728320Y-79400273D01*
X204620147Y-79661426D01*
X204565000Y-79938665D01*
X204565000Y-80221335D01*
X204620147Y-80498574D01*
X204728320Y-80759727D01*
X204885363Y-80994759D01*
X205085241Y-81194637D01*
X205317759Y-81350000D01*
X205085241Y-81505363D01*
X204885363Y-81705241D01*
X204728320Y-81940273D01*
X204620147Y-82201426D01*
X204565000Y-82478665D01*
X204565000Y-82761335D01*
X204620147Y-83038574D01*
X204728320Y-83299727D01*
X204885363Y-83534759D01*
X205085241Y-83734637D01*
X205317759Y-83890000D01*
X205085241Y-84045363D01*
X204885363Y-84245241D01*
X204728320Y-84480273D01*
X204620147Y-84741426D01*
X204565000Y-85018665D01*
X204565000Y-85301335D01*
X204620147Y-85578574D01*
X204728320Y-85839727D01*
X204885363Y-86074759D01*
X205085241Y-86274637D01*
X205320273Y-86431680D01*
X205581426Y-86539853D01*
X205858665Y-86595000D01*
X206141335Y-86595000D01*
X206418574Y-86539853D01*
X206679727Y-86431680D01*
X206914759Y-86274637D01*
X207114637Y-86074759D01*
X207271680Y-85839727D01*
X207379853Y-85578574D01*
X207435000Y-85301335D01*
X207435000Y-85018665D01*
X207379853Y-84741426D01*
X207271680Y-84480273D01*
X207114637Y-84245241D01*
X206914759Y-84045363D01*
X206682241Y-83890000D01*
X206914759Y-83734637D01*
X207114637Y-83534759D01*
X207271680Y-83299727D01*
X207379853Y-83038574D01*
X207435000Y-82761335D01*
X207435000Y-82478665D01*
X207379853Y-82201426D01*
X207271680Y-81940273D01*
X207114637Y-81705241D01*
X206914759Y-81505363D01*
X206682241Y-81350000D01*
X206914759Y-81194637D01*
X207114637Y-80994759D01*
X207271680Y-80759727D01*
X207379853Y-80498574D01*
X207435000Y-80221335D01*
X207435000Y-79938665D01*
X207379853Y-79661426D01*
X207271680Y-79400273D01*
X207114637Y-79165241D01*
X206914759Y-78965363D01*
X206682241Y-78810000D01*
X206914759Y-78654637D01*
X207114637Y-78454759D01*
X207271680Y-78219727D01*
X207379853Y-77958574D01*
X207435000Y-77681335D01*
X207435000Y-77398665D01*
X207379853Y-77121426D01*
X207271680Y-76860273D01*
X207114637Y-76625241D01*
X206916039Y-76426643D01*
X206924482Y-76425812D01*
X207044180Y-76389502D01*
X207154494Y-76330537D01*
X207237563Y-76262364D01*
X209194999Y-78219801D01*
X209195000Y-83997667D01*
X209191323Y-84034999D01*
X209195000Y-84072332D01*
X209205997Y-84183985D01*
X209209558Y-84195723D01*
X209249453Y-84327245D01*
X209320025Y-84459275D01*
X209383798Y-84536982D01*
X209414999Y-84575000D01*
X209443997Y-84598798D01*
X209681312Y-84836113D01*
X209645000Y-85018665D01*
X209645000Y-85301335D01*
X209681312Y-85483886D01*
X206240198Y-88925001D01*
X204323099Y-88925001D01*
X204377306Y-88896026D01*
X204379482Y-88895812D01*
X204499180Y-88859502D01*
X204609494Y-88800537D01*
X204706185Y-88721185D01*
X204785537Y-88624494D01*
X204844502Y-88514180D01*
X204880812Y-88394482D01*
X204893072Y-88270000D01*
X204893072Y-86595000D01*
X204880812Y-86470518D01*
X204844502Y-86350820D01*
X204785537Y-86240506D01*
X204715000Y-86154556D01*
X204715000Y-86072323D01*
X204718676Y-86035000D01*
X204715000Y-85997677D01*
X204715000Y-85997667D01*
X204704003Y-85886014D01*
X204660546Y-85742753D01*
X204589974Y-85610724D01*
X204495001Y-85494999D01*
X204479077Y-85481930D01*
X204515000Y-85301335D01*
X204515000Y-85018665D01*
X204459853Y-84741426D01*
X204351680Y-84480273D01*
X204194637Y-84245241D01*
X203994759Y-84045363D01*
X203762241Y-83890000D01*
X203994759Y-83734637D01*
X204194637Y-83534759D01*
X204351680Y-83299727D01*
X204459853Y-83038574D01*
X204515000Y-82761335D01*
X204515000Y-82478665D01*
X204459853Y-82201426D01*
X204351680Y-81940273D01*
X204194637Y-81705241D01*
X203994759Y-81505363D01*
X203762241Y-81350000D01*
X203994759Y-81194637D01*
X204194637Y-80994759D01*
X204351680Y-80759727D01*
X204459853Y-80498574D01*
X204515000Y-80221335D01*
X204515000Y-79938665D01*
X204459853Y-79661426D01*
X204351680Y-79400273D01*
X204194637Y-79165241D01*
X203994759Y-78965363D01*
X203762241Y-78810000D01*
X203994759Y-78654637D01*
X204194637Y-78454759D01*
X204351680Y-78219727D01*
X204459853Y-77958574D01*
X204515000Y-77681335D01*
X204515000Y-77398665D01*
X204459853Y-77121426D01*
X204351680Y-76860273D01*
X204194637Y-76625241D01*
X203994759Y-76425363D01*
X203762241Y-76270000D01*
X203994759Y-76114637D01*
X204194637Y-75914759D01*
X204351680Y-75679727D01*
X204459853Y-75418574D01*
X204515000Y-75141335D01*
X204515000Y-74858665D01*
X204459853Y-74581426D01*
X204351680Y-74320273D01*
X204194637Y-74085241D01*
X203994759Y-73885363D01*
X203759727Y-73728320D01*
X203498574Y-73620147D01*
X203296744Y-73580000D01*
X203498574Y-73539853D01*
X203759727Y-73431680D01*
X203994759Y-73274637D01*
X204194637Y-73074759D01*
X204351680Y-72839727D01*
X204459853Y-72578574D01*
X204515000Y-72301335D01*
X204515000Y-72018665D01*
X204459853Y-71741426D01*
X204351680Y-71480273D01*
X204194637Y-71245241D01*
X203994759Y-71045363D01*
X203762241Y-70890000D01*
X203994759Y-70734637D01*
X204194637Y-70534759D01*
X204351680Y-70299727D01*
X204459853Y-70038574D01*
X204515000Y-69761335D01*
X204515000Y-69478665D01*
X204459853Y-69201426D01*
X204351680Y-68940273D01*
X204194637Y-68705241D01*
X203994759Y-68505363D01*
X203762241Y-68350000D01*
X203994759Y-68194637D01*
X204194637Y-67994759D01*
X204351680Y-67759727D01*
X204459853Y-67498574D01*
X204515000Y-67221335D01*
X204515000Y-66938665D01*
X204459853Y-66661426D01*
X204351680Y-66400273D01*
X204194637Y-66165241D01*
X203994759Y-65965363D01*
X203762241Y-65810000D01*
X203994759Y-65654637D01*
X204194637Y-65454759D01*
X204351680Y-65219727D01*
X204459853Y-64958574D01*
X204515000Y-64681335D01*
X204515000Y-64398665D01*
X204459853Y-64121426D01*
X204351680Y-63860273D01*
X204194637Y-63625241D01*
X203994759Y-63425363D01*
X203762241Y-63270000D01*
X203994759Y-63114637D01*
X204194637Y-62914759D01*
X204351680Y-62679727D01*
X204459853Y-62418574D01*
X204515000Y-62141335D01*
X204515000Y-61858665D01*
X204459853Y-61581426D01*
X204351680Y-61320273D01*
X204194637Y-61085241D01*
X203994759Y-60885363D01*
X203759727Y-60728320D01*
X203498574Y-60620147D01*
X203221335Y-60565000D01*
X202938665Y-60565000D01*
X202661426Y-60620147D01*
X202400273Y-60728320D01*
X202165241Y-60885363D01*
X201965363Y-61085241D01*
X201808320Y-61320273D01*
X201700147Y-61581426D01*
X201645000Y-61858665D01*
X201645000Y-62141335D01*
X201700147Y-62418574D01*
X201808320Y-62679727D01*
X201965363Y-62914759D01*
X202165241Y-63114637D01*
X202397759Y-63270000D01*
X202165241Y-63425363D01*
X201965363Y-63625241D01*
X201879118Y-63754316D01*
X200124801Y-62000000D01*
X201839832Y-60284970D01*
X207690228Y-60284970D01*
X207237563Y-60737636D01*
X207237563Y-60737636D01*
G37*
X207237563Y-60737636D02*
X207154494Y-60669463D01*
X207044180Y-60610498D01*
X206924482Y-60574188D01*
X206800000Y-60561928D01*
X205200000Y-60561928D01*
X205075518Y-60574188D01*
X204955820Y-60610498D01*
X204845506Y-60669463D01*
X204748815Y-60748815D01*
X204669463Y-60845506D01*
X204610498Y-60955820D01*
X204574188Y-61075518D01*
X204561928Y-61200000D01*
X204561928Y-62800000D01*
X204574188Y-62924482D01*
X204610498Y-63044180D01*
X204669463Y-63154494D01*
X204748815Y-63251185D01*
X204845506Y-63330537D01*
X204955820Y-63389502D01*
X205075518Y-63425812D01*
X205083961Y-63426643D01*
X204885363Y-63625241D01*
X204728320Y-63860273D01*
X204620147Y-64121426D01*
X204565000Y-64398665D01*
X204565000Y-64681335D01*
X204620147Y-64958574D01*
X204728320Y-65219727D01*
X204885363Y-65454759D01*
X205085241Y-65654637D01*
X205317759Y-65810000D01*
X205085241Y-65965363D01*
X204885363Y-66165241D01*
X204728320Y-66400273D01*
X204620147Y-66661426D01*
X204565000Y-66938665D01*
X204565000Y-67221335D01*
X204620147Y-67498574D01*
X204728320Y-67759727D01*
X204885363Y-67994759D01*
X205085241Y-68194637D01*
X205317759Y-68350000D01*
X205085241Y-68505363D01*
X204885363Y-68705241D01*
X204728320Y-68940273D01*
X204620147Y-69201426D01*
X204565000Y-69478665D01*
X204565000Y-69761335D01*
X204620147Y-70038574D01*
X204728320Y-70299727D01*
X204885363Y-70534759D01*
X205085241Y-70734637D01*
X205317759Y-70890000D01*
X205085241Y-71045363D01*
X204885363Y-71245241D01*
X204728320Y-71480273D01*
X204620147Y-71741426D01*
X204565000Y-72018665D01*
X204565000Y-72301335D01*
X204620147Y-72578574D01*
X204728320Y-72839727D01*
X204885363Y-73074759D01*
X205085241Y-73274637D01*
X205320273Y-73431680D01*
X205581426Y-73539853D01*
X205692403Y-73561928D01*
X205200000Y-73561928D01*
X205075518Y-73574188D01*
X204955820Y-73610498D01*
X204845506Y-73669463D01*
X204748815Y-73748815D01*
X204669463Y-73845506D01*
X204610498Y-73955820D01*
X204574188Y-74075518D01*
X204561928Y-74200000D01*
X204561928Y-75800000D01*
X204574188Y-75924482D01*
X204610498Y-76044180D01*
X204669463Y-76154494D01*
X204748815Y-76251185D01*
X204845506Y-76330537D01*
X204955820Y-76389502D01*
X205075518Y-76425812D01*
X205083961Y-76426643D01*
X204885363Y-76625241D01*
X204728320Y-76860273D01*
X204620147Y-77121426D01*
X204565000Y-77398665D01*
X204565000Y-77681335D01*
X204620147Y-77958574D01*
X204728320Y-78219727D01*
X204885363Y-78454759D01*
X205085241Y-78654637D01*
X205317759Y-78810000D01*
X205085241Y-78965363D01*
X204885363Y-79165241D01*
X204728320Y-79400273D01*
X204620147Y-79661426D01*
X204565000Y-79938665D01*
X204565000Y-80221335D01*
X204620147Y-80498574D01*
X204728320Y-80759727D01*
X204885363Y-80994759D01*
X205085241Y-81194637D01*
X205317759Y-81350000D01*
X205085241Y-81505363D01*
X204885363Y-81705241D01*
X204728320Y-81940273D01*
X204620147Y-82201426D01*
X204565000Y-82478665D01*
X204565000Y-82761335D01*
X204620147Y-83038574D01*
X204728320Y-83299727D01*
X204885363Y-83534759D01*
X205085241Y-83734637D01*
X205317759Y-83890000D01*
X205085241Y-84045363D01*
X204885363Y-84245241D01*
X204728320Y-84480273D01*
X204620147Y-84741426D01*
X204565000Y-85018665D01*
X204565000Y-85301335D01*
X204620147Y-85578574D01*
X204728320Y-85839727D01*
X204885363Y-86074759D01*
X205085241Y-86274637D01*
X205320273Y-86431680D01*
X205581426Y-86539853D01*
X205858665Y-86595000D01*
X206141335Y-86595000D01*
X206418574Y-86539853D01*
X206679727Y-86431680D01*
X206914759Y-86274637D01*
X207114637Y-86074759D01*
X207271680Y-85839727D01*
X207379853Y-85578574D01*
X207435000Y-85301335D01*
X207435000Y-85018665D01*
X207379853Y-84741426D01*
X207271680Y-84480273D01*
X207114637Y-84245241D01*
X206914759Y-84045363D01*
X206682241Y-83890000D01*
X206914759Y-83734637D01*
X207114637Y-83534759D01*
X207271680Y-83299727D01*
X207379853Y-83038574D01*
X207435000Y-82761335D01*
X207435000Y-82478665D01*
X207379853Y-82201426D01*
X207271680Y-81940273D01*
X207114637Y-81705241D01*
X206914759Y-81505363D01*
X206682241Y-81350000D01*
X206914759Y-81194637D01*
X207114637Y-80994759D01*
X207271680Y-80759727D01*
X207379853Y-80498574D01*
X207435000Y-80221335D01*
X207435000Y-79938665D01*
X207379853Y-79661426D01*
X207271680Y-79400273D01*
X207114637Y-79165241D01*
X206914759Y-78965363D01*
X206682241Y-78810000D01*
X206914759Y-78654637D01*
X207114637Y-78454759D01*
X207271680Y-78219727D01*
X207379853Y-77958574D01*
X207435000Y-77681335D01*
X207435000Y-77398665D01*
X207379853Y-77121426D01*
X207271680Y-76860273D01*
X207114637Y-76625241D01*
X206916039Y-76426643D01*
X206924482Y-76425812D01*
X207044180Y-76389502D01*
X207154494Y-76330537D01*
X207237563Y-76262364D01*
X209194999Y-78219801D01*
X209195000Y-83997667D01*
X209191323Y-84034999D01*
X209195000Y-84072332D01*
X209205997Y-84183985D01*
X209209558Y-84195723D01*
X209249453Y-84327245D01*
X209320025Y-84459275D01*
X209383798Y-84536982D01*
X209414999Y-84575000D01*
X209443997Y-84598798D01*
X209681312Y-84836113D01*
X209645000Y-85018665D01*
X209645000Y-85301335D01*
X209681312Y-85483886D01*
X206240198Y-88925001D01*
X204323099Y-88925001D01*
X204377306Y-88896026D01*
X204379482Y-88895812D01*
X204499180Y-88859502D01*
X204609494Y-88800537D01*
X204706185Y-88721185D01*
X204785537Y-88624494D01*
X204844502Y-88514180D01*
X204880812Y-88394482D01*
X204893072Y-88270000D01*
X204893072Y-86595000D01*
X204880812Y-86470518D01*
X204844502Y-86350820D01*
X204785537Y-86240506D01*
X204715000Y-86154556D01*
X204715000Y-86072323D01*
X204718676Y-86035000D01*
X204715000Y-85997677D01*
X204715000Y-85997667D01*
X204704003Y-85886014D01*
X204660546Y-85742753D01*
X204589974Y-85610724D01*
X204495001Y-85494999D01*
X204479077Y-85481930D01*
X204515000Y-85301335D01*
X204515000Y-85018665D01*
X204459853Y-84741426D01*
X204351680Y-84480273D01*
X204194637Y-84245241D01*
X203994759Y-84045363D01*
X203762241Y-83890000D01*
X203994759Y-83734637D01*
X204194637Y-83534759D01*
X204351680Y-83299727D01*
X204459853Y-83038574D01*
X204515000Y-82761335D01*
X204515000Y-82478665D01*
X204459853Y-82201426D01*
X204351680Y-81940273D01*
X204194637Y-81705241D01*
X203994759Y-81505363D01*
X203762241Y-81350000D01*
X203994759Y-81194637D01*
X204194637Y-80994759D01*
X204351680Y-80759727D01*
X204459853Y-80498574D01*
X204515000Y-80221335D01*
X204515000Y-79938665D01*
X204459853Y-79661426D01*
X204351680Y-79400273D01*
X204194637Y-79165241D01*
X203994759Y-78965363D01*
X203762241Y-78810000D01*
X203994759Y-78654637D01*
X204194637Y-78454759D01*
X204351680Y-78219727D01*
X204459853Y-77958574D01*
X204515000Y-77681335D01*
X204515000Y-77398665D01*
X204459853Y-77121426D01*
X204351680Y-76860273D01*
X204194637Y-76625241D01*
X203994759Y-76425363D01*
X203762241Y-76270000D01*
X203994759Y-76114637D01*
X204194637Y-75914759D01*
X204351680Y-75679727D01*
X204459853Y-75418574D01*
X204515000Y-75141335D01*
X204515000Y-74858665D01*
X204459853Y-74581426D01*
X204351680Y-74320273D01*
X204194637Y-74085241D01*
X203994759Y-73885363D01*
X203759727Y-73728320D01*
X203498574Y-73620147D01*
X203296744Y-73580000D01*
X203498574Y-73539853D01*
X203759727Y-73431680D01*
X203994759Y-73274637D01*
X204194637Y-73074759D01*
X204351680Y-72839727D01*
X204459853Y-72578574D01*
X204515000Y-72301335D01*
X204515000Y-72018665D01*
X204459853Y-71741426D01*
X204351680Y-71480273D01*
X204194637Y-71245241D01*
X203994759Y-71045363D01*
X203762241Y-70890000D01*
X203994759Y-70734637D01*
X204194637Y-70534759D01*
X204351680Y-70299727D01*
X204459853Y-70038574D01*
X204515000Y-69761335D01*
X204515000Y-69478665D01*
X204459853Y-69201426D01*
X204351680Y-68940273D01*
X204194637Y-68705241D01*
X203994759Y-68505363D01*
X203762241Y-68350000D01*
X203994759Y-68194637D01*
X204194637Y-67994759D01*
X204351680Y-67759727D01*
X204459853Y-67498574D01*
X204515000Y-67221335D01*
X204515000Y-66938665D01*
X204459853Y-66661426D01*
X204351680Y-66400273D01*
X204194637Y-66165241D01*
X203994759Y-65965363D01*
X203762241Y-65810000D01*
X203994759Y-65654637D01*
X204194637Y-65454759D01*
X204351680Y-65219727D01*
X204459853Y-64958574D01*
X204515000Y-64681335D01*
X204515000Y-64398665D01*
X204459853Y-64121426D01*
X204351680Y-63860273D01*
X204194637Y-63625241D01*
X203994759Y-63425363D01*
X203762241Y-63270000D01*
X203994759Y-63114637D01*
X204194637Y-62914759D01*
X204351680Y-62679727D01*
X204459853Y-62418574D01*
X204515000Y-62141335D01*
X204515000Y-61858665D01*
X204459853Y-61581426D01*
X204351680Y-61320273D01*
X204194637Y-61085241D01*
X203994759Y-60885363D01*
X203759727Y-60728320D01*
X203498574Y-60620147D01*
X203221335Y-60565000D01*
X202938665Y-60565000D01*
X202661426Y-60620147D01*
X202400273Y-60728320D01*
X202165241Y-60885363D01*
X201965363Y-61085241D01*
X201808320Y-61320273D01*
X201700147Y-61581426D01*
X201645000Y-61858665D01*
X201645000Y-62141335D01*
X201700147Y-62418574D01*
X201808320Y-62679727D01*
X201965363Y-62914759D01*
X202165241Y-63114637D01*
X202397759Y-63270000D01*
X202165241Y-63425363D01*
X201965363Y-63625241D01*
X201879118Y-63754316D01*
X200124801Y-62000000D01*
X201839832Y-60284970D01*
X207690228Y-60284970D01*
X207237563Y-60737636D01*
G36*
X197490000Y-87579500D02*
G01*
X197478000Y-87579500D01*
X197478000Y-87559500D01*
X197458000Y-87559500D01*
X197458000Y-87305500D01*
X197478000Y-87305500D01*
X197478000Y-87285500D01*
X197490000Y-87285500D01*
X197490000Y-87579500D01*
X197490000Y-87579500D01*
G37*
X197490000Y-87579500D02*
X197478000Y-87579500D01*
X197478000Y-87559500D01*
X197458000Y-87559500D01*
X197458000Y-87305500D01*
X197478000Y-87305500D01*
X197478000Y-87285500D01*
X197490000Y-87285500D01*
X197490000Y-87579500D01*
G36*
X199237563Y-60737636D02*
G01*
X199154494Y-60669463D01*
X199044180Y-60610498D01*
X198924482Y-60574188D01*
X198800000Y-60561928D01*
X197200000Y-60561928D01*
X197075518Y-60574188D01*
X196955820Y-60610498D01*
X196845506Y-60669463D01*
X196748815Y-60748815D01*
X196669463Y-60845506D01*
X196610498Y-60955820D01*
X196574188Y-61075518D01*
X196561928Y-61200000D01*
X196561928Y-62800000D01*
X196574188Y-62924482D01*
X196610498Y-63044180D01*
X196669463Y-63154494D01*
X196748815Y-63251185D01*
X196845506Y-63330537D01*
X196955820Y-63389502D01*
X197075518Y-63425812D01*
X197083961Y-63426643D01*
X196885363Y-63625241D01*
X196728320Y-63860273D01*
X196620147Y-64121426D01*
X196565000Y-64398665D01*
X196565000Y-64681335D01*
X196620147Y-64958574D01*
X196728320Y-65219727D01*
X196885363Y-65454759D01*
X197085241Y-65654637D01*
X197317759Y-65810000D01*
X197085241Y-65965363D01*
X196885363Y-66165241D01*
X196728320Y-66400273D01*
X196620147Y-66661426D01*
X196565000Y-66938665D01*
X196565000Y-67221335D01*
X196620147Y-67498574D01*
X196728320Y-67759727D01*
X196885363Y-67994759D01*
X197085241Y-68194637D01*
X197317759Y-68350000D01*
X197085241Y-68505363D01*
X196885363Y-68705241D01*
X196728320Y-68940273D01*
X196620147Y-69201426D01*
X196565000Y-69478665D01*
X196565000Y-69761335D01*
X196620147Y-70038574D01*
X196728320Y-70299727D01*
X196885363Y-70534759D01*
X197085241Y-70734637D01*
X197317759Y-70890000D01*
X197085241Y-71045363D01*
X196885363Y-71245241D01*
X196728320Y-71480273D01*
X196620147Y-71741426D01*
X196565000Y-72018665D01*
X196565000Y-72301335D01*
X196620147Y-72578574D01*
X196728320Y-72839727D01*
X196885363Y-73074759D01*
X197085241Y-73274637D01*
X197320273Y-73431680D01*
X197581426Y-73539853D01*
X197692403Y-73561928D01*
X197200000Y-73561928D01*
X197075518Y-73574188D01*
X196955820Y-73610498D01*
X196845506Y-73669463D01*
X196748815Y-73748815D01*
X196669463Y-73845506D01*
X196610498Y-73955820D01*
X196574188Y-74075518D01*
X196561928Y-74200000D01*
X196561928Y-75800000D01*
X196574188Y-75924482D01*
X196610498Y-76044180D01*
X196669463Y-76154494D01*
X196748815Y-76251185D01*
X196845506Y-76330537D01*
X196955820Y-76389502D01*
X197075518Y-76425812D01*
X197083961Y-76426643D01*
X196885363Y-76625241D01*
X196728320Y-76860273D01*
X196620147Y-77121426D01*
X196565000Y-77398665D01*
X196565000Y-77681335D01*
X196620147Y-77958574D01*
X196728320Y-78219727D01*
X196885363Y-78454759D01*
X197085241Y-78654637D01*
X197317759Y-78810000D01*
X197085241Y-78965363D01*
X196885363Y-79165241D01*
X196728320Y-79400273D01*
X196620147Y-79661426D01*
X196565000Y-79938665D01*
X196565000Y-80221335D01*
X196620147Y-80498574D01*
X196728320Y-80759727D01*
X196885363Y-80994759D01*
X197085241Y-81194637D01*
X197317759Y-81350000D01*
X197085241Y-81505363D01*
X196885363Y-81705241D01*
X196728320Y-81940273D01*
X196620147Y-82201426D01*
X196565000Y-82478665D01*
X196565000Y-82761335D01*
X196620147Y-83038574D01*
X196718077Y-83274999D01*
X196361923Y-83274999D01*
X196459853Y-83038574D01*
X196515000Y-82761335D01*
X196515000Y-82478665D01*
X196459853Y-82201426D01*
X196351680Y-81940273D01*
X196194637Y-81705241D01*
X195994759Y-81505363D01*
X195762241Y-81350000D01*
X195994759Y-81194637D01*
X196194637Y-80994759D01*
X196351680Y-80759727D01*
X196459853Y-80498574D01*
X196515000Y-80221335D01*
X196515000Y-79938665D01*
X196459853Y-79661426D01*
X196351680Y-79400273D01*
X196194637Y-79165241D01*
X195994759Y-78965363D01*
X195762241Y-78810000D01*
X195994759Y-78654637D01*
X196194637Y-78454759D01*
X196351680Y-78219727D01*
X196459853Y-77958574D01*
X196515000Y-77681335D01*
X196515000Y-77398665D01*
X196459853Y-77121426D01*
X196351680Y-76860273D01*
X196194637Y-76625241D01*
X195994759Y-76425363D01*
X195762241Y-76270000D01*
X195994759Y-76114637D01*
X196194637Y-75914759D01*
X196351680Y-75679727D01*
X196459853Y-75418574D01*
X196515000Y-75141335D01*
X196515000Y-74858665D01*
X196459853Y-74581426D01*
X196351680Y-74320273D01*
X196194637Y-74085241D01*
X195994759Y-73885363D01*
X195759727Y-73728320D01*
X195498574Y-73620147D01*
X195296744Y-73580000D01*
X195498574Y-73539853D01*
X195759727Y-73431680D01*
X195994759Y-73274637D01*
X196194637Y-73074759D01*
X196351680Y-72839727D01*
X196459853Y-72578574D01*
X196515000Y-72301335D01*
X196515000Y-72018665D01*
X196459853Y-71741426D01*
X196351680Y-71480273D01*
X196194637Y-71245241D01*
X195994759Y-71045363D01*
X195762241Y-70890000D01*
X195994759Y-70734637D01*
X196194637Y-70534759D01*
X196351680Y-70299727D01*
X196459853Y-70038574D01*
X196515000Y-69761335D01*
X196515000Y-69478665D01*
X196459853Y-69201426D01*
X196351680Y-68940273D01*
X196194637Y-68705241D01*
X195994759Y-68505363D01*
X195762241Y-68350000D01*
X195994759Y-68194637D01*
X196194637Y-67994759D01*
X196351680Y-67759727D01*
X196459853Y-67498574D01*
X196515000Y-67221335D01*
X196515000Y-66938665D01*
X196459853Y-66661426D01*
X196351680Y-66400273D01*
X196194637Y-66165241D01*
X195994759Y-65965363D01*
X195762241Y-65810000D01*
X195994759Y-65654637D01*
X196194637Y-65454759D01*
X196351680Y-65219727D01*
X196459853Y-64958574D01*
X196515000Y-64681335D01*
X196515000Y-64398665D01*
X196459853Y-64121426D01*
X196351680Y-63860273D01*
X196194637Y-63625241D01*
X195994759Y-63425363D01*
X195762241Y-63270000D01*
X195994759Y-63114637D01*
X196194637Y-62914759D01*
X196351680Y-62679727D01*
X196459853Y-62418574D01*
X196515000Y-62141335D01*
X196515000Y-61858665D01*
X196459853Y-61581426D01*
X196351680Y-61320273D01*
X196194637Y-61085241D01*
X195994759Y-60885363D01*
X195759727Y-60728320D01*
X195498574Y-60620147D01*
X195221335Y-60565000D01*
X194938665Y-60565000D01*
X194661426Y-60620147D01*
X194400273Y-60728320D01*
X194165241Y-60885363D01*
X193965363Y-61085241D01*
X193808320Y-61320273D01*
X193700147Y-61581426D01*
X193645000Y-61858665D01*
X193645000Y-62141335D01*
X193700147Y-62418574D01*
X193808320Y-62679727D01*
X193965363Y-62914759D01*
X194165241Y-63114637D01*
X194397759Y-63270000D01*
X194165241Y-63425363D01*
X193965363Y-63625241D01*
X193879118Y-63754316D01*
X192124801Y-62000000D01*
X194289842Y-59834960D01*
X200140238Y-59834960D01*
X199237563Y-60737636D01*
X199237563Y-60737636D01*
G37*
X199237563Y-60737636D02*
X199154494Y-60669463D01*
X199044180Y-60610498D01*
X198924482Y-60574188D01*
X198800000Y-60561928D01*
X197200000Y-60561928D01*
X197075518Y-60574188D01*
X196955820Y-60610498D01*
X196845506Y-60669463D01*
X196748815Y-60748815D01*
X196669463Y-60845506D01*
X196610498Y-60955820D01*
X196574188Y-61075518D01*
X196561928Y-61200000D01*
X196561928Y-62800000D01*
X196574188Y-62924482D01*
X196610498Y-63044180D01*
X196669463Y-63154494D01*
X196748815Y-63251185D01*
X196845506Y-63330537D01*
X196955820Y-63389502D01*
X197075518Y-63425812D01*
X197083961Y-63426643D01*
X196885363Y-63625241D01*
X196728320Y-63860273D01*
X196620147Y-64121426D01*
X196565000Y-64398665D01*
X196565000Y-64681335D01*
X196620147Y-64958574D01*
X196728320Y-65219727D01*
X196885363Y-65454759D01*
X197085241Y-65654637D01*
X197317759Y-65810000D01*
X197085241Y-65965363D01*
X196885363Y-66165241D01*
X196728320Y-66400273D01*
X196620147Y-66661426D01*
X196565000Y-66938665D01*
X196565000Y-67221335D01*
X196620147Y-67498574D01*
X196728320Y-67759727D01*
X196885363Y-67994759D01*
X197085241Y-68194637D01*
X197317759Y-68350000D01*
X197085241Y-68505363D01*
X196885363Y-68705241D01*
X196728320Y-68940273D01*
X196620147Y-69201426D01*
X196565000Y-69478665D01*
X196565000Y-69761335D01*
X196620147Y-70038574D01*
X196728320Y-70299727D01*
X196885363Y-70534759D01*
X197085241Y-70734637D01*
X197317759Y-70890000D01*
X197085241Y-71045363D01*
X196885363Y-71245241D01*
X196728320Y-71480273D01*
X196620147Y-71741426D01*
X196565000Y-72018665D01*
X196565000Y-72301335D01*
X196620147Y-72578574D01*
X196728320Y-72839727D01*
X196885363Y-73074759D01*
X197085241Y-73274637D01*
X197320273Y-73431680D01*
X197581426Y-73539853D01*
X197692403Y-73561928D01*
X197200000Y-73561928D01*
X197075518Y-73574188D01*
X196955820Y-73610498D01*
X196845506Y-73669463D01*
X196748815Y-73748815D01*
X196669463Y-73845506D01*
X196610498Y-73955820D01*
X196574188Y-74075518D01*
X196561928Y-74200000D01*
X196561928Y-75800000D01*
X196574188Y-75924482D01*
X196610498Y-76044180D01*
X196669463Y-76154494D01*
X196748815Y-76251185D01*
X196845506Y-76330537D01*
X196955820Y-76389502D01*
X197075518Y-76425812D01*
X197083961Y-76426643D01*
X196885363Y-76625241D01*
X196728320Y-76860273D01*
X196620147Y-77121426D01*
X196565000Y-77398665D01*
X196565000Y-77681335D01*
X196620147Y-77958574D01*
X196728320Y-78219727D01*
X196885363Y-78454759D01*
X197085241Y-78654637D01*
X197317759Y-78810000D01*
X197085241Y-78965363D01*
X196885363Y-79165241D01*
X196728320Y-79400273D01*
X196620147Y-79661426D01*
X196565000Y-79938665D01*
X196565000Y-80221335D01*
X196620147Y-80498574D01*
X196728320Y-80759727D01*
X196885363Y-80994759D01*
X197085241Y-81194637D01*
X197317759Y-81350000D01*
X197085241Y-81505363D01*
X196885363Y-81705241D01*
X196728320Y-81940273D01*
X196620147Y-82201426D01*
X196565000Y-82478665D01*
X196565000Y-82761335D01*
X196620147Y-83038574D01*
X196718077Y-83274999D01*
X196361923Y-83274999D01*
X196459853Y-83038574D01*
X196515000Y-82761335D01*
X196515000Y-82478665D01*
X196459853Y-82201426D01*
X196351680Y-81940273D01*
X196194637Y-81705241D01*
X195994759Y-81505363D01*
X195762241Y-81350000D01*
X195994759Y-81194637D01*
X196194637Y-80994759D01*
X196351680Y-80759727D01*
X196459853Y-80498574D01*
X196515000Y-80221335D01*
X196515000Y-79938665D01*
X196459853Y-79661426D01*
X196351680Y-79400273D01*
X196194637Y-79165241D01*
X195994759Y-78965363D01*
X195762241Y-78810000D01*
X195994759Y-78654637D01*
X196194637Y-78454759D01*
X196351680Y-78219727D01*
X196459853Y-77958574D01*
X196515000Y-77681335D01*
X196515000Y-77398665D01*
X196459853Y-77121426D01*
X196351680Y-76860273D01*
X196194637Y-76625241D01*
X195994759Y-76425363D01*
X195762241Y-76270000D01*
X195994759Y-76114637D01*
X196194637Y-75914759D01*
X196351680Y-75679727D01*
X196459853Y-75418574D01*
X196515000Y-75141335D01*
X196515000Y-74858665D01*
X196459853Y-74581426D01*
X196351680Y-74320273D01*
X196194637Y-74085241D01*
X195994759Y-73885363D01*
X195759727Y-73728320D01*
X195498574Y-73620147D01*
X195296744Y-73580000D01*
X195498574Y-73539853D01*
X195759727Y-73431680D01*
X195994759Y-73274637D01*
X196194637Y-73074759D01*
X196351680Y-72839727D01*
X196459853Y-72578574D01*
X196515000Y-72301335D01*
X196515000Y-72018665D01*
X196459853Y-71741426D01*
X196351680Y-71480273D01*
X196194637Y-71245241D01*
X195994759Y-71045363D01*
X195762241Y-70890000D01*
X195994759Y-70734637D01*
X196194637Y-70534759D01*
X196351680Y-70299727D01*
X196459853Y-70038574D01*
X196515000Y-69761335D01*
X196515000Y-69478665D01*
X196459853Y-69201426D01*
X196351680Y-68940273D01*
X196194637Y-68705241D01*
X195994759Y-68505363D01*
X195762241Y-68350000D01*
X195994759Y-68194637D01*
X196194637Y-67994759D01*
X196351680Y-67759727D01*
X196459853Y-67498574D01*
X196515000Y-67221335D01*
X196515000Y-66938665D01*
X196459853Y-66661426D01*
X196351680Y-66400273D01*
X196194637Y-66165241D01*
X195994759Y-65965363D01*
X195762241Y-65810000D01*
X195994759Y-65654637D01*
X196194637Y-65454759D01*
X196351680Y-65219727D01*
X196459853Y-64958574D01*
X196515000Y-64681335D01*
X196515000Y-64398665D01*
X196459853Y-64121426D01*
X196351680Y-63860273D01*
X196194637Y-63625241D01*
X195994759Y-63425363D01*
X195762241Y-63270000D01*
X195994759Y-63114637D01*
X196194637Y-62914759D01*
X196351680Y-62679727D01*
X196459853Y-62418574D01*
X196515000Y-62141335D01*
X196515000Y-61858665D01*
X196459853Y-61581426D01*
X196351680Y-61320273D01*
X196194637Y-61085241D01*
X195994759Y-60885363D01*
X195759727Y-60728320D01*
X195498574Y-60620147D01*
X195221335Y-60565000D01*
X194938665Y-60565000D01*
X194661426Y-60620147D01*
X194400273Y-60728320D01*
X194165241Y-60885363D01*
X193965363Y-61085241D01*
X193808320Y-61320273D01*
X193700147Y-61581426D01*
X193645000Y-61858665D01*
X193645000Y-62141335D01*
X193700147Y-62418574D01*
X193808320Y-62679727D01*
X193965363Y-62914759D01*
X194165241Y-63114637D01*
X194397759Y-63270000D01*
X194165241Y-63425363D01*
X193965363Y-63625241D01*
X193879118Y-63754316D01*
X192124801Y-62000000D01*
X194289842Y-59834960D01*
X200140238Y-59834960D01*
X199237563Y-60737636D01*
G36*
X191237563Y-60737636D02*
G01*
X191154494Y-60669463D01*
X191044180Y-60610498D01*
X190924482Y-60574188D01*
X190800000Y-60561928D01*
X189200000Y-60561928D01*
X189075518Y-60574188D01*
X188955820Y-60610498D01*
X188845506Y-60669463D01*
X188748815Y-60748815D01*
X188669463Y-60845506D01*
X188610498Y-60955820D01*
X188574188Y-61075518D01*
X188561928Y-61200000D01*
X188561928Y-62800000D01*
X188574188Y-62924482D01*
X188610498Y-63044180D01*
X188669463Y-63154494D01*
X188748815Y-63251185D01*
X188845506Y-63330537D01*
X188955820Y-63389502D01*
X189075518Y-63425812D01*
X189083961Y-63426643D01*
X188885363Y-63625241D01*
X188728320Y-63860273D01*
X188620147Y-64121426D01*
X188565000Y-64398665D01*
X188565000Y-64681335D01*
X188620147Y-64958574D01*
X188728320Y-65219727D01*
X188885363Y-65454759D01*
X189085241Y-65654637D01*
X189317759Y-65810000D01*
X189085241Y-65965363D01*
X188885363Y-66165241D01*
X188728320Y-66400273D01*
X188620147Y-66661426D01*
X188565000Y-66938665D01*
X188565000Y-67221335D01*
X188620147Y-67498574D01*
X188728320Y-67759727D01*
X188885363Y-67994759D01*
X189085241Y-68194637D01*
X189317759Y-68350000D01*
X189085241Y-68505363D01*
X188885363Y-68705241D01*
X188728320Y-68940273D01*
X188620147Y-69201426D01*
X188565000Y-69478665D01*
X188565000Y-69761335D01*
X188620147Y-70038574D01*
X188728320Y-70299727D01*
X188885363Y-70534759D01*
X189085241Y-70734637D01*
X189317759Y-70890000D01*
X189085241Y-71045363D01*
X188885363Y-71245241D01*
X188728320Y-71480273D01*
X188620147Y-71741426D01*
X188565000Y-72018665D01*
X188565000Y-72301335D01*
X188620147Y-72578574D01*
X188728320Y-72839727D01*
X188885363Y-73074759D01*
X189085241Y-73274637D01*
X189320273Y-73431680D01*
X189581426Y-73539853D01*
X189692403Y-73561928D01*
X189200000Y-73561928D01*
X189075518Y-73574188D01*
X188955820Y-73610498D01*
X188845506Y-73669463D01*
X188748815Y-73748815D01*
X188669463Y-73845506D01*
X188610498Y-73955820D01*
X188574188Y-74075518D01*
X188561928Y-74200000D01*
X188561928Y-75800000D01*
X188574188Y-75924482D01*
X188610498Y-76044180D01*
X188669463Y-76154494D01*
X188748815Y-76251185D01*
X188845506Y-76330537D01*
X188955820Y-76389502D01*
X189075518Y-76425812D01*
X189083961Y-76426643D01*
X188885363Y-76625241D01*
X188728320Y-76860273D01*
X188620147Y-77121426D01*
X188565000Y-77398665D01*
X188565000Y-77681335D01*
X188620147Y-77958574D01*
X188728320Y-78219727D01*
X188885363Y-78454759D01*
X189085241Y-78654637D01*
X189317759Y-78810000D01*
X189085241Y-78965363D01*
X188885363Y-79165241D01*
X188728320Y-79400273D01*
X188620147Y-79661426D01*
X188565000Y-79938665D01*
X188565000Y-80221335D01*
X188620147Y-80498574D01*
X188728320Y-80759727D01*
X188885363Y-80994759D01*
X188885400Y-80994796D01*
X188184796Y-81695400D01*
X187994759Y-81505363D01*
X187762241Y-81350000D01*
X187994759Y-81194637D01*
X188194637Y-80994759D01*
X188351680Y-80759727D01*
X188459853Y-80498574D01*
X188515000Y-80221335D01*
X188515000Y-79938665D01*
X188459853Y-79661426D01*
X188351680Y-79400273D01*
X188194637Y-79165241D01*
X187994759Y-78965363D01*
X187762241Y-78810000D01*
X187994759Y-78654637D01*
X188194637Y-78454759D01*
X188351680Y-78219727D01*
X188459853Y-77958574D01*
X188515000Y-77681335D01*
X188515000Y-77398665D01*
X188459853Y-77121426D01*
X188351680Y-76860273D01*
X188194637Y-76625241D01*
X187994759Y-76425363D01*
X187762241Y-76270000D01*
X187994759Y-76114637D01*
X188194637Y-75914759D01*
X188351680Y-75679727D01*
X188459853Y-75418574D01*
X188515000Y-75141335D01*
X188515000Y-74858665D01*
X188459853Y-74581426D01*
X188351680Y-74320273D01*
X188194637Y-74085241D01*
X187994759Y-73885363D01*
X187759727Y-73728320D01*
X187498574Y-73620147D01*
X187296744Y-73580000D01*
X187498574Y-73539853D01*
X187759727Y-73431680D01*
X187994759Y-73274637D01*
X188194637Y-73074759D01*
X188351680Y-72839727D01*
X188459853Y-72578574D01*
X188515000Y-72301335D01*
X188515000Y-72018665D01*
X188459853Y-71741426D01*
X188351680Y-71480273D01*
X188194637Y-71245241D01*
X187994759Y-71045363D01*
X187762241Y-70890000D01*
X187994759Y-70734637D01*
X188194637Y-70534759D01*
X188351680Y-70299727D01*
X188459853Y-70038574D01*
X188515000Y-69761335D01*
X188515000Y-69478665D01*
X188459853Y-69201426D01*
X188351680Y-68940273D01*
X188194637Y-68705241D01*
X187994759Y-68505363D01*
X187762241Y-68350000D01*
X187994759Y-68194637D01*
X188194637Y-67994759D01*
X188351680Y-67759727D01*
X188459853Y-67498574D01*
X188515000Y-67221335D01*
X188515000Y-66938665D01*
X188459853Y-66661426D01*
X188351680Y-66400273D01*
X188194637Y-66165241D01*
X187994759Y-65965363D01*
X187762241Y-65810000D01*
X187994759Y-65654637D01*
X188194637Y-65454759D01*
X188351680Y-65219727D01*
X188459853Y-64958574D01*
X188515000Y-64681335D01*
X188515000Y-64398665D01*
X188459853Y-64121426D01*
X188351680Y-63860273D01*
X188194637Y-63625241D01*
X187994759Y-63425363D01*
X187762241Y-63270000D01*
X187994759Y-63114637D01*
X188194637Y-62914759D01*
X188351680Y-62679727D01*
X188459853Y-62418574D01*
X188515000Y-62141335D01*
X188515000Y-61858665D01*
X188459853Y-61581426D01*
X188351680Y-61320273D01*
X188194637Y-61085241D01*
X187994759Y-60885363D01*
X187759727Y-60728320D01*
X187498574Y-60620147D01*
X187221335Y-60565000D01*
X186938665Y-60565000D01*
X186661426Y-60620147D01*
X186400273Y-60728320D01*
X186165241Y-60885363D01*
X185965363Y-61085241D01*
X185808320Y-61320273D01*
X185700147Y-61581426D01*
X185645000Y-61858665D01*
X185645000Y-62141335D01*
X185700147Y-62418574D01*
X185808320Y-62679727D01*
X185965363Y-62914759D01*
X186165241Y-63114637D01*
X186397759Y-63270000D01*
X186165241Y-63425363D01*
X185965363Y-63625241D01*
X185879118Y-63754316D01*
X184124801Y-62000000D01*
X186739853Y-59384950D01*
X192590248Y-59384950D01*
X191237563Y-60737636D01*
X191237563Y-60737636D01*
G37*
X191237563Y-60737636D02*
X191154494Y-60669463D01*
X191044180Y-60610498D01*
X190924482Y-60574188D01*
X190800000Y-60561928D01*
X189200000Y-60561928D01*
X189075518Y-60574188D01*
X188955820Y-60610498D01*
X188845506Y-60669463D01*
X188748815Y-60748815D01*
X188669463Y-60845506D01*
X188610498Y-60955820D01*
X188574188Y-61075518D01*
X188561928Y-61200000D01*
X188561928Y-62800000D01*
X188574188Y-62924482D01*
X188610498Y-63044180D01*
X188669463Y-63154494D01*
X188748815Y-63251185D01*
X188845506Y-63330537D01*
X188955820Y-63389502D01*
X189075518Y-63425812D01*
X189083961Y-63426643D01*
X188885363Y-63625241D01*
X188728320Y-63860273D01*
X188620147Y-64121426D01*
X188565000Y-64398665D01*
X188565000Y-64681335D01*
X188620147Y-64958574D01*
X188728320Y-65219727D01*
X188885363Y-65454759D01*
X189085241Y-65654637D01*
X189317759Y-65810000D01*
X189085241Y-65965363D01*
X188885363Y-66165241D01*
X188728320Y-66400273D01*
X188620147Y-66661426D01*
X188565000Y-66938665D01*
X188565000Y-67221335D01*
X188620147Y-67498574D01*
X188728320Y-67759727D01*
X188885363Y-67994759D01*
X189085241Y-68194637D01*
X189317759Y-68350000D01*
X189085241Y-68505363D01*
X188885363Y-68705241D01*
X188728320Y-68940273D01*
X188620147Y-69201426D01*
X188565000Y-69478665D01*
X188565000Y-69761335D01*
X188620147Y-70038574D01*
X188728320Y-70299727D01*
X188885363Y-70534759D01*
X189085241Y-70734637D01*
X189317759Y-70890000D01*
X189085241Y-71045363D01*
X188885363Y-71245241D01*
X188728320Y-71480273D01*
X188620147Y-71741426D01*
X188565000Y-72018665D01*
X188565000Y-72301335D01*
X188620147Y-72578574D01*
X188728320Y-72839727D01*
X188885363Y-73074759D01*
X189085241Y-73274637D01*
X189320273Y-73431680D01*
X189581426Y-73539853D01*
X189692403Y-73561928D01*
X189200000Y-73561928D01*
X189075518Y-73574188D01*
X188955820Y-73610498D01*
X188845506Y-73669463D01*
X188748815Y-73748815D01*
X188669463Y-73845506D01*
X188610498Y-73955820D01*
X188574188Y-74075518D01*
X188561928Y-74200000D01*
X188561928Y-75800000D01*
X188574188Y-75924482D01*
X188610498Y-76044180D01*
X188669463Y-76154494D01*
X188748815Y-76251185D01*
X188845506Y-76330537D01*
X188955820Y-76389502D01*
X189075518Y-76425812D01*
X189083961Y-76426643D01*
X188885363Y-76625241D01*
X188728320Y-76860273D01*
X188620147Y-77121426D01*
X188565000Y-77398665D01*
X188565000Y-77681335D01*
X188620147Y-77958574D01*
X188728320Y-78219727D01*
X188885363Y-78454759D01*
X189085241Y-78654637D01*
X189317759Y-78810000D01*
X189085241Y-78965363D01*
X188885363Y-79165241D01*
X188728320Y-79400273D01*
X188620147Y-79661426D01*
X188565000Y-79938665D01*
X188565000Y-80221335D01*
X188620147Y-80498574D01*
X188728320Y-80759727D01*
X188885363Y-80994759D01*
X188885400Y-80994796D01*
X188184796Y-81695400D01*
X187994759Y-81505363D01*
X187762241Y-81350000D01*
X187994759Y-81194637D01*
X188194637Y-80994759D01*
X188351680Y-80759727D01*
X188459853Y-80498574D01*
X188515000Y-80221335D01*
X188515000Y-79938665D01*
X188459853Y-79661426D01*
X188351680Y-79400273D01*
X188194637Y-79165241D01*
X187994759Y-78965363D01*
X187762241Y-78810000D01*
X187994759Y-78654637D01*
X188194637Y-78454759D01*
X188351680Y-78219727D01*
X188459853Y-77958574D01*
X188515000Y-77681335D01*
X188515000Y-77398665D01*
X188459853Y-77121426D01*
X188351680Y-76860273D01*
X188194637Y-76625241D01*
X187994759Y-76425363D01*
X187762241Y-76270000D01*
X187994759Y-76114637D01*
X188194637Y-75914759D01*
X188351680Y-75679727D01*
X188459853Y-75418574D01*
X188515000Y-75141335D01*
X188515000Y-74858665D01*
X188459853Y-74581426D01*
X188351680Y-74320273D01*
X188194637Y-74085241D01*
X187994759Y-73885363D01*
X187759727Y-73728320D01*
X187498574Y-73620147D01*
X187296744Y-73580000D01*
X187498574Y-73539853D01*
X187759727Y-73431680D01*
X187994759Y-73274637D01*
X188194637Y-73074759D01*
X188351680Y-72839727D01*
X188459853Y-72578574D01*
X188515000Y-72301335D01*
X188515000Y-72018665D01*
X188459853Y-71741426D01*
X188351680Y-71480273D01*
X188194637Y-71245241D01*
X187994759Y-71045363D01*
X187762241Y-70890000D01*
X187994759Y-70734637D01*
X188194637Y-70534759D01*
X188351680Y-70299727D01*
X188459853Y-70038574D01*
X188515000Y-69761335D01*
X188515000Y-69478665D01*
X188459853Y-69201426D01*
X188351680Y-68940273D01*
X188194637Y-68705241D01*
X187994759Y-68505363D01*
X187762241Y-68350000D01*
X187994759Y-68194637D01*
X188194637Y-67994759D01*
X188351680Y-67759727D01*
X188459853Y-67498574D01*
X188515000Y-67221335D01*
X188515000Y-66938665D01*
X188459853Y-66661426D01*
X188351680Y-66400273D01*
X188194637Y-66165241D01*
X187994759Y-65965363D01*
X187762241Y-65810000D01*
X187994759Y-65654637D01*
X188194637Y-65454759D01*
X188351680Y-65219727D01*
X188459853Y-64958574D01*
X188515000Y-64681335D01*
X188515000Y-64398665D01*
X188459853Y-64121426D01*
X188351680Y-63860273D01*
X188194637Y-63625241D01*
X187994759Y-63425363D01*
X187762241Y-63270000D01*
X187994759Y-63114637D01*
X188194637Y-62914759D01*
X188351680Y-62679727D01*
X188459853Y-62418574D01*
X188515000Y-62141335D01*
X188515000Y-61858665D01*
X188459853Y-61581426D01*
X188351680Y-61320273D01*
X188194637Y-61085241D01*
X187994759Y-60885363D01*
X187759727Y-60728320D01*
X187498574Y-60620147D01*
X187221335Y-60565000D01*
X186938665Y-60565000D01*
X186661426Y-60620147D01*
X186400273Y-60728320D01*
X186165241Y-60885363D01*
X185965363Y-61085241D01*
X185808320Y-61320273D01*
X185700147Y-61581426D01*
X185645000Y-61858665D01*
X185645000Y-62141335D01*
X185700147Y-62418574D01*
X185808320Y-62679727D01*
X185965363Y-62914759D01*
X186165241Y-63114637D01*
X186397759Y-63270000D01*
X186165241Y-63425363D01*
X185965363Y-63625241D01*
X185879118Y-63754316D01*
X184124801Y-62000000D01*
X186739853Y-59384950D01*
X192590248Y-59384950D01*
X191237563Y-60737636D01*
G36*
X180050001Y-60940605D02*
G01*
X179994759Y-60885363D01*
X179759727Y-60728320D01*
X179498574Y-60620147D01*
X179221335Y-60565000D01*
X178938665Y-60565000D01*
X178661426Y-60620147D01*
X178400273Y-60728320D01*
X178165241Y-60885363D01*
X177965363Y-61085241D01*
X177808320Y-61320273D01*
X177700147Y-61581426D01*
X177645000Y-61858665D01*
X177645000Y-62141335D01*
X177681312Y-62323886D01*
X176093967Y-63911232D01*
X176064969Y-63935030D01*
X176041171Y-63964028D01*
X176041170Y-63964029D01*
X175969995Y-64050755D01*
X175899423Y-64182785D01*
X175883804Y-64234276D01*
X175855967Y-64326045D01*
X175844970Y-64437698D01*
X175841293Y-64475031D01*
X175844970Y-64512363D01*
X175844969Y-70390167D01*
X175398688Y-69943887D01*
X175435000Y-69761335D01*
X175435000Y-69478665D01*
X175379853Y-69201426D01*
X175271680Y-68940273D01*
X175114637Y-68705241D01*
X174914759Y-68505363D01*
X174682241Y-68350000D01*
X174914759Y-68194637D01*
X175114637Y-67994759D01*
X175271680Y-67759727D01*
X175379853Y-67498574D01*
X175435000Y-67221335D01*
X175435000Y-66938665D01*
X175379853Y-66661426D01*
X175271680Y-66400273D01*
X175114637Y-66165241D01*
X174914759Y-65965363D01*
X174682241Y-65810000D01*
X174914759Y-65654637D01*
X175114637Y-65454759D01*
X175271680Y-65219727D01*
X175379853Y-64958574D01*
X175435000Y-64681335D01*
X175435000Y-64398665D01*
X175379853Y-64121426D01*
X175271680Y-63860273D01*
X175114637Y-63625241D01*
X174916039Y-63426643D01*
X174924482Y-63425812D01*
X175044180Y-63389502D01*
X175154494Y-63330537D01*
X175251185Y-63251185D01*
X175330537Y-63154494D01*
X175389502Y-63044180D01*
X175425812Y-62924482D01*
X175438072Y-62800000D01*
X175438072Y-62654326D01*
X175474276Y-62634974D01*
X175590001Y-62540001D01*
X175613804Y-62510997D01*
X179189862Y-58934940D01*
X180050001Y-58934940D01*
X180050001Y-60940605D01*
X180050001Y-60940605D01*
G37*
X180050001Y-60940605D02*
X179994759Y-60885363D01*
X179759727Y-60728320D01*
X179498574Y-60620147D01*
X179221335Y-60565000D01*
X178938665Y-60565000D01*
X178661426Y-60620147D01*
X178400273Y-60728320D01*
X178165241Y-60885363D01*
X177965363Y-61085241D01*
X177808320Y-61320273D01*
X177700147Y-61581426D01*
X177645000Y-61858665D01*
X177645000Y-62141335D01*
X177681312Y-62323886D01*
X176093967Y-63911232D01*
X176064969Y-63935030D01*
X176041171Y-63964028D01*
X176041170Y-63964029D01*
X175969995Y-64050755D01*
X175899423Y-64182785D01*
X175883804Y-64234276D01*
X175855967Y-64326045D01*
X175844970Y-64437698D01*
X175841293Y-64475031D01*
X175844970Y-64512363D01*
X175844969Y-70390167D01*
X175398688Y-69943887D01*
X175435000Y-69761335D01*
X175435000Y-69478665D01*
X175379853Y-69201426D01*
X175271680Y-68940273D01*
X175114637Y-68705241D01*
X174914759Y-68505363D01*
X174682241Y-68350000D01*
X174914759Y-68194637D01*
X175114637Y-67994759D01*
X175271680Y-67759727D01*
X175379853Y-67498574D01*
X175435000Y-67221335D01*
X175435000Y-66938665D01*
X175379853Y-66661426D01*
X175271680Y-66400273D01*
X175114637Y-66165241D01*
X174914759Y-65965363D01*
X174682241Y-65810000D01*
X174914759Y-65654637D01*
X175114637Y-65454759D01*
X175271680Y-65219727D01*
X175379853Y-64958574D01*
X175435000Y-64681335D01*
X175435000Y-64398665D01*
X175379853Y-64121426D01*
X175271680Y-63860273D01*
X175114637Y-63625241D01*
X174916039Y-63426643D01*
X174924482Y-63425812D01*
X175044180Y-63389502D01*
X175154494Y-63330537D01*
X175251185Y-63251185D01*
X175330537Y-63154494D01*
X175389502Y-63044180D01*
X175425812Y-62924482D01*
X175438072Y-62800000D01*
X175438072Y-62654326D01*
X175474276Y-62634974D01*
X175590001Y-62540001D01*
X175613804Y-62510997D01*
X179189862Y-58934940D01*
X180050001Y-58934940D01*
X180050001Y-60940605D01*
G36*
X210165241Y-60885363D02*
G01*
X209965363Y-61085241D01*
X209808320Y-61320273D01*
X209700147Y-61581426D01*
X209645000Y-61858665D01*
X209645000Y-62141335D01*
X209700147Y-62418574D01*
X209808320Y-62679727D01*
X209965363Y-62914759D01*
X210165241Y-63114637D01*
X210397759Y-63270000D01*
X210165241Y-63425363D01*
X209965363Y-63625241D01*
X209879118Y-63754316D01*
X208124801Y-62000000D01*
X209389822Y-60734980D01*
X210390306Y-60734980D01*
X210165241Y-60885363D01*
X210165241Y-60885363D01*
G37*
X210165241Y-60885363D02*
X209965363Y-61085241D01*
X209808320Y-61320273D01*
X209700147Y-61581426D01*
X209645000Y-61858665D01*
X209645000Y-62141335D01*
X209700147Y-62418574D01*
X209808320Y-62679727D01*
X209965363Y-62914759D01*
X210165241Y-63114637D01*
X210397759Y-63270000D01*
X210165241Y-63425363D01*
X209965363Y-63625241D01*
X209879118Y-63754316D01*
X208124801Y-62000000D01*
X209389822Y-60734980D01*
X210390306Y-60734980D01*
X210165241Y-60885363D01*
G36*
X183237563Y-60737636D02*
G01*
X183154494Y-60669463D01*
X183044180Y-60610498D01*
X182924482Y-60574188D01*
X182800000Y-60561928D01*
X181570000Y-60561928D01*
X181570000Y-58934940D01*
X185040258Y-58934940D01*
X183237563Y-60737636D01*
X183237563Y-60737636D01*
G37*
X183237563Y-60737636D02*
X183154494Y-60669463D01*
X183044180Y-60610498D01*
X182924482Y-60574188D01*
X182800000Y-60561928D01*
X181570000Y-60561928D01*
X181570000Y-58934940D01*
X185040258Y-58934940D01*
X183237563Y-60737636D01*
M02*
